<svg width="1310" height="606" viewBox="0 0 1310 606" fill="none" xmlns="http://www.w3.org/2000/svg">
<mask id="mask0" mask-type="alpha" maskUnits="userSpaceOnUse" x="0" y="0" width="1310" height="606">
<rect width="1310" height="605.905" fill="#C4C4C4"/>
</mask>
<g mask="url(#mask0)">
<path d="M95.2656 431.527C101.206 428.459 110.177 423.844 110.177 413.66C110.177 403.477 101.206 398.847 95.2656 395.792C93.0693 394.668 89.0076 392.579 88.5577 391.468L88.5577 391.322C89.0208 390.198 93.0826 388.095 95.2789 386.971C101.219 383.916 110.19 379.3 110.19 369.103C110.19 358.907 101.219 354.305 95.2789 351.236C93.0826 350.112 89.0208 348.023 88.571 346.912L88.571 346.766C89.0341 345.642 93.0958 343.552 95.2921 342.428C101.233 339.36 110.203 334.744 110.203 324.547L95.0671 324.614C94.6041 325.738 90.5423 327.841 88.346 328.965C82.4054 332.02 73.435 336.649 73.435 346.832C73.435 357.016 82.4054 361.645 88.346 364.7C90.5423 365.824 94.604 367.914 95.0539 369.025L95.0539 369.17C94.5908 370.294 90.5291 372.397 88.3328 373.521C82.3922 376.576 73.4217 381.192 73.4217 391.388C73.4217 401.585 82.3922 406.188 88.346 409.256C90.5291 410.38 94.5908 412.47 95.0406 413.581L95.0406 413.713C94.5776 414.851 90.5158 416.94 88.3195 418.064C82.3789 421.119 73.4085 425.748 73.4085 435.931L88.5445 435.866C89.0076 434.741 93.0693 432.651 95.2656 431.527Z" fill="white" fill-opacity="0.03"/>
<path d="M5.37451 605.574L2.22544 567.313L-28.8004 568.966L-31.3539 538.018L-62.3665 539.659L-64.3246 516.038L-79.421 517.281L-76.2455 555.556L-45.2328 553.915L-42.6794 584.85L-11.6668 583.21L-9.72191 606.83L5.37451 605.574Z" fill="white" fill-opacity="0.03"/>
<path d="M204.343 195.118L193.63 184.41L173.357 204.676L184.069 215.384L204.343 195.118Z" fill="white" fill-opacity="0.03"/>
<path d="M235.686 164.003L224.975 153.296L204.701 173.561L215.413 184.268L235.686 164.003Z" fill="white" fill-opacity="0.03"/>
<path d="M235.325 204.673L215.055 184.412L204.338 173.7L184.069 153.439L173.365 164.151L193.635 184.412L204.338 195.111L224.608 215.372L235.325 204.673Z" fill="white" fill-opacity="0.03"/>
<path d="M313.014 -12.2362C312.993 -32.0195 305.122 -50.9866 291.128 -64.9755C277.133 -78.9644 258.158 -86.8325 238.367 -86.8535C236.413 -86.7719 234.566 -85.9385 233.212 -84.5275C231.858 -83.1165 231.102 -81.2369 231.102 -79.2819C231.102 -77.3268 231.858 -75.4473 233.212 -74.0363C234.566 -72.6253 236.413 -71.7919 238.367 -71.7102C253.771 -71.1477 268.356 -64.6356 279.055 -53.5434C289.753 -42.4513 295.731 -27.6441 295.731 -12.2362C295.731 3.17174 289.753 17.979 279.055 29.0711C268.356 40.1632 253.771 46.676 238.367 47.2385C236.36 47.2385 234.435 48.0355 233.016 49.4542C231.596 50.8729 230.799 52.7967 230.799 54.8031C230.799 56.8094 231.596 58.7339 233.016 60.1526C234.435 61.5713 236.36 62.3683 238.367 62.3683C258.156 62.3473 277.129 54.4808 291.123 40.4948C305.117 26.5087 312.99 7.54487 313.014 -12.2362Z" fill="white" fill-opacity="0.03"/>
<path d="M343.947 439.463L342.307 408.463L373.253 405.897L371.613 374.897L395.243 372.94L393.999 357.849L355.723 361.024L357.363 392.024L329.235 394.352L329.235 440.681L343.947 439.463Z" fill="white" fill-opacity="0.03"/>
<path d="M667.784 524.247L657.071 513.539L636.798 533.805L647.51 544.513L667.784 524.247Z" fill="white" fill-opacity="0.03"/>
<path d="M698.744 493.292L688.032 482.584L667.759 502.849L678.471 513.557L698.744 493.292Z" fill="white" fill-opacity="0.03"/>
<path d="M698.398 533.985L678.129 513.724L667.412 503.011L647.142 482.75L636.439 493.462L656.708 513.724L667.412 524.423L687.681 544.684L698.398 533.985Z" fill="white" fill-opacity="0.03"/>
<path d="M776.088 317.075C776.067 297.292 768.196 278.325 754.201 264.336C740.206 250.347 721.232 242.479 701.44 242.458C699.486 242.54 697.639 243.373 696.286 244.784C694.932 246.195 694.176 248.075 694.176 250.03C694.176 251.985 694.932 253.864 696.286 255.275C697.639 256.686 699.486 257.52 701.44 257.602C716.844 258.164 731.43 264.676 742.128 275.768C752.827 286.86 758.805 301.668 758.805 317.075C758.805 332.483 752.827 347.291 742.128 358.383C731.43 369.475 716.844 375.988 701.44 376.55C699.433 376.55 697.508 377.347 696.089 378.766C694.67 380.184 693.873 382.108 693.873 384.115C693.873 386.121 694.67 388.045 696.089 389.464C697.508 390.883 699.433 391.68 701.44 391.68C721.229 391.659 740.202 383.792 754.196 369.806C768.191 355.82 776.063 336.856 776.088 317.075Z" fill="white" fill-opacity="0.03"/>
<path d="M846.715 586.265L845.075 555.265L876.021 552.699L874.381 521.699L898.011 519.742L896.767 504.651L858.491 507.826L860.118 538.826L832.003 541.153L832.003 587.482L846.715 586.265Z" fill="white" fill-opacity="0.03"/>
<path d="M1278.85 463.877C1278.83 444.094 1270.96 425.127 1256.97 411.138C1242.97 397.149 1224 389.281 1204.21 389.26C1202.25 389.342 1200.41 390.175 1199.05 391.586C1197.7 392.997 1196.94 394.877 1196.94 396.832C1196.94 398.787 1197.7 400.666 1199.05 402.077C1200.41 403.488 1202.25 404.322 1204.21 404.403C1219.61 404.966 1234.2 411.478 1244.89 422.57C1255.59 433.662 1261.57 448.469 1261.57 463.877C1261.57 479.285 1255.59 494.092 1244.89 505.184C1234.2 516.277 1219.61 522.789 1204.21 523.352C1202.2 523.352 1200.27 524.149 1198.86 525.567C1197.44 526.986 1196.64 528.91 1196.64 530.916C1196.64 532.923 1197.44 534.847 1198.86 536.266C1200.27 537.685 1202.2 538.482 1204.21 538.482C1224 538.461 1242.97 530.594 1256.96 516.608C1270.96 502.622 1278.83 483.658 1278.85 463.877Z" fill="white" fill-opacity="0.03"/>
<path d="M1231.78 200.587C1235.66 206.617 1241.04 214.871 1252.06 214.871L1252.06 199.727C1249.63 199.727 1248.09 197.995 1244.51 192.387C1240.63 186.357 1235.31 178.104 1224.21 178.104C1213.11 178.104 1207.81 186.357 1203.93 192.387C1200.32 197.995 1198.81 199.727 1196.36 199.727C1193.91 199.727 1192.39 197.995 1188.81 192.387C1184.92 186.357 1179.55 178.104 1168.51 178.104C1157.48 178.104 1152.09 186.357 1148.21 192.387C1144.6 197.995 1143.09 199.727 1140.65 199.727L1140.65 214.871C1151.75 214.871 1157.07 206.617 1160.94 200.587C1164.55 194.992 1166.06 193.247 1168.51 193.247C1170.96 193.247 1172.48 194.992 1176.07 200.587C1179.96 206.617 1185.33 214.871 1196.36 214.871C1207.4 214.871 1212.78 206.617 1216.66 200.587C1220.26 194.992 1221.78 193.247 1224.21 193.247C1226.65 193.247 1228.18 194.992 1231.78 200.587Z" fill="white" fill-opacity="0.03"/>
</g>
</svg>
