<svg width="1280" height="647" viewBox="0 0 1280 647" fill="none" xmlns="http://www.w3.org/2000/svg">
<path d="M1100.63 452.337C1098.32 447.569 1094.84 440.358 1087.16 440.358C1079.49 440.358 1076 447.569 1073.7 452.337C1072.85 454.089 1071.28 457.36 1070.44 457.722H1070.37C1069.52 457.36 1067.94 454.089 1067.09 452.337C1064.79 447.569 1061.31 440.358 1053.62 440.358C1045.94 440.358 1042.47 447.569 1040.16 452.337C1039.31 454.089 1037.73 457.36 1036.9 457.722H1036.79C1035.94 457.36 1034.37 454.089 1033.52 452.337C1031.21 447.569 1027.73 440.358 1020.04 440.358L1020.09 452.518C1020.95 452.879 1022.52 456.15 1023.37 457.902C1025.67 462.67 1029.16 469.881 1036.84 469.881C1044.51 469.881 1048 462.67 1050.3 457.902C1051.15 456.15 1052.74 452.879 1053.56 452.518H1053.67C1054.52 452.879 1056.1 456.15 1056.95 457.902C1059.25 462.67 1062.74 469.881 1070.42 469.881C1078.09 469.881 1081.57 462.67 1083.88 457.902C1084.73 456.15 1086.31 452.89 1087.14 452.518H1087.24C1088.1 452.89 1089.68 456.15 1090.52 457.902C1092.83 462.67 1096.31 469.881 1103.99 469.881V457.722C1103.14 457.36 1101.57 454.089 1100.72 452.337" fill="#454D70" fill-opacity="0.2"/>
<path d="M1231.81 524.478L1202.98 527.016L1204.21 551.909L1180.89 553.969L1182.12 578.862L1164.32 580.434L1165.26 592.54L1194.11 590.002L1192.87 565.109L1216.19 563.049L1214.95 538.156L1232.75 536.595L1231.81 524.478Z" fill="#454D70" fill-opacity="0.2"/>
<path d="M1272.79 371.87H1261.38V394.883H1272.79V371.87Z" fill="#454D70" fill-opacity="0.2"/>
<path d="M1272.79 336.696H1261.38V359.71H1272.79V336.696Z" fill="#454D70" fill-opacity="0.2"/>
<path d="M1261.38 359.709H1239.78V371.869H1261.38H1272.78H1294.38V359.709H1272.78H1261.38Z" fill="#454D70" fill-opacity="0.2"/>
<path d="M858.417 624.421L835.053 625.738L833.119 600.898L809.755 602.205L808.28 583.237L796.907 584.246L799.299 614.97L822.663 613.653L824.417 636.231H859.334L858.417 624.421Z" fill="#454D70" fill-opacity="0.2"/>
<path d="M922.45 364.781L914.38 373.379L929.653 389.652L937.723 381.054L922.45 364.781Z" fill="#454D70" fill-opacity="0.2"/>
<path d="M899.002 339.508L890.932 348.106L906.206 364.38L914.275 355.781L899.002 339.508Z" fill="#454D70" fill-opacity="0.2"/>
<path d="M929.656 339.915L914.385 356.184L906.312 364.776L891.042 381.045L899.115 389.647L914.385 373.378L922.449 364.776L937.72 348.506L929.656 339.915Z" fill="#454D70" fill-opacity="0.2"/>
<path d="M766.176 277.555C751.266 277.572 736.971 283.89 726.428 295.123C715.885 306.356 709.955 321.586 709.939 337.472C710.001 339.041 710.629 340.523 711.692 341.61C712.755 342.696 714.172 343.303 715.646 343.303C717.119 343.303 718.536 342.696 719.599 341.61C720.662 340.523 721.29 339.041 721.352 337.472C721.776 325.108 726.684 313.401 735.044 304.813C743.404 296.226 754.563 291.427 766.176 291.427C777.788 291.427 788.949 296.226 797.309 304.813C805.668 313.401 810.576 325.108 811 337.472C811 338.27 811.148 339.06 811.435 339.797C811.721 340.534 812.141 341.203 812.67 341.767C813.2 342.332 813.828 342.779 814.52 343.084C815.212 343.39 815.953 343.547 816.702 343.547C817.45 343.547 818.192 343.39 818.883 343.084C819.575 342.779 820.204 342.332 820.733 341.767C821.263 341.203 821.683 340.534 821.969 339.797C822.256 339.06 822.403 338.27 822.403 337.472C822.387 321.588 816.459 306.359 805.918 295.126C795.377 283.894 781.084 277.574 766.176 277.555Z" fill="#454D70" fill-opacity="0.2"/>
<path d="M1348.82 80.6399C1346.51 75.8716 1343.03 68.6606 1335.36 68.6606C1327.68 68.6606 1324.19 75.8716 1321.89 80.6399C1321.04 82.3922 1319.47 85.6632 1318.63 86.0243H1318.56C1317.71 85.6632 1316.13 82.3922 1315.28 80.6399C1312.98 75.8716 1309.5 68.6606 1301.82 68.6606C1294.13 68.6606 1290.66 75.8716 1288.35 80.6399C1287.5 82.3922 1285.93 85.6632 1285.09 86.0243H1284.98C1284.13 85.6632 1282.56 82.3922 1281.71 80.6399C1279.4 75.8716 1275.92 68.6606 1268.23 68.6606L1268.28 80.8206C1269.14 81.1817 1270.72 84.4525 1271.56 86.2047C1273.87 90.9731 1277.36 98.184 1285.03 98.184C1292.71 98.184 1296.19 90.9731 1298.5 86.2047C1299.34 84.4525 1300.93 81.1817 1301.76 80.8206H1301.87C1302.71 81.1817 1304.3 84.4525 1305.14 86.2047C1307.45 90.9731 1310.94 98.184 1318.61 98.184C1326.29 98.184 1329.76 90.9731 1332.08 86.2047C1332.92 84.4525 1334.5 81.1923 1335.34 80.8206H1335.44C1336.29 81.1923 1337.87 84.4525 1338.72 86.2047C1341.02 90.9731 1344.51 98.184 1352.18 98.184V86.0243C1351.33 85.6632 1349.76 82.3922 1348.91 80.6399" fill="#454D70" fill-opacity="0.2"/>
<path d="M1106.61 252.725L1083.25 254.041L1081.31 229.202L1057.95 230.508L1056.47 211.541L1045.1 212.549L1047.49 243.273L1070.86 241.956L1072.61 264.534H1107.53L1106.61 252.725Z" fill="#454D70" fill-opacity="0.2"/>
<path d="M1170.65 -6.91184L1162.58 1.68604L1177.85 17.9585L1185.92 9.36066L1170.65 -6.91184Z" fill="#454D70" fill-opacity="0.2"/>
<path d="M1177.85 -31.7817L1162.58 -15.5122L1154.5 -6.92066L1139.23 9.34909L1147.31 17.9511L1162.58 1.68156L1170.64 -6.92066L1185.91 -23.1904L1177.85 -31.7817Z" fill="#454D70" fill-opacity="0.2"/>
<path d="M972.426 93.384C976.971 90.2618 983.191 86.0034 983.191 77.0933H971.778C971.778 79.0579 970.472 80.2792 966.246 83.1572C961.701 86.2794 955.481 90.5909 955.481 99.4479C955.481 108.305 961.701 112.627 966.246 115.739C970.472 118.638 971.778 119.849 971.778 121.813C971.778 123.778 970.472 124.999 966.246 127.877C961.701 130.989 955.481 135.311 955.481 144.168C955.481 153.025 961.701 157.348 966.246 160.459C970.472 163.359 971.778 164.569 971.778 166.534H983.191C983.191 157.624 976.971 153.355 972.426 150.243C968.21 147.344 966.894 146.133 966.894 144.168C966.894 142.204 968.21 140.982 972.426 138.094C976.971 134.982 983.191 130.66 983.191 121.813C983.191 112.967 976.971 108.634 972.426 105.523C968.21 102.624 966.894 101.413 966.894 99.4479C966.894 97.4833 968.21 96.262 972.426 93.384Z" fill="#454D70" fill-opacity="0.2"/>
<path d="M767.431 9.73096H756.019V32.7444H767.431V9.73096Z" fill="#454D70" fill-opacity="0.2"/>
<path d="M-31.0254 86.7143L-2.18898 84.1763L-3.42519 59.2833L19.8989 57.2231L18.6631 32.3299L36.4651 30.7582L35.5282 18.6516L6.68208 21.1896L7.9178 46.0826L-15.4062 48.1431L-14.1603 73.036L-31.9623 74.5971L-31.0254 86.7143Z" fill="#454D70" fill-opacity="0.2"/>
<path d="M342.37 -13.2299L365.734 -14.5467L367.669 10.2931L391.033 8.98685L392.508 27.9541L403.88 26.9453L401.488 -3.77828L378.124 -2.46143L376.37 -25.0393L341.454 -25.0393L342.37 -13.2299Z" fill="#454D70" fill-opacity="0.2"/>
<path d="M278.337 246.41L286.407 237.812L271.134 221.54L263.064 230.137L278.337 246.41Z" fill="#454D70" fill-opacity="0.2"/>
<path d="M301.785 271.683L309.855 263.085L294.582 246.812L286.512 255.41L301.785 271.683Z" fill="#454D70" fill-opacity="0.2"/>
<path d="M271.131 271.277L286.402 255.007L294.475 246.416L309.746 230.146L301.672 221.544L286.402 237.814L278.338 246.416L263.067 262.686L271.131 271.277Z" fill="#454D70" fill-opacity="0.2"/>
<path d="M30.1421 618.103L38.2119 609.505L22.9388 593.232L14.869 601.83L30.1421 618.103Z" fill="#454D70" fill-opacity="0.2"/>
<path d="M53.6201 643.364L61.6899 634.766L46.4166 618.493L38.3467 627.091L53.6201 643.364Z" fill="#454D70" fill-opacity="0.2"/>
<path d="M22.9388 642.974L38.209 626.704L46.2828 618.113L61.553 601.843L53.4791 593.241L38.209 609.51L30.1454 618.113L14.8747 634.382L22.9388 642.974Z" fill="#454D70" fill-opacity="0.2"/>
<path d="M474.331 448.852L503.167 446.314L501.931 421.421L525.255 419.361L524.02 394.468L541.822 392.896L540.885 380.79L512.039 383.328L513.274 408.221L489.95 410.281L491.196 435.174L473.394 436.735L474.331 448.852Z" fill="#454D70" fill-opacity="0.2"/>
</svg>
