<svg width="1280" height="1039" viewBox="0 0 1280 1039" fill="none" xmlns="http://www.w3.org/2000/svg">
<mask id="mask0" mask-type="alpha" maskUnits="userSpaceOnUse" x="0" y="0" width="1310" height="606">
<rect width="1310" height="605.905" fill="#C4C4C4"/>
</mask>
<g mask="url(#mask0)">
<path d="M95.2656 431.527C101.206 428.459 110.177 423.844 110.177 413.66C110.177 403.477 101.206 398.847 95.2656 395.792C93.0693 394.668 89.0076 392.579 88.5577 391.468L88.5577 391.322C89.0208 390.198 93.0826 388.095 95.2789 386.971C101.219 383.916 110.19 379.3 110.19 369.103C110.19 358.907 101.219 354.305 95.2789 351.236C93.0826 350.112 89.0208 348.023 88.571 346.912L88.571 346.766C89.0341 345.642 93.0958 343.552 95.2921 342.428C101.233 339.36 110.203 334.744 110.203 324.547L95.0671 324.614C94.6041 325.738 90.5423 327.841 88.346 328.965C82.4054 332.02 73.435 336.649 73.435 346.832C73.435 357.016 82.4054 361.645 88.346 364.7C90.5423 365.824 94.604 367.914 95.0539 369.025L95.0539 369.17C94.5908 370.294 90.5291 372.397 88.3328 373.521C82.3922 376.576 73.4217 381.192 73.4217 391.388C73.4217 401.585 82.3922 406.188 88.346 409.256C90.5291 410.38 94.5908 412.47 95.0406 413.581L95.0406 413.713C94.5776 414.851 90.5158 416.94 88.3195 418.064C82.3789 421.119 73.4085 425.748 73.4085 435.931L88.5445 435.866C89.0076 434.741 93.0693 432.651 95.2656 431.527Z" fill="#454D70" fill-opacity="0.26"/>
<path d="M5.37451 605.574L2.22544 567.313L-28.8004 568.966L-31.3539 538.018L-62.3665 539.659L-64.3246 516.038L-79.421 517.281L-76.2455 555.556L-45.2328 553.915L-42.6794 584.85L-11.6668 583.21L-9.72191 606.83L5.37451 605.574Z" fill="#454D70" fill-opacity="0.26"/>
<path d="M204.343 195.118L193.63 184.41L173.357 204.676L184.069 215.383L204.343 195.118Z" fill="#454D70" fill-opacity="0.26"/>
<path d="M235.686 164.003L224.975 153.296L204.701 173.561L215.413 184.268L235.686 164.003Z" fill="#454D70" fill-opacity="0.26"/>
<path d="M235.325 204.673L215.055 184.412L204.338 173.7L184.069 153.439L173.365 164.151L193.635 184.412L204.338 195.111L224.608 215.372L235.325 204.673Z" fill="#454D70" fill-opacity="0.26"/>
<path d="M313.014 -12.2363C312.993 -32.0196 305.122 -50.9867 291.128 -64.9756C277.133 -78.9646 258.158 -86.8326 238.367 -86.8536C236.413 -86.772 234.566 -85.9386 233.212 -84.5276C231.858 -83.1166 231.102 -81.237 231.102 -79.282C231.102 -77.327 231.858 -75.4474 233.212 -74.0364C234.566 -72.6254 236.413 -71.792 238.367 -71.7104C253.771 -71.1478 268.356 -64.6357 279.055 -53.5436C289.753 -42.4514 295.731 -27.6442 295.731 -12.2363C295.731 3.17162 289.753 17.9788 279.055 29.071C268.356 40.1631 253.771 46.6759 238.367 47.2384C236.36 47.2384 234.435 48.0353 233.016 49.454C231.596 50.8727 230.799 52.7966 230.799 54.8029C230.799 56.8093 231.596 58.7338 233.016 60.1525C234.435 61.5712 236.36 62.3681 238.367 62.3681C258.156 62.3471 277.129 54.4807 291.123 40.4946C305.117 26.5086 312.99 7.54475 313.014 -12.2363Z" fill="#454D70" fill-opacity="0.26"/>
<path d="M343.947 439.463L342.307 408.463L373.253 405.897L371.613 374.897L395.243 372.94L393.999 357.849L355.723 361.024L357.363 392.024L329.235 394.352L329.235 440.681L343.947 439.463Z" fill="#454D70" fill-opacity="0.26"/>
<path d="M667.784 524.247L657.071 513.539L636.798 533.804L647.51 544.512L667.784 524.247Z" fill="#454D70" fill-opacity="0.26"/>
<path d="M698.744 493.291L688.032 482.584L667.759 502.849L678.471 513.556L698.744 493.291Z" fill="#454D70" fill-opacity="0.26"/>
<path d="M698.398 533.985L678.129 513.724L667.412 503.011L647.142 482.75L636.439 493.462L656.708 513.724L667.412 524.423L687.681 544.684L698.398 533.985Z" fill="#454D70" fill-opacity="0.26"/>
<path d="M776.088 317.075C776.067 297.292 768.196 278.325 754.201 264.336C740.206 250.347 721.232 242.479 701.44 242.458C699.486 242.54 697.639 243.373 696.286 244.784C694.932 246.195 694.176 248.075 694.176 250.03C694.176 251.985 694.932 253.864 696.286 255.275C697.639 256.686 699.486 257.52 701.44 257.601C716.844 258.164 731.43 264.676 742.128 275.768C752.827 286.86 758.805 301.667 758.805 317.075C758.805 332.483 752.827 347.29 742.128 358.383C731.43 369.475 716.844 375.987 701.44 376.55C699.433 376.55 697.508 377.347 696.089 378.766C694.67 380.184 693.873 382.108 693.873 384.114C693.873 386.121 694.67 388.045 696.089 389.464C697.508 390.883 699.433 391.68 701.44 391.68C721.229 391.659 740.202 383.792 754.196 369.806C768.191 355.82 776.063 336.856 776.088 317.075Z" fill="#454D70" fill-opacity="0.26"/>
<path d="M846.715 586.265L845.075 555.265L876.021 552.699L874.381 521.699L898.011 519.741L896.767 504.651L858.491 507.826L860.118 538.826L832.003 541.153L832.003 587.482L846.715 586.265Z" fill="#454D70" fill-opacity="0.26"/>
<path d="M1278.85 463.877C1278.83 444.094 1270.96 425.127 1256.97 411.138C1242.97 397.149 1224 389.281 1204.21 389.26C1202.25 389.342 1200.41 390.175 1199.05 391.586C1197.7 392.997 1196.94 394.877 1196.94 396.832C1196.94 398.787 1197.7 400.666 1199.05 402.077C1200.41 403.488 1202.25 404.322 1204.21 404.403C1219.61 404.966 1234.2 411.478 1244.89 422.57C1255.59 433.662 1261.57 448.469 1261.57 463.877C1261.57 479.285 1255.59 494.092 1244.89 505.184C1234.2 516.277 1219.61 522.789 1204.21 523.352C1202.2 523.352 1200.27 524.149 1198.86 525.567C1197.44 526.986 1196.64 528.91 1196.64 530.916C1196.64 532.923 1197.44 534.847 1198.86 536.266C1200.27 537.685 1202.2 538.482 1204.21 538.482C1224 538.461 1242.97 530.594 1256.96 516.608C1270.96 502.622 1278.83 483.658 1278.85 463.877Z" fill="#454D70" fill-opacity="0.26"/>
<path d="M1231.78 200.586C1235.66 206.617 1241.04 214.87 1252.06 214.87L1252.06 199.727C1249.63 199.727 1248.09 197.995 1244.51 192.387C1240.63 186.356 1235.31 178.103 1224.21 178.103C1213.11 178.103 1207.81 186.356 1203.93 192.387C1200.32 197.995 1198.81 199.727 1196.36 199.727C1193.91 199.727 1192.39 197.995 1188.81 192.387C1184.92 186.356 1179.55 178.103 1168.51 178.103C1157.48 178.103 1152.09 186.356 1148.21 192.387C1144.6 197.995 1143.09 199.727 1140.65 199.727L1140.65 214.87C1151.75 214.87 1157.07 206.617 1160.94 200.586C1164.55 194.992 1166.06 193.247 1168.51 193.247C1170.96 193.247 1172.48 194.992 1176.07 200.586C1179.96 206.617 1185.33 214.87 1196.36 214.87C1207.4 214.87 1212.78 206.617 1216.66 200.586C1220.26 194.992 1221.78 193.247 1224.21 193.247C1226.65 193.247 1228.18 194.992 1231.78 200.586Z" fill="#454D70" fill-opacity="0.26"/>
</g>
<mask id="mask1" mask-type="alpha" maskUnits="userSpaceOnUse" x="71" y="433" width="1310" height="606">
<rect x="71" y="433" width="1310" height="605.905" fill="#C4C4C4"/>
</mask>
<g mask="url(#mask1)">
<path d="M166.266 864.527C172.206 861.459 181.177 856.844 181.177 846.66C181.177 836.477 172.206 831.847 166.266 828.792C164.069 827.668 160.008 825.579 159.558 824.468L159.558 824.322C160.021 823.198 164.083 821.095 166.279 819.971C172.219 816.916 181.19 812.3 181.19 802.103C181.19 791.907 172.219 787.305 166.279 784.236C164.083 783.112 160.021 781.023 159.571 779.912L159.571 779.766C160.034 778.642 164.096 776.552 166.292 775.428C172.233 772.36 181.203 767.744 181.203 757.547L166.067 757.614C165.604 758.738 161.542 760.841 159.346 761.965C153.405 765.02 144.435 769.649 144.435 779.832C144.435 790.016 153.405 794.645 159.346 797.7C161.542 798.824 165.604 800.914 166.054 802.025L166.054 802.17C165.591 803.294 161.529 805.397 159.333 806.521C153.392 809.576 144.422 814.192 144.422 824.388C144.422 834.585 153.392 839.188 159.346 842.256C161.529 843.38 165.591 845.47 166.041 846.581L166.041 846.713C165.578 847.851 161.516 849.94 159.32 851.064C153.379 854.119 144.409 858.748 144.408 868.931L159.544 868.866C160.008 867.741 164.069 865.651 166.266 864.527Z" fill="#454D70" fill-opacity="0.26"/>
<path d="M76.3745 1038.57L73.2254 1000.31L42.1996 1001.97L39.6461 971.018L8.63348 972.659L6.67537 949.038L-8.42104 950.281L-5.24549 988.556L25.7672 986.915L28.3206 1017.85L59.3332 1016.21L61.2781 1039.83L76.3745 1038.57Z" fill="#454D70" fill-opacity="0.26"/>
<path d="M275.343 628.118L264.63 617.41L244.357 637.676L255.069 648.384L275.343 628.118Z" fill="#454D70" fill-opacity="0.26"/>
<path d="M306.686 597.003L295.975 586.296L275.701 606.561L286.413 617.268L306.686 597.003Z" fill="#454D70" fill-opacity="0.26"/>
<path d="M306.325 637.673L286.055 617.412L275.338 606.7L255.069 586.439L244.365 597.151L264.635 617.412L275.338 628.111L295.608 648.372L306.325 637.673Z" fill="#454D70" fill-opacity="0.26"/>
<path d="M384.014 420.764C383.993 400.98 376.122 382.013 362.128 368.024C348.133 354.036 329.158 346.167 309.367 346.146C307.413 346.228 305.566 347.062 304.212 348.473C302.858 349.884 302.102 351.763 302.102 353.718C302.102 355.673 302.858 357.553 304.212 358.964C305.566 360.375 307.413 361.208 309.367 361.29C324.771 361.852 339.356 368.364 350.055 379.457C360.753 390.549 366.731 405.356 366.731 420.764C366.731 436.172 360.753 450.979 350.055 462.071C339.356 473.163 324.771 479.676 309.367 480.239C307.36 480.239 305.435 481.035 304.016 482.454C302.596 483.873 301.799 485.797 301.799 487.803C301.799 489.809 302.596 491.734 304.016 493.153C305.435 494.571 307.36 495.368 309.367 495.368C329.156 495.347 348.129 487.481 362.123 473.495C376.117 459.509 383.99 440.545 384.014 420.764Z" fill="#454D70" fill-opacity="0.26"/>
<path d="M414.947 872.463L413.307 841.463L444.253 838.897L442.613 807.897L466.243 805.94L464.999 790.849L426.723 794.024L428.363 825.024L400.235 827.352L400.235 873.681L414.947 872.463Z" fill="#454D70" fill-opacity="0.26"/>
<path d="M738.784 957.247L728.071 946.539L707.798 966.805L718.51 977.513L738.784 957.247Z" fill="#454D70" fill-opacity="0.26"/>
<path d="M769.744 926.292L759.032 915.584L738.759 935.849L749.471 946.557L769.744 926.292Z" fill="#454D70" fill-opacity="0.26"/>
<path d="M769.398 966.985L749.129 946.724L738.412 936.011L718.142 915.75L707.439 926.462L727.708 946.724L738.412 957.423L758.681 977.684L769.398 966.985Z" fill="#454D70" fill-opacity="0.26"/>
<path d="M847.088 750.075C847.067 730.292 839.196 711.325 825.201 697.336C811.206 683.347 792.232 675.479 772.44 675.458C770.486 675.54 768.639 676.373 767.286 677.784C765.932 679.195 765.176 681.075 765.176 683.03C765.176 684.985 765.932 686.864 767.286 688.275C768.639 689.686 770.486 690.52 772.44 690.602C787.844 691.164 802.43 697.676 813.128 708.768C823.827 719.86 829.805 734.668 829.805 750.075C829.805 765.483 823.827 780.291 813.128 791.383C802.43 802.475 787.844 808.988 772.44 809.55C770.433 809.55 768.508 810.347 767.089 811.766C765.67 813.184 764.873 815.108 764.873 817.115C764.873 819.121 765.67 821.045 767.089 822.464C768.508 823.883 770.433 824.68 772.44 824.68C792.229 824.659 811.202 816.792 825.196 802.806C839.191 788.82 847.063 769.856 847.088 750.075Z" fill="#454D70" fill-opacity="0.26"/>
<path d="M917.715 1019.26L916.075 988.265L947.021 985.699L945.381 954.699L969.011 952.742L967.767 937.651L929.491 940.826L931.118 971.826L903.003 974.153L903.003 1020.48L917.715 1019.26Z" fill="#454D70" fill-opacity="0.26"/>
<path d="M1349.85 896.877C1349.83 877.094 1341.96 858.127 1327.97 844.138C1313.97 830.149 1295 822.281 1275.21 822.26C1273.25 822.342 1271.41 823.175 1270.05 824.586C1268.7 825.997 1267.94 827.877 1267.94 829.832C1267.94 831.787 1268.7 833.666 1270.05 835.077C1271.41 836.488 1273.25 837.322 1275.21 837.403C1290.61 837.966 1305.2 844.478 1315.89 855.57C1326.59 866.662 1332.57 881.469 1332.57 896.877C1332.57 912.285 1326.59 927.092 1315.89 938.184C1305.2 949.277 1290.61 955.789 1275.21 956.352C1273.2 956.352 1271.27 957.149 1269.86 958.567C1268.44 959.986 1267.64 961.91 1267.64 963.916C1267.64 965.923 1268.44 967.847 1269.86 969.266C1271.27 970.685 1273.2 971.482 1275.21 971.482C1295 971.461 1313.97 963.594 1327.96 949.608C1341.96 935.622 1349.83 916.658 1349.85 896.877Z" fill="#454D70" fill-opacity="0.26"/>
<path d="M1302.78 633.587C1306.66 639.617 1312.04 647.871 1323.06 647.871L1323.06 632.727C1320.63 632.727 1319.09 630.995 1315.51 625.387C1311.63 619.357 1306.31 611.104 1295.21 611.104C1284.11 611.104 1278.81 619.357 1274.93 625.387C1271.32 630.995 1269.81 632.727 1267.36 632.727C1264.91 632.727 1263.39 630.995 1259.81 625.387C1255.92 619.357 1250.55 611.104 1239.51 611.104C1228.48 611.104 1223.09 619.357 1219.21 625.387C1215.6 630.995 1214.09 632.727 1211.65 632.727L1211.65 647.871C1222.75 647.871 1228.07 639.617 1231.94 633.587C1235.55 627.992 1237.06 626.247 1239.51 626.247C1241.96 626.247 1243.48 627.992 1247.07 633.587C1250.96 639.617 1256.33 647.871 1267.36 647.871C1278.4 647.871 1283.78 639.617 1287.66 633.587C1291.26 627.992 1292.78 626.247 1295.21 626.247C1297.65 626.247 1299.18 627.992 1302.78 633.587Z" fill="#454D70" fill-opacity="0.26"/>
</g>
</svg>
