<svg width="140" height="30" viewBox="0 0 140 30" fill="none" xmlns="http://www.w3.org/2000/svg">
<g clip-path="url(#clip0)">
<path d="M11.695 6.47221C11.3058 5.99108 10.7918 5.62631 10.2092 5.41781C9.62796 5.19527 9.01071 5.08163 8.38832 5.08257C8.04987 5.08923 7.71233 5.11992 7.37823 5.17442C7.02683 5.25972 6.6875 5.38869 6.36814 5.55833C6.05146 5.70083 5.78448 5.9346 5.6014 6.22973C5.40574 6.52972 5.30554 6.88196 5.31398 7.24004C5.30153 7.52118 5.36104 7.80083 5.48686 8.05253C5.61268 8.30423 5.80065 8.51964 6.03298 8.67836C6.57891 9.05086 7.17626 9.34171 7.80614 9.54172C8.52483 9.78113 9.29158 10.0208 10.1064 10.2609C10.9131 10.4982 11.6861 10.8377 12.4066 11.2712C13.1203 11.7053 13.7264 12.2953 14.1798 12.997C14.6983 13.8638 14.9485 14.8647 14.8988 15.8736C14.9296 16.9151 14.7161 17.9494 14.2753 18.8935C13.8649 19.7303 13.2759 20.4668 12.5499 21.051C11.8027 21.6443 10.9363 22.0694 10.01 22.2974C9.00955 22.5682 7.97927 22.7132 6.94298 22.729C5.67223 22.7455 4.40896 22.5323 3.21392 22.0999C2.02615 21.6577 0.934882 20.9903 0 20.1344L3.25891 16.5873C3.72314 17.2048 4.33207 17.6988 5.03207 18.0256C5.71835 18.363 6.47124 18.5431 7.2359 18.5528C7.60806 18.5551 7.97879 18.5066 8.33781 18.4086C8.68762 18.3182 9.02638 18.1895 9.3479 18.0247C9.63126 17.8528 9.87604 17.6242 10.0669 17.3533C10.2615 17.072 10.3621 16.7363 10.3543 16.3944C10.3621 16.1072 10.3008 15.8224 10.1757 15.5638C10.0506 15.3052 9.86527 15.0804 9.63532 14.9083C9.09112 14.4915 8.4725 14.1823 7.81257 13.9972C7.09357 13.7575 6.32682 13.47 5.46366 13.2303C4.64145 12.9933 3.8523 12.6538 3.11474 12.22C2.39945 11.791 1.77972 11.2199 1.29383 10.5419C0.782003 9.70948 0.531547 8.74263 0.574832 7.76632C0.554025 6.7936 0.764838 5.82988 1.18986 4.95472C1.61489 4.07957 2.24194 3.31808 3.01924 2.73314C3.71242 2.04819 4.56996 1.55291 5.50957 1.29482C6.474 1.00377 7.47646 0.858278 8.48382 0.863142C9.63561 0.854237 10.7824 1.0158 11.8869 1.34258C12.9823 1.69131 13.994 2.26259 14.8584 3.02062L11.695 6.47221Z" fill="#EEE9FF"/>
<path d="M25.8811 11.4065H21.9996V16.1522C21.9893 16.5044 22.0053 16.8568 22.0473 17.2066C22.0848 17.4889 22.1656 17.7637 22.287 18.0213C22.4221 18.2684 22.6444 18.4563 22.9105 18.5485C23.2589 18.694 23.6354 18.7596 24.0124 18.7404C24.3175 18.7263 24.6216 18.6956 24.9233 18.6486C25.2403 18.6358 25.544 18.5179 25.7865 18.3133V21.9569C25.2941 22.1416 24.7776 22.2546 24.253 22.2921C23.7259 22.3399 23.1989 22.384 22.7195 22.384C22.0259 22.3808 21.3348 22.3004 20.6589 22.1442C20.0644 22.0189 19.5068 21.7576 19.0299 21.381C18.5529 21.0368 18.1733 20.5748 17.928 20.04C17.6629 19.4193 17.532 18.7495 17.5442 18.0745V11.4065H14.7141V7.90715H17.6379V3.69141H21.9996V7.90991H25.882L25.8811 11.4065Z" fill="#EEE9FF"/>
<path d="M27.2239 3.40363C27.2169 3.06325 27.2816 2.7252 27.4137 2.41143C27.5458 2.09766 27.7423 1.81518 27.9906 1.58231C28.2274 1.33876 28.5107 1.14529 28.8236 1.01339C29.1366 0.881485 29.4729 0.813841 29.8125 0.814475C30.1528 0.807496 30.4908 0.872166 30.8045 1.00429C31.1182 1.13641 31.4006 1.33303 31.6334 1.58139C31.8766 1.81816 32.0698 2.10138 32.2015 2.41424C32.3332 2.7271 32.4008 3.06324 32.4001 3.40271C32.4068 3.74307 32.3418 4.08103 32.2093 4.39464C32.0769 4.70825 31.8801 4.99051 31.6316 5.22311C31.3948 5.46638 31.1117 5.65962 30.7989 5.79136C30.4861 5.9231 30.15 5.99066 29.8106 5.99003C29.4705 5.99688 29.1327 5.93214 28.8192 5.80002C28.5056 5.66791 28.2234 5.47135 27.9906 5.22311C27.5076 4.73987 27.2324 4.08694 27.2239 3.40363Z" fill="#EEE9FF"/>
<path d="M43.2794 12.4642C43.0576 12.1247 42.7408 11.8579 42.3685 11.6973C41.9809 11.5065 41.5544 11.4081 41.1224 11.4098C40.6438 11.3837 40.1652 11.4604 39.7187 11.6346C39.2722 11.8089 38.8682 12.0767 38.5338 12.4201C37.9038 13.1311 37.5769 14.0604 37.6229 15.0093C37.5769 15.9582 37.9038 16.8875 38.5338 17.5984C38.8682 17.9419 39.2722 18.2097 39.7187 18.384C40.1652 18.5582 40.6438 18.6349 41.1224 18.6088C41.5625 18.6298 41.9982 18.5125 42.3685 18.2735C42.7134 18.0714 43.0214 17.8121 43.2794 17.5066L46.1554 20.5265C45.5001 21.2229 44.6737 21.7353 43.7587 22.0126C42.9067 22.2883 42.0179 22.4338 41.1224 22.4443C40.0775 22.4448 39.0402 22.2665 38.0554 21.9171C37.1323 21.5963 36.2843 21.0907 35.5632 20.431C34.8426 19.7767 34.2706 18.9756 33.8856 18.0816C33.4496 17.1189 33.2365 16.0703 33.2621 15.0139C33.2365 13.9574 33.4496 12.9088 33.8856 11.9462C34.2876 11.0619 34.8573 10.264 35.5632 9.59677C36.2794 8.93049 37.1288 8.42396 38.0554 8.1107C39.0412 7.76525 40.0778 7.58706 41.1224 7.5835C42.0179 7.59391 42.9067 7.73944 43.7587 8.01517C44.6737 8.29248 45.5001 8.80487 46.1554 9.50125L43.2794 12.4642Z" fill="#EEE9FF"/>
<path d="M47.2573 0H51.6191V13.5189L56.4601 7.90982H61.8283L56.1727 14.3336L61.9725 22.1479H56.4629L51.6696 14.9572H51.6218V22.1479H47.2573V0Z" fill="#EEE9FF"/>
<path d="M71.8449 24.4011C71.5925 25.0867 71.3047 25.7587 70.9827 26.4144C70.7154 26.9644 70.3593 27.4665 69.9285 27.9005C69.4729 28.3142 68.9336 28.6249 68.3472 28.8116C67.5185 29.0274 66.6633 29.1242 65.8073 29.099C64.7001 29.0955 63.6003 28.9175 62.5484 28.5719L63.1233 24.9761C63.7729 25.261 64.4745 25.408 65.1838 25.4077C65.5865 25.4156 65.9883 25.3671 66.3776 25.2635C66.6788 25.1922 66.9482 25.0237 67.1443 24.7841C67.3684 24.5654 67.5475 24.3048 67.6714 24.0172C67.8327 23.6881 67.9768 23.3509 68.103 23.0069L68.4382 22.1922L62.2114 7.8623H66.9561L70.5988 17.2582H70.6466L73.7622 7.8623H78.2672L71.8449 24.4011Z" fill="#EEE9FF"/>
<path d="M78.8903 0H83.2521V9.3959H83.2998C83.7991 8.73348 84.4826 8.23315 85.2649 7.95758C86.079 7.66311 86.9392 7.51691 87.8049 7.5259C88.721 7.50847 89.6283 7.70778 90.4529 8.1076C91.2774 8.50743 91.9958 9.09644 92.5496 9.82666C93.1284 10.5368 93.5674 11.3502 93.8434 12.2239C94.1306 13.1393 94.2761 14.0933 94.275 15.0527C94.2914 16.0639 94.1291 17.0701 93.7957 18.0249C93.4902 18.8877 92.9993 19.673 92.3576 20.3256C91.7374 20.9843 90.9868 21.5067 90.1538 21.8595C89.243 22.236 88.2629 22.4157 87.2778 22.3867C86.7912 22.4002 86.3057 22.3353 85.8398 22.1947C85.4127 22.0481 84.9963 21.872 84.5937 21.6675C84.2202 21.4841 83.8791 21.2412 83.5836 20.9484C83.3203 20.7302 83.0937 20.4713 82.9123 20.1814H82.8646V22.0523H78.8425V0H78.8903ZM82.916 15.005C82.87 15.9539 83.1969 16.8831 83.8269 17.5941C84.5334 18.2416 85.4568 18.6008 86.415 18.6008C87.3733 18.6008 88.2967 18.2416 89.0032 17.5941C89.6331 16.8831 89.96 15.9539 89.9141 15.005C89.96 14.0561 89.6331 13.1268 89.0032 12.4158C88.2967 11.7683 87.3733 11.4092 86.415 11.4092C85.4568 11.4092 84.5334 11.7683 83.8269 12.4158C83.2097 13.1342 82.8849 14.0583 82.9169 15.005H82.916Z" fill="#EEE9FF"/>
<path d="M108.846 19.6553C108.149 20.5473 107.244 21.2549 106.21 21.7163C105.155 22.1923 104.011 22.4375 102.855 22.4355C101.809 22.4361 100.772 22.2578 99.7866 21.9083C98.8635 21.5875 98.0155 21.0819 97.2944 20.4222C96.5738 19.7679 96.0017 18.9668 95.6168 18.0728C95.1808 17.1102 94.9677 16.0615 94.9933 15.0051C94.9677 13.9486 95.1808 12.9 95.6168 11.9374C96.0188 11.0531 96.5885 10.2552 97.2944 9.58799C98.0106 8.92171 98.86 8.41517 99.7866 8.10191C100.773 7.75638 101.81 7.57819 102.855 7.57471C103.806 7.57371 104.749 7.75259 105.634 8.10191C106.437 8.43849 107.158 8.94553 107.746 9.58799C108.332 10.2834 108.787 11.0795 109.089 11.9374C109.429 12.9233 109.592 13.9622 109.568 15.0051V16.392H99.4028C99.5708 17.1652 99.9724 17.8681 100.553 18.4052C101.157 18.9112 101.923 19.1834 102.71 19.1722C103.352 19.2031 103.988 19.0357 104.531 18.6927C105.03 18.354 105.468 17.9325 105.825 17.4464L108.846 19.6553ZM105.156 13.3748C105.166 12.6678 104.909 11.9828 104.437 11.4571C104.181 11.199 103.874 10.9974 103.535 10.8653C103.197 10.7332 102.835 10.6735 102.472 10.6901C102.029 10.6912 101.591 10.7724 101.178 10.9299C100.815 11.0626 100.487 11.2758 100.219 11.5535C99.9588 11.7995 99.7473 12.0924 99.5956 12.4169C99.448 12.7339 99.3665 13.0776 99.3559 13.4272H105.156V13.3748Z" fill="#EEE9FF"/>
<path d="M119.63 20.3259H119.582C119.119 21.0655 118.43 21.6368 117.618 21.9562C116.811 22.2808 115.948 22.4437 115.078 22.4356C114.428 22.4376 113.782 22.3407 113.161 22.1481C112.578 21.9647 112.028 21.6897 111.531 21.3335C111.063 20.9595 110.686 20.484 110.429 19.9429C110.13 19.3489 109.981 18.6902 109.998 18.0251C109.972 17.3133 110.12 16.6058 110.429 15.9641C110.711 15.3962 111.141 14.9155 111.675 14.5736C112.21 14.1822 112.811 13.8898 113.448 13.7102C114.124 13.5158 114.812 13.3715 115.509 13.2785C116.228 13.1867 116.947 13.1343 117.666 13.0866C118.385 13.0866 119.056 13.0388 119.631 13.0388C119.639 12.6867 119.57 12.337 119.43 12.0141C119.289 11.6912 119.08 11.4028 118.816 11.1688C118.268 10.7087 117.567 10.4694 116.851 10.4974C116.172 10.487 115.499 10.6348 114.886 10.9291C114.287 11.2437 113.751 11.6663 113.305 12.1755L110.956 9.77826C111.781 9.00503 112.762 8.41668 113.832 8.05247C114.925 7.6679 116.076 7.47343 117.235 7.47751C118.311 7.43431 119.384 7.59705 120.399 7.95695C121.169 8.25415 121.847 8.75045 122.364 9.39526C122.884 10.0728 123.245 10.8594 123.418 11.696C123.622 12.7381 123.718 13.7984 123.705 14.8601V22.1004H119.68V20.3259H119.63ZM118.528 15.8677C118.112 15.8623 117.696 15.8782 117.282 15.9154C116.796 15.9485 116.314 16.0288 115.844 16.1552C115.414 16.2636 115.019 16.478 114.693 16.7788C114.531 16.9215 114.404 17.0994 114.321 17.2988C114.238 17.4982 114.201 17.714 114.214 17.9296C114.205 18.1655 114.263 18.3991 114.382 18.603C114.501 18.8069 114.676 18.9725 114.885 19.0805C115.309 19.3239 115.787 19.456 116.276 19.4644C117.09 19.4562 117.885 19.2239 118.576 18.793C118.901 18.5961 119.166 18.3145 119.343 17.9783C119.538 17.6268 119.638 17.2297 119.63 16.8275V15.8677H118.528Z" fill="#EEE9FF"/>
<path d="M125.286 0H129.647V13.5189L134.488 7.90982H139.857L134.201 14.3336L140.001 22.1479H134.491L129.698 14.9572H129.65V22.1479H125.286V0Z" fill="#EEE9FF"/>
<path d="M27.6067 7.90967H31.9684V22.0999H27.6067V7.90967Z" fill="#EEE9FF"/>
</g>
<defs>
<clipPath id="clip0">
<rect width="140" height="29.0988" fill="white"/>
</clipPath>
</defs>
</svg>
