<svg width="221" height="44" viewBox="0 0 221 44" fill="none" xmlns="http://www.w3.org/2000/svg">
<g clip-path="url(#clip0)">
<path d="M136.196 37.3265C135.967 38.2405 135.51 38.9261 135.053 39.8402C134.825 40.5257 134.368 41.2112 133.682 41.6683C132.997 42.1253 132.54 42.5823 131.626 42.8109C130.483 43.0394 129.569 43.2679 128.427 43.2679C127.055 43.2679 125.684 43.0394 124.313 42.5823L124.999 38.012C125.913 38.4691 126.598 38.4691 127.512 38.4691C127.969 38.4691 128.427 38.4691 129.112 38.2405C129.569 38.2405 129.798 38.012 130.026 37.555C130.255 37.3265 130.483 36.8695 130.712 36.6409C130.94 36.1839 131.169 35.7269 131.169 35.2699L131.626 34.1273L124.542 17.9027V16.5316H129.798L134.368 28.4144L138.253 16.5316H143.051V18.3597L136.196 37.3265Z" fill="#383840"/>
<path d="M102.375 22.2447C102.147 21.7877 101.69 21.5592 101.233 21.3307C100.547 21.1022 100.09 20.8736 99.6333 20.8736C98.4907 20.8736 97.1196 21.3307 96.4341 22.2447C95.7485 23.1588 95.2915 24.3014 95.2915 25.4439C95.2915 26.5865 95.7485 27.7291 96.4341 28.6432C97.3481 29.5572 98.4907 30.0142 99.6333 30.0142C100.09 30.0142 100.776 29.7857 101.233 29.5572C101.69 29.3287 102.147 28.8717 102.375 28.6432L106.032 32.5279C105.118 33.442 104.204 34.1275 103.061 34.356C101.918 34.8131 100.776 34.8131 99.6333 34.8131C98.2622 34.8131 96.8911 34.5846 95.7485 34.1275C94.6059 33.6705 93.4634 32.9849 92.5493 32.2994C91.6352 31.3853 90.9497 30.4713 90.4927 29.3287C90.0356 28.1861 89.5786 26.815 89.8071 25.4439C89.8071 24.0729 90.0356 22.7018 90.4927 21.5592C90.9497 20.4166 91.6352 19.5026 92.5493 18.5885C93.4634 17.6744 94.6059 16.9889 95.7485 16.7604C96.8911 16.3033 98.2622 16.0748 99.6333 16.0748C100.776 16.0748 101.918 16.3033 103.061 16.5319C104.204 16.9889 105.346 17.4459 106.032 18.36L102.375 22.2447Z" fill="#383840"/>
<path d="M106.945 7.39111H112.429V23.6157L118.599 16.5317H123.855V18.1313L118.142 24.5297L125.455 34.3559H118.599L112.658 25.4438H112.429V34.3559H106.945V7.39111Z" fill="#383840"/>
<path d="M144.422 7.39111H149.906V18.3598C150.592 17.4458 151.506 16.9887 152.42 16.5317C153.334 16.0747 154.477 16.0747 155.619 16.0747C157.904 16.0747 160.189 17.2173 161.56 19.0454C162.246 19.9594 162.932 20.8735 163.16 22.0161C163.617 23.1587 163.617 24.3012 163.617 25.6723C163.617 27.0434 163.389 28.186 162.932 29.3286C162.475 30.4711 162.018 31.3852 161.103 32.2993C160.418 33.2133 159.275 33.8989 158.361 34.1274C157.219 34.5844 156.076 34.8129 154.705 34.8129C154.02 34.8129 153.562 34.8129 152.877 34.5844C152.42 34.3559 151.734 34.1274 151.277 33.8989C150.82 33.6704 150.363 33.4418 149.906 32.9848C149.678 32.7563 149.221 32.2993 148.992 32.0707V34.3559H143.965L144.422 7.39111ZM149.678 25.4438C149.678 26.5864 150.135 27.729 150.82 28.643C152.648 30.2426 155.391 30.2426 157.447 28.643C158.133 27.729 158.59 26.5864 158.59 25.4438C158.59 24.3012 158.133 23.1587 157.447 22.2446C155.619 20.645 152.648 20.645 150.82 22.2446C149.906 23.1587 149.449 24.3012 149.678 25.4438Z" fill="#383840"/>
<path d="M182.356 31.3853C181.442 32.5279 180.3 33.442 178.928 33.899C177.557 34.5846 176.186 34.8131 174.815 34.8131C173.444 34.8131 172.073 34.5846 170.93 34.1275C169.788 33.6705 168.645 32.9849 167.731 32.2994C166.817 31.3853 166.132 30.4713 165.675 29.3287C165.218 28.1861 164.76 26.815 164.989 25.4439C164.989 24.0729 165.218 22.7018 165.675 21.5592C166.132 20.4166 166.817 19.5026 167.731 18.5885C168.645 17.6744 169.788 17.2174 170.93 16.7604C172.073 16.3033 173.444 16.0748 174.815 16.0748C175.958 16.0748 177.1 16.3033 178.243 16.7604C179.157 17.2174 180.071 17.9029 180.985 18.5885C181.671 19.5026 182.356 20.4166 182.585 21.5592C183.042 22.7018 183.27 24.0729 183.27 25.4439V27.2721H170.473C170.702 28.1861 171.159 29.1002 171.844 29.7857C172.53 30.4713 173.673 30.6998 174.587 30.6998C175.501 30.6998 176.186 30.4713 176.872 30.0142C177.557 29.5572 178.014 29.1002 178.471 28.4146L182.356 31.3853ZM177.786 23.3873C177.786 22.4733 177.557 21.5592 176.872 20.8736C176.186 20.1881 175.272 19.9596 174.358 19.9596C173.901 19.9596 173.216 19.9596 172.759 20.1881C172.301 20.4166 171.844 20.6451 171.616 20.8736C171.387 21.1022 170.93 21.5592 170.93 22.0162C170.702 22.4733 170.702 22.9303 170.702 23.3873H177.786Z" fill="#383840"/>
<path d="M195.838 32.2992C195.153 33.2132 194.239 33.8988 193.325 34.3558C192.411 34.8128 191.268 35.0413 190.125 35.0413C189.211 35.0413 188.526 34.8128 187.612 34.5843C186.926 34.3558 186.241 33.8988 185.555 33.4417C184.87 32.9847 184.413 32.2992 184.184 31.6136C183.727 30.9281 183.727 30.014 183.727 29.0999C183.727 28.1859 183.956 27.2718 184.184 26.5863C184.641 25.9007 185.098 25.2152 185.784 24.7582C186.469 24.3011 187.155 23.8441 188.069 23.6156C188.983 23.3871 189.897 23.1586 190.583 23.1586C191.497 22.93 192.411 22.93 193.325 22.93C194.239 22.93 195.153 22.93 195.838 22.93C195.838 22.016 195.381 21.1019 194.924 20.6449C194.239 19.9593 193.325 19.7308 192.411 19.7308C191.497 19.7308 190.811 19.9593 189.897 20.1879C189.211 20.6449 188.526 21.1019 187.84 21.7875L184.87 18.8168C186.012 17.9027 187.155 16.9886 188.526 16.5316C189.897 16.0746 191.268 15.8461 192.868 15.8461C194.239 15.8461 195.61 16.0746 196.752 16.5316C197.666 16.9886 198.581 17.4457 199.266 18.3597C199.952 19.2738 200.409 20.1879 200.637 21.3304C200.866 22.7015 201.094 24.0726 201.094 25.2152V34.3558H196.067L195.838 32.2992ZM194.467 26.5863C194.01 26.5863 193.325 26.5863 192.868 26.5863C192.182 26.5863 191.725 26.8148 191.04 26.8148C190.582 27.0433 189.897 27.2718 189.668 27.5003C189.211 27.9574 188.983 28.4144 188.983 28.8714C188.983 29.557 189.211 30.014 189.897 30.2425C190.354 30.471 191.04 30.6996 191.725 30.6996C192.639 30.6996 193.782 30.471 194.696 29.7855C195.153 29.557 195.381 29.0999 195.61 28.8714C195.838 28.4144 196.067 27.9574 196.067 27.5003V26.3578H194.467V26.5863Z" fill="#383840"/>
<path d="M203.151 7.39111V34.5844H208.635V25.4438L214.805 34.5844H220.29V32.5278L214.348 24.5297L220.29 17.9028V16.5317H214.805L208.635 23.6157V7.39111H203.151Z" fill="#383840"/>
<path d="M62.383 14.4751C61.926 13.7895 61.2404 13.3325 60.5549 13.104C59.8694 12.8755 58.9553 12.647 58.2698 12.647C57.8127 12.647 57.3557 12.647 56.8987 12.8755C56.4416 12.8755 55.9846 13.104 55.5276 13.3325C55.0705 13.561 54.842 13.7895 54.6135 14.2466C54.385 14.7036 54.1565 15.1606 54.1565 15.6177C54.1565 16.3032 54.385 16.9887 55.0705 17.4458C55.7561 17.9028 56.4416 18.3598 57.3557 18.5884C58.2698 18.5884 59.4123 19.0454 60.3264 19.2739C61.2404 19.5024 62.383 19.9594 63.2971 20.645C64.2111 21.102 64.8967 22.0161 65.5822 22.9301C66.2678 24.0727 66.4963 25.2153 66.4963 26.5864C66.4963 27.9575 66.2678 29.1 65.8107 30.4711C65.3537 31.6137 64.4397 32.5278 63.5256 33.2133C62.6115 33.8989 61.469 34.5844 60.3264 34.8129C58.9553 35.0414 57.8127 35.27 56.4416 35.27C54.842 35.27 53.2424 35.0414 51.6428 34.5844C50.0432 34.1274 48.9006 33.2133 47.5295 32.0707L51.6428 27.5004C52.3284 28.186 53.0139 28.8715 53.928 29.3286C54.842 29.7856 55.7561 30.0141 56.6701 30.0141C57.1272 30.0141 57.5842 30.0141 58.0412 29.7856C58.4983 29.5571 58.9553 29.5571 59.4123 29.3286C59.8694 29.1 60.0979 28.8715 60.3264 28.4145C60.5549 27.9575 60.7834 27.729 60.7834 27.2719C60.7834 26.5864 60.5549 25.9008 59.8694 25.4438C59.1838 24.9868 58.4983 24.5297 57.5842 24.3012C56.6701 24.0727 55.7561 23.6157 54.6135 23.3872C53.4709 23.1587 52.5569 22.7016 51.6428 22.0161C50.7288 21.5591 50.0432 20.645 49.3577 19.9594C48.6721 18.8169 48.4436 17.6743 48.4436 16.5317C48.4436 14.0181 49.5862 11.7329 51.4143 10.1333C52.3284 9.21924 53.4709 8.53369 54.6135 8.30517C55.7561 7.84814 57.1272 7.84814 58.2698 7.84814C59.6408 7.84814 61.2404 8.07666 62.6115 8.53369C63.9826 8.53369 65.3537 9.21924 66.2678 10.1333L62.383 14.4751Z" fill="#383840"/>
<path d="M80.4353 21.1018H75.1794V27.0432C75.1794 27.5002 75.1794 27.9572 75.1794 28.4143C75.1794 28.8713 75.4079 29.0998 75.4079 29.3283C75.6365 29.5568 75.865 29.7854 76.322 30.0139C76.779 30.2424 77.2361 30.2424 77.6931 30.2424C78.1501 30.2424 78.3786 30.2424 78.8357 30.0139C79.2927 30.0139 79.7497 29.7854 80.2068 29.5568V34.1271C79.5212 34.3557 78.8357 34.5842 77.9216 34.5842C77.2361 34.5842 76.5505 34.8127 76.0935 34.8127C75.1794 34.8127 74.2654 34.8127 73.5798 34.5842C72.8943 34.3557 72.2087 34.1271 71.5232 33.6701C70.8376 33.2131 70.3806 32.7561 70.1521 32.0705C69.9236 31.385 69.6951 30.4709 69.6951 29.5568V21.1018H66.0388V16.5315H69.6951V11.2756H75.1794V16.5315H80.4353V21.1018Z" fill="#383840"/>
<path d="M82.0344 10.5901C82.0344 9.67602 82.2629 8.99048 82.9485 8.30493C83.634 7.61938 84.3196 7.39087 85.2336 7.39087C86.1477 7.39087 86.8332 7.61938 87.5188 8.30493C88.2043 8.99048 88.4328 9.67602 88.4328 10.5901C88.4328 11.5041 88.2043 12.4182 87.5188 12.8752C86.8332 13.5608 86.1477 13.7893 85.2336 13.7893C84.3196 13.7893 83.634 13.5608 82.9485 12.8752C82.4914 12.4182 82.0344 11.5041 82.0344 10.5901Z" fill="#383840"/>
<path d="M87.977 16.5316H82.4927V34.5843H87.977V16.5316Z" fill="#383840"/>
<path d="M21.4804 0.307129C33.3632 0.307129 42.9608 9.90476 42.9608 21.7875C42.9608 33.6703 33.3632 43.268 21.4804 43.268C9.59763 43.268 0 33.6703 0 21.7875C0 9.90476 9.59763 0.307129 21.4804 0.307129Z" fill="#FFF5CB"/>
<path d="M17.5947 10.3617C17.5947 10.3617 18.5088 8.53356 17.3662 6.24841V6.0199C17.3662 6.0199 17.3662 6.0199 17.5947 6.0199C18.2803 6.24841 19.1943 6.93396 19.8799 8.53356C20.3369 10.3617 17.5947 10.3617 17.5947 10.3617Z" fill="#00A1E3"/>
<path d="M18.5078 8.7622C18.5078 8.7622 19.8789 7.16259 18.9648 4.64893C18.9648 4.64893 18.9648 4.42041 19.1934 4.42041H19.4219C19.6504 4.64893 20.5644 5.56299 20.793 7.39111C21.25 9.44774 18.5078 8.7622 18.5078 8.7622Z" fill="#00A1E3"/>
<path d="M12.1108 13.561C10.9683 19.2739 10.9683 25.4438 10.5112 31.3852C10.2827 33.4418 10.0542 36.4125 9.82568 39.8402C13.2534 42.1254 17.1382 43.2679 21.48 43.2679C25.8217 43.2679 29.935 41.8968 33.1342 39.8402C32.2202 28.4145 30.6206 13.1039 28.7924 9.90473C26.2788 5.33443 13.7104 6.47701 12.1108 13.561Z" fill="#00A1E3"/>
<path d="M19.6511 8.07653C19.6511 8.07653 21.0222 6.70544 20.3367 3.96326C20.3367 3.96326 20.3367 3.73474 20.5652 3.73474H20.7937C21.2507 4.19177 22.1648 4.87732 22.1648 6.70544C22.3933 8.99059 19.6511 8.07653 19.6511 8.07653Z" fill="#00A1E3"/>
<path d="M24.9067 19.2738C24.9067 18.3597 25.1353 17.2172 25.5923 17.2172C26.0493 17.2172 26.7349 18.3597 26.7349 19.2738C26.7349 19.9593 26.2778 20.8734 25.8208 20.8734C25.3638 20.8734 24.9067 19.9593 24.9067 19.2738Z" fill="black"/>
<path d="M25.5942 18.36C25.5942 18.1313 25.5942 17.674 25.8229 17.674C26.0516 17.674 26.2803 17.9026 26.0516 18.36C26.0516 18.5887 26.0516 18.8174 25.8229 18.8174C25.8229 18.8174 25.5942 18.5887 25.5942 18.36Z" fill="#575757"/>
<path d="M16.4531 20.8732C15.9961 20.8732 15.5391 19.9591 15.5391 19.045C15.5391 18.3595 15.9961 17.4454 16.4531 17.4454C16.9102 17.4454 17.5957 18.3595 17.5957 19.5021C17.3672 20.1876 16.9102 20.8732 16.4531 20.8732Z" fill="black"/>
<path d="M16.4532 19.0459C16.2245 19.0459 15.9958 18.5885 15.9958 18.3598C15.9958 18.1312 16.2245 17.9025 16.2245 17.9025C16.4532 17.9025 16.4532 18.3598 16.4532 18.5885C16.6819 18.8172 16.4532 19.0459 16.4532 19.0459Z" fill="#575757"/>
<path d="M14.8528 16.0747C14.6243 15.8462 14.6243 15.8462 14.8528 16.0747C14.6243 15.8462 14.6243 15.8462 14.8528 16.0747C14.8528 15.3892 15.3098 15.1606 15.7668 14.9321C16.2239 14.9321 16.6809 14.9321 16.9094 15.1606V15.3892H16.6809C16.4524 15.1606 16.2239 15.1606 15.7668 15.1606C15.5383 15.3892 15.0813 15.6177 14.8528 16.0747C14.8528 15.8462 14.8528 15.8462 14.8528 16.0747Z" fill="black"/>
<path d="M26.9648 15.8462C26.7363 15.8462 26.7363 15.8462 26.9648 15.8462C26.5078 15.3892 26.2793 15.1606 25.5937 14.9321C25.3652 14.9321 24.9082 15.1606 24.9082 15.3892H24.6797V15.1606C24.9082 14.9321 25.3652 14.7036 25.5937 14.7036C26.0508 14.7036 26.7363 15.1606 26.9648 15.6177C27.1934 15.6177 27.1934 15.6177 26.9648 15.8462Z" fill="black"/>
<path d="M18.967 22.7018L20.7952 23.6158L22.8518 22.7018H18.967Z" fill="#5294D1"/>
<path d="M21.939 17.6743C21.939 16.9888 21.2534 16.7603 20.7964 16.7603C20.3394 16.7603 19.8823 17.2173 19.8823 17.6743L18.9683 22.7016H22.853L21.939 17.6743Z" fill="#FFD640"/>
<path d="M20.7964 22.7016H18.9683L19.8823 17.6743C19.8823 17.2173 20.3394 16.7603 21.0249 16.7603L20.7964 22.7016Z" fill="black"/>
<path d="M18.2817 23.6158C18.2817 23.6158 18.2817 23.6158 23.5376 23.8444C23.5376 23.8444 23.0806 27.0436 20.7954 27.0436C18.5103 26.8151 18.2817 23.8444 18.2817 23.6158Z" fill="black"/>
<path d="M18.2817 23.6158C18.2817 24.0729 18.2817 24.5299 18.5103 24.7584C19.1958 24.9869 19.8813 24.9869 20.5669 25.2155C21.4809 25.2155 22.395 25.2155 23.0806 25.2155C23.3091 24.7584 23.3091 24.3014 23.3091 24.0729C18.2817 23.8444 18.2817 23.6158 18.2817 23.6158Z" fill="white"/>
<path d="M19.1963 26.358C19.6533 25.901 20.3389 25.901 21.0244 26.1295C22.167 26.358 22.167 26.5865 22.167 26.5865C21.71 27.0435 21.2529 27.272 20.5674 27.272C20.1104 27.0435 19.4248 26.5865 19.1963 26.358Z" fill="#F25757"/>
<path d="M18.7395 27.272C18.7395 27.272 20.5676 28.4145 22.1672 27.5005C22.1672 27.5005 21.9387 28.6431 19.8821 28.186C18.7395 27.729 18.7395 27.272 18.7395 27.272Z" fill="#454545"/>
</g>
<defs>
<clipPath id="clip0">
<rect width="220.289" height="43.6929" fill="white" transform="translate(0 0.307129)"/>
</clipPath>
</defs>
</svg>
