<svg width="283" height="174" viewBox="0 0 283 174" fill="none" xmlns="http://www.w3.org/2000/svg">
<g clip-path="url(#clip0)">
<path d="M141.374 268C210.78 268 267.044 211.736 267.044 142.33C267.044 72.9243 210.78 16.6599 141.374 16.6599C71.9682 16.6599 15.7039 72.9243 15.7039 142.33C15.7039 211.736 71.9682 268 141.374 268Z" fill="#232330"/>
<path d="M112.388 117.277C106.273 115.359 101.529 110.507 99.7378 104.353C98.0117 98.4271 95.555 89.6299 93.1745 79.8879C89.3273 64.1325 85.686 45.9035 85.686 33.3297C85.686 7.51355 123.608 4.60278 123.608 4.60278C123.608 4.60278 173.362 2.0756 185.679 20.7671C197.911 39.3317 188.429 84.6602 183.414 104.542C181.82 110.857 176.87 115.79 170.53 117.291C163.149 119.034 151.968 120.828 137.544 120.667C126.005 120.534 117.905 119.008 112.388 117.277Z" fill="#2F80EC"/>
<path d="M151.207 5.82133C152.295 9.64594 151.895 14.2265 152.126 16.3108C152.462 19.309 150.908 21.9406 148.657 22.1916C146.736 22.4059 145.179 21.5908 144.192 20.2313C144.189 20.2257 144.189 20.2172 144.186 20.2088C144.062 19.9831 143.78 19.8985 143.555 20.0226C143.329 20.1467 143.323 20.4739 143.385 20.7221C143.462 21.0098 143.521 21.3059 143.557 21.6134C143.904 24.7131 141.93 27.4772 139.152 27.7875C136.371 28.0977 133.838 25.8385 133.491 22.7388C133.429 22.1775 133.443 21.6303 133.525 21.1029C133.59 20.7221 133.401 20.2765 133.023 20.1947C132.634 20.11 132.261 20.3554 132.177 20.7447C131.644 22.7388 130.109 24.2618 128.203 24.4734C125.952 24.7244 123.856 22.499 123.521 19.5008C123.317 17.6731 124.99 8.68697 126.383 4.50979C126.383 4.50979 130.761 4.48158 137.84 4.67056C147.664 4.93851 151.207 5.82133 151.207 5.82133Z" fill="#436CE5"/>
<path d="M154.376 56.3224C154.035 52.7037 155.29 48.0244 157.242 47.8637C159.272 47.6973 162.338 52.3991 161.878 56.7934C161.571 59.7324 159.625 63.1255 157.854 63.0662C155.97 63.0014 154.633 59.047 154.376 56.3224Z" fill="#0E0D0D"/>
<path opacity="0.8" d="M157.394 52.0607C157.233 50.9719 157.544 49.5363 158.13 49.4573C158.742 49.3755 159.583 50.7576 159.51 52.0945C159.462 52.9886 159.087 54.0407 158.551 54.0491C157.978 54.0576 157.513 52.8814 157.394 52.0607Z" fill="#565656"/>
<path d="M137.529 43.3931L138.209 43.3875C140.75 43.3621 142.942 45.1785 143.385 47.6803L147.268 69.5872L128.49 69.7818L132.464 47.6746C132.906 45.2152 135.033 43.4185 137.529 43.3931Z" fill="#FFD545"/>
<path opacity="0.1" d="M137.583 74.7036L147.268 69.5872L128.49 69.7818L137.583 74.7036Z" fill="#0E0D0D"/>
<path d="M119.47 63.7969C117.538 63.8956 115.318 59.7889 115.186 56.1448C115.078 53.1748 116.319 49.3417 118.116 49.1866C120.04 49.0202 122.584 53.0676 122.7 56.8358C122.798 59.9384 121.278 63.7038 119.47 63.7969Z" fill="#0E0D0D"/>
<path opacity="0.8" d="M118.519 55.8654C117.898 55.8683 117.25 54.5257 117.261 53.358C117.269 52.4075 117.721 51.2003 118.299 51.1749C118.917 51.1495 119.67 52.4808 119.653 53.6852C119.636 54.6808 119.097 55.8626 118.519 55.8654Z" fill="#565656"/>
<path opacity="0.2" d="M112.266 40.1183C112.162 40.1183 112.055 40.0958 111.956 40.0478C111.617 39.8814 111.476 39.4696 111.646 39.1311C112.692 37.0101 114.085 35.7296 115.789 35.3206C118.395 34.6945 120.702 36.3868 120.798 36.4601C121.103 36.6857 121.165 37.1173 120.936 37.4191C120.711 37.7209 120.282 37.7829 119.978 37.5601C119.958 37.546 118.071 36.1752 116.096 36.6575C114.81 36.9706 113.724 38.0057 112.87 39.7404C112.757 39.9745 112.517 40.1155 112.266 40.1183Z" fill="black"/>
<path opacity="0.2" d="M162.756 37.1514C162.547 37.1542 162.339 37.0611 162.201 36.8806C160.655 34.8555 159.078 33.8006 157.51 33.747C155.606 33.6878 154.317 35.1431 154.303 35.1572C154.052 35.4421 153.62 35.4731 153.333 35.2249C153.048 34.9767 153.014 34.5452 153.262 34.2575C153.333 34.1785 154.983 32.2916 157.535 32.3706C159.544 32.4298 161.478 33.668 163.292 36.0457C163.523 36.3475 163.464 36.779 163.162 37.0103C163.044 37.1062 162.9 37.1514 162.756 37.1514Z" fill="black"/>
<path opacity="0.05" d="M137.608 43.3931L137.879 69.6858L128.49 69.7817L132.452 47.7508C132.901 45.2461 135.064 43.4185 137.608 43.3931Z" fill="black"/>
<path d="M130.976 78.8528C130.976 78.8528 130.942 79.18 145.541 79.0023C145.541 79.0023 144.714 88.1408 137.92 88.0054C131.751 87.8813 130.959 79.1489 130.959 79.1489" fill="#444444"/>
<path d="M130.975 78.8528L130.958 79.1518C130.958 79.1518 130.877 79.8202 131.559 81.9948C132.981 82.1951 134.831 82.9143 137.262 82.9679C139.894 83.0271 143.118 82.7028 144.694 82.5477C145.515 80.1728 145.54 79.0023 145.54 79.0023C130.939 79.18 130.975 78.8528 130.975 78.8528Z" fill="white"/>
<path d="M133.79 86.1101C133.79 86.1101 135.784 84.5617 138.943 85.0863C142.102 85.6109 142.407 86.3047 142.407 86.3047C142.407 86.3047 140.641 88.1155 137.948 88.0083C135.257 87.9011 133.79 86.1101 133.79 86.1101Z" fill="#FF5454"/>
<path d="M61.8412 98.5923H223.772C233.991 98.5923 242.275 106.876 242.275 117.095V184H43.3386V117.095C43.3386 106.876 51.6225 98.5923 61.8412 98.5923Z" fill="#525253"/>
<path d="M65.4037 102.465H220.007C230.226 102.465 238.51 110.748 238.51 120.967V184H46.9011V120.964C46.9011 110.748 55.185 102.465 65.4037 102.465Z" fill="#454545"/>
<path d="M139.712 169.046C148.155 169.046 155 162.201 155 153.758C155 145.315 148.155 138.471 139.712 138.471C131.27 138.471 124.425 145.315 124.425 153.758C124.425 162.201 131.27 169.046 139.712 169.046Z" fill="#525253"/>
</g>
<defs>
<clipPath id="clip0">
<rect width="283" height="174" fill="white"/>
</clipPath>
</defs>
</svg>
