<svg width="30" height="28" viewBox="0 0 30 28" fill="none" xmlns="http://www.w3.org/2000/svg">
<g opacity="0.8" clip-path="url(#clip0)">
<path fill-rule="evenodd" clip-rule="evenodd" d="M-0.000244141 11.7934C-0.000244141 18.2409 4.82373 23.5845 11.8226 23.5845C18.7839 23.5845 23.6079 18.2409 23.6079 11.7934C23.6079 4.94381 18.8742 0.00219727 11.8226 0.00219727C4.73342 0.00219727 -0.000244141 4.95112 -0.000244141 11.7934ZM4.55281 11.7934C4.55281 7.50965 7.23948 3.35753 11.8226 3.35753C16.3757 3.35753 19.0548 7.50965 19.0548 11.7934C19.0548 15.8139 16.8272 20.2292 11.8226 20.2292C6.77289 20.2292 4.55281 15.8139 4.55281 11.7934Z" fill="white"/>
<path d="M30.0048 27.9992V26.4275H25.813C27.4912 24.8266 29.6812 22.8821 29.6812 20.7695C29.6812 18.8104 28.4169 17.8528 26.4602 17.8528C25.4141 17.8528 24.3455 18.1086 23.4123 18.5692L23.5779 20.2286C24.2476 19.7973 25.083 19.4245 25.9485 19.4245C26.7838 19.4245 27.6267 19.8557 27.6267 20.7695C27.6267 22.597 24.1423 25.426 23.1865 26.3325V28.0065L30.0048 27.9992Z" fill="white"/>
</g>
<defs>
<clipPath id="clip0">
<rect width="30" height="28" fill="white"/>
</clipPath>
</defs>
</svg>
