<svg width="113" height="125" viewBox="0 0 113 125" fill="none" xmlns="http://www.w3.org/2000/svg">
<path opacity="0.25" d="M110.97 116.901C110.97 118.531 108.597 120.025 104.683 121.163C100.058 122.505 93.2854 123.354 85.7397 123.354C79.1193 123.354 73.5378 122.058 69.2 121.633C64.4527 121.17 61.8287 118.774 61.8287 116.901C61.8287 114.99 65.8025 113.306 70.7167 112.07C74.8346 111.031 79.9156 111.039 86.3919 111.039C94.1575 111.039 98.9427 111.933 105.321 112.73C108.422 113.109 110.97 115.316 110.97 116.901Z" fill="#444444"/>
<path d="M94.6049 87.2718V116.908C94.6049 117.462 95.0068 117.94 95.5604 118.023C95.5983 118.031 99.6934 118.691 102.029 119.775C102.181 119.843 102.348 119.881 102.507 119.881C102.932 119.881 103.341 119.638 103.538 119.221C103.804 118.653 103.553 117.978 102.985 117.72C101.081 116.84 98.3132 116.233 96.8723 115.96V86.9912L94.6049 87.2718Z" fill="#FF5454"/>
<path d="M74.2958 94.8553V116.908C74.2958 117.462 74.6977 117.94 75.2513 118.023C75.2892 118.031 79.3844 118.69 81.7201 119.775C81.8718 119.843 82.0386 119.881 82.1979 119.881C82.6225 119.881 83.0321 119.638 83.2292 119.221C83.4946 118.653 83.2444 117.978 82.6756 117.72C80.7721 116.84 78.0041 116.233 76.5633 115.96V94.5747L74.2958 94.8553Z" fill="#FF5454"/>
<path d="M112.123 63.2695C115.983 76.7227 105.958 91.4121 89.7213 96.0684C73.4848 100.732 57.1953 93.5962 53.3353 80.1429C44.6369 49.8238 51.7882 25.1317 68.0247 20.4678C84.2611 15.8039 102.575 30.0079 112.123 63.2695Z" fill="#FF5454"/>
<path d="M79.0052 41.9749L79.3844 41.8611C80.8025 41.4364 82.3117 42.1038 82.9639 43.4309L88.2724 53.737L77.8222 56.8539L76.8742 45.1751C76.7226 43.7343 77.6174 42.392 79.0052 41.9749Z" fill="#FFD545"/>
<path opacity="0.1" d="M83.4872 57.4836L88.2649 53.7373L77.8147 56.8542L83.4872 57.4836Z" fill="#444444"/>
<path opacity="0.2" d="M64.0129 42.9003C63.9523 42.9154 63.8916 42.923 63.8309 42.9078C63.611 42.8699 63.4745 42.6652 63.5124 42.4452C63.7551 41.0954 64.3314 40.155 65.2111 39.6545C66.5686 38.8886 68.1232 39.4649 68.1915 39.4877C68.3962 39.5635 68.5024 39.7986 68.4266 40.0033C68.3507 40.2081 68.1156 40.3143 67.9109 40.2384C67.8957 40.2308 66.6217 39.7682 65.5979 40.3522C64.9305 40.7314 64.4907 41.4821 64.2935 42.5893C64.2632 42.741 64.1494 42.8623 64.0129 42.9003Z" fill="black"/>
<path opacity="0.2" d="M91.7157 33.1552C91.6019 33.1931 91.4654 33.1704 91.3593 33.0945C90.1762 32.2148 89.1221 31.8736 88.2424 32.0935C87.1731 32.3665 86.6802 33.3827 86.6802 33.3979C86.5892 33.595 86.3465 33.686 86.1493 33.5875C85.9522 33.4965 85.8612 33.2614 85.9522 33.0566C85.9749 33.0035 86.5968 31.684 88.0376 31.32C89.1676 31.0318 90.4492 31.411 91.837 32.4499C92.0114 32.5788 92.0494 32.8291 91.9204 33.0111C91.8674 33.0869 91.7915 33.1324 91.7157 33.1552Z" fill="black"/>
<path d="M66.7507 15.645C66.7507 15.645 69.1244 9.89664 74.1523 8.51643C79.1802 7.13622 77.2919 12.9452 77.4815 13.6202C77.6711 14.2875 79.7186 17.4575 76.7838 17.7077C73.849 17.958 68.1537 17.6167 68.1537 17.6167L66.7507 15.645Z" fill="#52A1FF"/>
<path d="M65.6892 15.6298C65.6892 15.6298 62.0946 13.1728 58.682 14.151C55.277 15.1293 56.0201 17.4802 56.7178 18.6633C57.4155 19.8463 56.6951 22.9404 58.4696 23.0921C60.2442 23.2437 65.1204 18.4206 67.1452 17.5788C69.1701 16.737 65.6892 15.6298 65.6892 15.6298Z" fill="#52A1FF"/>
<path d="M64.6654 16.2441C64.6654 16.2441 61.1466 15.9332 60.684 16.8432C60.2215 17.7532 61.3969 19.1486 62.8302 18.0945C64.2635 17.0404 65.2949 16.6233 65.2949 16.6233L64.6654 16.2441Z" fill="#52A1FF"/>
<path d="M67.7142 15.5462C67.7142 15.5462 70.7325 13.7565 71.8624 13.6503C72.9924 13.5441 71.6577 15.2353 70.0121 15.3869C68.374 15.5386 67.7142 15.5462 67.7142 15.5462Z" fill="#52A1FF"/>
<path d="M68.5027 15.713C68.8515 16.9416 68.7074 17.844 67.4865 18.2004C66.2579 18.5493 64.9687 18.0033 64.6199 16.7747C64.271 15.5462 64.9915 14.4466 66.2124 14.0901C67.4334 13.7413 68.1462 14.4845 68.5027 15.713Z" fill="#52A1FF"/>
<path opacity="0.2" d="M58.8866 26.1102C58.8866 26.1102 63.2927 24.7376 63.8993 27.9C64.506 31.0623 61.7077 32.9355 61.7077 32.9355C61.7077 32.9355 74.1599 32.761 78.0655 24.2447C81.971 15.7283 71.1037 0 71.1037 0L58.8866 26.1102Z" fill="black"/>
<path d="M67.1375 48.8609C67.1223 48.8609 67.1071 48.8609 67.092 48.8533C66.3715 48.6865 65.78 48.2466 65.3629 47.5717C65.3098 47.4807 65.3326 47.3669 65.4236 47.3138C65.5146 47.2608 65.6283 47.2835 65.6814 47.3745C66.0454 47.966 66.546 48.3376 67.1678 48.4817C67.2664 48.5045 67.3347 48.6106 67.3119 48.7092C67.3043 48.8002 67.2285 48.8609 67.1375 48.8609Z" fill="#444444"/>
<path d="M67.1297 47.8825C67.0918 47.8825 67.0539 47.8749 67.0236 47.8446C66.1969 47.2607 65.9239 46.4568 65.9164 46.4189C65.886 46.3203 65.9391 46.2141 66.0377 46.1838C66.1363 46.1535 66.2424 46.2066 66.2804 46.3051C66.2804 46.3127 66.5306 47.0332 67.2435 47.5337C67.3269 47.5944 67.3497 47.7157 67.289 47.7991C67.2435 47.8522 67.1828 47.8825 67.1297 47.8825Z" fill="#444444"/>
<path d="M80.7949 62.1396C80.5826 62.1396 80.5371 62.0638 80.4688 61.95L80.3171 61.6998L80.5295 61.4874C80.6205 61.3964 80.7494 61.3585 80.8707 61.3812C81.0148 61.3585 81.5457 61.2523 83.3961 60.7215C86.1944 59.9176 88.1889 59.1289 88.2116 59.1213C88.4088 59.0455 88.6287 59.1365 88.7046 59.3337C88.7804 59.5309 88.6894 59.7508 88.4922 59.8266C88.4695 59.8342 86.4447 60.6381 83.6084 61.4495C81.8263 61.9576 81.1134 62.1396 80.7949 62.1396Z" fill="#444444"/>
<path opacity="0.1" d="M83.6998 62.7084C83.6998 62.7084 86.5285 62.0259 87.3854 61.5026C88.2423 60.9793 87.8707 62.2003 86.4602 62.6326C85.0648 63.0724 82.4257 63.6033 83.6998 62.7084Z" fill="#444444"/>
<path d="M71.6797 54.8444C70.618 55.2085 68.7221 53.2746 68.0623 51.2574C67.5239 49.6194 67.6073 47.276 68.5856 46.9044C69.6321 46.5025 71.7025 48.3529 72.3698 50.4384C72.9158 52.1599 72.6732 54.5032 71.6797 54.8444Z" fill="#444444"/>
<path d="M92.5502 40.3978C92.5047 40.3978 92.4516 40.3826 92.4137 40.3447C92.3379 40.2689 92.3379 40.1475 92.4137 40.0793C92.5502 39.9428 92.6715 39.7835 92.7701 39.6167C92.9825 39.2527 93.0886 38.8204 93.0886 38.3502C93.0886 38.2441 93.172 38.1606 93.2782 38.1606C93.3844 38.1606 93.4678 38.2441 93.4678 38.3502C93.4754 38.8963 93.3465 39.3892 93.0962 39.8139C92.9825 40.011 92.846 40.1855 92.6791 40.3523C92.6412 40.3826 92.5957 40.3978 92.5502 40.3978Z" fill="#444444"/>
<path d="M92.042 39.5636C92.0192 39.5636 91.9889 39.556 91.9661 39.5485C91.8676 39.5105 91.8221 39.3968 91.8676 39.2982C92.2088 38.4868 92.0344 37.7512 92.0344 37.7436C92.0116 37.645 92.0723 37.5388 92.1709 37.5161C92.2695 37.4857 92.3757 37.554 92.3984 37.6526C92.406 37.6905 92.6032 38.5171 92.2164 39.4499C92.1861 39.5181 92.1102 39.5636 92.042 39.5636Z" fill="#444444"/>
<path d="M91.9738 47.8525C93.0658 47.5947 93.6497 44.948 93.1416 42.8929C92.7245 41.2169 91.4202 39.2755 90.3888 39.4803C89.2892 39.6926 88.5156 42.362 89.0541 44.4854C89.5015 46.2296 90.95 48.0876 91.9738 47.8525Z" fill="#444444"/>
<path opacity="0.1" d="M79.3851 41.8613L82.7522 55.1705L77.8153 56.8541C77.8153 56.8541 76.8825 45.5242 76.8674 45.1753C76.8522 44.9023 76.655 42.4377 79.3851 41.8613Z" fill="#444444"/>
<path opacity="0.25" d="M53.6535 118.546C53.6535 120.177 51.2798 121.671 47.3667 122.808C42.7407 124.15 35.9686 125 28.423 125C21.8025 125 16.221 123.703 11.8832 123.278C7.13588 122.816 4.51196 120.419 4.51196 118.546C4.51196 116.635 8.48575 114.952 13.3999 113.715C17.5178 112.677 22.5988 112.684 29.0752 112.684C36.8407 112.684 41.626 113.579 48.0037 114.375C51.113 114.762 53.6535 116.969 53.6535 118.546Z" fill="#444444"/>
<path d="M7.06019 90.6312C3.79167 88.8567 1.62277 85.5654 1.28909 81.857C0.962997 78.2852 0.5459 72.9994 0.272892 67.1828C-0.166956 57.7792 -0.212457 46.9802 1.1905 39.8137C4.06468 25.1016 25.9964 27.6648 25.9964 27.6648C25.9964 27.6648 54.6319 31.7599 59.5688 43.7875C64.4754 55.7316 54.0253 80.5071 48.9518 91.2758C47.3441 94.696 43.9694 96.9559 40.1928 97.1076C35.7943 97.282 29.2194 97.0545 21.0215 95.3558C14.4542 94.0059 10.0102 92.2314 7.06019 90.6312Z" fill="#8DD800"/>
<path d="M41.5885 31.4414C41.7857 33.7392 41.0425 36.31 40.9439 37.5234C40.7998 39.2676 39.6244 40.5947 38.3124 40.4886C37.19 40.3976 36.4013 39.7605 35.9842 38.8733C35.9842 38.8657 35.9842 38.8657 35.9842 38.8581C35.9387 38.714 35.7871 38.6382 35.643 38.6837C35.4989 38.7292 35.461 38.9112 35.4686 39.0629C35.4761 39.2373 35.4837 39.4117 35.4686 39.5861C35.3245 41.391 33.8912 42.7485 32.2683 42.612C30.653 42.483 29.4548 40.9057 29.6065 39.1084C29.6368 38.7823 29.705 38.4713 29.8036 38.1832C29.887 37.9708 29.8264 37.6978 29.6216 37.6068C29.4093 37.5158 29.1666 37.6144 29.0756 37.8267C28.5523 38.9036 27.5058 39.6013 26.3986 39.5103C25.0866 39.4041 24.1387 37.9026 24.2828 36.1584C24.3662 35.0967 26.3228 30.1597 27.5816 27.9302C27.5816 27.9302 30.0766 28.4004 34.0883 29.2952C39.6699 30.5465 41.5885 31.4414 41.5885 31.4414Z" fill="#74C600"/>
<path d="M37.774 60.5699C37.9787 58.4692 39.2225 55.9439 40.3524 56.0652C41.5279 56.1942 42.7488 59.22 41.998 61.6695C41.4975 63.3076 40.0111 65.029 39.0025 64.7939C37.9408 64.5588 37.6147 62.1549 37.774 60.5699Z" fill="#444444"/>
<path opacity="0.8" d="M39.9652 58.4767C39.9955 57.8397 40.3292 57.051 40.678 57.0737C41.0345 57.0965 41.3606 57.9762 41.171 58.7269C41.0421 59.2275 40.716 59.7886 40.405 59.7356C40.0789 59.6825 39.9424 58.962 39.9652 58.4767Z" fill="#565656"/>
<path d="M29.6136 51.3334L30.0004 51.4016C31.4489 51.6671 32.4954 52.9487 32.4727 54.4275L32.2451 67.3423L21.522 65.363L26.2465 53.2065C26.7698 51.8566 28.1879 51.068 29.6136 51.3334Z" fill="#FFD545"/>
<path opacity="0.1" d="M26.1555 69.1773L32.2451 67.3421L21.522 65.3628L26.1555 69.1773Z" fill="#444444"/>
<path d="M17.0478 60.9493C15.933 60.79 15.1291 58.204 15.4552 56.111C15.7282 54.4047 16.8582 52.3571 17.8971 52.4708C19.0119 52.5922 20.0129 55.1782 19.6565 57.3395C19.3759 59.1216 18.0867 61.0934 17.0478 60.9493Z" fill="#444444"/>
<path opacity="0.8" d="M17.3888 56.3231C17.0324 56.2549 16.8125 55.4207 16.949 54.7533C17.0627 54.2149 17.4495 53.5779 17.7832 53.6234C18.1396 53.6765 18.4202 54.5183 18.2761 55.2084C18.1548 55.7696 17.7149 56.3838 17.3888 56.3231Z" fill="#565656"/>
<path opacity="0.2" d="M15.5763 46.654C15.5157 46.6464 15.4626 46.616 15.4095 46.5781C15.2351 46.4416 15.1971 46.1914 15.3337 46.0169C16.1678 44.9249 17.1006 44.3486 18.1168 44.3031C19.6715 44.2348 20.8014 45.4558 20.8469 45.5088C20.991 45.6681 20.9834 45.9259 20.8166 46.07C20.6573 46.2141 20.3995 46.2065 20.2554 46.0397C20.2478 46.0321 19.3226 45.0387 18.1472 45.0917C17.3812 45.1297 16.6456 45.5998 15.9631 46.4871C15.8721 46.6236 15.7204 46.6767 15.5763 46.654Z" fill="black"/>
<path opacity="0.2" d="M44.6825 50.5822C44.5612 50.5595 44.455 50.4836 44.3944 50.3699C43.7422 49.0428 42.9611 48.2692 42.0738 48.0645C40.9969 47.8218 40.1021 48.5043 40.0869 48.5119C39.9125 48.6484 39.6622 48.6181 39.5257 48.4437C39.3892 48.2692 39.4195 48.019 39.594 47.8825C39.6395 47.8446 40.7922 46.9497 42.2406 47.2834C43.3782 47.5412 44.3413 48.4588 45.1148 50.021C45.2134 50.2182 45.13 50.4609 44.9328 50.5595C44.8494 50.5898 44.7659 50.5974 44.6825 50.5822Z" fill="black"/>
<path opacity="0.05" d="M29.6591 51.3406L26.8836 66.3561L21.522 65.3626L26.2314 53.2516C26.7698 51.8714 28.2031 51.0676 29.6591 51.3406Z" fill="black"/>
<path d="M12.2856 119.115C12.4448 119.115 12.5965 119.085 12.7482 119.009C15.0384 117.947 19.0501 117.303 19.088 117.295C19.6265 117.212 20.0208 116.741 20.0208 116.203V84.0335C20.0208 83.4192 19.5279 82.9263 18.9136 82.9263C18.2993 82.9263 17.8064 83.4192 17.8064 84.0335V115.27C16.3883 115.543 13.6809 116.135 11.8154 116.999C11.2618 117.257 11.0191 117.917 11.277 118.47C11.459 118.88 11.8609 119.115 12.2856 119.115Z" fill="#8DD800"/>
<path d="M30.1138 119.115C30.2731 119.115 30.4247 119.085 30.5764 119.009C32.8666 117.947 36.8784 117.303 36.9163 117.295C37.4547 117.212 37.8491 116.741 37.8491 116.203V84.0335C37.8491 83.4192 37.3561 82.9263 36.7419 82.9263C36.1276 82.9263 35.6347 83.4192 35.6347 84.0335V115.27C34.2165 115.543 31.5092 116.135 29.6436 116.999C29.09 117.257 28.8474 117.917 29.1052 118.47C29.2948 118.88 29.6967 119.115 30.1138 119.115Z" fill="#8DD800"/>
<path d="M91.8672 79.4001C91.6473 79.4001 91.4273 79.3849 91.2074 79.3622C83.8817 78.5811 76.8138 75.8662 76.518 75.7524C75.9341 75.5249 75.6384 74.8651 75.8659 74.2812C76.0934 73.6973 76.7531 73.4015 77.3371 73.629C77.4053 73.6593 84.4277 76.3515 91.4425 77.1023C96.7662 77.6559 103.5 67.2057 105.647 63.1258C105.942 62.5722 106.625 62.3522 107.186 62.648C107.74 62.9437 107.952 63.6263 107.664 64.1875C107.58 64.3467 105.563 68.1612 102.606 71.9379C98.7379 76.8975 95.1281 79.4001 91.8672 79.4001Z" fill="#FC9090"/>
<path d="M74.2806 84.2689C71.96 84.2689 69.1465 83.6774 65.8704 82.4868C61.3582 80.8487 57.6271 78.6874 57.4754 78.5964C56.9294 78.2779 56.7474 77.5878 57.0659 77.0418C57.3844 76.4957 58.0745 76.3137 58.6205 76.6322C62.6095 78.9528 73.8711 84.2461 78.08 80.9473C83.6312 76.5867 88.151 70.5805 88.1965 70.5199C88.5756 70.0194 89.2885 69.9132 89.789 70.2924C90.2895 70.6716 90.3957 71.3844 90.0165 71.8849C89.8269 72.1428 85.2768 78.1869 79.4829 82.737C78.171 83.7608 76.4343 84.2689 74.2806 84.2689Z" fill="#FC9090"/>
<path d="M32.4803 90.9574C31.0926 90.9574 29.8868 90.6692 28.8478 90.0853C22.4321 86.4604 17.025 81.167 16.7975 80.9471C16.3501 80.5073 16.3425 79.7868 16.7824 79.3394C17.2222 78.892 17.9426 78.8844 18.3901 79.3242C18.4432 79.3773 23.8199 84.6327 29.9626 88.106C34.6265 90.7375 44.9553 83.8061 48.5424 80.9092C49.0277 80.5148 49.7481 80.5907 50.1425 81.0836C50.5368 81.569 50.461 82.2894 49.9681 82.6837C49.824 82.7975 46.4645 85.4972 42.2556 87.7951C38.3955 89.8957 35.1194 90.9574 32.4803 90.9574Z" fill="#9CE203"/>
<path d="M19.626 89.1679C16.6001 89.1679 12.9979 87.2113 8.88005 83.3361C5.39161 80.0449 2.82078 76.5792 2.71461 76.4351C2.34301 75.927 2.44918 75.2141 2.95728 74.8425C3.46538 74.4709 4.17824 74.5771 4.54983 75.0852C7.2875 78.7936 15.5308 88.129 20.7028 86.7563C27.5281 84.959 34.0575 81.2355 34.1258 81.1976C34.6718 80.8791 35.3695 81.0762 35.6804 81.6147C35.9913 82.1607 35.8017 82.8508 35.2633 83.1693C34.9903 83.3286 28.4078 87.0748 21.2868 88.9556C20.7483 89.0997 20.1947 89.1679 19.626 89.1679Z" fill="#9CE203"/>
<path d="M30.0383 73.0449C30.0231 73.0449 30.008 73.0449 30.0004 73.0449C29.9776 73.0449 27.8087 72.8173 24.9194 72.2334C21.9315 71.6267 21.9315 71.5661 21.9163 71.2324L21.9011 70.9366L22.1817 70.8456C22.3031 70.8077 22.432 70.838 22.5306 70.9063C22.6671 70.9518 23.1903 71.1035 25.0711 71.4902C27.9225 72.0666 30.061 72.2941 30.0762 72.2941C30.2886 72.3168 30.4326 72.4988 30.4175 72.7112C30.3947 72.8932 30.2279 73.0449 30.0383 73.0449Z" fill="#444444"/>
<path opacity="0.1" d="M24.4268 73.3862C24.4268 73.3862 27.2555 74.0839 28.2565 74.0157C29.2576 73.9474 28.3627 74.8574 26.9142 74.592C25.4658 74.3266 22.8798 73.591 24.4268 73.3862Z" fill="#444444"/>
</svg>
