<svg width="1269" height="606" viewBox="0 0 1269 606" fill="none" xmlns="http://www.w3.org/2000/svg">
<mask id="mask0" mask-type="alpha" maskUnits="userSpaceOnUse" x="0" y="0" width="1310" height="606">
<rect width="1310" height="605.905" fill="#C4C4C4"/>
</mask>
<g mask="url(#mask0)">
<path d="M82.2656 430.527C88.2062 427.459 97.1766 422.844 97.1766 412.66C97.1766 402.477 88.2062 397.847 82.2656 394.792C80.0693 393.668 76.0076 391.579 75.5577 390.468L75.5577 390.322C76.0208 389.198 80.0826 387.095 82.2789 385.971C88.2194 382.916 97.1899 378.3 97.1899 368.103C97.1899 357.907 88.2194 353.305 82.2789 350.236C80.0826 349.112 76.0208 347.022 75.571 345.912L75.571 345.766C76.0341 344.642 80.0958 342.552 82.2921 341.428C88.2327 338.36 97.2031 333.744 97.2031 323.547L82.0671 323.614C81.6041 324.738 77.5423 326.841 75.346 327.965C69.4054 331.02 60.435 335.649 60.435 345.832C60.435 356.016 69.4054 360.645 75.346 363.7C77.5423 364.824 81.604 366.914 82.0539 368.025L82.0539 368.17C81.5908 369.294 77.5291 371.397 75.3328 372.521C69.3922 375.576 60.4217 380.191 60.4217 390.388C60.4217 400.585 69.3922 405.188 75.346 408.256C77.5291 409.38 81.5908 411.47 82.0406 412.581L82.0406 412.713C81.5776 413.85 77.5158 415.939 75.3195 417.064C69.3789 420.119 60.4085 424.748 60.4085 434.931L75.5445 434.866C76.0076 433.741 80.0693 431.651 82.2656 430.527Z" fill="#454D70" fill-opacity="0.16"/>
<path d="M191.343 194.118L180.63 183.41L160.357 203.676L171.069 214.384L191.343 194.118Z" fill="#454D70" fill-opacity="0.16"/>
<path d="M222.686 163.003L211.975 152.296L191.701 172.561L202.413 183.268L222.686 163.003Z" fill="#454D70" fill-opacity="0.16"/>
<path d="M222.325 203.673L202.055 183.412L191.338 172.7L171.069 152.439L160.365 163.151L180.635 183.412L191.338 194.111L211.608 214.372L222.325 203.673Z" fill="#454D70" fill-opacity="0.16"/>
<path d="M300.014 -13.2363C299.993 -33.0196 292.122 -51.9867 278.128 -65.9756C264.133 -79.9646 245.158 -87.8326 225.367 -87.8536C223.413 -87.772 221.566 -86.9386 220.212 -85.5276C218.858 -84.1166 218.102 -82.237 218.102 -80.282C218.102 -78.327 218.858 -76.4474 220.212 -75.0364C221.566 -73.6254 223.413 -72.792 225.367 -72.7104C240.771 -72.1478 255.356 -65.6357 266.055 -54.5436C276.753 -43.4514 282.731 -28.6442 282.731 -13.2363C282.731 2.17162 276.753 16.9788 266.055 28.071C255.356 39.1631 240.771 45.6759 225.367 46.2384C223.36 46.2384 221.435 47.0353 220.016 48.454C218.596 49.8727 217.799 51.7966 217.799 53.8029C217.799 55.8093 218.596 57.7338 220.016 59.1525C221.435 60.5712 223.36 61.3681 225.367 61.3681C245.156 61.3471 264.129 53.4807 278.123 39.4946C292.117 25.5086 299.99 6.54475 300.014 -13.2363Z" fill="#454D70" fill-opacity="0.16"/>
<path d="M330.947 438.463L329.307 407.463L360.253 404.897L358.613 373.897L382.243 371.94L380.999 356.849L342.723 360.024L344.363 391.024L316.235 393.352L316.235 439.681L330.947 438.463Z" fill="#454D70" fill-opacity="0.16"/>
<path d="M654.784 523.247L644.071 512.539L623.798 532.805L634.51 543.513L654.784 523.247Z" fill="#454D70" fill-opacity="0.16"/>
<path d="M685.744 492.291L675.032 481.584L654.759 501.849L665.471 512.556L685.744 492.291Z" fill="#454D70" fill-opacity="0.16"/>
<path d="M685.398 532.985L665.129 512.724L654.412 502.011L634.142 481.75L623.439 492.462L643.708 512.724L654.412 523.423L674.681 543.684L685.398 532.985Z" fill="#454D70" fill-opacity="0.16"/>
<path d="M763.088 316.075C763.067 296.292 755.196 277.325 741.201 263.336C727.206 249.347 708.232 241.479 688.44 241.458C686.486 241.54 684.639 242.373 683.286 243.784C681.932 245.195 681.176 247.075 681.176 249.03C681.176 250.985 681.932 252.864 683.286 254.275C684.639 255.686 686.486 256.52 688.44 256.601C703.844 257.164 718.43 263.676 729.128 274.768C739.827 285.86 745.805 300.668 745.805 316.075C745.805 331.483 739.827 346.291 729.128 357.383C718.43 368.475 703.844 374.987 688.44 375.55C686.433 375.55 684.508 376.347 683.089 377.766C681.67 379.184 680.873 381.108 680.873 383.115C680.873 385.121 681.67 387.045 683.089 388.464C684.508 389.883 686.433 390.68 688.44 390.68C708.229 390.659 727.202 382.792 741.196 368.806C755.191 354.82 763.063 335.856 763.088 316.075Z" fill="#454D70" fill-opacity="0.16"/>
<path d="M833.715 585.265L832.075 554.265L863.021 551.699L861.381 520.699L885.011 518.742L883.767 503.651L845.491 506.826L847.118 537.826L819.003 540.153L819.003 586.482L833.715 585.265Z" fill="#454D70" fill-opacity="0.16"/>
<path d="M1265.85 462.877C1265.83 443.094 1257.96 424.127 1243.97 410.138C1229.97 396.149 1211 388.281 1191.21 388.26C1189.25 388.342 1187.41 389.175 1186.05 390.586C1184.7 391.997 1183.94 393.877 1183.94 395.832C1183.94 397.787 1184.7 399.666 1186.05 401.077C1187.41 402.488 1189.25 403.322 1191.21 403.403C1206.61 403.966 1221.2 410.478 1231.89 421.57C1242.59 432.662 1248.57 447.469 1248.57 462.877C1248.57 478.285 1242.59 493.092 1231.89 504.184C1221.2 515.277 1206.61 521.789 1191.21 522.352C1189.2 522.352 1187.27 523.149 1185.86 524.567C1184.44 525.986 1183.64 527.91 1183.64 529.916C1183.64 531.923 1184.44 533.847 1185.86 535.266C1187.27 536.685 1189.2 537.482 1191.21 537.482C1211 537.461 1229.97 529.594 1243.96 515.608C1257.96 501.622 1265.83 482.658 1265.85 462.877Z" fill="#454D70" fill-opacity="0.16"/>
<path d="M1218.78 199.587C1222.66 205.617 1228.04 213.87 1239.06 213.87L1239.06 198.727C1236.63 198.727 1235.09 196.995 1231.51 191.387C1227.63 185.356 1222.31 177.103 1211.21 177.103C1200.11 177.103 1194.81 185.356 1190.93 191.387C1187.32 196.995 1185.81 198.727 1183.36 198.727C1180.91 198.727 1179.39 196.995 1175.81 191.387C1171.92 185.356 1166.55 177.103 1155.51 177.103C1144.48 177.103 1139.09 185.356 1135.21 191.387C1131.6 196.995 1130.09 198.727 1127.65 198.727L1127.65 213.87C1138.75 213.87 1144.07 205.617 1147.94 199.587C1151.55 193.992 1153.06 192.247 1155.51 192.247C1157.96 192.247 1159.48 193.992 1163.07 199.587C1166.96 205.617 1172.33 213.87 1183.36 213.87C1194.4 213.87 1199.78 205.617 1203.66 199.587C1207.26 193.992 1208.78 192.247 1211.21 192.247C1213.65 192.247 1215.18 193.992 1218.78 199.587Z" fill="#454D70" fill-opacity="0.16"/>
</g>
</svg>
