<svg width="220" height="160" viewBox="0 0 220 160" fill="none" xmlns="http://www.w3.org/2000/svg">
<rect width="220" height="160" rx="9" fill="#3F3F3F"/>
<rect x="9.12451" y="10.0901" width="200.737" height="38.9189" rx="5" fill="#52A1FF"/>
<path d="M21.0925 24.504H24.0805C24.6245 24.504 25.0725 24.58 25.4245 24.732C25.7765 24.876 26.0525 25.064 26.2525 25.296C26.4605 25.52 26.6045 25.776 26.6845 26.064C26.7645 26.344 26.8045 26.616 26.8045 26.88C26.8045 27.144 26.7645 27.42 26.6845 27.708C26.6045 27.988 26.4605 28.244 26.2525 28.476C26.0525 28.7 25.7765 28.888 25.4245 29.04C25.0725 29.184 24.6245 29.256 24.0805 29.256H22.2445V33H21.0925V24.504ZM22.2445 28.248H23.7565C23.9805 28.248 24.2005 28.232 24.4165 28.2C24.6405 28.16 24.8365 28.092 25.0045 27.996C25.1805 27.9 25.3205 27.764 25.4245 27.588C25.5285 27.404 25.5805 27.168 25.5805 26.88C25.5805 26.592 25.5285 26.36 25.4245 26.184C25.3205 26 25.1805 25.86 25.0045 25.764C24.8365 25.668 24.6405 25.604 24.4165 25.572C24.2005 25.532 23.9805 25.512 23.7565 25.512H22.2445V28.248ZM27.9538 28.008C28.2578 27.728 28.6098 27.52 29.0098 27.384C29.4098 27.24 29.8098 27.168 30.2098 27.168C30.6258 27.168 30.9818 27.22 31.2778 27.324C31.5818 27.428 31.8298 27.568 32.0218 27.744C32.2138 27.92 32.3538 28.124 32.4418 28.356C32.5378 28.58 32.5858 28.816 32.5858 29.064V31.968C32.5858 32.168 32.5898 32.352 32.5978 32.52C32.6058 32.688 32.6178 32.848 32.6338 33H31.6738C31.6498 32.712 31.6378 32.424 31.6378 32.136H31.6138C31.3738 32.504 31.0898 32.764 30.7618 32.916C30.4338 33.068 30.0538 33.144 29.6218 33.144C29.3578 33.144 29.1058 33.108 28.8658 33.036C28.6258 32.964 28.4138 32.856 28.2298 32.712C28.0538 32.568 27.9138 32.392 27.8098 32.184C27.7058 31.968 27.6538 31.72 27.6538 31.44C27.6538 31.072 27.7338 30.764 27.8938 30.516C28.0618 30.268 28.2858 30.068 28.5658 29.916C28.8538 29.756 29.1858 29.644 29.5618 29.58C29.9458 29.508 30.3538 29.472 30.7858 29.472H31.5778V29.232C31.5778 29.088 31.5498 28.944 31.4938 28.8C31.4378 28.656 31.3538 28.528 31.2418 28.416C31.1298 28.296 30.9898 28.204 30.8218 28.14C30.6538 28.068 30.4538 28.032 30.2218 28.032C30.0138 28.032 29.8298 28.052 29.6698 28.092C29.5178 28.132 29.3778 28.184 29.2498 28.248C29.1218 28.304 29.0058 28.372 28.9018 28.452C28.7978 28.532 28.6978 28.608 28.6018 28.68L27.9538 28.008ZM31.0018 30.264C30.7458 30.264 30.4818 30.28 30.2098 30.312C29.9458 30.336 29.7018 30.388 29.4778 30.468C29.2618 30.548 29.0818 30.66 28.9378 30.804C28.8018 30.948 28.7338 31.132 28.7338 31.356C28.7338 31.684 28.8418 31.92 29.0578 32.064C29.2818 32.208 29.5818 32.28 29.9578 32.28C30.2538 32.28 30.5058 32.232 30.7138 32.136C30.9218 32.032 31.0898 31.9 31.2178 31.74C31.3458 31.58 31.4378 31.404 31.4938 31.212C31.5498 31.012 31.5778 30.816 31.5778 30.624V30.264H31.0018ZM34.1524 27.312H35.2324V28.188H35.2564C35.3284 28.036 35.4244 27.9 35.5444 27.78C35.6644 27.652 35.7964 27.544 35.9404 27.456C36.0924 27.368 36.2564 27.3 36.4324 27.252C36.6084 27.196 36.7844 27.168 36.9604 27.168C37.1364 27.168 37.2964 27.192 37.4404 27.24L37.3924 28.404C37.3044 28.38 37.2164 28.36 37.1284 28.344C37.0404 28.328 36.9524 28.32 36.8644 28.32C36.3364 28.32 35.9324 28.468 35.6524 28.764C35.3724 29.06 35.2324 29.52 35.2324 30.144V33H34.1524V27.312ZM39.1989 30.552C39.1989 30.8 39.2509 31.028 39.3549 31.236C39.4669 31.436 39.6109 31.608 39.7869 31.752C39.9629 31.896 40.1669 32.008 40.3989 32.088C40.6309 32.168 40.8709 32.208 41.1189 32.208C41.4549 32.208 41.7469 32.132 41.9949 31.98C42.2429 31.82 42.4709 31.612 42.6789 31.356L43.4949 31.98C42.8949 32.756 42.0549 33.144 40.9749 33.144C40.5269 33.144 40.1189 33.068 39.7509 32.916C39.3909 32.764 39.0829 32.556 38.8269 32.292C38.5789 32.02 38.3869 31.704 38.2509 31.344C38.1149 30.976 38.0469 30.58 38.0469 30.156C38.0469 29.732 38.1189 29.34 38.2629 28.98C38.4149 28.612 38.6189 28.296 38.8749 28.032C39.1389 27.76 39.4509 27.548 39.8109 27.396C40.1709 27.244 40.5629 27.168 40.9869 27.168C41.4909 27.168 41.9149 27.256 42.2589 27.432C42.6109 27.608 42.8989 27.84 43.1229 28.128C43.3469 28.408 43.5069 28.728 43.6029 29.088C43.7069 29.44 43.7589 29.8 43.7589 30.168V30.552H39.1989ZM42.6069 29.688C42.5989 29.448 42.5589 29.228 42.4869 29.028C42.4229 28.828 42.3229 28.656 42.1869 28.512C42.0509 28.36 41.8789 28.244 41.6709 28.164C41.4709 28.076 41.2349 28.032 40.9629 28.032C40.6989 28.032 40.4549 28.084 40.2309 28.188C40.0149 28.284 39.8309 28.412 39.6789 28.572C39.5269 28.732 39.4069 28.912 39.3189 29.112C39.2389 29.304 39.1989 29.496 39.1989 29.688H42.6069ZM45.0509 27.312H46.1309V28.188H46.1549C46.2909 27.884 46.5269 27.64 46.8629 27.456C47.1989 27.264 47.5869 27.168 48.0269 27.168C48.2989 27.168 48.5589 27.212 48.8069 27.3C49.0629 27.38 49.2829 27.508 49.4669 27.684C49.6589 27.86 49.8109 28.088 49.9229 28.368C50.0349 28.64 50.0909 28.964 50.0909 29.34V33H49.0109V29.64C49.0109 29.376 48.9749 29.152 48.9029 28.968C48.8309 28.776 48.7349 28.624 48.6149 28.512C48.4949 28.392 48.3549 28.308 48.1949 28.26C48.0429 28.204 47.8829 28.176 47.7149 28.176C47.4909 28.176 47.2829 28.212 47.0909 28.284C46.8989 28.356 46.7309 28.472 46.5869 28.632C46.4429 28.784 46.3309 28.98 46.2509 29.22C46.1709 29.46 46.1309 29.744 46.1309 30.072V33H45.0509V27.312ZM54.7668 28.248H53.2188V30.828C53.2188 30.988 53.2228 31.148 53.2308 31.308C53.2388 31.46 53.2668 31.6 53.3148 31.728C53.3708 31.848 53.4508 31.948 53.5548 32.028C53.6668 32.1 53.8268 32.136 54.0348 32.136C54.1628 32.136 54.2948 32.124 54.4308 32.1C54.5668 32.076 54.6908 32.032 54.8028 31.968V32.952C54.6748 33.024 54.5068 33.072 54.2988 33.096C54.0988 33.128 53.9428 33.144 53.8308 33.144C53.4148 33.144 53.0908 33.088 52.8588 32.976C52.6348 32.856 52.4668 32.704 52.3548 32.52C52.2508 32.336 52.1868 32.132 52.1628 31.908C52.1468 31.676 52.1388 31.444 52.1388 31.212V28.248H50.8908V27.312H52.1388V25.716H53.2188V27.312H54.7668V28.248ZM59.1842 28.74C59.0562 28.58 58.8962 28.448 58.7042 28.344C58.5202 28.232 58.2922 28.176 58.0202 28.176C57.7642 28.176 57.5402 28.232 57.3482 28.344C57.1642 28.448 57.0722 28.604 57.0722 28.812C57.0722 28.98 57.1242 29.116 57.2282 29.22C57.3402 29.324 57.4682 29.408 57.6122 29.472C57.7642 29.536 57.9242 29.584 58.0922 29.616C58.2602 29.648 58.4042 29.676 58.5242 29.7C58.7562 29.756 58.9722 29.824 59.1722 29.904C59.3802 29.984 59.5562 30.088 59.7002 30.216C59.8522 30.344 59.9682 30.5 60.0482 30.684C60.1362 30.868 60.1802 31.092 60.1802 31.356C60.1802 31.676 60.1122 31.952 59.9762 32.184C59.8402 32.408 59.6642 32.592 59.4482 32.736C59.2322 32.88 58.9842 32.984 58.7042 33.048C58.4322 33.112 58.1562 33.144 57.8762 33.144C57.4042 33.144 56.9882 33.072 56.6282 32.928C56.2762 32.784 55.9602 32.52 55.6802 32.136L56.4962 31.464C56.6722 31.64 56.8682 31.796 57.0842 31.932C57.3002 32.068 57.5642 32.136 57.8762 32.136C58.0122 32.136 58.1482 32.124 58.2842 32.1C58.4282 32.068 58.5522 32.024 58.6562 31.968C58.7682 31.904 58.8562 31.828 58.9202 31.74C58.9922 31.644 59.0282 31.536 59.0282 31.416C59.0282 31.256 58.9762 31.124 58.8722 31.02C58.7762 30.916 58.6562 30.836 58.5122 30.78C58.3762 30.716 58.2282 30.668 58.0682 30.636C57.9162 30.596 57.7802 30.564 57.6602 30.54C57.4282 30.484 57.2082 30.42 57.0002 30.348C56.7922 30.276 56.6082 30.18 56.4482 30.06C56.2882 29.94 56.1602 29.788 56.0642 29.604C55.9682 29.42 55.9202 29.192 55.9202 28.92C55.9202 28.624 55.9802 28.368 56.1002 28.152C56.2282 27.928 56.3922 27.744 56.5922 27.6C56.8002 27.456 57.0322 27.348 57.2882 27.276C57.5522 27.204 57.8162 27.168 58.0802 27.168C58.4642 27.168 58.8322 27.24 59.1842 27.384C59.5362 27.528 59.8162 27.768 60.0242 28.104L59.1842 28.74ZM65.7081 30.156C65.7081 30.444 65.7521 30.712 65.8401 30.96C65.9281 31.2 66.0521 31.408 66.2121 31.584C66.3721 31.752 66.5681 31.888 66.8001 31.992C67.0321 32.088 67.2921 32.136 67.5801 32.136C67.8681 32.136 68.1281 32.088 68.3601 31.992C68.5921 31.888 68.7881 31.752 68.9481 31.584C69.1081 31.408 69.2321 31.2 69.3201 30.96C69.4081 30.712 69.4521 30.444 69.4521 30.156C69.4521 29.868 69.4081 29.604 69.3201 29.364C69.2321 29.116 69.1081 28.908 68.9481 28.74C68.7881 28.564 68.5921 28.428 68.3601 28.332C68.1281 28.228 67.8681 28.176 67.5801 28.176C67.2921 28.176 67.0321 28.228 66.8001 28.332C66.5681 28.428 66.3721 28.564 66.2121 28.74C66.0521 28.908 65.9281 29.116 65.8401 29.364C65.7521 29.604 65.7081 29.868 65.7081 30.156ZM64.5561 30.156C64.5561 29.74 64.6321 29.352 64.7841 28.992C64.9441 28.632 65.1601 28.316 65.4321 28.044C65.7041 27.772 66.0241 27.56 66.3921 27.408C66.7601 27.248 67.1561 27.168 67.5801 27.168C68.0041 27.168 68.4001 27.248 68.7681 27.408C69.1361 27.56 69.4561 27.772 69.7281 28.044C70.0001 28.316 70.2121 28.632 70.3641 28.992C70.5241 29.352 70.6041 29.74 70.6041 30.156C70.6041 30.572 70.5241 30.964 70.3641 31.332C70.2121 31.692 70.0001 32.008 69.7281 32.28C69.4561 32.544 69.1361 32.756 68.7681 32.916C68.4001 33.068 68.0041 33.144 67.5801 33.144C67.1561 33.144 66.7601 33.068 66.3921 32.916C66.0241 32.756 65.7041 32.544 65.4321 32.28C65.1601 32.008 64.9441 31.692 64.7841 31.332C64.6321 30.964 64.5561 30.572 64.5561 30.156ZM72.3771 28.248H71.1531V27.312H72.3771V26.04C72.3771 25.28 72.5211 24.716 72.8091 24.348C73.1051 23.972 73.6091 23.784 74.3211 23.784C74.4411 23.784 74.5651 23.788 74.6931 23.796C74.8291 23.804 74.9731 23.828 75.1251 23.868L75.0051 24.828C74.9011 24.788 74.8011 24.76 74.7051 24.744C74.6091 24.728 74.5051 24.72 74.3931 24.72C74.1931 24.72 74.0331 24.752 73.9131 24.816C73.7931 24.872 73.6971 24.956 73.6251 25.068C73.5611 25.18 73.5171 25.316 73.4931 25.476C73.4771 25.628 73.4691 25.804 73.4691 26.004V27.312H74.7531V28.248H73.4571V33H72.3771V28.248ZM82.3411 28.248H80.7931V30.828C80.7931 30.988 80.7971 31.148 80.8051 31.308C80.8131 31.46 80.8411 31.6 80.8891 31.728C80.9451 31.848 81.0251 31.948 81.1291 32.028C81.2411 32.1 81.4011 32.136 81.6091 32.136C81.7371 32.136 81.8691 32.124 82.0051 32.1C82.1411 32.076 82.2651 32.032 82.3771 31.968V32.952C82.2491 33.024 82.0811 33.072 81.8731 33.096C81.6731 33.128 81.5171 33.144 81.4051 33.144C80.9891 33.144 80.6651 33.088 80.4331 32.976C80.2091 32.856 80.0411 32.704 79.9291 32.52C79.8251 32.336 79.7611 32.132 79.7371 31.908C79.7211 31.676 79.7131 31.444 79.7131 31.212V28.248H78.4651V27.312H79.7131V25.716H80.7931V27.312H82.3411V28.248ZM84.5505 30.552C84.5505 30.8 84.6025 31.028 84.7065 31.236C84.8185 31.436 84.9625 31.608 85.1385 31.752C85.3145 31.896 85.5185 32.008 85.7505 32.088C85.9825 32.168 86.2225 32.208 86.4705 32.208C86.8065 32.208 87.0985 32.132 87.3465 31.98C87.5945 31.82 87.8225 31.612 88.0305 31.356L88.8465 31.98C88.2465 32.756 87.4065 33.144 86.3265 33.144C85.8785 33.144 85.4705 33.068 85.1025 32.916C84.7425 32.764 84.4345 32.556 84.1785 32.292C83.9305 32.02 83.7385 31.704 83.6025 31.344C83.4665 30.976 83.3985 30.58 83.3985 30.156C83.3985 29.732 83.4705 29.34 83.6145 28.98C83.7665 28.612 83.9705 28.296 84.2265 28.032C84.4905 27.76 84.8025 27.548 85.1625 27.396C85.5225 27.244 85.9145 27.168 86.3385 27.168C86.8425 27.168 87.2665 27.256 87.6105 27.432C87.9625 27.608 88.2505 27.84 88.4745 28.128C88.6985 28.408 88.8585 28.728 88.9545 29.088C89.0585 29.44 89.1105 29.8 89.1105 30.168V30.552H84.5505ZM87.9585 29.688C87.9505 29.448 87.9105 29.228 87.8385 29.028C87.7745 28.828 87.6745 28.656 87.5385 28.512C87.4025 28.36 87.2305 28.244 87.0225 28.164C86.8225 28.076 86.5865 28.032 86.3145 28.032C86.0505 28.032 85.8065 28.084 85.5825 28.188C85.3665 28.284 85.1825 28.412 85.0305 28.572C84.8785 28.732 84.7585 28.912 84.6705 29.112C84.5905 29.304 84.5505 29.496 84.5505 29.688H87.9585ZM91.2184 30.552C91.2184 30.8 91.2704 31.028 91.3744 31.236C91.4864 31.436 91.6304 31.608 91.8064 31.752C91.9824 31.896 92.1864 32.008 92.4184 32.088C92.6504 32.168 92.8904 32.208 93.1384 32.208C93.4744 32.208 93.7664 32.132 94.0144 31.98C94.2624 31.82 94.4904 31.612 94.6984 31.356L95.5144 31.98C94.9144 32.756 94.0744 33.144 92.9944 33.144C92.5464 33.144 92.1384 33.068 91.7704 32.916C91.4104 32.764 91.1024 32.556 90.8464 32.292C90.5984 32.02 90.4064 31.704 90.2704 31.344C90.1344 30.976 90.0664 30.58 90.0664 30.156C90.0664 29.732 90.1384 29.34 90.2824 28.98C90.4344 28.612 90.6384 28.296 90.8944 28.032C91.1584 27.76 91.4704 27.548 91.8304 27.396C92.1904 27.244 92.5824 27.168 93.0064 27.168C93.5104 27.168 93.9344 27.256 94.2784 27.432C94.6304 27.608 94.9184 27.84 95.1424 28.128C95.3664 28.408 95.5264 28.728 95.6224 29.088C95.7264 29.44 95.7784 29.8 95.7784 30.168V30.552H91.2184ZM94.6264 29.688C94.6184 29.448 94.5784 29.228 94.5064 29.028C94.4424 28.828 94.3424 28.656 94.2064 28.512C94.0704 28.36 93.8984 28.244 93.6904 28.164C93.4904 28.076 93.2544 28.032 92.9824 28.032C92.7184 28.032 92.4744 28.084 92.2504 28.188C92.0344 28.284 91.8504 28.412 91.6984 28.572C91.5464 28.732 91.4264 28.912 91.3384 29.112C91.2584 29.304 91.2184 29.496 91.2184 29.688H94.6264ZM97.0704 27.312H98.1504V28.188H98.1744C98.3104 27.884 98.5464 27.64 98.8824 27.456C99.2184 27.264 99.6064 27.168 100.046 27.168C100.318 27.168 100.578 27.212 100.826 27.3C101.082 27.38 101.302 27.508 101.486 27.684C101.678 27.86 101.83 28.088 101.942 28.368C102.054 28.64 102.11 28.964 102.11 29.34V33H101.03V29.64C101.03 29.376 100.994 29.152 100.922 28.968C100.85 28.776 100.754 28.624 100.634 28.512C100.514 28.392 100.374 28.308 100.214 28.26C100.062 28.204 99.9024 28.176 99.7344 28.176C99.5104 28.176 99.3024 28.212 99.1104 28.284C98.9184 28.356 98.7504 28.472 98.6064 28.632C98.4624 28.784 98.3504 28.98 98.2704 29.22C98.1904 29.46 98.1504 29.744 98.1504 30.072V33H97.0704V27.312ZM103.762 28.008C104.066 27.728 104.418 27.52 104.818 27.384C105.218 27.24 105.618 27.168 106.018 27.168C106.434 27.168 106.79 27.22 107.086 27.324C107.39 27.428 107.638 27.568 107.83 27.744C108.022 27.92 108.162 28.124 108.25 28.356C108.346 28.58 108.394 28.816 108.394 29.064V31.968C108.394 32.168 108.398 32.352 108.406 32.52C108.414 32.688 108.426 32.848 108.442 33H107.482C107.458 32.712 107.446 32.424 107.446 32.136H107.422C107.182 32.504 106.898 32.764 106.57 32.916C106.242 33.068 105.862 33.144 105.43 33.144C105.166 33.144 104.914 33.108 104.674 33.036C104.434 32.964 104.222 32.856 104.038 32.712C103.862 32.568 103.722 32.392 103.618 32.184C103.514 31.968 103.462 31.72 103.462 31.44C103.462 31.072 103.542 30.764 103.702 30.516C103.87 30.268 104.094 30.068 104.374 29.916C104.662 29.756 104.994 29.644 105.37 29.58C105.754 29.508 106.162 29.472 106.594 29.472H107.386V29.232C107.386 29.088 107.358 28.944 107.302 28.8C107.246 28.656 107.162 28.528 107.05 28.416C106.938 28.296 106.798 28.204 106.63 28.14C106.462 28.068 106.262 28.032 106.03 28.032C105.822 28.032 105.638 28.052 105.478 28.092C105.326 28.132 105.186 28.184 105.058 28.248C104.93 28.304 104.814 28.372 104.71 28.452C104.606 28.532 104.506 28.608 104.41 28.68L103.762 28.008ZM106.81 30.264C106.554 30.264 106.29 30.28 106.018 30.312C105.754 30.336 105.51 30.388 105.286 30.468C105.07 30.548 104.89 30.66 104.746 30.804C104.61 30.948 104.542 31.132 104.542 31.356C104.542 31.684 104.65 31.92 104.866 32.064C105.09 32.208 105.39 32.28 105.766 32.28C106.062 32.28 106.314 32.232 106.522 32.136C106.73 32.032 106.898 31.9 107.026 31.74C107.154 31.58 107.246 31.404 107.302 31.212C107.358 31.012 107.386 30.816 107.386 30.624V30.264H106.81ZM115.661 32.952C115.661 33.384 115.585 33.776 115.433 34.128C115.289 34.488 115.081 34.796 114.809 35.052C114.537 35.316 114.209 35.52 113.825 35.664C113.441 35.808 113.017 35.88 112.553 35.88C112.009 35.88 111.509 35.804 111.053 35.652C110.605 35.5 110.177 35.236 109.769 34.86L110.501 33.948C110.781 34.252 111.085 34.48 111.413 34.632C111.741 34.792 112.113 34.872 112.529 34.872C112.929 34.872 113.261 34.812 113.525 34.692C113.789 34.58 113.997 34.432 114.149 34.248C114.309 34.064 114.421 33.852 114.485 33.612C114.549 33.38 114.581 33.144 114.581 32.904V32.064H114.545C114.337 32.408 114.053 32.664 113.693 32.832C113.341 32.992 112.969 33.072 112.577 33.072C112.161 33.072 111.773 33 111.413 32.856C111.061 32.704 110.757 32.5 110.501 32.244C110.245 31.98 110.045 31.672 109.901 31.32C109.757 30.96 109.685 30.572 109.685 30.156C109.685 29.74 109.753 29.352 109.889 28.992C110.025 28.624 110.217 28.304 110.465 28.032C110.721 27.76 111.025 27.548 111.377 27.396C111.737 27.244 112.137 27.168 112.577 27.168C112.961 27.168 113.333 27.252 113.693 27.42C114.061 27.588 114.349 27.824 114.557 28.128H114.581V27.312H115.661V32.952ZM112.709 28.176C112.421 28.176 112.161 28.228 111.929 28.332C111.697 28.428 111.501 28.564 111.341 28.74C111.181 28.908 111.057 29.116 110.969 29.364C110.881 29.604 110.837 29.868 110.837 30.156C110.837 30.732 111.005 31.196 111.341 31.548C111.677 31.892 112.133 32.064 112.709 32.064C113.285 32.064 113.741 31.892 114.077 31.548C114.413 31.196 114.581 30.732 114.581 30.156C114.581 29.868 114.537 29.604 114.449 29.364C114.361 29.116 114.237 28.908 114.077 28.74C113.917 28.564 113.721 28.428 113.489 28.332C113.257 28.228 112.997 28.176 112.709 28.176ZM118.113 30.552C118.113 30.8 118.165 31.028 118.269 31.236C118.381 31.436 118.525 31.608 118.701 31.752C118.877 31.896 119.081 32.008 119.313 32.088C119.545 32.168 119.785 32.208 120.033 32.208C120.369 32.208 120.661 32.132 120.909 31.98C121.157 31.82 121.385 31.612 121.593 31.356L122.409 31.98C121.809 32.756 120.969 33.144 119.889 33.144C119.441 33.144 119.033 33.068 118.665 32.916C118.305 32.764 117.997 32.556 117.741 32.292C117.493 32.02 117.301 31.704 117.165 31.344C117.029 30.976 116.961 30.58 116.961 30.156C116.961 29.732 117.033 29.34 117.177 28.98C117.329 28.612 117.533 28.296 117.789 28.032C118.053 27.76 118.365 27.548 118.725 27.396C119.085 27.244 119.477 27.168 119.901 27.168C120.405 27.168 120.829 27.256 121.173 27.432C121.525 27.608 121.813 27.84 122.037 28.128C122.261 28.408 122.421 28.728 122.517 29.088C122.621 29.44 122.673 29.8 122.673 30.168V30.552H118.113ZM121.521 29.688C121.513 29.448 121.473 29.228 121.401 29.028C121.337 28.828 121.237 28.656 121.101 28.512C120.965 28.36 120.793 28.244 120.585 28.164C120.385 28.076 120.149 28.032 119.877 28.032C119.613 28.032 119.369 28.084 119.145 28.188C118.929 28.284 118.745 28.412 118.593 28.572C118.441 28.732 118.321 28.912 118.233 29.112C118.153 29.304 118.113 29.496 118.113 29.688H121.521ZM123.965 27.312H125.045V28.188H125.069C125.141 28.036 125.237 27.9 125.357 27.78C125.477 27.652 125.609 27.544 125.753 27.456C125.905 27.368 126.069 27.3 126.245 27.252C126.421 27.196 126.597 27.168 126.773 27.168C126.949 27.168 127.109 27.192 127.253 27.24L127.205 28.404C127.117 28.38 127.029 28.36 126.941 28.344C126.853 28.328 126.765 28.32 126.677 28.32C126.149 28.32 125.745 28.468 125.465 28.764C125.185 29.06 125.045 29.52 125.045 30.144V33H123.965V27.312ZM131.43 28.74C131.302 28.58 131.142 28.448 130.95 28.344C130.766 28.232 130.538 28.176 130.266 28.176C130.01 28.176 129.786 28.232 129.594 28.344C129.41 28.448 129.318 28.604 129.318 28.812C129.318 28.98 129.37 29.116 129.474 29.22C129.586 29.324 129.714 29.408 129.858 29.472C130.01 29.536 130.17 29.584 130.338 29.616C130.506 29.648 130.65 29.676 130.77 29.7C131.002 29.756 131.218 29.824 131.418 29.904C131.626 29.984 131.802 30.088 131.946 30.216C132.098 30.344 132.214 30.5 132.294 30.684C132.382 30.868 132.426 31.092 132.426 31.356C132.426 31.676 132.358 31.952 132.222 32.184C132.086 32.408 131.91 32.592 131.694 32.736C131.478 32.88 131.23 32.984 130.95 33.048C130.678 33.112 130.402 33.144 130.122 33.144C129.65 33.144 129.234 33.072 128.874 32.928C128.522 32.784 128.206 32.52 127.926 32.136L128.742 31.464C128.918 31.64 129.114 31.796 129.33 31.932C129.546 32.068 129.81 32.136 130.122 32.136C130.258 32.136 130.394 32.124 130.53 32.1C130.674 32.068 130.798 32.024 130.902 31.968C131.014 31.904 131.102 31.828 131.166 31.74C131.238 31.644 131.274 31.536 131.274 31.416C131.274 31.256 131.222 31.124 131.118 31.02C131.022 30.916 130.902 30.836 130.758 30.78C130.622 30.716 130.474 30.668 130.314 30.636C130.162 30.596 130.026 30.564 129.906 30.54C129.674 30.484 129.454 30.42 129.246 30.348C129.038 30.276 128.854 30.18 128.694 30.06C128.534 29.94 128.406 29.788 128.31 29.604C128.214 29.42 128.166 29.192 128.166 28.92C128.166 28.624 128.226 28.368 128.346 28.152C128.474 27.928 128.638 27.744 128.838 27.6C129.046 27.456 129.278 27.348 129.534 27.276C129.798 27.204 130.062 27.168 130.326 27.168C130.71 27.168 131.078 27.24 131.43 27.384C131.782 27.528 132.062 27.768 132.27 28.104L131.43 28.74Z" fill="white" fill-opacity="0.85"/>
<path d="M191.613 25L196.176 29.5M200.738 34L196.176 29.5M196.176 29.5L200.738 25L191.613 34" stroke="white" stroke-opacity="0.5" stroke-linecap="round" stroke-linejoin="round"/>
<rect x="9.12451" y="59.0991" width="200.737" height="38.9189" rx="5" fill="#52A1FF"/>
<path d="M23.8483 74.3858H24.8923L28.5283 82.8818H27.1843L26.3323 80.7818H22.2883L21.4483 82.8818H20.1043L23.8483 74.3858ZM25.9123 79.7738L24.3283 75.8738H24.3043L22.6963 79.7738H25.9123ZM35.0575 82.8338C35.0575 83.2658 34.9815 83.6578 34.8295 84.0098C34.6855 84.3698 34.4775 84.6778 34.2055 84.9338C33.9335 85.1978 33.6055 85.4018 33.2215 85.5458C32.8375 85.6898 32.4135 85.7618 31.9495 85.7618C31.4055 85.7618 30.9055 85.6858 30.4495 85.5338C30.0015 85.3818 29.5735 85.1178 29.1655 84.7418L29.8975 83.8298C30.1775 84.1338 30.4815 84.3618 30.8095 84.5138C31.1375 84.6738 31.5095 84.7538 31.9255 84.7538C32.3255 84.7538 32.6575 84.6938 32.9215 84.5738C33.1855 84.4618 33.3935 84.3138 33.5455 84.1298C33.7055 83.9458 33.8175 83.7338 33.8815 83.4938C33.9455 83.2618 33.9775 83.0258 33.9775 82.7858V81.9458H33.9415C33.7335 82.2898 33.4495 82.5458 33.0895 82.7138C32.7375 82.8738 32.3655 82.9538 31.9735 82.9538C31.5575 82.9538 31.1695 82.8818 30.8095 82.7378C30.4575 82.5858 30.1535 82.3818 29.8975 82.1258C29.6415 81.8618 29.4415 81.5538 29.2975 81.2018C29.1535 80.8418 29.0815 80.4538 29.0815 80.0378C29.0815 79.6218 29.1495 79.2338 29.2855 78.8738C29.4215 78.5058 29.6135 78.1858 29.8615 77.9138C30.1175 77.6418 30.4215 77.4298 30.7735 77.2778C31.1335 77.1258 31.5335 77.0498 31.9735 77.0498C32.3575 77.0498 32.7295 77.1338 33.0895 77.3018C33.4575 77.4698 33.7455 77.7058 33.9535 78.0098H33.9775V77.1938H35.0575V82.8338ZM32.1055 78.0578C31.8175 78.0578 31.5575 78.1098 31.3255 78.2138C31.0935 78.3098 30.8975 78.4458 30.7375 78.6218C30.5775 78.7898 30.4535 78.9978 30.3655 79.2458C30.2775 79.4858 30.2335 79.7498 30.2335 80.0378C30.2335 80.6138 30.4015 81.0778 30.7375 81.4298C31.0735 81.7738 31.5295 81.9458 32.1055 81.9458C32.6815 81.9458 33.1375 81.7738 33.4735 81.4298C33.8095 81.0778 33.9775 80.6138 33.9775 80.0378C33.9775 79.7498 33.9335 79.4858 33.8455 79.2458C33.7575 78.9978 33.6335 78.7898 33.4735 78.6218C33.3135 78.4458 33.1175 78.3098 32.8855 78.2138C32.6535 78.1098 32.3935 78.0578 32.1055 78.0578ZM37.5094 80.4338C37.5094 80.6818 37.5614 80.9098 37.6654 81.1178C37.7774 81.3178 37.9214 81.4898 38.0974 81.6338C38.2734 81.7778 38.4774 81.8898 38.7094 81.9698C38.9414 82.0498 39.1814 82.0898 39.4294 82.0898C39.7654 82.0898 40.0574 82.0138 40.3054 81.8618C40.5534 81.7018 40.7814 81.4938 40.9894 81.2378L41.8054 81.8618C41.2054 82.6378 40.3654 83.0258 39.2854 83.0258C38.8374 83.0258 38.4294 82.9498 38.0614 82.7978C37.7014 82.6458 37.3934 82.4378 37.1374 82.1738C36.8894 81.9018 36.6974 81.5858 36.5614 81.2258C36.4254 80.8578 36.3574 80.4618 36.3574 80.0378C36.3574 79.6138 36.4294 79.2218 36.5734 78.8618C36.7254 78.4938 36.9294 78.1778 37.1854 77.9138C37.4494 77.6418 37.7614 77.4298 38.1214 77.2778C38.4814 77.1258 38.8734 77.0498 39.2974 77.0498C39.8014 77.0498 40.2254 77.1378 40.5694 77.3138C40.9214 77.4898 41.2094 77.7218 41.4334 78.0098C41.6574 78.2898 41.8174 78.6098 41.9134 78.9698C42.0174 79.3218 42.0694 79.6818 42.0694 80.0498V80.4338H37.5094ZM40.9174 79.5698C40.9094 79.3298 40.8694 79.1098 40.7974 78.9098C40.7334 78.7098 40.6334 78.5378 40.4974 78.3938C40.3614 78.2418 40.1894 78.1258 39.9814 78.0458C39.7814 77.9578 39.5454 77.9138 39.2734 77.9138C39.0094 77.9138 38.7654 77.9658 38.5414 78.0698C38.3254 78.1658 38.1414 78.2938 37.9894 78.4538C37.8374 78.6138 37.7174 78.7938 37.6294 78.9938C37.5494 79.1858 37.5094 79.3778 37.5094 79.5698H40.9174ZM47.6493 80.8058C47.7853 81.2138 47.9653 81.5178 48.1893 81.7178C48.4213 81.9178 48.7613 82.0178 49.2093 82.0178C49.4333 82.0178 49.6413 81.9818 49.8333 81.9098C50.0333 81.8298 50.2093 81.7258 50.3613 81.5978C50.5133 81.4618 50.6333 81.3018 50.7213 81.1178C50.8093 80.9258 50.8533 80.7138 50.8533 80.4818C50.8533 80.1298 50.7773 79.8498 50.6253 79.6418C50.4813 79.4258 50.2933 79.2658 50.0613 79.1618C49.8293 79.0498 49.5733 78.9778 49.2933 78.9458C49.0133 78.9138 48.7373 78.8978 48.4653 78.8978V77.8898C48.9053 77.8898 49.2653 77.8618 49.5453 77.8058C49.8253 77.7418 50.0453 77.6538 50.2053 77.5418C50.3653 77.4298 50.4773 77.2898 50.5413 77.1218C50.6053 76.9538 50.6373 76.7658 50.6373 76.5578C50.6373 76.1018 50.5013 75.7578 50.2293 75.5258C49.9573 75.2938 49.6173 75.1778 49.2093 75.1778C48.8973 75.1778 48.6133 75.2698 48.3573 75.4538C48.1093 75.6298 47.9213 75.8658 47.7933 76.1618L46.6173 75.7658C46.8413 75.2218 47.1813 74.8218 47.6373 74.5658C48.1013 74.3018 48.6173 74.1698 49.1853 74.1698C49.5293 74.1698 49.8573 74.2178 50.1693 74.3138C50.4893 74.4018 50.7693 74.5418 51.0093 74.7338C51.2493 74.9258 51.4373 75.1698 51.5733 75.4658C51.7173 75.7538 51.7893 76.0938 51.7893 76.4858C51.7893 76.9338 51.6533 77.3338 51.3813 77.6858C51.1173 78.0378 50.7693 78.2778 50.3373 78.4058V78.4298C50.6013 78.4778 50.8373 78.5658 51.0453 78.6938C51.2533 78.8218 51.4293 78.9818 51.5733 79.1738C51.7173 79.3658 51.8253 79.5818 51.8973 79.8218C51.9693 80.0538 52.0053 80.3018 52.0053 80.5658C52.0053 80.9738 51.9253 81.3338 51.7653 81.6458C51.6133 81.9498 51.4053 82.2058 51.1413 82.4138C50.8853 82.6138 50.5853 82.7658 50.2413 82.8698C49.9053 82.9738 49.5493 83.0258 49.1733 83.0258C48.5253 83.0258 47.9533 82.8778 47.4573 82.5818C46.9693 82.2858 46.6293 81.8178 46.4373 81.1778L47.6493 80.8058ZM56.5852 81.0098H52.9612V79.8338L56.3452 74.3858H57.7372V80.0018H58.9372V81.0098H57.7372V82.8818H56.5852V81.0098ZM56.5852 75.7538H56.5612L53.9692 80.0018H56.5852V75.7538ZM62.5932 80.4818H59.6412V79.4738H62.5932V80.4818ZM68.6701 75.4658H65.2261L65.1901 77.5898C65.2461 77.5658 65.3261 77.5418 65.4301 77.5178C65.5341 77.4938 65.6381 77.4738 65.7421 77.4578C65.8541 77.4418 65.9621 77.4298 66.0661 77.4218C66.1701 77.4138 66.2581 77.4098 66.3301 77.4098C66.7301 77.4098 67.0901 77.4778 67.4101 77.6138C67.7381 77.7498 68.0181 77.9418 68.2501 78.1898C68.4821 78.4378 68.6581 78.7338 68.7781 79.0778C68.9061 79.4218 68.9701 79.8018 68.9701 80.2178C68.9701 80.6418 68.8901 81.0258 68.7301 81.3698C68.5781 81.7138 68.3661 82.0098 68.0941 82.2578C67.8221 82.5058 67.5061 82.6978 67.1461 82.8338C66.7861 82.9618 66.3981 83.0258 65.9821 83.0258C65.4061 83.0258 64.8861 82.8778 64.4221 82.5818C63.9581 82.2858 63.6261 81.8618 63.4261 81.3098L64.5901 80.9138C64.7421 81.3058 64.9461 81.5898 65.2021 81.7658C65.4581 81.9338 65.7781 82.0178 66.1621 82.0178C66.3861 82.0178 66.5981 81.9778 66.7981 81.8978C67.0061 81.8178 67.1821 81.7058 67.3261 81.5618C67.4781 81.4098 67.5981 81.2258 67.6861 81.0098C67.7741 80.7938 67.8181 80.5498 67.8181 80.2778C67.8181 79.6538 67.6261 79.1898 67.2421 78.8858C66.8661 78.5738 66.3741 78.4178 65.7661 78.4178C65.5501 78.4178 65.2741 78.4578 64.9381 78.5378C64.6101 78.6098 64.3021 78.7178 64.0141 78.8618L64.1101 74.3858H68.6701V75.4658ZM70.094 78.6338C70.094 78.3218 70.11 77.9978 70.142 77.6618C70.174 77.3258 70.23 76.9978 70.31 76.6778C70.398 76.3498 70.51 76.0378 70.646 75.7418C70.79 75.4458 70.97 75.1898 71.186 74.9738C71.41 74.7498 71.67 74.5738 71.966 74.4458C72.27 74.3098 72.622 74.2418 73.022 74.2418C73.422 74.2418 73.77 74.3098 74.066 74.4458C74.37 74.5738 74.63 74.7498 74.846 74.9738C75.07 75.1898 75.25 75.4458 75.386 75.7418C75.53 76.0378 75.642 76.3498 75.722 76.6778C75.81 76.9978 75.87 77.3258 75.902 77.6618C75.934 77.9978 75.95 78.3218 75.95 78.6338C75.95 79.0818 75.91 79.5618 75.83 80.0738C75.75 80.5858 75.602 81.0618 75.386 81.5018C75.17 81.9418 74.87 82.3058 74.486 82.5938C74.11 82.8818 73.622 83.0258 73.022 83.0258C72.422 83.0258 71.93 82.8818 71.546 82.5938C71.17 82.3058 70.874 81.9418 70.658 81.5018C70.442 81.0618 70.294 80.5858 70.214 80.0738C70.134 79.5618 70.094 79.0818 70.094 78.6338ZM71.246 78.6338C71.246 78.9138 71.262 79.2458 71.294 79.6298C71.334 80.0138 71.414 80.3858 71.534 80.7458C71.654 81.0978 71.83 81.3978 72.062 81.6458C72.302 81.8938 72.622 82.0178 73.022 82.0178C73.422 82.0178 73.738 81.8938 73.97 81.6458C74.21 81.3978 74.39 81.0978 74.51 80.7458C74.63 80.3858 74.706 80.0138 74.738 79.6298C74.778 79.2458 74.798 78.9138 74.798 78.6338C74.798 78.4418 74.79 78.2258 74.774 77.9858C74.766 77.7378 74.738 77.4898 74.69 77.2418C74.65 76.9858 74.59 76.7418 74.51 76.5098C74.43 76.2698 74.322 76.0578 74.186 75.8738C74.058 75.6818 73.898 75.5298 73.706 75.4178C73.514 75.3058 73.286 75.2498 73.022 75.2498C72.758 75.2498 72.53 75.3058 72.338 75.4178C72.146 75.5298 71.982 75.6818 71.846 75.8738C71.718 76.0578 71.614 76.2698 71.534 76.5098C71.454 76.7418 71.39 76.9858 71.342 77.2418C71.302 77.4898 71.274 77.7378 71.258 77.9858C71.25 78.2258 71.246 78.4418 71.246 78.6338Z" fill="white" fill-opacity="0.85"/>
<path d="M191.613 74L196.176 78.5M200.738 83L196.176 78.5M196.176 78.5L200.738 74L191.613 83" stroke="white" stroke-opacity="0.5" stroke-linecap="round" stroke-linejoin="round"/>
<rect x="9.12451" y="108.108" width="200.737" height="38.9189" rx="5" fill="#52A1FF"/>
<path d="M191.613 125L196.176 129.5M200.738 134L196.176 129.5M196.176 129.5L200.738 125L191.613 134" stroke="white" stroke-opacity="0.5" stroke-linecap="round" stroke-linejoin="round"/>
<path d="M21.3445 130.683C21.5525 130.995 21.8165 131.227 22.1365 131.379C22.4645 131.523 22.8005 131.595 23.1445 131.595C23.3365 131.595 23.5325 131.567 23.7325 131.511C23.9325 131.447 24.1125 131.355 24.2725 131.235C24.4405 131.115 24.5765 130.967 24.6805 130.791C24.7845 130.615 24.8365 130.411 24.8365 130.179C24.8365 129.851 24.7325 129.603 24.5245 129.435C24.3165 129.259 24.0565 129.115 23.7445 129.003C23.4405 128.883 23.1045 128.771 22.7365 128.667C22.3765 128.555 22.0405 128.403 21.7285 128.211C21.4245 128.019 21.1685 127.763 20.9605 127.443C20.7525 127.115 20.6485 126.675 20.6485 126.123C20.6485 125.875 20.7005 125.611 20.8045 125.331C20.9165 125.051 21.0885 124.795 21.3205 124.563C21.5525 124.331 21.8485 124.139 22.2085 123.987C22.5765 123.827 23.0165 123.747 23.5285 123.747C23.9925 123.747 24.4365 123.811 24.8605 123.939C25.2845 124.067 25.6565 124.327 25.9765 124.719L25.0405 125.571C24.8965 125.347 24.6925 125.167 24.4285 125.031C24.1645 124.895 23.8645 124.827 23.5285 124.827C23.2085 124.827 22.9405 124.871 22.7245 124.959C22.5165 125.039 22.3485 125.147 22.2205 125.283C22.0925 125.411 22.0005 125.551 21.9445 125.703C21.8965 125.855 21.8725 125.995 21.8725 126.123C21.8725 126.483 21.9765 126.759 22.1845 126.951C22.3925 127.143 22.6485 127.299 22.9525 127.419C23.2645 127.539 23.6005 127.647 23.9605 127.743C24.3285 127.839 24.6645 127.975 24.9685 128.151C25.2805 128.319 25.5405 128.551 25.7485 128.847C25.9565 129.135 26.0605 129.535 26.0605 130.047C26.0605 130.455 25.9805 130.823 25.8205 131.151C25.6685 131.479 25.4605 131.755 25.1965 131.979C24.9325 132.203 24.6205 132.375 24.2605 132.495C23.9005 132.615 23.5165 132.675 23.1085 132.675C22.5645 132.675 22.0485 132.579 21.5605 132.387C21.0725 132.195 20.6845 131.899 20.3965 131.499L21.3445 130.683ZM26.8005 126.771H28.0485L29.7405 131.211H29.7645L31.3725 126.771H32.5365L29.8365 133.683C29.7405 133.931 29.6405 134.155 29.5365 134.355C29.4325 134.563 29.3085 134.739 29.1645 134.883C29.0205 135.027 28.8445 135.139 28.6365 135.219C28.4365 135.299 28.1885 135.339 27.8925 135.339C27.7325 135.339 27.5685 135.327 27.4005 135.303C27.2405 135.287 27.0845 135.247 26.9325 135.183L27.0645 134.199C27.2805 134.287 27.4965 134.331 27.7125 134.331C27.8805 134.331 28.0205 134.307 28.1325 134.259C28.2525 134.219 28.3525 134.155 28.4325 134.067C28.5205 133.987 28.5925 133.891 28.6485 133.779C28.7045 133.667 28.7605 133.539 28.8165 133.395L29.1645 132.495L26.8005 126.771ZM39.1845 132.459H38.1045V131.643H38.0805C37.8725 131.947 37.5845 132.183 37.2165 132.351C36.8565 132.519 36.4845 132.603 36.1005 132.603C35.6605 132.603 35.2605 132.527 34.9005 132.375C34.5485 132.223 34.2445 132.011 33.9885 131.739C33.7405 131.467 33.5485 131.151 33.4125 130.791C33.2765 130.431 33.2085 130.039 33.2085 129.615C33.2085 129.191 33.2765 128.799 33.4125 128.439C33.5485 128.071 33.7405 127.755 33.9885 127.491C34.2445 127.219 34.5485 127.007 34.9005 126.855C35.2605 126.703 35.6605 126.627 36.1005 126.627C36.5085 126.627 36.8925 126.715 37.2525 126.891C37.6125 127.059 37.8885 127.291 38.0805 127.587H38.1045V123.387H39.1845V132.459ZM36.2325 131.595C36.5205 131.595 36.7805 131.547 37.0125 131.451C37.2445 131.347 37.4405 131.211 37.6005 131.043C37.7605 130.867 37.8845 130.659 37.9725 130.419C38.0605 130.171 38.1045 129.903 38.1045 129.615C38.1045 129.327 38.0605 129.063 37.9725 128.823C37.8845 128.575 37.7605 128.367 37.6005 128.199C37.4405 128.023 37.2445 127.887 37.0125 127.791C36.7805 127.687 36.5205 127.635 36.2325 127.635C35.9445 127.635 35.6845 127.687 35.4525 127.791C35.2205 127.887 35.0245 128.023 34.8645 128.199C34.7045 128.367 34.5805 128.575 34.4925 128.823C34.4045 129.063 34.3605 129.327 34.3605 129.615C34.3605 129.903 34.4045 130.171 34.4925 130.419C34.5805 130.659 34.7045 130.867 34.8645 131.043C35.0245 131.211 35.2205 131.347 35.4525 131.451C35.6845 131.547 35.9445 131.595 36.2325 131.595ZM40.8204 126.771H41.9004V127.647H41.9244C42.0604 127.343 42.2964 127.099 42.6324 126.915C42.9684 126.723 43.3564 126.627 43.7964 126.627C44.0684 126.627 44.3284 126.671 44.5764 126.759C44.8324 126.839 45.0524 126.967 45.2364 127.143C45.4284 127.319 45.5804 127.547 45.6924 127.827C45.8044 128.099 45.8604 128.423 45.8604 128.799V132.459H44.7804V129.099C44.7804 128.835 44.7444 128.611 44.6724 128.427C44.6004 128.235 44.5044 128.083 44.3844 127.971C44.2644 127.851 44.1244 127.767 43.9644 127.719C43.8124 127.663 43.6524 127.635 43.4844 127.635C43.2604 127.635 43.0524 127.671 42.8604 127.743C42.6684 127.815 42.5004 127.931 42.3564 128.091C42.2124 128.243 42.1004 128.439 42.0204 128.679C41.9404 128.919 41.9004 129.203 41.9004 129.531V132.459H40.8204V126.771ZM48.3044 130.011C48.3044 130.259 48.3564 130.487 48.4604 130.695C48.5724 130.895 48.7164 131.067 48.8924 131.211C49.0684 131.355 49.2724 131.467 49.5044 131.547C49.7364 131.627 49.9764 131.667 50.2244 131.667C50.5604 131.667 50.8524 131.591 51.1004 131.439C51.3484 131.279 51.5764 131.071 51.7844 130.815L52.6004 131.439C52.0004 132.215 51.1604 132.603 50.0804 132.603C49.6324 132.603 49.2244 132.527 48.8564 132.375C48.4964 132.223 48.1884 132.015 47.9324 131.751C47.6844 131.479 47.4924 131.163 47.3564 130.803C47.2204 130.435 47.1524 130.039 47.1524 129.615C47.1524 129.191 47.2244 128.799 47.3684 128.439C47.5204 128.071 47.7244 127.755 47.9804 127.491C48.2444 127.219 48.5564 127.007 48.9164 126.855C49.2764 126.703 49.6684 126.627 50.0924 126.627C50.5964 126.627 51.0204 126.715 51.3644 126.891C51.7164 127.067 52.0044 127.299 52.2284 127.587C52.4524 127.867 52.6124 128.187 52.7084 128.547C52.8124 128.899 52.8644 129.259 52.8644 129.627V130.011H48.3044ZM51.7124 129.147C51.7044 128.907 51.6644 128.687 51.5924 128.487C51.5284 128.287 51.4284 128.115 51.2924 127.971C51.1564 127.819 50.9844 127.703 50.7764 127.623C50.5764 127.535 50.3404 127.491 50.0684 127.491C49.8044 127.491 49.5604 127.543 49.3364 127.647C49.1204 127.743 48.9364 127.871 48.7844 128.031C48.6324 128.191 48.5124 128.371 48.4244 128.571C48.3444 128.763 48.3044 128.955 48.3044 129.147H51.7124ZM53.4723 126.771H54.7203L56.4123 131.211H56.4363L58.0443 126.771H59.2083L56.5083 133.683C56.4123 133.931 56.3123 134.155 56.2083 134.355C56.1043 134.563 55.9803 134.739 55.8363 134.883C55.6923 135.027 55.5163 135.139 55.3083 135.219C55.1083 135.299 54.8603 135.339 54.5643 135.339C54.4043 135.339 54.2403 135.327 54.0723 135.303C53.9123 135.287 53.7563 135.247 53.6043 135.183L53.7363 134.199C53.9523 134.287 54.1683 134.331 54.3843 134.331C54.5523 134.331 54.6923 134.307 54.8043 134.259C54.9243 134.219 55.0243 134.155 55.1043 134.067C55.1923 133.987 55.2643 133.891 55.3203 133.779C55.3763 133.667 55.4323 133.539 55.4883 133.395L55.8363 132.495L53.4723 126.771ZM60.0097 134.043H59.0257L59.8537 131.091H61.0177L60.0097 134.043ZM68.8854 123.963H69.9294L73.5654 132.459H72.2214L71.3694 130.359H67.3254L66.4854 132.459H65.1414L68.8854 123.963ZM70.9494 129.351L69.3654 125.451H69.3414L67.7334 129.351H70.9494ZM79.4346 132.459H78.3546V131.583H78.3306C78.1946 131.887 77.9586 132.135 77.6226 132.327C77.2866 132.511 76.8986 132.603 76.4586 132.603C76.1786 132.603 75.9146 132.559 75.6666 132.471C75.4186 132.391 75.1986 132.263 75.0066 132.087C74.8226 131.911 74.6746 131.687 74.5626 131.415C74.4506 131.135 74.3946 130.807 74.3946 130.431V126.771H75.4746V130.131C75.4746 130.395 75.5106 130.623 75.5826 130.815C75.6546 130.999 75.7506 131.151 75.8706 131.271C75.9906 131.383 76.1266 131.467 76.2786 131.523C76.4386 131.571 76.6026 131.595 76.7706 131.595C76.9946 131.595 77.2026 131.559 77.3946 131.487C77.5866 131.415 77.7546 131.303 77.8986 131.151C78.0426 130.991 78.1546 130.791 78.2346 130.551C78.3146 130.311 78.3546 130.027 78.3546 129.699V126.771H79.4346V132.459ZM84.0866 128.199C83.9586 128.039 83.7986 127.907 83.6066 127.803C83.4226 127.691 83.1946 127.635 82.9226 127.635C82.6666 127.635 82.4426 127.691 82.2506 127.803C82.0666 127.907 81.9746 128.063 81.9746 128.271C81.9746 128.439 82.0266 128.575 82.1306 128.679C82.2426 128.783 82.3706 128.867 82.5146 128.931C82.6666 128.995 82.8266 129.043 82.9946 129.075C83.1626 129.107 83.3066 129.135 83.4266 129.159C83.6586 129.215 83.8746 129.283 84.0746 129.363C84.2826 129.443 84.4586 129.547 84.6026 129.675C84.7546 129.803 84.8706 129.959 84.9506 130.143C85.0386 130.327 85.0826 130.551 85.0826 130.815C85.0826 131.135 85.0146 131.411 84.8786 131.643C84.7426 131.867 84.5666 132.051 84.3506 132.195C84.1346 132.339 83.8866 132.443 83.6066 132.507C83.3346 132.571 83.0586 132.603 82.7786 132.603C82.3066 132.603 81.8906 132.531 81.5306 132.387C81.1786 132.243 80.8626 131.979 80.5826 131.595L81.3986 130.923C81.5746 131.099 81.7706 131.255 81.9866 131.391C82.2026 131.527 82.4666 131.595 82.7786 131.595C82.9146 131.595 83.0506 131.583 83.1866 131.559C83.3306 131.527 83.4546 131.483 83.5586 131.427C83.6706 131.363 83.7586 131.287 83.8226 131.199C83.8946 131.103 83.9306 130.995 83.9306 130.875C83.9306 130.715 83.8786 130.583 83.7746 130.479C83.6786 130.375 83.5586 130.295 83.4146 130.239C83.2786 130.175 83.1306 130.127 82.9706 130.095C82.8186 130.055 82.6826 130.023 82.5626 129.999C82.3306 129.943 82.1106 129.879 81.9026 129.807C81.6946 129.735 81.5106 129.639 81.3506 129.519C81.1906 129.399 81.0626 129.247 80.9666 129.063C80.8706 128.879 80.8226 128.651 80.8226 128.379C80.8226 128.083 80.8826 127.827 81.0026 127.611C81.1306 127.387 81.2946 127.203 81.4946 127.059C81.7026 126.915 81.9346 126.807 82.1906 126.735C82.4546 126.663 82.7186 126.627 82.9826 126.627C83.3666 126.627 83.7346 126.699 84.0866 126.843C84.4386 126.987 84.7186 127.227 84.9266 127.563L84.0866 128.199ZM89.4426 127.707H87.8946V130.287C87.8946 130.447 87.8986 130.607 87.9066 130.767C87.9146 130.919 87.9426 131.059 87.9906 131.187C88.0466 131.307 88.1266 131.407 88.2306 131.487C88.3426 131.559 88.5026 131.595 88.7106 131.595C88.8386 131.595 88.9706 131.583 89.1066 131.559C89.2426 131.535 89.3666 131.491 89.4786 131.427V132.411C89.3506 132.483 89.1826 132.531 88.9746 132.555C88.7746 132.587 88.6186 132.603 88.5066 132.603C88.0906 132.603 87.7666 132.547 87.5346 132.435C87.3106 132.315 87.1426 132.163 87.0306 131.979C86.9266 131.795 86.8626 131.591 86.8386 131.367C86.8226 131.135 86.8146 130.903 86.8146 130.671V127.707H85.5666V126.771H86.8146V125.175H87.8946V126.771H89.4426V127.707ZM90.836 126.771H91.916V127.647H91.94C92.012 127.495 92.108 127.359 92.228 127.239C92.348 127.111 92.48 127.003 92.624 126.915C92.776 126.827 92.94 126.759 93.116 126.711C93.292 126.655 93.468 126.627 93.644 126.627C93.82 126.627 93.98 126.651 94.124 126.699L94.076 127.863C93.988 127.839 93.9 127.819 93.812 127.803C93.724 127.787 93.636 127.779 93.548 127.779C93.02 127.779 92.616 127.927 92.336 128.223C92.056 128.519 91.916 128.979 91.916 129.603V132.459H90.836V126.771ZM95.3014 127.467C95.6054 127.187 95.9574 126.979 96.3574 126.843C96.7574 126.699 97.1574 126.627 97.5574 126.627C97.9734 126.627 98.3294 126.679 98.6254 126.783C98.9294 126.887 99.1774 127.027 99.3694 127.203C99.5614 127.379 99.7014 127.583 99.7894 127.815C99.8854 128.039 99.9334 128.275 99.9334 128.523V131.427C99.9334 131.627 99.9374 131.811 99.9454 131.979C99.9534 132.147 99.9654 132.307 99.9814 132.459H99.0214C98.9974 132.171 98.9854 131.883 98.9854 131.595H98.9614C98.7214 131.963 98.4374 132.223 98.1094 132.375C97.7814 132.527 97.4014 132.603 96.9694 132.603C96.7054 132.603 96.4534 132.567 96.2134 132.495C95.9734 132.423 95.7614 132.315 95.5774 132.171C95.4014 132.027 95.2614 131.851 95.1574 131.643C95.0534 131.427 95.0014 131.179 95.0014 130.899C95.0014 130.531 95.0814 130.223 95.2414 129.975C95.4094 129.727 95.6334 129.527 95.9134 129.375C96.2014 129.215 96.5334 129.103 96.9094 129.039C97.2934 128.967 97.7014 128.931 98.1334 128.931H98.9254V128.691C98.9254 128.547 98.8974 128.403 98.8414 128.259C98.7854 128.115 98.7014 127.987 98.5894 127.875C98.4774 127.755 98.3374 127.663 98.1694 127.599C98.0014 127.527 97.8014 127.491 97.5694 127.491C97.3614 127.491 97.1774 127.511 97.0174 127.551C96.8654 127.591 96.7254 127.643 96.5974 127.707C96.4694 127.763 96.3534 127.831 96.2494 127.911C96.1454 127.991 96.0454 128.067 95.9494 128.139L95.3014 127.467ZM98.3494 129.723C98.0934 129.723 97.8294 129.739 97.5574 129.771C97.2934 129.795 97.0494 129.847 96.8254 129.927C96.6094 130.007 96.4294 130.119 96.2854 130.263C96.1494 130.407 96.0814 130.591 96.0814 130.815C96.0814 131.143 96.1894 131.379 96.4054 131.523C96.6294 131.667 96.9294 131.739 97.3054 131.739C97.6014 131.739 97.8534 131.691 98.0614 131.595C98.2694 131.491 98.4374 131.359 98.5654 131.199C98.6934 131.039 98.7854 130.863 98.8414 130.671C98.8974 130.471 98.9254 130.275 98.9254 130.083V129.723H98.3494ZM101.584 123.387H102.664V132.459H101.584V123.387ZM104.467 126.771H105.547V132.459H104.467V126.771ZM104.215 124.731C104.215 124.515 104.291 124.331 104.443 124.179C104.603 124.019 104.791 123.939 105.007 123.939C105.223 123.939 105.407 124.019 105.559 124.179C105.719 124.331 105.799 124.515 105.799 124.731C105.799 124.947 105.719 125.135 105.559 125.295C105.407 125.447 105.223 125.523 105.007 125.523C104.791 125.523 104.603 125.447 104.443 125.295C104.291 125.135 104.215 124.947 104.215 124.731ZM107.29 127.467C107.594 127.187 107.946 126.979 108.346 126.843C108.746 126.699 109.146 126.627 109.546 126.627C109.962 126.627 110.318 126.679 110.614 126.783C110.918 126.887 111.166 127.027 111.358 127.203C111.55 127.379 111.69 127.583 111.778 127.815C111.874 128.039 111.922 128.275 111.922 128.523V131.427C111.922 131.627 111.926 131.811 111.934 131.979C111.942 132.147 111.954 132.307 111.97 132.459H111.01C110.986 132.171 110.974 131.883 110.974 131.595H110.95C110.71 131.963 110.426 132.223 110.098 132.375C109.77 132.527 109.39 132.603 108.958 132.603C108.694 132.603 108.442 132.567 108.202 132.495C107.962 132.423 107.75 132.315 107.566 132.171C107.39 132.027 107.25 131.851 107.146 131.643C107.042 131.427 106.99 131.179 106.99 130.899C106.99 130.531 107.07 130.223 107.23 129.975C107.398 129.727 107.622 129.527 107.902 129.375C108.19 129.215 108.522 129.103 108.898 129.039C109.282 128.967 109.69 128.931 110.122 128.931H110.914V128.691C110.914 128.547 110.886 128.403 110.83 128.259C110.774 128.115 110.69 127.987 110.578 127.875C110.466 127.755 110.326 127.663 110.158 127.599C109.99 127.527 109.79 127.491 109.558 127.491C109.35 127.491 109.166 127.511 109.006 127.551C108.854 127.591 108.714 127.643 108.586 127.707C108.458 127.763 108.342 127.831 108.238 127.911C108.134 127.991 108.034 128.067 107.938 128.139L107.29 127.467ZM110.338 129.723C110.082 129.723 109.818 129.739 109.546 129.771C109.282 129.795 109.038 129.847 108.814 129.927C108.598 130.007 108.418 130.119 108.274 130.263C108.138 130.407 108.07 130.591 108.07 130.815C108.07 131.143 108.178 131.379 108.394 131.523C108.618 131.667 108.918 131.739 109.294 131.739C109.59 131.739 109.842 131.691 110.05 131.595C110.258 131.491 110.426 131.359 110.554 131.199C110.682 131.039 110.774 130.863 110.83 130.671C110.886 130.471 110.914 130.275 110.914 130.083V129.723H110.338Z" fill="white" fill-opacity="0.85"/>
</svg>
