<svg width="220" height="160" viewBox="0 0 220 160" fill="none" xmlns="http://www.w3.org/2000/svg">
<rect width="220" height="160" rx="9" fill="#3F3F3F"/>
<rect x="34" y="16" width="155" height="32" rx="11.5556" fill="white"/>
<path d="M48.7022 23.7067H49.8222V26.2133H52.7644V23.7067H53.8844V30H52.7644V27.2267H49.8222V30H48.7022V23.7067ZM54.9797 27.8667C54.9797 27.5289 55.0389 27.2237 55.1574 26.9511C55.2819 26.6726 55.4478 26.4356 55.6552 26.24C55.8626 26.0444 56.1085 25.8933 56.393 25.7867C56.6774 25.68 56.9797 25.6267 57.2997 25.6267C57.6197 25.6267 57.9219 25.68 58.2063 25.7867C58.4908 25.8933 58.7367 26.0444 58.9441 26.24C59.1515 26.4356 59.3145 26.6726 59.433 26.9511C59.5574 27.2237 59.6197 27.5289 59.6197 27.8667C59.6197 28.2044 59.5574 28.5126 59.433 28.7911C59.3145 29.0637 59.1515 29.2978 58.9441 29.4933C58.7367 29.6889 58.4908 29.84 58.2063 29.9467C57.9219 30.0533 57.6197 30.1067 57.2997 30.1067C56.9797 30.1067 56.6774 30.0533 56.393 29.9467C56.1085 29.84 55.8626 29.6889 55.6552 29.4933C55.4478 29.2978 55.2819 29.0637 55.1574 28.7911C55.0389 28.5126 54.9797 28.2044 54.9797 27.8667ZM56.0463 27.8667C56.0463 28.0326 56.073 28.1926 56.1263 28.3467C56.1856 28.5007 56.2685 28.637 56.3752 28.7556C56.4878 28.8741 56.6211 28.9689 56.7752 29.04C56.9293 29.1111 57.1041 29.1467 57.2997 29.1467C57.4952 29.1467 57.67 29.1111 57.8241 29.04C57.9782 28.9689 58.1085 28.8741 58.2152 28.7556C58.3278 28.637 58.4108 28.5007 58.4641 28.3467C58.5234 28.1926 58.553 28.0326 58.553 27.8667C58.553 27.7007 58.5234 27.5407 58.4641 27.3867C58.4108 27.2326 58.3278 27.0963 58.2152 26.9778C58.1085 26.8593 57.9782 26.7644 57.8241 26.6933C57.67 26.6222 57.4952 26.5867 57.2997 26.5867C57.1041 26.5867 56.9293 26.6222 56.7752 26.6933C56.6211 26.7644 56.4878 26.8593 56.3752 26.9778C56.2685 27.0963 56.1856 27.2326 56.1263 27.3867C56.073 27.5407 56.0463 27.7007 56.0463 27.8667ZM60.0406 25.7333H61.1961L62.1206 28.72H62.1383L63.0006 25.7333H64.1561L65.0806 28.72H65.0983L65.9872 25.7333H67.0628L65.6139 30H64.5561L63.5428 27.0844H63.525L62.6272 30H61.525L60.0406 25.7333ZM70.1099 27.8667C70.1099 27.5289 70.1691 27.2237 70.2876 26.9511C70.4121 26.6726 70.578 26.4356 70.7854 26.24C70.9928 26.0444 71.2388 25.8933 71.5232 25.7867C71.8076 25.68 72.1099 25.6267 72.4299 25.6267C72.7499 25.6267 73.0521 25.68 73.3365 25.7867C73.621 25.8933 73.8669 26.0444 74.0743 26.24C74.2817 26.4356 74.4447 26.6726 74.5632 26.9511C74.6876 27.2237 74.7499 27.5289 74.7499 27.8667C74.7499 28.2044 74.6876 28.5126 74.5632 28.7911C74.4447 29.0637 74.2817 29.2978 74.0743 29.4933C73.8669 29.6889 73.621 29.84 73.3365 29.9467C73.0521 30.0533 72.7499 30.1067 72.4299 30.1067C72.1099 30.1067 71.8076 30.0533 71.5232 29.9467C71.2388 29.84 70.9928 29.6889 70.7854 29.4933C70.578 29.2978 70.4121 29.0637 70.2876 28.7911C70.1691 28.5126 70.1099 28.2044 70.1099 27.8667ZM71.1765 27.8667C71.1765 28.0326 71.2032 28.1926 71.2565 28.3467C71.3158 28.5007 71.3988 28.637 71.5054 28.7556C71.618 28.8741 71.7513 28.9689 71.9054 29.04C72.0595 29.1111 72.2343 29.1467 72.4299 29.1467C72.6254 29.1467 72.8002 29.1111 72.9543 29.04C73.1084 28.9689 73.2388 28.8741 73.3454 28.7556C73.458 28.637 73.541 28.5007 73.5943 28.3467C73.6536 28.1926 73.6832 28.0326 73.6832 27.8667C73.6832 27.7007 73.6536 27.5407 73.5943 27.3867C73.541 27.2326 73.458 27.0963 73.3454 26.9778C73.2388 26.8593 73.1084 26.7644 72.9543 26.6933C72.8002 26.6222 72.6254 26.5867 72.4299 26.5867C72.2343 26.5867 72.0595 26.6222 71.9054 26.6933C71.7513 26.7644 71.618 26.8593 71.5054 26.9778C71.3988 27.0963 71.3158 27.2326 71.2565 27.3867C71.2032 27.5407 71.1765 27.7007 71.1765 27.8667ZM76.1308 26.64H75.2508V25.7333H76.1308V25.1289C76.1308 24.8326 76.1515 24.5659 76.193 24.3289C76.2345 24.0859 76.3115 23.8785 76.4241 23.7067C76.5426 23.5348 76.7056 23.4044 76.913 23.3156C77.1204 23.2207 77.39 23.1733 77.7219 23.1733C77.9648 23.1733 78.19 23.1941 78.3974 23.2356L78.3263 24.1422C78.2493 24.1244 78.1752 24.1096 78.1041 24.0978C78.033 24.0859 77.9589 24.08 77.8819 24.08C77.7337 24.08 77.6152 24.1037 77.5263 24.1511C77.4374 24.1985 77.3663 24.2637 77.313 24.3467C77.2656 24.4237 77.233 24.5156 77.2152 24.6222C77.2034 24.7289 77.1974 24.8415 77.1974 24.96V25.7333H78.1841V26.64H77.1974V30H76.1308V26.64ZM78.3758 26.64V25.7333H79.2558V24.4978H80.3224V25.7333H81.4958V26.64H80.3224V28.5067C80.3224 28.72 80.361 28.8889 80.438 29.0133C80.521 29.1378 80.681 29.2 80.918 29.2C81.0128 29.2 81.1165 29.1911 81.2291 29.1733C81.3417 29.1496 81.4306 29.1141 81.4958 29.0667V29.9644C81.3832 30.0178 81.2439 30.0533 81.078 30.0711C80.918 30.0948 80.7758 30.1067 80.6513 30.1067C80.3669 30.1067 80.1328 30.0741 79.9491 30.0089C79.7713 29.9496 79.6291 29.8578 79.5224 29.7333C79.4217 29.603 79.3506 29.443 79.3091 29.2533C79.2735 29.0637 79.2558 28.8444 79.2558 28.5956V26.64H78.3758ZM83.1817 28.24C83.2173 28.56 83.3417 28.8089 83.5551 28.9867C83.7684 29.1644 84.0262 29.2533 84.3284 29.2533C84.5951 29.2533 84.8173 29.2 84.9951 29.0933C85.1788 28.9807 85.3388 28.8415 85.4751 28.6756L86.2395 29.2533C85.9906 29.5615 85.7121 29.7807 85.404 29.9111C85.0958 30.0415 84.7729 30.1067 84.4351 30.1067C84.1151 30.1067 83.8128 30.0533 83.5284 29.9467C83.244 29.84 82.998 29.6889 82.7906 29.4933C82.5832 29.2978 82.4173 29.0637 82.2928 28.7911C82.1743 28.5126 82.1151 28.2044 82.1151 27.8667C82.1151 27.5289 82.1743 27.2237 82.2928 26.9511C82.4173 26.6726 82.5832 26.4356 82.7906 26.24C82.998 26.0444 83.244 25.8933 83.5284 25.7867C83.8128 25.68 84.1151 25.6267 84.4351 25.6267C84.7314 25.6267 85.001 25.68 85.244 25.7867C85.4929 25.8874 85.7032 26.0356 85.8751 26.2311C86.0529 26.4267 86.1891 26.6696 86.284 26.96C86.3847 27.2444 86.4351 27.5733 86.4351 27.9467V28.24H83.1817ZM85.3684 27.44C85.3625 27.1259 85.2647 26.88 85.0751 26.7022C84.8854 26.5185 84.6217 26.4267 84.284 26.4267C83.964 26.4267 83.7091 26.5185 83.5195 26.7022C83.3358 26.8859 83.2232 27.1319 83.1817 27.44H85.3684ZM87.4326 25.7333H88.4459V26.4178H88.4637C88.5644 26.2044 88.7185 26.0207 88.9259 25.8667C89.1333 25.7067 89.4148 25.6267 89.7703 25.6267C90.0548 25.6267 90.2948 25.6741 90.4903 25.7689C90.6918 25.8637 90.8548 25.9881 90.9792 26.1422C91.1037 26.2963 91.1926 26.4741 91.2459 26.6756C91.2992 26.877 91.3259 27.0874 91.3259 27.3067V30H90.2592V27.84C90.2592 27.7215 90.2533 27.5911 90.2415 27.4489C90.2296 27.3007 90.197 27.1644 90.1437 27.04C90.0963 26.9096 90.0192 26.803 89.9126 26.72C89.8059 26.6311 89.6607 26.5867 89.477 26.5867C89.2992 26.5867 89.1481 26.6163 89.0237 26.6756C88.9052 26.7348 88.8044 26.8148 88.7215 26.9156C88.6444 27.0163 88.5881 27.1319 88.5526 27.2622C88.517 27.3926 88.4992 27.5289 88.4992 27.6711V30H87.4326V25.7333ZM98.5447 29.36H98.5269C98.3729 29.6207 98.1655 29.8104 97.9047 29.9289C97.644 30.0474 97.3625 30.1067 97.0603 30.1067C96.7284 30.1067 96.4321 30.0504 96.1714 29.9378C95.9166 29.8193 95.6973 29.6593 95.5136 29.4578C95.3299 29.2563 95.1907 29.0193 95.0958 28.7467C95.001 28.4741 94.9536 28.1807 94.9536 27.8667C94.9536 27.5526 95.004 27.2593 95.1047 26.9867C95.2055 26.7141 95.3447 26.477 95.5225 26.2756C95.7062 26.0741 95.9255 25.917 96.1803 25.8044C96.4351 25.6859 96.7136 25.6267 97.0158 25.6267C97.2173 25.6267 97.3951 25.6474 97.5492 25.6889C97.7032 25.7304 97.8395 25.7837 97.9581 25.8489C98.0766 25.9141 98.1773 25.9852 98.2603 26.0622C98.3432 26.1333 98.4114 26.2044 98.4647 26.2756H98.4914V23.28H99.5581V30H98.5447V29.36ZM96.0203 27.8667C96.0203 28.0326 96.0469 28.1926 96.1003 28.3467C96.1595 28.5007 96.2425 28.637 96.3492 28.7556C96.4618 28.8741 96.5951 28.9689 96.7492 29.04C96.9032 29.1111 97.0781 29.1467 97.2736 29.1467C97.4692 29.1467 97.644 29.1111 97.7981 29.04C97.9521 28.9689 98.0825 28.8741 98.1892 28.7556C98.3018 28.637 98.3847 28.5007 98.4381 28.3467C98.4973 28.1926 98.5269 28.0326 98.5269 27.8667C98.5269 27.7007 98.4973 27.5407 98.4381 27.3867C98.3847 27.2326 98.3018 27.0963 98.1892 26.9778C98.0825 26.8593 97.9521 26.7644 97.7981 26.6933C97.644 26.6222 97.4692 26.5867 97.2736 26.5867C97.0781 26.5867 96.9032 26.6222 96.7492 26.6933C96.5951 26.7644 96.4618 26.8593 96.3492 26.9778C96.2425 27.0963 96.1595 27.2326 96.1003 27.3867C96.0469 27.5407 96.0203 27.7007 96.0203 27.8667ZM100.553 27.8667C100.553 27.5289 100.612 27.2237 100.73 26.9511C100.855 26.6726 101.021 26.4356 101.228 26.24C101.436 26.0444 101.681 25.8933 101.966 25.7867C102.25 25.68 102.553 25.6267 102.873 25.6267C103.193 25.6267 103.495 25.68 103.779 25.7867C104.064 25.8933 104.31 26.0444 104.517 26.24C104.724 26.4356 104.887 26.6726 105.006 26.9511C105.13 27.2237 105.193 27.5289 105.193 27.8667C105.193 28.2044 105.13 28.5126 105.006 28.7911C104.887 29.0637 104.724 29.2978 104.517 29.4933C104.31 29.6889 104.064 29.84 103.779 29.9467C103.495 30.0533 103.193 30.1067 102.873 30.1067C102.553 30.1067 102.25 30.0533 101.966 29.9467C101.681 29.84 101.436 29.6889 101.228 29.4933C101.021 29.2978 100.855 29.0637 100.73 28.7911C100.612 28.5126 100.553 28.2044 100.553 27.8667ZM101.619 27.8667C101.619 28.0326 101.646 28.1926 101.699 28.3467C101.758 28.5007 101.841 28.637 101.948 28.7556C102.061 28.8741 102.194 28.9689 102.348 29.04C102.502 29.1111 102.677 29.1467 102.873 29.1467C103.068 29.1467 103.243 29.1111 103.397 29.04C103.551 28.9689 103.681 28.8741 103.788 28.7556C103.901 28.637 103.984 28.5007 104.037 28.3467C104.096 28.1926 104.126 28.0326 104.126 27.8667C104.126 27.7007 104.096 27.5407 104.037 27.3867C103.984 27.2326 103.901 27.0963 103.788 26.9778C103.681 26.8593 103.551 26.7644 103.397 26.6933C103.243 26.6222 103.068 26.5867 102.873 26.5867C102.677 26.5867 102.502 26.6222 102.348 26.6933C102.194 26.7644 102.061 26.8593 101.948 26.9778C101.841 27.0963 101.758 27.2326 101.699 27.3867C101.646 27.5407 101.619 27.7007 101.619 27.8667ZM108.244 25.7333H109.417L110.608 28.6933H110.626L111.693 25.7333H112.804L110.786 30.9156C110.709 31.117 110.623 31.2919 110.528 31.44C110.439 31.5941 110.333 31.7215 110.208 31.8222C110.084 31.9289 109.936 32.0059 109.764 32.0533C109.598 32.1067 109.396 32.1333 109.159 32.1333C108.881 32.1333 108.608 32.0978 108.341 32.0267L108.475 31.0667C108.558 31.0963 108.644 31.12 108.733 31.1378C108.827 31.1615 108.922 31.1733 109.017 31.1733C109.147 31.1733 109.257 31.1615 109.346 31.1378C109.435 31.1141 109.509 31.0756 109.568 31.0222C109.633 30.9748 109.687 30.9096 109.728 30.8267C109.77 30.7496 109.814 30.6548 109.861 30.5422L110.066 30.0356L108.244 25.7333ZM113.218 27.8667C113.218 27.5289 113.277 27.2237 113.395 26.9511C113.52 26.6726 113.686 26.4356 113.893 26.24C114.1 26.0444 114.346 25.8933 114.631 25.7867C114.915 25.68 115.218 25.6267 115.538 25.6267C115.858 25.6267 116.16 25.68 116.444 25.7867C116.729 25.8933 116.975 26.0444 117.182 26.24C117.389 26.4356 117.552 26.6726 117.671 26.9511C117.795 27.2237 117.858 27.5289 117.858 27.8667C117.858 28.2044 117.795 28.5126 117.671 28.7911C117.552 29.0637 117.389 29.2978 117.182 29.4933C116.975 29.6889 116.729 29.84 116.444 29.9467C116.16 30.0533 115.858 30.1067 115.538 30.1067C115.218 30.1067 114.915 30.0533 114.631 29.9467C114.346 29.84 114.1 29.6889 113.893 29.4933C113.686 29.2978 113.52 29.0637 113.395 28.7911C113.277 28.5126 113.218 28.2044 113.218 27.8667ZM114.284 27.8667C114.284 28.0326 114.311 28.1926 114.364 28.3467C114.423 28.5007 114.506 28.637 114.613 28.7556C114.726 28.8741 114.859 28.9689 115.013 29.04C115.167 29.1111 115.342 29.1467 115.538 29.1467C115.733 29.1467 115.908 29.1111 116.062 29.04C116.216 28.9689 116.346 28.8741 116.453 28.7556C116.566 28.637 116.649 28.5007 116.702 28.3467C116.761 28.1926 116.791 28.0326 116.791 27.8667C116.791 27.7007 116.761 27.5407 116.702 27.3867C116.649 27.2326 116.566 27.0963 116.453 26.9778C116.346 26.8593 116.216 26.7644 116.062 26.6933C115.908 26.6222 115.733 26.5867 115.538 26.5867C115.342 26.5867 115.167 26.6222 115.013 26.6933C114.859 26.7644 114.726 26.8593 114.613 26.9778C114.506 27.0963 114.423 27.2326 114.364 27.3867C114.311 27.5407 114.284 27.7007 114.284 27.8667ZM122.75 30H121.736V29.3156H121.718C121.618 29.5289 121.464 29.7156 121.256 29.8756C121.049 30.0296 120.767 30.1067 120.412 30.1067C120.127 30.1067 119.884 30.0622 119.683 29.9733C119.487 29.8785 119.327 29.7541 119.203 29.6C119.078 29.44 118.99 29.2593 118.936 29.0578C118.883 28.8563 118.856 28.6459 118.856 28.4267V25.7333H119.923V27.8933C119.923 28.0119 119.929 28.1452 119.941 28.2933C119.952 28.4356 119.982 28.5719 120.03 28.7022C120.083 28.8267 120.16 28.9333 120.261 29.0222C120.367 29.1052 120.515 29.1467 120.705 29.1467C120.883 29.1467 121.031 29.117 121.15 29.0578C121.274 28.9985 121.375 28.9185 121.452 28.8178C121.535 28.717 121.594 28.6015 121.63 28.4711C121.665 28.3407 121.683 28.2044 121.683 28.0622V25.7333H122.75V30ZM128.866 26.9156C128.659 26.6252 128.38 26.48 128.031 26.48C127.888 26.48 127.749 26.5156 127.613 26.5867C127.476 26.6578 127.408 26.7733 127.408 26.9333C127.408 27.0637 127.465 27.1585 127.577 27.2178C127.69 27.277 127.832 27.3274 128.004 27.3689C128.176 27.4104 128.359 27.4548 128.555 27.5022C128.756 27.5437 128.943 27.6119 129.115 27.7067C129.287 27.7956 129.429 27.92 129.542 28.08C129.654 28.24 129.711 28.4593 129.711 28.7378C129.711 28.9926 129.654 29.2089 129.542 29.3867C129.435 29.5585 129.293 29.6978 129.115 29.8044C128.943 29.9111 128.748 29.9881 128.528 30.0356C128.309 30.083 128.09 30.1067 127.871 30.1067C127.539 30.1067 127.234 30.0593 126.955 29.9644C126.676 29.8696 126.428 29.6978 126.208 29.4489L126.919 28.7822C127.056 28.9363 127.201 29.0637 127.355 29.1644C127.515 29.2593 127.708 29.3067 127.933 29.3067C128.01 29.3067 128.09 29.2978 128.173 29.28C128.256 29.2622 128.333 29.2326 128.404 29.1911C128.475 29.1496 128.531 29.0993 128.573 29.04C128.62 28.9748 128.644 28.9007 128.644 28.8178C128.644 28.6696 128.588 28.56 128.475 28.4889C128.362 28.4178 128.22 28.3615 128.048 28.32C127.876 28.2726 127.69 28.2311 127.488 28.1956C127.293 28.1541 127.109 28.0919 126.937 28.0089C126.765 27.92 126.623 27.7985 126.511 27.6444C126.398 27.4904 126.342 27.277 126.342 27.0044C126.342 26.7674 126.389 26.563 126.484 26.3911C126.585 26.2133 126.715 26.0681 126.875 25.9556C127.035 25.843 127.219 25.76 127.426 25.7067C127.634 25.6533 127.844 25.6267 128.057 25.6267C128.342 25.6267 128.623 25.677 128.902 25.7778C129.18 25.8726 129.405 26.0385 129.577 26.2756L128.866 26.9156ZM133.456 27.0133C133.331 26.883 133.201 26.7793 133.065 26.7022C132.928 26.6252 132.789 26.5867 132.647 26.5867C132.451 26.5867 132.277 26.6222 132.122 26.6933C131.968 26.7644 131.835 26.8593 131.722 26.9778C131.616 27.0963 131.533 27.2326 131.474 27.3867C131.42 27.5407 131.394 27.7007 131.394 27.8667C131.394 28.0326 131.42 28.1926 131.474 28.3467C131.533 28.5007 131.616 28.637 131.722 28.7556C131.835 28.8741 131.968 28.9689 132.122 29.04C132.277 29.1111 132.451 29.1467 132.647 29.1467C132.813 29.1467 132.967 29.1141 133.109 29.0489C133.251 28.9778 133.373 28.877 133.474 28.7467L134.185 29.5111C134.078 29.6178 133.954 29.7096 133.811 29.7867C133.675 29.8637 133.536 29.9259 133.394 29.9733C133.251 30.0207 133.115 30.0533 132.985 30.0711C132.854 30.0948 132.742 30.1067 132.647 30.1067C132.327 30.1067 132.025 30.0533 131.74 29.9467C131.456 29.84 131.21 29.6889 131.002 29.4933C130.795 29.2978 130.629 29.0637 130.505 28.7911C130.386 28.5126 130.327 28.2044 130.327 27.8667C130.327 27.5289 130.386 27.2237 130.505 26.9511C130.629 26.6726 130.795 26.4356 131.002 26.24C131.21 26.0444 131.456 25.8933 131.74 25.7867C132.025 25.68 132.327 25.6267 132.647 25.6267C132.919 25.6267 133.192 25.68 133.465 25.7867C133.743 25.8874 133.986 26.0504 134.194 26.2756L133.456 27.0133ZM134.615 27.8667C134.615 27.5289 134.674 27.2237 134.793 26.9511C134.917 26.6726 135.083 26.4356 135.291 26.24C135.498 26.0444 135.744 25.8933 136.028 25.7867C136.313 25.68 136.615 25.6267 136.935 25.6267C137.255 25.6267 137.557 25.68 137.842 25.7867C138.126 25.8933 138.372 26.0444 138.58 26.24C138.787 26.4356 138.95 26.6726 139.068 26.9511C139.193 27.2237 139.255 27.5289 139.255 27.8667C139.255 28.2044 139.193 28.5126 139.068 28.7911C138.95 29.0637 138.787 29.2978 138.58 29.4933C138.372 29.6889 138.126 29.84 137.842 29.9467C137.557 30.0533 137.255 30.1067 136.935 30.1067C136.615 30.1067 136.313 30.0533 136.028 29.9467C135.744 29.84 135.498 29.6889 135.291 29.4933C135.083 29.2978 134.917 29.0637 134.793 28.7911C134.674 28.5126 134.615 28.2044 134.615 27.8667ZM135.682 27.8667C135.682 28.0326 135.708 28.1926 135.762 28.3467C135.821 28.5007 135.904 28.637 136.011 28.7556C136.123 28.8741 136.257 28.9689 136.411 29.04C136.565 29.1111 136.74 29.1467 136.935 29.1467C137.131 29.1467 137.305 29.1111 137.46 29.04C137.614 28.9689 137.744 28.8741 137.851 28.7556C137.963 28.637 138.046 28.5007 138.1 28.3467C138.159 28.1926 138.188 28.0326 138.188 27.8667C138.188 27.7007 138.159 27.5407 138.1 27.3867C138.046 27.2326 137.963 27.0963 137.851 26.9778C137.744 26.8593 137.614 26.7644 137.46 26.6933C137.305 26.6222 137.131 26.5867 136.935 26.5867C136.74 26.5867 136.565 26.6222 136.411 26.6933C136.257 26.7644 136.123 26.8593 136.011 26.9778C135.904 27.0963 135.821 27.2326 135.762 27.3867C135.708 27.5407 135.682 27.7007 135.682 27.8667ZM140.04 27.8667C140.04 27.5289 140.1 27.2237 140.218 26.9511C140.343 26.6726 140.509 26.4356 140.716 26.24C140.923 26.0444 141.169 25.8933 141.454 25.7867C141.738 25.68 142.04 25.6267 142.36 25.6267C142.68 25.6267 142.983 25.68 143.267 25.7867C143.552 25.8933 143.797 26.0444 144.005 26.24C144.212 26.4356 144.375 26.6726 144.494 26.9511C144.618 27.2237 144.68 27.5289 144.68 27.8667C144.68 28.2044 144.618 28.5126 144.494 28.7911C144.375 29.0637 144.212 29.2978 144.005 29.4933C143.797 29.6889 143.552 29.84 143.267 29.9467C142.983 30.0533 142.68 30.1067 142.36 30.1067C142.04 30.1067 141.738 30.0533 141.454 29.9467C141.169 29.84 140.923 29.6889 140.716 29.4933C140.509 29.2978 140.343 29.0637 140.218 28.7911C140.1 28.5126 140.04 28.2044 140.04 27.8667ZM141.107 27.8667C141.107 28.0326 141.134 28.1926 141.187 28.3467C141.246 28.5007 141.329 28.637 141.436 28.7556C141.549 28.8741 141.682 28.9689 141.836 29.04C141.99 29.1111 142.165 29.1467 142.36 29.1467C142.556 29.1467 142.731 29.1111 142.885 29.04C143.039 28.9689 143.169 28.8741 143.276 28.7556C143.389 28.637 143.472 28.5007 143.525 28.3467C143.584 28.1926 143.614 28.0326 143.614 27.8667C143.614 27.7007 143.584 27.5407 143.525 27.3867C143.472 27.2326 143.389 27.0963 143.276 26.9778C143.169 26.8593 143.039 26.7644 142.885 26.6933C142.731 26.6222 142.556 26.5867 142.36 26.5867C142.165 26.5867 141.99 26.6222 141.836 26.6933C141.682 26.7644 141.549 26.8593 141.436 26.9778C141.329 27.0963 141.246 27.2326 141.187 27.3867C141.134 27.5407 141.107 27.7007 141.107 27.8667ZM145.181 26.64V25.7333H146.061V24.4978H147.128V25.7333H148.301V26.64H147.128V28.5067C147.128 28.72 147.167 28.8889 147.244 29.0133C147.327 29.1378 147.487 29.2 147.724 29.2C147.818 29.2 147.922 29.1911 148.035 29.1733C148.147 29.1496 148.236 29.1141 148.301 29.0667V29.9644C148.189 30.0178 148.049 30.0533 147.884 30.0711C147.724 30.0948 147.581 30.1067 147.457 30.1067C147.172 30.1067 146.938 30.0741 146.755 30.0089C146.577 29.9496 146.435 29.8578 146.328 29.7333C146.227 29.603 146.156 29.443 146.115 29.2533C146.079 29.0637 146.061 28.8444 146.061 28.5956V26.64H145.181ZM149.987 28.24C150.023 28.56 150.147 28.8089 150.361 28.9867C150.574 29.1644 150.832 29.2533 151.134 29.2533C151.401 29.2533 151.623 29.2 151.801 29.0933C151.984 28.9807 152.144 28.8415 152.281 28.6756L153.045 29.2533C152.796 29.5615 152.518 29.7807 152.21 29.9111C151.901 30.0415 151.578 30.1067 151.241 30.1067C150.921 30.1067 150.618 30.0533 150.334 29.9467C150.05 29.84 149.804 29.6889 149.596 29.4933C149.389 29.2978 149.223 29.0637 149.098 28.7911C148.98 28.5126 148.921 28.2044 148.921 27.8667C148.921 27.5289 148.98 27.2237 149.098 26.9511C149.223 26.6726 149.389 26.4356 149.596 26.24C149.804 26.0444 150.05 25.8933 150.334 25.7867C150.618 25.68 150.921 25.6267 151.241 25.6267C151.537 25.6267 151.807 25.68 152.05 25.7867C152.298 25.8874 152.509 26.0356 152.681 26.2311C152.858 26.4267 152.995 26.6696 153.09 26.96C153.19 27.2444 153.241 27.5733 153.241 27.9467V28.24H149.987ZM152.174 27.44C152.168 27.1259 152.07 26.88 151.881 26.7022C151.691 26.5185 151.427 26.4267 151.09 26.4267C150.77 26.4267 150.515 26.5185 150.325 26.7022C150.141 26.8859 150.029 27.1319 149.987 27.44H152.174ZM154.238 25.7333H155.305V26.4089H155.323C155.441 26.16 155.61 25.9674 155.829 25.8311C156.048 25.6948 156.3 25.6267 156.585 25.6267C156.65 25.6267 156.712 25.6326 156.771 25.6444C156.837 25.6563 156.902 25.6711 156.967 25.6889V26.72C156.878 26.6963 156.789 26.6785 156.7 26.6667C156.617 26.6489 156.534 26.64 156.451 26.64C156.203 26.64 156.001 26.6874 155.847 26.7822C155.699 26.8711 155.583 26.9748 155.5 27.0933C155.423 27.2119 155.37 27.3304 155.34 27.4489C155.317 27.5674 155.305 27.6563 155.305 27.7156V30H154.238V25.7333ZM159.825 26.64V25.7333H160.705V24.4978H161.772V25.7333H162.945V26.64H161.772V28.5067C161.772 28.72 161.811 28.8889 161.888 29.0133C161.971 29.1378 162.131 29.2 162.368 29.2C162.462 29.2 162.566 29.1911 162.679 29.1733C162.791 29.1496 162.88 29.1141 162.945 29.0667V29.9644C162.833 30.0178 162.694 30.0533 162.528 30.0711C162.368 30.0948 162.225 30.1067 162.101 30.1067C161.817 30.1067 161.582 30.0741 161.399 30.0089C161.221 29.9496 161.079 29.8578 160.972 29.7333C160.871 29.603 160.8 29.443 160.759 29.2533C160.723 29.0637 160.705 28.8444 160.705 28.5956V26.64H159.825ZM163.565 27.8667C163.565 27.5289 163.624 27.2237 163.743 26.9511C163.867 26.6726 164.033 26.4356 164.24 26.24C164.448 26.0444 164.694 25.8933 164.978 25.7867C165.263 25.68 165.565 25.6267 165.885 25.6267C166.205 25.6267 166.507 25.68 166.791 25.7867C167.076 25.8933 167.322 26.0444 167.529 26.24C167.737 26.4356 167.9 26.6726 168.018 26.9511C168.143 27.2237 168.205 27.5289 168.205 27.8667C168.205 28.2044 168.143 28.5126 168.018 28.7911C167.9 29.0637 167.737 29.2978 167.529 29.4933C167.322 29.6889 167.076 29.84 166.791 29.9467C166.507 30.0533 166.205 30.1067 165.885 30.1067C165.565 30.1067 165.263 30.0533 164.978 29.9467C164.694 29.84 164.448 29.6889 164.24 29.4933C164.033 29.2978 163.867 29.0637 163.743 28.7911C163.624 28.5126 163.565 28.2044 163.565 27.8667ZM164.631 27.8667C164.631 28.0326 164.658 28.1926 164.711 28.3467C164.771 28.5007 164.854 28.637 164.96 28.7556C165.073 28.8741 165.206 28.9689 165.36 29.04C165.514 29.1111 165.689 29.1467 165.885 29.1467C166.08 29.1467 166.255 29.1111 166.409 29.04C166.563 28.9689 166.694 28.8741 166.8 28.7556C166.913 28.637 166.996 28.5007 167.049 28.3467C167.108 28.1926 167.138 28.0326 167.138 27.8667C167.138 27.7007 167.108 27.5407 167.049 27.3867C166.996 27.2326 166.913 27.0963 166.8 26.9778C166.694 26.8593 166.563 26.7644 166.409 26.6933C166.255 26.6222 166.08 26.5867 165.885 26.5867C165.689 26.5867 165.514 26.6222 165.36 26.6933C165.206 26.7644 165.073 26.8593 164.96 26.9778C164.854 27.0963 164.771 27.2326 164.711 27.3867C164.658 27.5407 164.631 27.7007 164.631 27.8667ZM48.0267 35.7333H49.1822L50.1067 38.72H50.1244L50.9867 35.7333H52.1422L53.0667 38.72H53.0844L53.9733 35.7333H55.0489L53.6 40H52.5422L51.5289 37.0844H51.5111L50.6133 40H49.5111L48.0267 35.7333ZM55.4658 37.8667C55.4658 37.5289 55.525 37.2237 55.6435 36.9511C55.768 36.6726 55.9339 36.4356 56.1413 36.24C56.3487 36.0444 56.5947 35.8933 56.8791 35.7867C57.1635 35.68 57.4658 35.6267 57.7858 35.6267C58.1058 35.6267 58.408 35.68 58.6924 35.7867C58.9769 35.8933 59.2228 36.0444 59.4302 36.24C59.6376 36.4356 59.8006 36.6726 59.9191 36.9511C60.0435 37.2237 60.1058 37.5289 60.1058 37.8667C60.1058 38.2044 60.0435 38.5126 59.9191 38.7911C59.8006 39.0637 59.6376 39.2978 59.4302 39.4933C59.2228 39.6889 58.9769 39.84 58.6924 39.9467C58.408 40.0533 58.1058 40.1067 57.7858 40.1067C57.4658 40.1067 57.1635 40.0533 56.8791 39.9467C56.5947 39.84 56.3487 39.6889 56.1413 39.4933C55.9339 39.2978 55.768 39.0637 55.6435 38.7911C55.525 38.5126 55.4658 38.2044 55.4658 37.8667ZM56.5324 37.8667C56.5324 38.0326 56.5591 38.1926 56.6124 38.3467C56.6717 38.5007 56.7547 38.637 56.8613 38.7556C56.9739 38.8741 57.1072 38.9689 57.2613 39.04C57.4154 39.1111 57.5902 39.1467 57.7858 39.1467C57.9813 39.1467 58.1561 39.1111 58.3102 39.04C58.4643 38.9689 58.5947 38.8741 58.7013 38.7556C58.8139 38.637 58.8969 38.5007 58.9502 38.3467C59.0095 38.1926 59.0391 38.0326 59.0391 37.8667C59.0391 37.7007 59.0095 37.5407 58.9502 37.3867C58.8969 37.2326 58.8139 37.0963 58.7013 36.9778C58.5947 36.8593 58.4643 36.7644 58.3102 36.6933C58.1561 36.6222 57.9813 36.5867 57.7858 36.5867C57.5902 36.5867 57.4154 36.6222 57.2613 36.6933C57.1072 36.7644 56.9739 36.8593 56.8613 36.9778C56.7547 37.0963 56.6717 37.2326 56.6124 37.3867C56.5591 37.5407 56.5324 37.7007 56.5324 37.8667ZM61.1044 35.7333H62.1711V36.4089H62.1889C62.3074 36.16 62.4763 35.9674 62.6956 35.8311C62.9148 35.6948 63.1667 35.6267 63.4511 35.6267C63.5163 35.6267 63.5785 35.6326 63.6378 35.6444C63.703 35.6563 63.7681 35.6711 63.8333 35.6889V36.72C63.7444 36.6963 63.6556 36.6785 63.5667 36.6667C63.4837 36.6489 63.4007 36.64 63.3178 36.64C63.0689 36.64 62.8674 36.6874 62.7133 36.7822C62.5652 36.8711 62.4496 36.9748 62.3667 37.0933C62.2896 37.2119 62.2363 37.3304 62.2067 37.4489C62.183 37.5674 62.1711 37.6563 62.1711 37.7156V40H61.1044V35.7333ZM64.5593 33.28H65.626V37.5022L67.2704 35.7333H68.6393L66.8082 37.6711L68.7549 40H67.3415L65.6438 37.8222H65.626V40H64.5593V33.28ZM70.5958 38.1422V37.6533C70.5958 37.523 70.6018 37.4133 70.6136 37.3244C70.6314 37.2296 70.6581 37.1467 70.6936 37.0756C70.7351 36.9985 70.7855 36.9274 70.8447 36.8622C70.9099 36.7911 70.9869 36.7081 71.0758 36.6133L71.7603 35.92C71.9084 35.7719 71.9825 35.5793 71.9825 35.3422C71.9825 35.1111 71.9055 34.9244 71.7514 34.7822C71.6032 34.6341 71.4136 34.56 71.1825 34.56C70.9336 34.56 70.7292 34.6459 70.5692 34.8178C70.4092 34.9837 70.3173 35.1881 70.2936 35.4311L69.1558 35.3422C69.1914 35.0578 69.2655 34.8059 69.3781 34.5867C69.4906 34.3615 69.6358 34.1719 69.8136 34.0178C69.9973 33.8637 70.2077 33.7481 70.4447 33.6711C70.6818 33.5881 70.9425 33.5467 71.2269 33.5467C71.4936 33.5467 71.7395 33.5852 71.9647 33.6622C72.1958 33.7393 72.3944 33.8519 72.5603 34C72.7321 34.1422 72.8655 34.323 72.9603 34.5422C73.0551 34.7556 73.1025 35.0015 73.1025 35.28C73.1025 35.4756 73.0758 35.6474 73.0225 35.7956C72.9692 35.9437 72.8981 36.08 72.8092 36.2044C72.7203 36.3289 72.6166 36.4474 72.4981 36.56C72.3855 36.6726 72.264 36.7911 72.1336 36.9156C72.0506 36.9926 71.9795 37.0607 71.9203 37.12C71.861 37.1793 71.8106 37.2415 71.7692 37.3067C71.7336 37.3659 71.7069 37.437 71.6892 37.52C71.6714 37.597 71.6625 37.6919 71.6625 37.8044V38.1422H70.5958ZM70.4181 39.3778C70.4181 39.1881 70.4862 39.0252 70.6225 38.8889C70.7647 38.7526 70.9336 38.6844 71.1292 38.6844C71.3188 38.6844 71.4847 38.7496 71.6269 38.88C71.7692 39.0104 71.8403 39.1704 71.8403 39.36C71.8403 39.5496 71.7692 39.7126 71.6269 39.8489C71.4906 39.9852 71.3247 40.0533 71.1292 40.0533C71.0344 40.0533 70.9425 40.0356 70.8536 40C70.7706 39.9644 70.6966 39.917 70.6314 39.8578C70.5662 39.7985 70.5129 39.7274 70.4714 39.6444C70.4358 39.5615 70.4181 39.4726 70.4181 39.3778Z" fill="#232323"/>
<rect x="34" y="89" width="67" height="19" rx="9.5" fill="white"/>
<path d="M48.7022 94.7067H50.8889C51.1911 94.7067 51.4815 94.7363 51.76 94.7956C52.0444 94.8489 52.2963 94.9437 52.5156 95.08C52.7348 95.2163 52.9096 95.4 53.04 95.6311C53.1704 95.8622 53.2356 96.1556 53.2356 96.5111C53.2356 96.9674 53.1081 97.3496 52.8533 97.6578C52.6044 97.9659 52.2459 98.1526 51.7778 98.2178L53.4489 101H52.0978L50.64 98.3333H49.8222V101H48.7022V94.7067ZM50.6933 97.3733C50.8533 97.3733 51.0133 97.3674 51.1733 97.3556C51.3333 97.3378 51.4785 97.3022 51.6089 97.2489C51.7452 97.1896 51.8548 97.1037 51.9378 96.9911C52.0207 96.8726 52.0622 96.7096 52.0622 96.5022C52.0622 96.3185 52.0237 96.1704 51.9467 96.0578C51.8696 95.9452 51.7689 95.8622 51.6444 95.8089C51.52 95.7496 51.3807 95.7111 51.2267 95.6933C51.0785 95.6756 50.9333 95.6667 50.7911 95.6667H49.8222V97.3733H50.6933ZM54.2212 96.7333H55.2878V101H54.2212V96.7333ZM54.0701 95.2844C54.0701 95.1126 54.1323 94.9644 54.2567 94.84C54.3871 94.7096 54.5501 94.6444 54.7456 94.6444C54.9412 94.6444 55.1041 94.7067 55.2345 94.8311C55.3708 94.9496 55.439 95.1007 55.439 95.2844C55.439 95.4681 55.3708 95.6222 55.2345 95.7467C55.1041 95.8652 54.9412 95.9244 54.7456 95.9244C54.5501 95.9244 54.3871 95.8622 54.2567 95.7378C54.1323 95.6074 54.0701 95.4563 54.0701 95.2844ZM60.9035 96.7333V100.618C60.9035 101.003 60.8561 101.35 60.7613 101.658C60.6665 101.972 60.5184 102.236 60.3169 102.449C60.1213 102.668 59.8724 102.837 59.5702 102.956C59.268 103.074 58.9095 103.133 58.4947 103.133C58.0976 103.133 57.7213 103.083 57.3658 102.982C57.0102 102.881 56.6813 102.698 56.3791 102.431L57.0191 101.56C57.2324 101.756 57.4547 101.907 57.6858 102.013C57.9169 102.12 58.1835 102.173 58.4858 102.173C58.7406 102.173 58.9539 102.138 59.1258 102.067C59.3035 101.996 59.4428 101.898 59.5435 101.773C59.6502 101.649 59.7243 101.498 59.7658 101.32C59.8132 101.148 59.8369 100.956 59.8369 100.742V100.431H59.8191C59.665 100.639 59.4606 100.796 59.2058 100.902C58.9509 101.003 58.6902 101.053 58.4235 101.053C58.1035 101.053 57.8132 100.997 57.5524 100.884C57.2917 100.766 57.0665 100.609 56.8769 100.413C56.6932 100.218 56.5509 99.9867 56.4502 99.72C56.3495 99.4533 56.2991 99.1689 56.2991 98.8667C56.2991 98.5526 56.3465 98.2593 56.4413 97.9867C56.5361 97.7141 56.6754 97.477 56.8591 97.2756C57.0428 97.0741 57.2621 96.917 57.5169 96.8044C57.7776 96.6859 58.0739 96.6267 58.4058 96.6267C58.708 96.6267 58.9895 96.6859 59.2502 96.8044C59.5109 96.923 59.7184 97.1126 59.8724 97.3733H59.8902V96.7333H60.9035ZM58.628 97.5867C58.4384 97.5867 58.2665 97.6193 58.1124 97.6844C57.9584 97.7437 57.825 97.8296 57.7124 97.9422C57.6058 98.0489 57.5198 98.1822 57.4547 98.3422C57.3954 98.4963 57.3658 98.6681 57.3658 98.8578C57.3658 99.0296 57.3954 99.1896 57.4547 99.3378C57.5198 99.4859 57.6087 99.6163 57.7213 99.7289C57.8339 99.8415 57.9672 99.9304 58.1213 99.9956C58.2754 100.061 58.4413 100.093 58.6191 100.093C58.8147 100.093 58.9895 100.061 59.1435 99.9956C59.3035 99.9304 59.4369 99.8444 59.5435 99.7378C59.6561 99.6252 59.7421 99.4919 59.8013 99.3378C59.8606 99.1837 59.8902 99.0178 59.8902 98.84C59.8902 98.4667 59.7776 98.1644 59.5524 97.9333C59.3272 97.7022 59.0191 97.5867 58.628 97.5867ZM63.1781 97.3289H63.1958C63.2788 97.1511 63.424 96.9911 63.6314 96.8489C63.8447 96.7007 64.1173 96.6267 64.4492 96.6267C64.7336 96.6267 64.9736 96.6741 65.1692 96.7689C65.3706 96.8637 65.5336 96.9881 65.6581 97.1422C65.7825 97.2963 65.8714 97.4741 65.9247 97.6756C65.9781 97.877 66.0047 98.0874 66.0047 98.3067V101H64.9381V98.84C64.9381 98.7215 64.9321 98.5911 64.9203 98.4489C64.9084 98.3007 64.8758 98.1644 64.8225 98.04C64.7751 97.9096 64.6981 97.803 64.5914 97.72C64.4847 97.6311 64.3395 97.5867 64.1558 97.5867C63.9781 97.5867 63.8269 97.6163 63.7025 97.6756C63.584 97.7348 63.4832 97.8148 63.4003 97.9156C63.3232 98.0163 63.2669 98.1319 63.2314 98.2622C63.1958 98.3926 63.1781 98.5289 63.1781 98.6711V101H62.1114V94.28H63.1781V97.3289ZM66.7178 97.64V96.7333H67.5978V95.4978H68.6644V96.7333H69.8378V97.64H68.6644V99.5067C68.6644 99.72 68.703 99.8889 68.78 100.013C68.863 100.138 69.023 100.2 69.26 100.2C69.3548 100.2 69.4585 100.191 69.5711 100.173C69.6837 100.15 69.7726 100.114 69.8378 100.067V100.964C69.7252 101.018 69.5859 101.053 69.42 101.071C69.26 101.095 69.1178 101.107 68.9933 101.107C68.7089 101.107 68.4748 101.074 68.2911 101.009C68.1133 100.95 67.9711 100.858 67.8644 100.733C67.7637 100.603 67.6926 100.443 67.6511 100.253C67.6156 100.064 67.5978 99.8444 67.5978 99.5956V97.64H66.7178ZM73.0873 98.8667C73.0873 98.5289 73.1466 98.2237 73.2651 97.9511C73.3895 97.6726 73.5554 97.4356 73.7628 97.24C73.9703 97.0444 74.2162 96.8933 74.5006 96.7867C74.7851 96.68 75.0873 96.6267 75.4073 96.6267C75.7273 96.6267 76.0295 96.68 76.314 96.7867C76.5984 96.8933 76.8443 97.0444 77.0517 97.24C77.2591 97.4356 77.4221 97.6726 77.5406 97.9511C77.6651 98.2237 77.7273 98.5289 77.7273 98.8667C77.7273 99.2044 77.6651 99.5126 77.5406 99.7911C77.4221 100.064 77.2591 100.298 77.0517 100.493C76.8443 100.689 76.5984 100.84 76.314 100.947C76.0295 101.053 75.7273 101.107 75.4073 101.107C75.0873 101.107 74.7851 101.053 74.5006 100.947C74.2162 100.84 73.9703 100.689 73.7628 100.493C73.5554 100.298 73.3895 100.064 73.2651 99.7911C73.1466 99.5126 73.0873 99.2044 73.0873 98.8667ZM74.154 98.8667C74.154 99.0326 74.1806 99.1926 74.234 99.3467C74.2932 99.5007 74.3762 99.637 74.4828 99.7556C74.5954 99.8741 74.7288 99.9689 74.8828 100.04C75.0369 100.111 75.2117 100.147 75.4073 100.147C75.6028 100.147 75.7777 100.111 75.9317 100.04C76.0858 99.9689 76.2162 99.8741 76.3228 99.7556C76.4354 99.637 76.5184 99.5007 76.5717 99.3467C76.631 99.1926 76.6606 99.0326 76.6606 98.8667C76.6606 98.7007 76.631 98.5407 76.5717 98.3867C76.5184 98.2326 76.4354 98.0963 76.3228 97.9778C76.2162 97.8593 76.0858 97.7644 75.9317 97.6933C75.7777 97.6222 75.6028 97.5867 75.4073 97.5867C75.2117 97.5867 75.0369 97.6222 74.8828 97.6933C74.7288 97.7644 74.5954 97.8593 74.4828 97.9778C74.3762 98.0963 74.2932 98.2326 74.234 98.3867C74.1806 98.5407 74.154 98.7007 74.154 98.8667ZM78.726 96.7333H79.7393V97.4178H79.7571C79.8578 97.2044 80.0119 97.0207 80.2193 96.8667C80.4267 96.7067 80.7082 96.6267 81.0638 96.6267C81.3482 96.6267 81.5882 96.6741 81.7838 96.7689C81.9852 96.8637 82.1482 96.9881 82.2726 97.1422C82.3971 97.2963 82.486 97.4741 82.5393 97.6756C82.5926 97.877 82.6193 98.0874 82.6193 98.3067V101H81.5526V98.84C81.5526 98.7215 81.5467 98.5911 81.5349 98.4489C81.523 98.3007 81.4904 98.1644 81.4371 98.04C81.3897 97.9096 81.3126 97.803 81.206 97.72C81.0993 97.6311 80.9541 97.5867 80.7704 97.5867C80.5926 97.5867 80.4415 97.6163 80.3171 97.6756C80.1986 97.7348 80.0978 97.8148 80.0149 97.9156C79.9378 98.0163 79.8815 98.1319 79.846 98.2622C79.8104 98.3926 79.7926 98.5289 79.7926 98.6711V101H78.726V96.7333ZM85.0746 99.0267H84.0079V94.7067H85.0746V99.0267ZM83.8301 100.378C83.8301 100.188 83.8983 100.025 84.0346 99.8889C84.1768 99.7526 84.3457 99.6844 84.5413 99.6844C84.7309 99.6844 84.8968 99.7496 85.039 99.88C85.1813 100.01 85.2524 100.17 85.2524 100.36C85.2524 100.55 85.1813 100.713 85.039 100.849C84.9027 100.985 84.7368 101.053 84.5413 101.053C84.4464 101.053 84.3546 101.036 84.2657 101C84.1827 100.964 84.1087 100.917 84.0435 100.858C83.9783 100.799 83.925 100.727 83.8835 100.644C83.8479 100.561 83.8301 100.473 83.8301 100.378Z" fill="#232323"/>
<rect x="123" y="60" width="66" height="19" rx="9.5" fill="#57A7FC"/>
<path d="M137.035 65.5956H141.204V66.6089H138.155V68.1556H141.044V69.1689H138.155V70.8756H141.364V71.8889H137.035V65.5956ZM141.794 67.6222H142.958L144.096 70.6089H144.114L145.26 67.6222H146.354L144.674 71.8889H143.536L141.794 67.6222ZM147.834 70.1289C147.87 70.4489 147.994 70.6978 148.208 70.8756C148.421 71.0534 148.679 71.1422 148.981 71.1422C149.248 71.1422 149.47 71.0889 149.648 70.9822C149.831 70.8697 149.991 70.7304 150.128 70.5645L150.892 71.1422C150.643 71.4504 150.365 71.6697 150.056 71.8C149.748 71.9304 149.425 71.9956 149.088 71.9956C148.768 71.9956 148.465 71.9422 148.181 71.8356C147.896 71.7289 147.65 71.5778 147.443 71.3822C147.236 71.1867 147.07 70.9526 146.945 70.68C146.827 70.4015 146.768 70.0934 146.768 69.7556C146.768 69.4178 146.827 69.1126 146.945 68.84C147.07 68.5615 147.236 68.3245 147.443 68.1289C147.65 67.9334 147.896 67.7822 148.181 67.6756C148.465 67.5689 148.768 67.5156 149.088 67.5156C149.384 67.5156 149.653 67.5689 149.896 67.6756C150.145 67.7763 150.356 67.9245 150.528 68.12C150.705 68.3156 150.842 68.5585 150.936 68.8489C151.037 69.1334 151.088 69.4622 151.088 69.8356V70.1289H147.834ZM150.021 69.3289C150.015 69.0148 149.917 68.7689 149.728 68.5911C149.538 68.4074 149.274 68.3156 148.936 68.3156C148.616 68.3156 148.362 68.4074 148.172 68.5911C147.988 68.7748 147.876 69.0208 147.834 69.3289H150.021ZM152.085 67.6222H153.152V68.2978H153.169C153.288 68.0489 153.457 67.8563 153.676 67.72C153.895 67.5837 154.147 67.5156 154.432 67.5156C154.497 67.5156 154.559 67.5215 154.618 67.5334C154.684 67.5452 154.749 67.56 154.814 67.5778V68.6089C154.725 68.5852 154.636 68.5674 154.547 68.5556C154.464 68.5378 154.381 68.5289 154.298 68.5289C154.049 68.5289 153.848 68.5763 153.694 68.6711C153.546 68.76 153.43 68.8637 153.347 68.9822C153.27 69.1008 153.217 69.2193 153.187 69.3378C153.164 69.4563 153.152 69.5452 153.152 69.6045V71.8889H152.085V67.6222ZM154.962 67.6222H156.135L157.327 70.5822H157.344L158.411 67.6222H159.522L157.504 72.8045C157.427 73.006 157.341 73.1808 157.247 73.3289C157.158 73.483 157.051 73.6104 156.927 73.7111C156.802 73.8178 156.654 73.8948 156.482 73.9422C156.316 73.9956 156.115 74.0222 155.878 74.0222C155.599 74.0222 155.327 73.9867 155.06 73.9156L155.193 72.9556C155.276 72.9852 155.362 73.0089 155.451 73.0267C155.546 73.0504 155.641 73.0622 155.735 73.0622C155.866 73.0622 155.975 73.0504 156.064 73.0267C156.153 73.003 156.227 72.9645 156.287 72.9111C156.352 72.8637 156.405 72.7985 156.447 72.7156C156.488 72.6385 156.532 72.5437 156.58 72.4311L156.784 71.9245L154.962 67.6222ZM166.157 71.2489H166.139C165.985 71.5097 165.778 71.6993 165.517 71.8178C165.257 71.9363 164.975 71.9956 164.673 71.9956C164.341 71.9956 164.045 71.9393 163.784 71.8267C163.529 71.7082 163.31 71.5482 163.126 71.3467C162.942 71.1452 162.803 70.9082 162.708 70.6356C162.614 70.363 162.566 70.0697 162.566 69.7556C162.566 69.4415 162.617 69.1482 162.717 68.8756C162.818 68.603 162.957 68.366 163.135 68.1645C163.319 67.963 163.538 67.806 163.793 67.6934C164.048 67.5748 164.326 67.5156 164.628 67.5156C164.83 67.5156 165.008 67.5363 165.162 67.5778C165.316 67.6193 165.452 67.6726 165.571 67.7378C165.689 67.803 165.79 67.8741 165.873 67.9511C165.956 68.0222 166.024 68.0934 166.077 68.1645H166.104V65.1689H167.171V71.8889H166.157V71.2489ZM163.633 69.7556C163.633 69.9215 163.659 70.0815 163.713 70.2356C163.772 70.3897 163.855 70.526 163.962 70.6445C164.074 70.763 164.208 70.8578 164.362 70.9289C164.516 71 164.691 71.0356 164.886 71.0356C165.082 71.0356 165.257 71 165.411 70.9289C165.565 70.8578 165.695 70.763 165.802 70.6445C165.914 70.526 165.997 70.3897 166.051 70.2356C166.11 70.0815 166.139 69.9215 166.139 69.7556C166.139 69.5897 166.11 69.4297 166.051 69.2756C165.997 69.1215 165.914 68.9852 165.802 68.8667C165.695 68.7482 165.565 68.6534 165.411 68.5822C165.257 68.5111 165.082 68.4756 164.886 68.4756C164.691 68.4756 164.516 68.5111 164.362 68.5822C164.208 68.6534 164.074 68.7482 163.962 68.8667C163.855 68.9852 163.772 69.1215 163.713 69.2756C163.659 69.4297 163.633 69.5897 163.633 69.7556ZM171.045 71.3022H171.018C170.864 71.5452 170.669 71.723 170.432 71.8356C170.195 71.9422 169.934 71.9956 169.65 71.9956C169.454 71.9956 169.261 71.9689 169.072 71.9156C168.888 71.8622 168.722 71.7822 168.574 71.6756C168.432 71.5689 168.316 71.4356 168.227 71.2756C168.138 71.1156 168.094 70.9289 168.094 70.7156C168.094 70.4845 168.135 70.2889 168.218 70.1289C168.301 69.963 168.411 69.8267 168.547 69.72C168.69 69.6074 168.852 69.5185 169.036 69.4534C169.22 69.3882 169.41 69.3408 169.605 69.3111C169.807 69.2756 170.008 69.2548 170.21 69.2489C170.411 69.2371 170.601 69.2311 170.778 69.2311H171.045V69.1156C171.045 68.8489 170.953 68.6504 170.77 68.52C170.586 68.3837 170.352 68.3156 170.067 68.3156C169.842 68.3156 169.632 68.3571 169.436 68.44C169.241 68.5171 169.072 68.6237 168.93 68.76L168.37 68.2C168.607 67.9571 168.882 67.7822 169.196 67.6756C169.516 67.5689 169.845 67.5156 170.183 67.5156C170.485 67.5156 170.74 67.5511 170.947 67.6222C171.155 67.6874 171.327 67.7734 171.463 67.88C171.599 67.9867 171.703 68.1111 171.774 68.2534C171.851 68.3897 171.904 68.5289 171.934 68.6711C171.97 68.8134 171.99 68.9526 171.996 69.0889C172.002 69.2193 172.005 69.3348 172.005 69.4356V71.8889H171.045V71.3022ZM170.983 69.9778H170.761C170.612 69.9778 170.447 69.9837 170.263 69.9956C170.079 70.0074 169.904 70.0371 169.738 70.0845C169.578 70.126 169.442 70.1911 169.33 70.28C169.217 70.363 169.161 70.4815 169.161 70.6356C169.161 70.7363 169.181 70.8222 169.223 70.8934C169.27 70.9585 169.33 71.0148 169.401 71.0622C169.472 71.1097 169.552 71.1452 169.641 71.1689C169.73 71.1867 169.818 71.1956 169.907 71.1956C170.275 71.1956 170.544 71.1097 170.716 70.9378C170.894 70.76 170.983 70.52 170.983 70.2178V69.9778ZM172.575 67.6222H173.748L174.939 70.5822H174.957L176.024 67.6222H177.135L175.117 72.8045C175.04 73.006 174.954 73.1808 174.859 73.3289C174.771 73.483 174.664 73.6104 174.539 73.7111C174.415 73.8178 174.267 73.8948 174.095 73.9422C173.929 73.9956 173.728 74.0222 173.491 74.0222C173.212 74.0222 172.939 73.9867 172.673 73.9156L172.806 72.9556C172.889 72.9852 172.975 73.0089 173.064 73.0267C173.159 73.0504 173.253 73.0622 173.348 73.0622C173.479 73.0622 173.588 73.0504 173.677 73.0267C173.766 73.003 173.84 72.9645 173.899 72.9111C173.965 72.8637 174.018 72.7985 174.059 72.7156C174.101 72.6385 174.145 72.5437 174.193 72.4311L174.397 71.9245L172.575 67.6222Z" fill="white"/>
<rect x="34" y="111" width="155" height="33" rx="11.5556" fill="white"/>
<path d="M48.7022 118.707H51.1822C51.597 118.707 51.997 118.772 52.3822 118.902C52.7674 119.027 53.1081 119.219 53.4044 119.48C53.7007 119.741 53.9378 120.07 54.1156 120.467C54.2933 120.858 54.3822 121.32 54.3822 121.853C54.3822 122.393 54.2785 122.861 54.0711 123.258C53.8696 123.649 53.6059 123.975 53.28 124.236C52.96 124.49 52.6015 124.683 52.2044 124.813C51.8133 124.938 51.4281 125 51.0489 125H48.7022V118.707ZM50.6578 123.987C51.0074 123.987 51.3363 123.948 51.6444 123.871C51.9585 123.788 52.2311 123.664 52.4622 123.498C52.6933 123.326 52.8741 123.107 53.0044 122.84C53.1407 122.567 53.2089 122.239 53.2089 121.853C53.2089 121.474 53.1496 121.148 53.0311 120.876C52.9126 120.603 52.7467 120.384 52.5333 120.218C52.3259 120.046 52.077 119.921 51.7867 119.844C51.5022 119.761 51.1881 119.72 50.8444 119.72H49.8222V123.987H50.6578ZM55.1359 122.867C55.1359 122.529 55.1952 122.224 55.3137 121.951C55.4381 121.673 55.6041 121.436 55.8115 121.24C56.0189 121.044 56.2648 120.893 56.5492 120.787C56.8337 120.68 57.1359 120.627 57.4559 120.627C57.7759 120.627 58.0781 120.68 58.3626 120.787C58.647 120.893 58.8929 121.044 59.1003 121.24C59.3078 121.436 59.4707 121.673 59.5892 121.951C59.7137 122.224 59.7759 122.529 59.7759 122.867C59.7759 123.204 59.7137 123.513 59.5892 123.791C59.4707 124.064 59.3078 124.298 59.1003 124.493C58.8929 124.689 58.647 124.84 58.3626 124.947C58.0781 125.053 57.7759 125.107 57.4559 125.107C57.1359 125.107 56.8337 125.053 56.5492 124.947C56.2648 124.84 56.0189 124.689 55.8115 124.493C55.6041 124.298 55.4381 124.064 55.3137 123.791C55.1952 123.513 55.1359 123.204 55.1359 122.867ZM56.2026 122.867C56.2026 123.033 56.2292 123.193 56.2826 123.347C56.3418 123.501 56.4248 123.637 56.5315 123.756C56.6441 123.874 56.7774 123.969 56.9315 124.04C57.0855 124.111 57.2603 124.147 57.4559 124.147C57.6515 124.147 57.8263 124.111 57.9803 124.04C58.1344 123.969 58.2648 123.874 58.3715 123.756C58.4841 123.637 58.567 123.501 58.6203 123.347C58.6796 123.193 58.7092 123.033 58.7092 122.867C58.7092 122.701 58.6796 122.541 58.6203 122.387C58.567 122.233 58.4841 122.096 58.3715 121.978C58.2648 121.859 58.1344 121.764 57.9803 121.693C57.8263 121.622 57.6515 121.587 57.4559 121.587C57.2603 121.587 57.0855 121.622 56.9315 121.693C56.7774 121.764 56.6441 121.859 56.5315 121.978C56.4248 122.096 56.3418 122.233 56.2826 122.387C56.2292 122.541 56.2026 122.701 56.2026 122.867ZM62.827 120.733H64.0003L65.1915 123.693H65.2092L66.2759 120.733H67.387L65.3692 125.916C65.2922 126.117 65.2063 126.292 65.1115 126.44C65.0226 126.594 64.9159 126.721 64.7915 126.822C64.667 126.929 64.5189 127.006 64.347 127.053C64.1811 127.107 63.9796 127.133 63.7426 127.133C63.4641 127.133 63.1915 127.098 62.9248 127.027L63.0581 126.067C63.1411 126.096 63.227 126.12 63.3159 126.138C63.4107 126.161 63.5055 126.173 63.6003 126.173C63.7307 126.173 63.8403 126.161 63.9292 126.138C64.0181 126.114 64.0922 126.076 64.1515 126.022C64.2166 125.975 64.27 125.91 64.3115 125.827C64.3529 125.75 64.3974 125.655 64.4448 125.542L64.6492 125.036L62.827 120.733ZM67.8008 122.867C67.8008 122.529 67.8601 122.224 67.9786 121.951C68.1031 121.673 68.269 121.436 68.4764 121.24C68.6838 121.044 68.9297 120.893 69.2142 120.787C69.4986 120.68 69.8008 120.627 70.1208 120.627C70.4408 120.627 70.7431 120.68 71.0275 120.787C71.3119 120.893 71.5579 121.044 71.7653 121.24C71.9727 121.436 72.1356 121.673 72.2542 121.951C72.3786 122.224 72.4408 122.529 72.4408 122.867C72.4408 123.204 72.3786 123.513 72.2542 123.791C72.1356 124.064 71.9727 124.298 71.7653 124.493C71.5579 124.689 71.3119 124.84 71.0275 124.947C70.7431 125.053 70.4408 125.107 70.1208 125.107C69.8008 125.107 69.4986 125.053 69.2142 124.947C68.9297 124.84 68.6838 124.689 68.4764 124.493C68.269 124.298 68.1031 124.064 67.9786 123.791C67.8601 123.513 67.8008 123.204 67.8008 122.867ZM68.8675 122.867C68.8675 123.033 68.8942 123.193 68.9475 123.347C69.0068 123.501 69.0897 123.637 69.1964 123.756C69.309 123.874 69.4423 123.969 69.5964 124.04C69.7505 124.111 69.9253 124.147 70.1208 124.147C70.3164 124.147 70.4912 124.111 70.6453 124.04C70.7994 123.969 70.9297 123.874 71.0364 123.756C71.149 123.637 71.2319 123.501 71.2853 123.347C71.3445 123.193 71.3742 123.033 71.3742 122.867C71.3742 122.701 71.3445 122.541 71.2853 122.387C71.2319 122.233 71.149 122.096 71.0364 121.978C70.9297 121.859 70.7994 121.764 70.6453 121.693C70.4912 121.622 70.3164 121.587 70.1208 121.587C69.9253 121.587 69.7505 121.622 69.5964 121.693C69.4423 121.764 69.309 121.859 69.1964 121.978C69.0897 122.096 69.0068 122.233 68.9475 122.387C68.8942 122.541 68.8675 122.701 68.8675 122.867ZM77.3328 125H76.3195V124.316H76.3017C76.201 124.529 76.0469 124.716 75.8395 124.876C75.6321 125.03 75.3506 125.107 74.9951 125.107C74.7106 125.107 74.4677 125.062 74.2662 124.973C74.0706 124.879 73.9106 124.754 73.7862 124.6C73.6617 124.44 73.5728 124.259 73.5195 124.058C73.4662 123.856 73.4395 123.646 73.4395 123.427V120.733H74.5062V122.893C74.5062 123.012 74.5121 123.145 74.524 123.293C74.5358 123.436 74.5654 123.572 74.6128 123.702C74.6662 123.827 74.7432 123.933 74.844 124.022C74.9506 124.105 75.0988 124.147 75.2884 124.147C75.4662 124.147 75.6143 124.117 75.7328 124.058C75.8573 123.999 75.958 123.919 76.0351 123.818C76.118 123.717 76.1773 123.601 76.2128 123.471C76.2484 123.341 76.2662 123.204 76.2662 123.062V120.733H77.3328V125ZM83.4494 121.916C83.242 121.625 82.9635 121.48 82.6139 121.48C82.4717 121.48 82.3324 121.516 82.1961 121.587C82.0598 121.658 81.9917 121.773 81.9917 121.933C81.9917 122.064 82.048 122.159 82.1606 122.218C82.2732 122.277 82.4154 122.327 82.5872 122.369C82.7591 122.41 82.9428 122.455 83.1383 122.502C83.3398 122.544 83.5265 122.612 83.6983 122.707C83.8702 122.796 84.0124 122.92 84.125 123.08C84.2376 123.24 84.2939 123.459 84.2939 123.738C84.2939 123.993 84.2376 124.209 84.125 124.387C84.0183 124.559 83.8761 124.698 83.6983 124.804C83.5265 124.911 83.3309 124.988 83.1117 125.036C82.8924 125.083 82.6732 125.107 82.4539 125.107C82.122 125.107 81.8169 125.059 81.5383 124.964C81.2598 124.87 81.0109 124.698 80.7917 124.449L81.5028 123.782C81.6391 123.936 81.7843 124.064 81.9383 124.164C82.0983 124.259 82.2909 124.307 82.5161 124.307C82.5932 124.307 82.6732 124.298 82.7561 124.28C82.8391 124.262 82.9161 124.233 82.9872 124.191C83.0583 124.15 83.1146 124.099 83.1561 124.04C83.2035 123.975 83.2272 123.901 83.2272 123.818C83.2272 123.67 83.1709 123.56 83.0583 123.489C82.9457 123.418 82.8035 123.361 82.6317 123.32C82.4598 123.273 82.2732 123.231 82.0717 123.196C81.8761 123.154 81.6924 123.092 81.5206 123.009C81.3487 122.92 81.2065 122.799 81.0939 122.644C80.9813 122.49 80.925 122.277 80.925 122.004C80.925 121.767 80.9724 121.563 81.0672 121.391C81.168 121.213 81.2983 121.068 81.4583 120.956C81.6183 120.843 81.802 120.76 82.0094 120.707C82.2169 120.653 82.4272 120.627 82.6406 120.627C82.925 120.627 83.2065 120.677 83.485 120.778C83.7635 120.873 83.9887 121.039 84.1606 121.276L83.4494 121.916ZM88.0391 122.013C87.9147 121.883 87.7843 121.779 87.648 121.702C87.5117 121.625 87.3724 121.587 87.2302 121.587C87.0347 121.587 86.8598 121.622 86.7058 121.693C86.5517 121.764 86.4184 121.859 86.3058 121.978C86.1991 122.096 86.1161 122.233 86.0569 122.387C86.0035 122.541 85.9769 122.701 85.9769 122.867C85.9769 123.033 86.0035 123.193 86.0569 123.347C86.1161 123.501 86.1991 123.637 86.3058 123.756C86.4184 123.874 86.5517 123.969 86.7058 124.04C86.8598 124.111 87.0347 124.147 87.2302 124.147C87.3961 124.147 87.5502 124.114 87.6924 124.049C87.8347 123.978 87.9561 123.877 88.0569 123.747L88.768 124.511C88.6613 124.618 88.5369 124.71 88.3947 124.787C88.2584 124.864 88.1191 124.926 87.9769 124.973C87.8347 125.021 87.6984 125.053 87.568 125.071C87.4376 125.095 87.325 125.107 87.2302 125.107C86.9102 125.107 86.608 125.053 86.3235 124.947C86.0391 124.84 85.7932 124.689 85.5858 124.493C85.3784 124.298 85.2124 124.064 85.088 123.791C84.9695 123.513 84.9102 123.204 84.9102 122.867C84.9102 122.529 84.9695 122.224 85.088 121.951C85.2124 121.673 85.3784 121.436 85.5858 121.24C85.7932 121.044 86.0391 120.893 86.3235 120.787C86.608 120.68 86.9102 120.627 87.2302 120.627C87.5028 120.627 87.7754 120.68 88.048 120.787C88.3265 120.887 88.5695 121.05 88.7769 121.276L88.0391 122.013ZM89.1984 122.867C89.1984 122.529 89.2577 122.224 89.3762 121.951C89.5006 121.673 89.6666 121.436 89.874 121.24C90.0814 121.044 90.3273 120.893 90.6117 120.787C90.8962 120.68 91.1984 120.627 91.5184 120.627C91.8384 120.627 92.1406 120.68 92.4251 120.787C92.7095 120.893 92.9554 121.044 93.1628 121.24C93.3703 121.436 93.5332 121.673 93.6517 121.951C93.7762 122.224 93.8384 122.529 93.8384 122.867C93.8384 123.204 93.7762 123.513 93.6517 123.791C93.5332 124.064 93.3703 124.298 93.1628 124.493C92.9554 124.689 92.7095 124.84 92.4251 124.947C92.1406 125.053 91.8384 125.107 91.5184 125.107C91.1984 125.107 90.8962 125.053 90.6117 124.947C90.3273 124.84 90.0814 124.689 89.874 124.493C89.6666 124.298 89.5006 124.064 89.3762 123.791C89.2577 123.513 89.1984 123.204 89.1984 122.867ZM90.2651 122.867C90.2651 123.033 90.2917 123.193 90.3451 123.347C90.4043 123.501 90.4873 123.637 90.594 123.756C90.7066 123.874 90.8399 123.969 90.994 124.04C91.148 124.111 91.3228 124.147 91.5184 124.147C91.714 124.147 91.8888 124.111 92.0428 124.04C92.1969 123.969 92.3273 123.874 92.434 123.756C92.5466 123.637 92.6295 123.501 92.6828 123.347C92.7421 123.193 92.7717 123.033 92.7717 122.867C92.7717 122.701 92.7421 122.541 92.6828 122.387C92.6295 122.233 92.5466 122.096 92.434 121.978C92.3273 121.859 92.1969 121.764 92.0428 121.693C91.8888 121.622 91.714 121.587 91.5184 121.587C91.3228 121.587 91.148 121.622 90.994 121.693C90.8399 121.764 90.7066 121.859 90.594 121.978C90.4873 122.096 90.4043 122.233 90.3451 122.387C90.2917 122.541 90.2651 122.701 90.2651 122.867ZM94.6238 122.867C94.6238 122.529 94.683 122.224 94.8015 121.951C94.926 121.673 95.0919 121.436 95.2993 121.24C95.5067 121.044 95.7526 120.893 96.0371 120.787C96.3215 120.68 96.6238 120.627 96.9438 120.627C97.2638 120.627 97.566 120.68 97.8504 120.787C98.1349 120.893 98.3808 121.044 98.5882 121.24C98.7956 121.436 98.9586 121.673 99.0771 121.951C99.2015 122.224 99.2638 122.529 99.2638 122.867C99.2638 123.204 99.2015 123.513 99.0771 123.791C98.9586 124.064 98.7956 124.298 98.5882 124.493C98.3808 124.689 98.1349 124.84 97.8504 124.947C97.566 125.053 97.2638 125.107 96.9438 125.107C96.6238 125.107 96.3215 125.053 96.0371 124.947C95.7526 124.84 95.5067 124.689 95.2993 124.493C95.0919 124.298 94.926 124.064 94.8015 123.791C94.683 123.513 94.6238 123.204 94.6238 122.867ZM95.6904 122.867C95.6904 123.033 95.7171 123.193 95.7704 123.347C95.8297 123.501 95.9126 123.637 96.0193 123.756C96.1319 123.874 96.2652 123.969 96.4193 124.04C96.5734 124.111 96.7482 124.147 96.9438 124.147C97.1393 124.147 97.3141 124.111 97.4682 124.04C97.6223 123.969 97.7526 123.874 97.8593 123.756C97.9719 123.637 98.0549 123.501 98.1082 123.347C98.1675 123.193 98.1971 123.033 98.1971 122.867C98.1971 122.701 98.1675 122.541 98.1082 122.387C98.0549 122.233 97.9719 122.096 97.8593 121.978C97.7526 121.859 97.6223 121.764 97.4682 121.693C97.3141 121.622 97.1393 121.587 96.9438 121.587C96.7482 121.587 96.5734 121.622 96.4193 121.693C96.2652 121.764 96.1319 121.859 96.0193 121.978C95.9126 122.096 95.8297 122.233 95.7704 122.387C95.7171 122.541 95.6904 122.701 95.6904 122.867ZM99.7647 121.64V120.733H100.645V119.498H101.711V120.733H102.885V121.64H101.711V123.507C101.711 123.72 101.75 123.889 101.827 124.013C101.91 124.138 102.07 124.2 102.307 124.2C102.402 124.2 102.505 124.191 102.618 124.173C102.731 124.15 102.819 124.114 102.885 124.067V124.964C102.772 125.018 102.633 125.053 102.467 125.071C102.307 125.095 102.165 125.107 102.04 125.107C101.756 125.107 101.522 125.074 101.338 125.009C101.16 124.95 101.018 124.858 100.911 124.733C100.811 124.603 100.739 124.443 100.698 124.253C100.662 124.064 100.645 123.844 100.645 123.596V121.64H99.7647ZM104.571 123.24C104.606 123.56 104.731 123.809 104.944 123.987C105.157 124.164 105.415 124.253 105.717 124.253C105.984 124.253 106.206 124.2 106.384 124.093C106.568 123.981 106.728 123.841 106.864 123.676L107.628 124.253C107.38 124.561 107.101 124.781 106.793 124.911C106.485 125.041 106.162 125.107 105.824 125.107C105.504 125.107 105.202 125.053 104.917 124.947C104.633 124.84 104.387 124.689 104.18 124.493C103.972 124.298 103.806 124.064 103.682 123.791C103.563 123.513 103.504 123.204 103.504 122.867C103.504 122.529 103.563 122.224 103.682 121.951C103.806 121.673 103.972 121.436 104.18 121.24C104.387 121.044 104.633 120.893 104.917 120.787C105.202 120.68 105.504 120.627 105.824 120.627C106.12 120.627 106.39 120.68 106.633 120.787C106.882 120.887 107.092 121.036 107.264 121.231C107.442 121.427 107.578 121.67 107.673 121.96C107.774 122.244 107.824 122.573 107.824 122.947V123.24H104.571ZM106.757 122.44C106.751 122.126 106.654 121.88 106.464 121.702C106.274 121.519 106.011 121.427 105.673 121.427C105.353 121.427 105.098 121.519 104.908 121.702C104.725 121.886 104.612 122.132 104.571 122.44H106.757ZM108.821 120.733H109.888V121.409H109.906C110.024 121.16 110.193 120.967 110.413 120.831C110.632 120.695 110.884 120.627 111.168 120.627C111.233 120.627 111.296 120.633 111.355 120.644C111.42 120.656 111.485 120.671 111.55 120.689V121.72C111.461 121.696 111.373 121.679 111.284 121.667C111.201 121.649 111.118 121.64 111.035 121.64C110.786 121.64 110.584 121.687 110.43 121.782C110.282 121.871 110.167 121.975 110.084 122.093C110.007 122.212 109.953 122.33 109.924 122.449C109.9 122.567 109.888 122.656 109.888 122.716V125H108.821V120.733ZM114.409 121.64V120.733H115.289V119.498H116.355V120.733H117.529V121.64H116.355V123.507C116.355 123.72 116.394 123.889 116.471 124.013C116.554 124.138 116.714 124.2 116.951 124.2C117.046 124.2 117.149 124.191 117.262 124.173C117.375 124.15 117.464 124.114 117.529 124.067V124.964C117.416 125.018 117.277 125.053 117.111 125.071C116.951 125.095 116.809 125.107 116.684 125.107C116.4 125.107 116.166 125.074 115.982 125.009C115.804 124.95 115.662 124.858 115.555 124.733C115.455 124.603 115.384 124.443 115.342 124.253C115.307 124.064 115.289 123.844 115.289 123.596V121.64H114.409ZM119.437 121.329H119.455C119.537 121.151 119.683 120.991 119.89 120.849C120.103 120.701 120.376 120.627 120.708 120.627C120.992 120.627 121.232 120.674 121.428 120.769C121.629 120.864 121.792 120.988 121.917 121.142C122.041 121.296 122.13 121.474 122.183 121.676C122.237 121.877 122.263 122.087 122.263 122.307V125H121.197V122.84C121.197 122.721 121.191 122.591 121.179 122.449C121.167 122.301 121.135 122.164 121.081 122.04C121.034 121.91 120.957 121.803 120.85 121.72C120.743 121.631 120.598 121.587 120.415 121.587C120.237 121.587 120.086 121.616 119.961 121.676C119.843 121.735 119.742 121.815 119.659 121.916C119.582 122.016 119.526 122.132 119.49 122.262C119.455 122.393 119.437 122.529 119.437 122.671V125H118.37V118.28H119.437V121.329ZM124.328 123.24C124.363 123.56 124.488 123.809 124.701 123.987C124.914 124.164 125.172 124.253 125.474 124.253C125.741 124.253 125.963 124.2 126.141 124.093C126.325 123.981 126.485 123.841 126.621 123.676L127.385 124.253C127.136 124.561 126.858 124.781 126.55 124.911C126.242 125.041 125.919 125.107 125.581 125.107C125.261 125.107 124.959 125.053 124.674 124.947C124.39 124.84 124.144 124.689 123.936 124.493C123.729 124.298 123.563 124.064 123.439 123.791C123.32 123.513 123.261 123.204 123.261 122.867C123.261 122.529 123.32 122.224 123.439 121.951C123.563 121.673 123.729 121.436 123.936 121.24C124.144 121.044 124.39 120.893 124.674 120.787C124.959 120.68 125.261 120.627 125.581 120.627C125.877 120.627 126.147 120.68 126.39 120.787C126.639 120.887 126.849 121.036 127.021 121.231C127.199 121.427 127.335 121.67 127.43 121.96C127.531 122.244 127.581 122.573 127.581 122.947V123.24H124.328ZM126.514 122.44C126.508 122.126 126.411 121.88 126.221 121.702C126.031 121.519 125.768 121.427 125.43 121.427C125.11 121.427 124.855 121.519 124.665 121.702C124.482 121.886 124.369 122.132 124.328 122.44H126.514ZM130.631 120.733H131.786L132.711 123.72H132.729L133.591 120.733H134.746L135.671 123.72H135.689L136.578 120.733H137.653L136.204 125H135.146L134.133 122.084H134.115L133.218 125H132.115L130.631 120.733ZM139.35 121.329H139.368C139.451 121.151 139.596 120.991 139.803 120.849C140.017 120.701 140.289 120.627 140.621 120.627C140.905 120.627 141.145 120.674 141.341 120.769C141.543 120.864 141.705 120.988 141.83 121.142C141.954 121.296 142.043 121.474 142.097 121.676C142.15 121.877 142.177 122.087 142.177 122.307V125H141.11V122.84C141.11 122.721 141.104 122.591 141.092 122.449C141.08 122.301 141.048 122.164 140.994 122.04C140.947 121.91 140.87 121.803 140.763 121.72C140.657 121.631 140.511 121.587 140.328 121.587C140.15 121.587 139.999 121.616 139.874 121.676C139.756 121.735 139.655 121.815 139.572 121.916C139.495 122.016 139.439 122.132 139.403 122.262C139.368 122.393 139.35 122.529 139.35 122.671V125H138.283V118.28H139.35V121.329ZM143.174 122.867C143.174 122.529 143.233 122.224 143.352 121.951C143.476 121.673 143.642 121.436 143.85 121.24C144.057 121.044 144.303 120.893 144.587 120.787C144.872 120.68 145.174 120.627 145.494 120.627C145.814 120.627 146.116 120.68 146.401 120.787C146.685 120.893 146.931 121.044 147.139 121.24C147.346 121.436 147.509 121.673 147.627 121.951C147.752 122.224 147.814 122.529 147.814 122.867C147.814 123.204 147.752 123.513 147.627 123.791C147.509 124.064 147.346 124.298 147.139 124.493C146.931 124.689 146.685 124.84 146.401 124.947C146.116 125.053 145.814 125.107 145.494 125.107C145.174 125.107 144.872 125.053 144.587 124.947C144.303 124.84 144.057 124.689 143.85 124.493C143.642 124.298 143.476 124.064 143.352 123.791C143.233 123.513 143.174 123.204 143.174 122.867ZM144.241 122.867C144.241 123.033 144.267 123.193 144.321 123.347C144.38 123.501 144.463 123.637 144.57 123.756C144.682 123.874 144.816 123.969 144.97 124.04C145.124 124.111 145.299 124.147 145.494 124.147C145.69 124.147 145.864 124.111 146.019 124.04C146.173 123.969 146.303 123.874 146.41 123.756C146.522 123.637 146.605 123.501 146.659 123.347C146.718 123.193 146.747 123.033 146.747 122.867C146.747 122.701 146.718 122.541 146.659 122.387C146.605 122.233 146.522 122.096 146.41 121.978C146.303 121.859 146.173 121.764 146.019 121.693C145.864 121.622 145.69 121.587 145.494 121.587C145.299 121.587 145.124 121.622 144.97 121.693C144.816 121.764 144.682 121.859 144.57 121.978C144.463 122.096 144.38 122.233 144.321 122.387C144.267 122.541 144.241 122.701 144.241 122.867ZM148.831 118.28H149.897V125H148.831V118.28ZM151.975 123.24C152.011 123.56 152.135 123.809 152.348 123.987C152.562 124.164 152.82 124.253 153.122 124.253C153.388 124.253 153.611 124.2 153.788 124.093C153.972 123.981 154.132 123.841 154.268 123.676L155.033 124.253C154.784 124.561 154.506 124.781 154.197 124.911C153.889 125.041 153.566 125.107 153.228 125.107C152.908 125.107 152.606 125.053 152.322 124.947C152.037 124.84 151.791 124.689 151.584 124.493C151.377 124.298 151.211 124.064 151.086 123.791C150.968 123.513 150.908 123.204 150.908 122.867C150.908 122.529 150.968 122.224 151.086 121.951C151.211 121.673 151.377 121.436 151.584 121.24C151.791 121.044 152.037 120.893 152.322 120.787C152.606 120.68 152.908 120.627 153.228 120.627C153.525 120.627 153.794 120.68 154.037 120.787C154.286 120.887 154.497 121.036 154.668 121.231C154.846 121.427 154.983 121.67 155.077 121.96C155.178 122.244 155.228 122.573 155.228 122.947V123.24H151.975ZM154.162 122.44C154.156 122.126 154.058 121.88 153.868 121.702C153.679 121.519 153.415 121.427 153.077 121.427C152.757 121.427 152.503 121.519 152.313 121.702C152.129 121.886 152.017 122.132 151.975 122.44H154.162ZM48.0267 130.733H49.1822L50.1067 133.72H50.1244L50.9867 130.733H52.1422L53.0667 133.72H53.0844L53.9733 130.733H55.0489L53.6 135H52.5422L51.5289 132.084H51.5111L50.6133 135H49.5111L48.0267 130.733ZM58.3458 134.413H58.3191C58.165 134.656 57.9695 134.834 57.7324 134.947C57.4954 135.053 57.2347 135.107 56.9502 135.107C56.7547 135.107 56.5621 135.08 56.3724 135.027C56.1887 134.973 56.0228 134.893 55.8747 134.787C55.7324 134.68 55.6169 134.547 55.528 134.387C55.4391 134.227 55.3947 134.04 55.3947 133.827C55.3947 133.596 55.4361 133.4 55.5191 133.24C55.6021 133.074 55.7117 132.938 55.848 132.831C55.9902 132.719 56.1532 132.63 56.3369 132.564C56.5206 132.499 56.7102 132.452 56.9058 132.422C57.1072 132.387 57.3087 132.366 57.5102 132.36C57.7117 132.348 57.9013 132.342 58.0791 132.342H58.3458V132.227C58.3458 131.96 58.2539 131.761 58.0702 131.631C57.8865 131.495 57.6524 131.427 57.368 131.427C57.1428 131.427 56.9324 131.468 56.7369 131.551C56.5413 131.628 56.3724 131.735 56.2302 131.871L55.6702 131.311C55.9072 131.068 56.1828 130.893 56.4969 130.787C56.8169 130.68 57.1458 130.627 57.4835 130.627C57.7858 130.627 58.0406 130.662 58.248 130.733C58.4554 130.799 58.6272 130.884 58.7635 130.991C58.8998 131.098 59.0035 131.222 59.0747 131.364C59.1517 131.501 59.205 131.64 59.2347 131.782C59.2702 131.924 59.2909 132.064 59.2969 132.2C59.3028 132.33 59.3058 132.446 59.3058 132.547V135H58.3458V134.413ZM58.2835 133.089H58.0613C57.9132 133.089 57.7472 133.095 57.5635 133.107C57.3798 133.119 57.205 133.148 57.0391 133.196C56.8791 133.237 56.7428 133.302 56.6302 133.391C56.5176 133.474 56.4613 133.593 56.4613 133.747C56.4613 133.847 56.4821 133.933 56.5235 134.004C56.5709 134.07 56.6302 134.126 56.7013 134.173C56.7724 134.221 56.8524 134.256 56.9413 134.28C57.0302 134.298 57.1191 134.307 57.208 134.307C57.5754 134.307 57.845 134.221 58.0169 134.049C58.1947 133.871 58.2835 133.631 58.2835 133.329V133.089ZM59.8756 130.733H61.049L62.2401 133.693H62.2578L63.3245 130.733H64.4356L62.4178 135.916C62.3408 136.117 62.2549 136.292 62.1601 136.44C62.0712 136.594 61.9645 136.721 61.8401 136.822C61.7156 136.929 61.5675 137.006 61.3956 137.053C61.2297 137.107 61.0282 137.133 60.7912 137.133C60.5127 137.133 60.2401 137.098 59.9734 137.027L60.1067 136.067C60.1897 136.096 60.2756 136.12 60.3645 136.138C60.4593 136.161 60.5541 136.173 60.649 136.173C60.7793 136.173 60.889 136.161 60.9778 136.138C61.0667 136.114 61.1408 136.076 61.2001 136.022C61.2653 135.975 61.3186 135.91 61.3601 135.827C61.4016 135.75 61.446 135.655 61.4934 135.542L61.6978 135.036L59.8756 130.733ZM67.1952 131.64V130.733H68.0752V129.498H69.1419V130.733H70.3152V131.64H69.1419V133.507C69.1419 133.72 69.1804 133.889 69.2574 134.013C69.3404 134.138 69.5004 134.2 69.7374 134.2C69.8322 134.2 69.936 134.191 70.0485 134.173C70.1611 134.15 70.25 134.114 70.3152 134.067V134.964C70.2026 135.018 70.0634 135.053 69.8974 135.071C69.7374 135.095 69.5952 135.107 69.4708 135.107C69.1863 135.107 68.9522 135.074 68.7685 135.009C68.5908 134.95 68.4485 134.858 68.3419 134.733C68.2411 134.603 68.17 134.443 68.1285 134.253C68.093 134.064 68.0752 133.844 68.0752 133.596V131.64H67.1952ZM70.9345 132.867C70.9345 132.529 70.9938 132.224 71.1123 131.951C71.2367 131.673 71.4027 131.436 71.6101 131.24C71.8175 131.044 72.0634 130.893 72.3478 130.787C72.6323 130.68 72.9345 130.627 73.2545 130.627C73.5745 130.627 73.8767 130.68 74.1612 130.787C74.4456 130.893 74.6916 131.044 74.899 131.24C75.1064 131.436 75.2693 131.673 75.3878 131.951C75.5123 132.224 75.5745 132.529 75.5745 132.867C75.5745 133.204 75.5123 133.513 75.3878 133.791C75.2693 134.064 75.1064 134.298 74.899 134.493C74.6916 134.689 74.4456 134.84 74.1612 134.947C73.8767 135.053 73.5745 135.107 73.2545 135.107C72.9345 135.107 72.6323 135.053 72.3478 134.947C72.0634 134.84 71.8175 134.689 71.6101 134.493C71.4027 134.298 71.2367 134.064 71.1123 133.791C70.9938 133.513 70.9345 133.204 70.9345 132.867ZM72.0012 132.867C72.0012 133.033 72.0278 133.193 72.0812 133.347C72.1404 133.501 72.2234 133.637 72.3301 133.756C72.4427 133.874 72.576 133.969 72.7301 134.04C72.8841 134.111 73.059 134.147 73.2545 134.147C73.4501 134.147 73.6249 134.111 73.779 134.04C73.933 133.969 74.0634 133.874 74.1701 133.756C74.2827 133.637 74.3656 133.501 74.419 133.347C74.4782 133.193 74.5078 133.033 74.5078 132.867C74.5078 132.701 74.4782 132.541 74.419 132.387C74.3656 132.233 74.2827 132.096 74.1701 131.978C74.0634 131.859 73.933 131.764 73.779 131.693C73.6249 131.622 73.4501 131.587 73.2545 131.587C73.059 131.587 72.8841 131.622 72.7301 131.693C72.576 131.764 72.4427 131.859 72.3301 131.978C72.2234 132.096 72.1404 132.233 72.0812 132.387C72.0278 132.541 72.0012 132.701 72.0012 132.867ZM78.6256 130.733H79.7812L80.7056 133.72H80.7234L81.5856 130.733H82.7412L83.6656 133.72H83.6834L84.5723 130.733H85.6478L84.199 135H83.1412L82.1278 132.084H82.1101L81.2123 135H80.1101L78.6256 130.733ZM86.0647 132.867C86.0647 132.529 86.124 132.224 86.2425 131.951C86.3669 131.673 86.5329 131.436 86.7403 131.24C86.9477 131.044 87.1936 130.893 87.4781 130.787C87.7625 130.68 88.0647 130.627 88.3847 130.627C88.7047 130.627 89.0069 130.68 89.2914 130.787C89.5758 130.893 89.8218 131.044 90.0292 131.24C90.2366 131.436 90.3995 131.673 90.5181 131.951C90.6425 132.224 90.7047 132.529 90.7047 132.867C90.7047 133.204 90.6425 133.513 90.5181 133.791C90.3995 134.064 90.2366 134.298 90.0292 134.493C89.8218 134.689 89.5758 134.84 89.2914 134.947C89.0069 135.053 88.7047 135.107 88.3847 135.107C88.0647 135.107 87.7625 135.053 87.4781 134.947C87.1936 134.84 86.9477 134.689 86.7403 134.493C86.5329 134.298 86.3669 134.064 86.2425 133.791C86.124 133.513 86.0647 133.204 86.0647 132.867ZM87.1314 132.867C87.1314 133.033 87.1581 133.193 87.2114 133.347C87.2707 133.501 87.3536 133.637 87.4603 133.756C87.5729 133.874 87.7062 133.969 87.8603 134.04C88.0144 134.111 88.1892 134.147 88.3847 134.147C88.5803 134.147 88.7551 134.111 88.9092 134.04C89.0632 133.969 89.1936 133.874 89.3003 133.756C89.4129 133.637 89.4958 133.501 89.5492 133.347C89.6084 133.193 89.6381 133.033 89.6381 132.867C89.6381 132.701 89.6084 132.541 89.5492 132.387C89.4958 132.233 89.4129 132.096 89.3003 131.978C89.1936 131.859 89.0632 131.764 88.9092 131.693C88.7551 131.622 88.5803 131.587 88.3847 131.587C88.1892 131.587 88.0144 131.622 87.8603 131.693C87.7062 131.764 87.5729 131.859 87.4603 131.978C87.3536 132.096 87.2707 132.233 87.2114 132.387C87.1581 132.541 87.1314 132.701 87.1314 132.867ZM91.7034 130.733H92.7701V131.409H92.7878C92.9064 131.16 93.0753 130.967 93.2945 130.831C93.5138 130.695 93.7656 130.627 94.0501 130.627C94.1153 130.627 94.1775 130.633 94.2367 130.644C94.3019 130.656 94.3671 130.671 94.4323 130.689V131.72C94.3434 131.696 94.2545 131.679 94.1656 131.667C94.0827 131.649 93.9997 131.64 93.9167 131.64C93.6678 131.64 93.4664 131.687 93.3123 131.782C93.1641 131.871 93.0486 131.975 92.9656 132.093C92.8886 132.212 92.8353 132.33 92.8056 132.449C92.7819 132.567 92.7701 132.656 92.7701 132.716V135H91.7034V130.733ZM95.1583 128.28H96.2249V132.502L97.8694 130.733H99.2383L97.4072 132.671L99.3538 135H97.9405L96.2427 132.822H96.2249V135H95.1583V128.28ZM101.195 133.142V132.653C101.195 132.523 101.201 132.413 101.213 132.324C101.23 132.23 101.257 132.147 101.293 132.076C101.334 131.999 101.384 131.927 101.444 131.862C101.509 131.791 101.586 131.708 101.675 131.613L102.359 130.92C102.507 130.772 102.581 130.579 102.581 130.342C102.581 130.111 102.504 129.924 102.35 129.782C102.202 129.634 102.013 129.56 101.781 129.56C101.533 129.56 101.328 129.646 101.168 129.818C101.008 129.984 100.916 130.188 100.893 130.431L99.7548 130.342C99.7903 130.058 99.8644 129.806 99.977 129.587C100.09 129.361 100.235 129.172 100.413 129.018C100.596 128.864 100.807 128.748 101.044 128.671C101.281 128.588 101.541 128.547 101.826 128.547C102.093 128.547 102.338 128.585 102.564 128.662C102.795 128.739 102.993 128.852 103.159 129C103.331 129.142 103.464 129.323 103.559 129.542C103.654 129.756 103.701 130.001 103.701 130.28C103.701 130.476 103.675 130.647 103.621 130.796C103.568 130.944 103.497 131.08 103.408 131.204C103.319 131.329 103.216 131.447 103.097 131.56C102.984 131.673 102.863 131.791 102.733 131.916C102.65 131.993 102.578 132.061 102.519 132.12C102.46 132.179 102.41 132.241 102.368 132.307C102.333 132.366 102.306 132.437 102.288 132.52C102.27 132.597 102.261 132.692 102.261 132.804V133.142H101.195ZM101.017 134.378C101.017 134.188 101.085 134.025 101.221 133.889C101.364 133.753 101.533 133.684 101.728 133.684C101.918 133.684 102.084 133.75 102.226 133.88C102.368 134.01 102.439 134.17 102.439 134.36C102.439 134.55 102.368 134.713 102.226 134.849C102.09 134.985 101.924 135.053 101.728 135.053C101.633 135.053 101.541 135.036 101.453 135C101.37 134.964 101.296 134.917 101.23 134.858C101.165 134.799 101.112 134.727 101.07 134.644C101.035 134.561 101.017 134.473 101.017 134.378Z" fill="#232323"/>
<g opacity="0.25">
<g opacity="0.25">
<path opacity="0.25" d="M11.8003 51.4652C11.8003 51.7499 12.2147 52.0104 12.8977 52.2084C13.7081 52.4399 14.8853 52.5904 16.2027 52.5904C17.3603 52.5904 18.3315 52.3646 19.0886 52.2905C19.9163 52.2095 20.3735 51.7905 20.3735 51.4652C20.3735 51.1399 19.679 50.8377 18.8224 50.6213C18.1035 50.4395 17.2168 50.4407 16.087 50.4407C14.7325 50.4407 13.8979 50.597 12.7842 50.737C12.2448 50.8042 11.8003 51.1897 11.8003 51.4652Z" fill="black"/>
</g>
</g>
<path d="M15.9758 46.5859C9.90757 45.8716 10.0025 38.1086 11.255 33.565C12.239 29.9972 11.3326 28.2179 9.65864 24.8747C7.78677 21.1356 10.55 18.0691 14.6908 19.728C18.0895 21.0893 20.8169 27.9227 21.6689 34.3255C22.5568 40.9899 21.3958 47.1959 15.9758 46.5859Z" fill="#52A1FF"/>
<path d="M15.3612 21.2538C15.0984 20.9956 14.8889 20.5523 15.0302 20.4122C15.1714 20.2721 15.7247 20.4296 15.9724 20.8C16.1403 21.0477 16.212 21.4367 16.0708 21.549C15.9295 21.6613 15.5591 21.4483 15.3612 21.2538Z" fill="black"/>
<g opacity="0.8">
<g opacity="0.8">
<path opacity="0.8" d="M15.3154 20.7268C15.2309 20.6527 15.1614 20.5207 15.1996 20.4767C15.2378 20.4327 15.3964 20.4767 15.4786 20.5925C15.533 20.6654 15.5736 20.7708 15.5319 20.8066C15.4902 20.8425 15.3755 20.7846 15.313 20.7291" fill="#565656"/>
</g>
</g>
<path d="M13.9664 21.1425L14.0185 21.0973C14.107 21.0161 14.221 20.9682 14.341 20.9619C14.461 20.9556 14.5794 20.9912 14.676 21.0626L16.2874 22.3568L14.8392 23.6036L13.824 21.7815C13.7709 21.6763 13.7554 21.556 13.7803 21.4407C13.8051 21.3255 13.8688 21.2223 13.9606 21.1483" fill="#FFD545"/>
<g opacity="0.1">
<g opacity="0.1">
<path opacity="0.1" d="M15.8428 23.3511L16.2874 22.3579L14.845 23.5977L15.8428 23.3511Z" fill="#444444"/>
</g>
</g>
<path d="M13.6674 23.7449C13.4937 23.907 12.9601 23.6974 12.658 23.3652C12.4125 23.0943 12.2249 22.6371 12.3812 22.4796C12.5375 22.3222 13.1082 22.49 13.4231 22.8339C13.6789 23.1175 13.8341 23.5921 13.672 23.7449" fill="black"/>
<g opacity="0.8">
<g opacity="0.8">
<path opacity="0.8" d="M12.9486 23.0747C12.8907 23.1244 12.717 23.0503 12.6314 22.9392C12.5573 22.8501 12.5041 22.7008 12.5562 22.6521C12.6083 22.6035 12.7876 22.666 12.8826 22.7806C12.9601 22.8755 12.9984 23.0284 12.9486 23.0747Z" fill="#565656"/>
</g>
</g>
<g opacity="0.2">
<g opacity="0.2">
<path opacity="0.2" d="M11.4561 22.4007C11.4478 22.408 11.4379 22.4131 11.4272 22.4158C11.4092 22.42 11.3903 22.417 11.3745 22.4075C11.3587 22.398 11.3473 22.3827 11.3426 22.3648C11.3111 22.2712 11.3012 22.1716 11.3137 22.0736C11.3261 21.9755 11.3605 21.8816 11.4144 21.7987C11.4717 21.73 11.5422 21.6734 11.6217 21.6322C11.7012 21.5911 11.7882 21.5662 11.8774 21.5591C11.8959 21.5585 11.9139 21.565 11.9277 21.5773C11.9415 21.5895 11.95 21.6067 11.9515 21.6251C11.9521 21.6342 11.951 21.6433 11.9481 21.6519C11.9452 21.6605 11.9405 21.6684 11.9344 21.6752C11.9284 21.682 11.9211 21.6875 11.9129 21.6914C11.9047 21.6954 11.8958 21.6976 11.8867 21.698C11.7472 21.7099 11.6179 21.776 11.5267 21.8821C11.4859 21.9488 11.4606 22.0236 11.4524 22.1013C11.4442 22.179 11.4534 22.2576 11.4793 22.3313C11.4822 22.3437 11.4816 22.3568 11.4777 22.369C11.4738 22.3812 11.4668 22.3922 11.4572 22.4007" fill="black"/>
</g>
</g>
<g opacity="0.2">
<g opacity="0.2">
<path opacity="0.2" d="M14.5321 19.7234C14.5238 19.7306 14.5141 19.7358 14.5034 19.7386C14.4928 19.7415 14.4817 19.7418 14.4709 19.7396C14.2197 19.6829 14.0286 19.7049 13.9036 19.8033C13.8575 19.8431 13.8199 19.8918 13.793 19.9465C13.7662 20.0012 13.7507 20.0608 13.7474 20.1216C13.7474 20.14 13.74 20.1577 13.727 20.1707C13.714 20.1837 13.6963 20.1911 13.6778 20.1911C13.6594 20.1911 13.6418 20.1837 13.6288 20.1707C13.6157 20.1577 13.6084 20.14 13.6084 20.1216C13.6116 20.0403 13.6317 19.9605 13.6673 19.8874C13.703 19.8143 13.7535 19.7493 13.8156 19.6968C13.9754 19.5694 14.2058 19.5393 14.5009 19.6042C14.5099 19.6061 14.5185 19.6098 14.526 19.615C14.5336 19.6202 14.5401 19.6269 14.545 19.6347C14.55 19.6424 14.5533 19.6511 14.5549 19.6602C14.5564 19.6692 14.5562 19.6785 14.5542 19.6875C14.5509 19.7018 14.5432 19.7148 14.5321 19.7245" fill="black"/>
</g>
</g>
<g opacity="0.05">
<g opacity="0.05">
<path opacity="0.05" d="M13.9721 21.1367L15.5662 22.9773L14.8391 23.6036L13.8285 21.7873C13.7741 21.6802 13.7583 21.5577 13.7836 21.4403C13.8089 21.3229 13.8738 21.2177 13.9674 21.1425" fill="black"/>
</g>
</g>
<path d="M16.5161 23.46C16.5161 23.46 16.5404 23.4831 15.399 24.4231C15.399 24.4231 16.0599 25.0772 16.5774 24.6222C17.0404 24.2101 16.5369 23.482 16.5369 23.482" fill="#444444"/>
<path d="M16.5165 23.46L16.5373 23.482C16.598 23.5599 16.645 23.6476 16.6763 23.7413C16.5632 23.9009 16.437 24.0507 16.2989 24.1893C16.1066 24.3517 15.9052 24.5032 15.6958 24.643C15.5872 24.5839 15.4874 24.5099 15.3994 24.4231C16.5408 23.4831 16.5165 23.46 16.5165 23.46Z" fill="white"/>
<path d="M23.8602 37.0237L23.8463 37.0307C23.8174 37.0427 23.7863 37.0488 23.755 37.0484C23.7236 37.0481 23.6926 37.0414 23.664 37.0287C23.6353 37.016 23.6095 36.9977 23.5881 36.9747C23.5667 36.9518 23.5502 36.9248 23.5396 36.8952C21.8888 32.6641 19.5052 30.9231 19.4809 30.9057C19.4298 30.8692 19.3954 30.8138 19.3851 30.7519C19.3748 30.6899 19.3895 30.6263 19.426 30.5752C19.4625 30.5241 19.5179 30.4896 19.5799 30.4793C19.6418 30.469 19.7054 30.4837 19.7565 30.5202C19.8584 30.592 22.2744 32.3493 23.9819 36.7239C24.0051 36.7792 24.006 36.8413 23.9845 36.8972C23.9629 36.9531 23.9204 36.9985 23.8661 37.0237" fill="#52A1FF"/>
<path d="M8.13289 38.177C8.07942 38.1504 8.03777 38.1048 8.01634 38.049C7.99491 37.9933 7.99524 37.9316 8.01713 37.876C9.71883 33.5002 12.1336 31.7406 12.2354 31.6677C12.2607 31.6496 12.2893 31.6367 12.3196 31.6297C12.35 31.6226 12.3814 31.6216 12.4121 31.6267C12.4428 31.6319 12.4722 31.643 12.4986 31.6594C12.525 31.6759 12.5479 31.6974 12.566 31.7227C12.5841 31.748 12.5969 31.7766 12.604 31.8069C12.611 31.8372 12.612 31.8686 12.6069 31.8993C12.6018 31.93 12.5907 31.9594 12.5742 31.9858C12.5578 32.0122 12.5362 32.0351 12.5109 32.0532C12.4866 32.0694 10.1042 33.8139 8.45926 38.0473C8.44866 38.0768 8.43226 38.1039 8.41088 38.1268C8.3895 38.1498 8.3636 38.1681 8.33491 38.1808C8.30622 38.1935 8.27526 38.2002 8.24391 38.2005C8.21255 38.2009 8.18152 38.1948 8.15256 38.1828L8.13866 38.177" fill="#65B1FC"/>
<path d="M9.91428 20.6784C9.91428 20.6784 10.3229 19.919 9.74527 18.9153C9.73614 18.8999 9.73192 18.8821 9.73317 18.8643C9.73443 18.8464 9.74108 18.8294 9.75228 18.8154C9.76347 18.8015 9.77865 18.7912 9.7958 18.7861C9.81295 18.781 9.83125 18.7813 9.84826 18.7868C10.1006 18.8737 10.522 19.1225 10.8068 19.8368C11.1471 20.6934 9.91428 20.6784 9.91428 20.6784Z" fill="#52A1FF"/>
<path d="M10.2778 20.0152C10.2778 20.0152 10.8126 19.3368 10.4179 18.2475C10.4119 18.2308 10.411 18.2127 10.4155 18.1955C10.42 18.1783 10.4296 18.1629 10.443 18.1512C10.4564 18.1396 10.4729 18.1322 10.4906 18.1302C10.5082 18.1282 10.5261 18.1315 10.5418 18.1398C10.7733 18.2683 11.1472 18.5867 11.3035 19.3403C11.4899 20.2432 10.2778 20.0152 10.2778 20.0152Z" fill="#52A1FF"/>
<path d="M10.7962 19.7094C10.7962 19.7094 11.3958 19.0878 11.1099 17.9649C11.1055 17.9476 11.1063 17.9294 11.1125 17.9126C11.1186 17.8959 11.1297 17.8814 11.1443 17.8711C11.1588 17.8608 11.1763 17.8552 11.1941 17.855C11.2119 17.8548 11.2294 17.86 11.2442 17.8699C11.463 18.0216 11.8021 18.3747 11.882 19.1433C11.9793 20.0613 10.7962 19.7129 10.7962 19.7129" fill="#52A1FF"/>
<path d="M13.2666 51.7453C13.301 51.7454 13.335 51.7379 13.3662 51.7233C13.8558 51.4917 14.7113 51.3586 14.7206 51.3575C14.7757 51.3485 14.8258 51.3203 14.8622 51.278C14.8987 51.2356 14.919 51.1818 14.9197 51.1259V44.2543C14.9197 44.1915 14.8947 44.1313 14.8503 44.0869C14.8059 44.0425 14.7457 44.0176 14.683 44.0176C14.6202 44.0176 14.5599 44.0425 14.5155 44.0869C14.4711 44.1313 14.4462 44.1915 14.4462 44.2543V50.9234C14.0078 50.9999 13.5788 51.1237 13.167 51.2926C13.11 51.3086 13.0614 51.3458 13.031 51.3965C13.0005 51.4472 12.9907 51.5077 13.0034 51.5654C13.0161 51.6232 13.0505 51.6739 13.0995 51.7071C13.1484 51.7403 13.2082 51.7536 13.2666 51.7441" fill="#52A1FF"/>
<path d="M18.9083 51.6469C18.9697 51.6535 19.0311 51.6354 19.0792 51.5966C19.1273 51.5579 19.1581 51.5016 19.1647 51.4402C19.1713 51.3788 19.1532 51.3173 19.1145 51.2692C19.0757 51.2211 19.0194 51.1904 18.958 51.1838L17.9381 50.9662C17.9312 50.4557 17.9104 48.989 17.8884 47.52C17.871 46.4642 17.8571 45.6215 17.8455 45.016C17.8386 44.6687 17.8328 44.3874 17.827 44.186C17.8154 43.782 17.8142 43.7484 17.7112 43.6767C17.6588 43.6422 17.5948 43.6298 17.5333 43.6421C17.4717 43.6545 17.4176 43.6906 17.3825 43.7426C17.3654 43.7678 17.3535 43.7961 17.3473 43.8259C17.3412 43.8557 17.3409 43.8864 17.3466 43.9163C17.3698 44.215 17.4335 48.3951 17.4705 51.1618C17.4706 51.216 17.4893 51.2686 17.5234 51.3107C17.5576 51.3528 17.605 51.382 17.658 51.3933L18.8619 51.6492C18.8785 51.6508 18.8951 51.6508 18.9117 51.6492L18.9083 51.6469ZM17.3513 43.9348L17.3582 43.9556C17.3553 43.9489 17.3531 43.9419 17.3513 43.9348Z" fill="#52A1FF"/>
<g opacity="0.25">
<g opacity="0.25">
<path opacity="0.25" d="M11.8003 143.61C11.8003 143.895 12.2147 144.155 12.8977 144.353C13.7081 144.585 14.8853 144.735 16.2027 144.735C17.3603 144.735 18.3315 144.51 19.0886 144.436C19.9163 144.355 20.3735 143.935 20.3735 143.61C20.3735 143.285 19.679 142.983 18.8224 142.766C18.1035 142.585 17.2168 142.586 16.087 142.586C14.7325 142.586 13.8979 142.742 12.7842 142.882C12.2448 142.949 11.8003 143.335 11.8003 143.61Z" fill="black"/>
</g>
</g>
<path d="M15.9758 138.731C9.90757 138.017 10.0025 130.254 11.255 125.71C12.239 122.142 11.3326 120.363 9.65864 117.02C7.78677 113.281 10.55 110.214 14.6908 111.873C18.0895 113.234 20.8169 120.068 21.6689 126.471C22.5568 133.135 21.3958 139.341 15.9758 138.731Z" fill="#52A1FF"/>
<path d="M15.3612 113.399C15.0984 113.141 14.8889 112.697 15.0302 112.557C15.1714 112.417 15.7247 112.575 15.9724 112.945C16.1403 113.193 16.212 113.582 16.0708 113.694C15.9295 113.806 15.5591 113.593 15.3612 113.399Z" fill="black"/>
<g opacity="0.8">
<g opacity="0.8">
<path opacity="0.8" d="M15.3154 112.872C15.2309 112.798 15.1614 112.666 15.1996 112.622C15.2378 112.578 15.3964 112.622 15.4786 112.738C15.533 112.81 15.5736 112.916 15.5319 112.952C15.4902 112.988 15.3755 112.93 15.313 112.874" fill="#565656"/>
</g>
</g>
<path d="M13.9664 113.288L14.0185 113.242C14.107 113.161 14.221 113.113 14.341 113.107C14.461 113.101 14.5794 113.136 14.676 113.208L16.2874 114.502L14.8392 115.749L13.824 113.927C13.7709 113.821 13.7554 113.701 13.7803 113.586C13.8051 113.471 13.8688 113.367 13.9606 113.293" fill="#FFD545"/>
<g opacity="0.1">
<g opacity="0.1">
<path opacity="0.1" d="M15.8428 115.496L16.2874 114.503L14.845 115.743L15.8428 115.496Z" fill="#444444"/>
</g>
</g>
<path d="M13.6674 115.89C13.4937 116.052 12.9601 115.842 12.658 115.51C12.4125 115.239 12.2249 114.782 12.3812 114.625C12.5375 114.467 13.1082 114.635 13.4231 114.979C13.6789 115.262 13.8341 115.737 13.672 115.89" fill="black"/>
<g opacity="0.8">
<g opacity="0.8">
<path opacity="0.8" d="M12.9486 115.22C12.8907 115.269 12.717 115.195 12.6314 115.084C12.5573 114.995 12.5041 114.846 12.5562 114.797C12.6083 114.749 12.7876 114.811 12.8826 114.926C12.9601 115.021 12.9984 115.173 12.9486 115.22Z" fill="#565656"/>
</g>
</g>
<g opacity="0.2">
<g opacity="0.2">
<path opacity="0.2" d="M11.4561 114.546C11.4478 114.553 11.4379 114.558 11.4272 114.561C11.4092 114.565 11.3903 114.562 11.3745 114.553C11.3587 114.543 11.3473 114.528 11.3426 114.51C11.3111 114.416 11.3012 114.317 11.3137 114.219C11.3261 114.121 11.3605 114.027 11.4144 113.944C11.4717 113.875 11.5422 113.818 11.6217 113.777C11.7012 113.736 11.7882 113.711 11.8774 113.704C11.8959 113.703 11.9139 113.71 11.9277 113.722C11.9415 113.735 11.95 113.752 11.9515 113.77C11.9521 113.779 11.951 113.788 11.9481 113.797C11.9452 113.805 11.9405 113.813 11.9344 113.82C11.9284 113.827 11.9211 113.833 11.9129 113.836C11.9047 113.84 11.8958 113.843 11.8867 113.843C11.7472 113.855 11.6179 113.921 11.5267 114.027C11.4859 114.094 11.4606 114.169 11.4524 114.246C11.4442 114.324 11.4534 114.403 11.4793 114.476C11.4822 114.489 11.4816 114.502 11.4777 114.514C11.4738 114.526 11.4668 114.537 11.4572 114.546" fill="black"/>
</g>
</g>
<g opacity="0.2">
<g opacity="0.2">
<path opacity="0.2" d="M14.5321 111.868C14.5238 111.876 14.5141 111.881 14.5034 111.884C14.4928 111.886 14.4817 111.887 14.4709 111.885C14.2197 111.828 14.0286 111.85 13.9036 111.948C13.8575 111.988 13.8199 112.037 13.793 112.092C13.7662 112.146 13.7507 112.206 13.7474 112.267C13.7474 112.285 13.74 112.303 13.727 112.316C13.714 112.329 13.6963 112.336 13.6778 112.336C13.6594 112.336 13.6418 112.329 13.6288 112.316C13.6157 112.303 13.6084 112.285 13.6084 112.267C13.6116 112.185 13.6317 112.106 13.6673 112.032C13.703 111.959 13.7535 111.894 13.8156 111.842C13.9754 111.714 14.2058 111.684 14.5009 111.749C14.5099 111.751 14.5185 111.755 14.526 111.76C14.5336 111.765 14.5401 111.772 14.545 111.78C14.55 111.787 14.5533 111.796 14.5549 111.805C14.5564 111.814 14.5562 111.824 14.5542 111.833C14.5509 111.847 14.5432 111.86 14.5321 111.87" fill="black"/>
</g>
</g>
<g opacity="0.05">
<g opacity="0.05">
<path opacity="0.05" d="M13.9721 113.282L15.5662 115.122L14.8391 115.749L13.8285 113.932C13.7741 113.825 13.7583 113.703 13.7836 113.585C13.8089 113.468 13.8738 113.363 13.9674 113.288" fill="black"/>
</g>
</g>
<path d="M16.5161 115.605C16.5161 115.605 16.5404 115.628 15.399 116.568C15.399 116.568 16.0599 117.222 16.5774 116.767C17.0404 116.355 16.5369 115.627 16.5369 115.627" fill="#444444"/>
<path d="M16.5165 115.605L16.5373 115.627C16.598 115.705 16.645 115.793 16.6763 115.886C16.5632 116.046 16.437 116.196 16.2989 116.334C16.1066 116.497 15.9052 116.648 15.6958 116.788C15.5872 116.729 15.4874 116.655 15.3994 116.568C16.5408 115.628 16.5165 115.605 16.5165 115.605Z" fill="white"/>
<path d="M23.8602 129.169L23.8463 129.176C23.8174 129.188 23.7863 129.194 23.755 129.193C23.7236 129.193 23.6926 129.186 23.664 129.174C23.6353 129.161 23.6095 129.143 23.5881 129.12C23.5667 129.097 23.5502 129.07 23.5396 129.04C21.8888 124.809 19.5052 123.068 19.4809 123.051C19.4298 123.014 19.3954 122.959 19.3851 122.897C19.3748 122.835 19.3895 122.771 19.426 122.72C19.4625 122.669 19.5179 122.635 19.5799 122.624C19.6418 122.614 19.7054 122.629 19.7565 122.665C19.8584 122.737 22.2744 124.494 23.9819 128.869C24.0051 128.924 24.006 128.986 23.9845 129.042C23.9629 129.098 23.9204 129.143 23.8661 129.169" fill="#52A1FF"/>
<path d="M8.13289 130.322C8.07942 130.295 8.03777 130.25 8.01634 130.194C7.99491 130.138 7.99524 130.077 8.01713 130.021C9.71883 125.645 12.1336 123.886 12.2354 123.813C12.2607 123.795 12.2893 123.782 12.3196 123.775C12.35 123.768 12.3814 123.767 12.4121 123.772C12.4428 123.777 12.4722 123.788 12.4986 123.804C12.525 123.821 12.5479 123.842 12.566 123.868C12.5841 123.893 12.5969 123.922 12.604 123.952C12.611 123.982 12.612 124.014 12.6069 124.044C12.6018 124.075 12.5907 124.104 12.5742 124.131C12.5578 124.157 12.5362 124.18 12.5109 124.198C12.4866 124.214 10.1042 125.959 8.45926 130.192C8.44866 130.222 8.43226 130.249 8.41088 130.272C8.3895 130.295 8.3636 130.313 8.33491 130.326C8.30622 130.338 8.27526 130.345 8.24391 130.346C8.21255 130.346 8.18152 130.34 8.15256 130.328L8.13866 130.322" fill="#65B1FC"/>
<path d="M9.91428 112.823C9.91428 112.823 10.3229 112.064 9.74527 111.06C9.73614 111.045 9.73192 111.027 9.73317 111.009C9.73443 110.991 9.74108 110.974 9.75228 110.96C9.76347 110.946 9.77865 110.936 9.7958 110.931C9.81295 110.926 9.83125 110.926 9.84826 110.932C10.1006 111.019 10.522 111.268 10.8068 111.982C11.1471 112.838 9.91428 112.823 9.91428 112.823Z" fill="#52A1FF"/>
<path d="M10.2778 112.16C10.2778 112.16 10.8126 111.482 10.4179 110.393C10.4119 110.376 10.411 110.358 10.4155 110.34C10.42 110.323 10.4296 110.308 10.443 110.296C10.4564 110.285 10.4729 110.277 10.4906 110.275C10.5082 110.273 10.5261 110.277 10.5418 110.285C10.7733 110.413 11.1472 110.732 11.3035 111.485C11.4899 112.388 10.2778 112.16 10.2778 112.16Z" fill="#52A1FF"/>
<path d="M10.7962 111.854C10.7962 111.854 11.3958 111.233 11.1099 110.11C11.1055 110.093 11.1063 110.074 11.1125 110.058C11.1186 110.041 11.1297 110.026 11.1443 110.016C11.1588 110.006 11.1763 110 11.1941 110C11.2119 110 11.2294 110.005 11.2442 110.015C11.463 110.167 11.8021 110.52 11.882 111.288C11.9793 112.206 10.7962 111.858 10.7962 111.858" fill="#52A1FF"/>
<path d="M13.2666 143.89C13.301 143.89 13.335 143.883 13.3662 143.868C13.8558 143.637 14.7113 143.504 14.7206 143.502C14.7757 143.493 14.8258 143.465 14.8622 143.423C14.8987 143.381 14.919 143.327 14.9197 143.271V136.399C14.9197 136.337 14.8947 136.276 14.8503 136.232C14.8059 136.188 14.7457 136.163 14.683 136.163C14.6202 136.163 14.5599 136.188 14.5155 136.232C14.4711 136.276 14.4462 136.337 14.4462 136.399V143.068C14.0078 143.145 13.5788 143.269 13.167 143.438C13.11 143.454 13.0614 143.491 13.031 143.542C13.0005 143.592 12.9907 143.653 13.0034 143.71C13.0161 143.768 13.0505 143.819 13.0995 143.852C13.1484 143.885 13.2082 143.899 13.2666 143.889" fill="#52A1FF"/>
<path d="M18.9083 143.792C18.9697 143.798 19.0311 143.78 19.0792 143.742C19.1273 143.703 19.1581 143.647 19.1647 143.585C19.1713 143.524 19.1532 143.462 19.1145 143.414C19.0757 143.366 19.0194 143.335 18.958 143.329L17.9381 143.111C17.9312 142.601 17.9104 141.134 17.8884 139.665C17.871 138.609 17.8571 137.766 17.8455 137.161C17.8386 136.814 17.8328 136.532 17.827 136.331C17.8154 135.927 17.8142 135.893 17.7112 135.822C17.6588 135.787 17.5948 135.775 17.5333 135.787C17.4717 135.799 17.4176 135.836 17.3825 135.888C17.3654 135.913 17.3535 135.941 17.3473 135.971C17.3412 136.001 17.3409 136.031 17.3466 136.061C17.3698 136.36 17.4335 140.54 17.4705 143.307C17.4706 143.361 17.4893 143.414 17.5234 143.456C17.5576 143.498 17.605 143.527 17.658 143.538L18.8619 143.794C18.8785 143.796 18.8951 143.796 18.9117 143.794L18.9083 143.792ZM17.3513 136.08L17.3582 136.101C17.3553 136.094 17.3531 136.087 17.3513 136.08Z" fill="#52A1FF"/>
<path opacity="0.25" d="M197.634 81.4148C197.634 81.8472 198.259 82.2415 199.291 82.5421C200.51 82.8971 202.296 83.1215 204.286 83.1215C206.032 83.1215 207.502 82.7784 208.647 82.6662C209.899 82.5442 210.589 81.9093 210.589 81.4148C210.589 80.9105 209.543 80.4651 208.245 80.1362C207.158 79.8606 205.818 79.8628 204.112 79.8628C202.065 79.8628 200.803 80.1002 199.12 80.3104C198.305 80.4139 197.634 80.9977 197.634 81.4148Z" fill="#444444"/>
<path d="M208.391 74.9626C209.327 74.6675 210.054 73.9225 210.328 72.9782C210.592 72.0677 210.969 70.7172 211.333 69.2207C211.921 66.8007 212.48 64.0005 212.48 62.0695C212.48 58.104 206.672 57.6574 206.672 57.6574C206.672 57.6574 199.054 57.2697 197.168 60.1396C195.295 62.9909 196.746 69.9526 197.514 73.0055C197.758 73.9759 198.516 74.7328 199.487 74.9637C200.618 75.2316 202.329 75.5072 204.538 75.4821C206.305 75.4625 207.546 75.2284 208.391 74.9626Z" fill="#8DD800"/>
<path d="M198.379 65.486C198.427 64.9763 198.251 64.3184 197.978 64.2956C197.693 64.2716 197.262 64.9338 197.327 65.5524C197.371 65.9663 197.643 66.4433 197.892 66.4346C198.156 66.4259 198.344 65.8693 198.379 65.486Z" fill="#444444"/>
<path opacity="0.8" d="M197.956 64.8859C197.978 64.7323 197.935 64.5308 197.852 64.5188C197.767 64.5069 197.648 64.7018 197.659 64.8902C197.666 65.0166 197.719 65.1636 197.794 65.1658C197.874 65.1669 197.939 65.0013 197.956 64.8859Z" fill="#565656"/>
<path d="M200.217 63.615C199.942 63.615 199.702 63.8012 199.634 64.0692L198.725 67.6382L201.6 67.6676L200.991 64.2728C200.925 63.8949 200.599 63.6193 200.217 63.615Z" fill="#FFD545"/>
<path opacity="0.1" d="M200.044 68.5258L198.726 67.6382L201.601 67.6676L200.044 68.5258Z" fill="#444444"/>
<path d="M203.521 66.7494C203.858 66.7668 204.244 66.0502 204.266 65.413C204.284 64.8946 204.068 64.2259 203.756 64.1986C203.421 64.1692 202.978 64.8761 202.957 65.5339C202.942 66.0752 203.206 66.733 203.521 66.7494Z" fill="#444444"/>
<path opacity="0.8" d="M203.537 65.3652C203.644 65.3663 203.758 65.1311 203.756 64.9274C203.755 64.7619 203.676 64.5506 203.576 64.5462C203.468 64.5418 203.337 64.7738 203.34 64.984C203.342 65.1583 203.437 65.3641 203.537 65.3652Z" fill="#565656"/>
<path opacity="0.2" d="M204.543 63.3373C204.559 63.3373 204.576 63.334 204.591 63.3264C204.643 63.3003 204.665 63.2371 204.639 63.1859C204.479 62.8603 204.265 62.6631 204.005 62.6011C203.606 62.5052 203.252 62.7644 203.237 62.7764C203.19 62.8113 203.18 62.8766 203.215 62.9234C203.25 62.9703 203.315 62.979 203.362 62.9452C203.365 62.943 203.654 62.7328 203.956 62.8069C204.152 62.8548 204.318 63.0138 204.45 63.2807C204.468 63.3155 204.505 63.3362 204.543 63.3373Z" fill="black"/>
<path opacity="0.2" d="M197.166 63.48C197.199 63.48 197.23 63.4659 197.251 63.4387C197.488 63.1272 197.729 62.966 197.969 62.9573C198.26 62.9485 198.457 63.1718 198.459 63.174C198.497 63.2176 198.564 63.2219 198.608 63.1838C198.652 63.1457 198.657 63.0792 198.619 63.0357C198.608 63.0237 198.355 62.734 197.964 62.746C197.657 62.7547 197.36 62.9453 197.082 63.3101C197.048 63.357 197.056 63.4223 197.102 63.4583C197.123 63.4724 197.144 63.479 197.166 63.48Z" fill="black"/>
<path opacity="0.05" d="M200.205 63.615L200.033 67.6524L201.601 67.6676L200.994 64.2837C200.926 63.9003 200.594 63.6193 200.205 63.615Z" fill="black"/>
<path d="M202.906 57.7903C201.618 58.1029 201.526 59.7028 201.507 59.9206C201.48 60.2332 201.268 60.4695 201.035 60.4499C200.835 60.4325 200.694 60.3182 200.621 60.1591C200.621 60.1581 200.621 60.1581 200.621 60.157C200.613 60.1319 200.586 60.1167 200.56 60.1254C200.535 60.133 200.528 60.1668 200.529 60.1929C200.531 60.2234 200.531 60.255 200.528 60.2877C200.499 60.6111 200.242 60.8529 199.953 60.8268C199.664 60.8006 199.453 60.5196 199.481 60.1962C199.486 60.1374 199.498 60.0818 199.518 60.0306C199.532 59.9925 199.522 59.9435 199.485 59.9282C199.447 59.9119 199.405 59.9293 199.389 59.9675C199.294 60.1602 199.106 60.2833 198.909 60.267C198.674 60.2463 198.507 59.9762 198.534 59.6636C198.55 59.473 198.802 59.1092 199.029 58.7117C199.029 58.7117 199.9 58.3534 200.667 58.1747C201.942 57.8741 202.906 57.7903 202.906 57.7903Z" fill="#74C600"/>
<path d="M212.011 76.5768C212.12 76.5768 212.224 76.518 212.277 76.4145C212.302 76.3666 212.88 75.2219 212.984 73.7418C213.125 71.7487 212.332 70.1161 210.694 69.0204C210.557 68.9289 210.371 68.966 210.28 69.1032C210.189 69.2404 210.226 69.4267 210.363 69.5182C211.828 70.4984 212.511 71.899 212.39 73.6808C212.298 75.0433 211.751 76.1303 211.746 76.1412C211.671 76.2882 211.729 76.469 211.875 76.5441C211.919 76.5659 211.965 76.5768 212.011 76.5768Z" fill="#8DD800"/>
<path opacity="0.25" d="M192.153 72.4175C192.36 72.5776 192.568 72.7355 192.767 72.888V72.8891C192.771 72.8923 192.777 72.8967 192.786 72.9021C192.859 72.9446 193.017 72.8488 193.064 72.8107C193.223 72.6734 193.463 72.6909 193.602 72.8499C193.741 73.01 193.725 73.2528 193.565 73.3923C193.356 73.5752 192.899 73.8127 192.46 73.5992C192.436 73.5872 192.413 73.5752 192.389 73.5611C191.909 73.2703 191.953 72.7616 192.1 72.4915C192.115 72.4632 192.132 72.4404 192.153 72.4175Z" fill="#444444"/>
<path d="M201.033 69.4343C201.81 69.4343 202.51 69.3243 202.517 69.3232C202.546 69.3188 202.567 69.2905 202.563 69.2611C202.558 69.2317 202.531 69.211 202.501 69.2153C202.494 69.2164 201.802 69.3254 201.034 69.3254C200.263 69.3254 198.945 69.2154 198.931 69.2143C198.902 69.2121 198.875 69.2339 198.873 69.2644C198.871 69.2949 198.892 69.321 198.923 69.3232C198.936 69.3243 200.257 69.4343 201.033 69.4343Z" fill="#444444"/>
<path opacity="0.1" d="M201.098 69.8066C201.098 69.8066 200.332 69.8393 200.076 69.7685C199.821 69.6977 200.005 69.9798 200.392 69.9885C200.78 69.9972 201.487 69.9416 201.098 69.8066Z" fill="#444444"/>
<path d="M208.545 81.6748C208.504 81.6748 208.462 81.6661 208.422 81.6476C207.817 81.3666 206.76 81.1956 206.749 81.1945C206.606 81.1716 206.502 81.0485 206.502 80.9048V72.3965C206.502 72.2342 206.634 72.1035 206.794 72.1035C206.956 72.1035 207.086 72.2353 207.086 72.3965V80.6597C207.46 80.7316 208.174 80.8874 208.666 81.1161C208.813 81.1836 208.877 81.3589 208.809 81.506C208.761 81.6116 208.656 81.6748 208.545 81.6748Z" fill="#8DD800"/>
<path d="M199.679 81.4059C199.545 81.4059 199.423 81.3112 199.394 81.174C199.36 81.0149 199.461 80.8592 199.619 80.8254L200.877 80.5564C200.886 79.9236 200.911 78.107 200.939 76.2881C200.96 74.9801 200.977 73.9367 200.992 73.1863C201.001 72.7615 201.009 72.4075 201.015 72.1581C201.029 71.6571 201.03 71.6158 201.163 71.5275C201.297 71.4382 201.479 71.4742 201.569 71.6092C201.612 71.6757 201.626 71.753 201.613 71.8249C201.585 72.1941 201.506 77.3718 201.46 80.7993C201.458 80.9365 201.363 81.0541 201.229 81.0825L199.741 81.4005C199.721 81.4038 199.7 81.4059 199.679 81.4059ZM201.608 71.851C201.606 71.8597 201.603 71.8684 201.599 71.8771C201.603 71.8684 201.605 71.8597 201.608 71.851Z" fill="#8DD800"/>
</svg>
