<svg width="221" height="171" viewBox="0 0 221 171" fill="none" xmlns="http://www.w3.org/2000/svg">
<rect width="221" height="171" rx="9" fill="#3F3F3F"/>
<path d="M100.866 62L100.866 143" stroke="white" stroke-opacity="0.2" stroke-width="4" stroke-linecap="round" stroke-linejoin="round" stroke-dasharray="8 8"/>
<path d="M166.6 62L166.6 143" stroke="white" stroke-opacity="0.2" stroke-width="4" stroke-linecap="round" stroke-linejoin="round" stroke-dasharray="8 8"/>
<rect x="24.9333" y="12" width="171.133" height="29" rx="3" fill="white"/>
<rect x="74.7998" y="45" width="56.6667" height="12" rx="6" fill="#5077EA"/>
<rect x="138.267" y="45" width="56.6667" height="12" rx="6" fill="#5077EA"/>
<rect x="15.8667" y="12" width="189.267" height="50" rx="4" fill="#E6E8EA"/>
<rect x="24.9333" y="19" width="171.133" height="22" rx="3" fill="white"/>
<rect x="74.7998" y="45" width="56.6667" height="12" rx="6" fill="#5077EA"/>
<path d="M98 51.6L100.571 54L104 48" stroke="white" stroke-opacity="0.2" stroke-width="2" stroke-linecap="round" stroke-linejoin="round"/>
<rect x="138.267" y="45" width="56.6667" height="12" rx="6" fill="#5077EA"/>
<path d="M164 48L167 51M170 54L167 51M167 51L170 48L164 54" stroke="white" stroke-opacity="0.2" stroke-width="2" stroke-linecap="round" stroke-linejoin="round"/>
<path d="M41.9917 34H37.0597C36.4357 34 35.8557 33.888 35.3197 33.664C34.7917 33.44 34.3317 33.136 33.9397 32.752C33.5557 32.36 33.2517 31.9 33.0277 31.372C32.8037 30.836 32.6917 30.26 32.6917 29.644C32.6917 29.028 32.8037 28.456 33.0277 27.928C33.2517 27.392 33.5557 26.932 33.9397 26.548C34.3317 26.156 34.7917 25.848 35.3197 25.624C35.8557 25.4 36.4357 25.288 37.0597 25.288C37.6837 25.288 38.2597 25.4 38.7877 25.624C39.3237 25.848 39.7837 26.156 40.1677 26.548C40.5597 26.932 40.8677 27.392 41.0917 27.928C41.3157 28.456 41.4277 29.028 41.4277 29.644C41.4277 30.004 41.3797 30.364 41.2837 30.724C41.1877 31.076 41.0477 31.408 40.8637 31.72C40.6877 32.024 40.4717 32.3 40.2157 32.548C39.9677 32.788 39.6837 32.976 39.3637 33.112V33.136H41.9917V34ZM33.7717 29.644C33.7717 30.124 33.8557 30.572 34.0237 30.988C34.1917 31.404 34.4197 31.768 34.7077 32.08C35.0037 32.384 35.3517 32.624 35.7517 32.8C36.1517 32.976 36.5877 33.064 37.0597 33.064C37.5237 33.064 37.9557 32.976 38.3557 32.8C38.7637 32.624 39.1117 32.384 39.3997 32.08C39.6957 31.768 39.9277 31.404 40.0957 30.988C40.2637 30.572 40.3477 30.124 40.3477 29.644C40.3477 29.172 40.2637 28.728 40.0957 28.312C39.9357 27.896 39.7077 27.536 39.4117 27.232C39.1237 26.92 38.7797 26.676 38.3797 26.5C37.9797 26.316 37.5397 26.224 37.0597 26.224C36.5797 26.224 36.1397 26.316 35.7397 26.5C35.3397 26.676 34.9917 26.92 34.6957 27.232C34.4077 27.536 34.1797 27.896 34.0117 28.312C33.8517 28.728 33.7717 29.172 33.7717 29.644ZM47.9195 32.668C47.9195 32.924 47.9275 33.164 47.9435 33.388C47.9595 33.612 47.9675 33.816 47.9675 34H47.0795C47.0795 33.848 47.0755 33.696 47.0675 33.544C47.0595 33.392 47.0555 33.236 47.0555 33.076H47.0315C46.9675 33.212 46.8755 33.344 46.7555 33.472C46.6435 33.6 46.5075 33.716 46.3475 33.82C46.1875 33.916 46.0075 33.992 45.8075 34.048C45.6075 34.112 45.3915 34.144 45.1595 34.144C44.7915 34.144 44.4715 34.088 44.1995 33.976C43.9355 33.864 43.7155 33.708 43.5395 33.508C43.3635 33.308 43.2315 33.068 43.1435 32.788C43.0635 32.5 43.0235 32.188 43.0235 31.852V28.384H43.9595V31.756C43.9595 32.228 44.0635 32.6 44.2715 32.872C44.4795 33.144 44.8035 33.28 45.2435 33.28C45.5475 33.28 45.8075 33.228 46.0235 33.124C46.2475 33.02 46.4275 32.872 46.5635 32.68C46.7075 32.488 46.8115 32.26 46.8755 31.996C46.9475 31.732 46.9835 31.44 46.9835 31.12V28.384H47.9195V32.668ZM54.7075 32.98C54.3715 33.412 54.0035 33.716 53.6035 33.892C53.2035 34.06 52.7395 34.144 52.2115 34.144C51.7715 34.144 51.3755 34.068 51.0235 33.916C50.6715 33.756 50.3715 33.544 50.1235 33.28C49.8835 33.016 49.6955 32.704 49.5595 32.344C49.4315 31.984 49.3675 31.6 49.3675 31.192C49.3675 30.76 49.4395 30.364 49.5835 30.004C49.7275 29.636 49.9275 29.324 50.1835 29.068C50.4395 28.804 50.7435 28.6 51.0955 28.456C51.4475 28.312 51.8315 28.24 52.2475 28.24C52.6395 28.24 52.9995 28.308 53.3275 28.444C53.6555 28.572 53.9355 28.764 54.1675 29.02C54.4075 29.268 54.5915 29.576 54.7195 29.944C54.8475 30.304 54.9115 30.716 54.9115 31.18V31.48H50.3755C50.3915 31.72 50.4475 31.952 50.5435 32.176C50.6475 32.392 50.7795 32.584 50.9395 32.752C51.0995 32.912 51.2875 33.04 51.5035 33.136C51.7195 33.232 51.9555 33.28 52.2115 33.28C52.6195 33.28 52.9635 33.208 53.2435 33.064C53.5235 32.92 53.7755 32.708 53.9995 32.428L54.7075 32.98ZM53.9035 30.688C53.8875 30.208 53.7315 29.824 53.4355 29.536C53.1395 29.248 52.7315 29.104 52.2115 29.104C51.6915 29.104 51.2715 29.248 50.9515 29.536C50.6315 29.824 50.4395 30.208 50.3755 30.688H53.9035ZM56.4794 32.524C56.6634 32.756 56.8634 32.94 57.0794 33.076C57.3034 33.212 57.5834 33.28 57.9194 33.28C58.0634 33.28 58.2074 33.264 58.3514 33.232C58.5034 33.2 58.6394 33.148 58.7594 33.076C58.8794 33.004 58.9754 32.916 59.0474 32.812C59.1194 32.7 59.1554 32.568 59.1554 32.416C59.1554 32.264 59.1194 32.14 59.0474 32.044C58.9834 31.948 58.8954 31.868 58.7834 31.804C58.6714 31.732 58.5434 31.676 58.3994 31.636C58.2554 31.596 58.1074 31.56 57.9554 31.528C57.6914 31.472 57.4394 31.408 57.1994 31.336C56.9594 31.264 56.7474 31.172 56.5634 31.06C56.3874 30.94 56.2434 30.788 56.1314 30.604C56.0274 30.42 55.9754 30.184 55.9754 29.896C55.9754 29.624 56.0354 29.384 56.1554 29.176C56.2754 28.968 56.4354 28.796 56.6354 28.66C56.8354 28.524 57.0594 28.42 57.3074 28.348C57.5554 28.276 57.8114 28.24 58.0754 28.24C58.4754 28.24 58.8434 28.32 59.1794 28.48C59.5234 28.64 59.7914 28.9 59.9834 29.26L59.2034 29.776C59.0834 29.576 58.9234 29.416 58.7234 29.296C58.5314 29.168 58.2954 29.104 58.0154 29.104C57.8874 29.104 57.7554 29.12 57.6194 29.152C57.4914 29.184 57.3754 29.232 57.2714 29.296C57.1674 29.36 57.0794 29.444 57.0074 29.548C56.9434 29.644 56.9114 29.756 56.9114 29.884C56.9114 30.004 56.9474 30.108 57.0194 30.196C57.0994 30.276 57.2034 30.348 57.3314 30.412C57.4674 30.476 57.6194 30.532 57.7874 30.58C57.9634 30.628 58.1434 30.668 58.3274 30.7C58.5754 30.748 58.8114 30.812 59.0354 30.892C59.2594 30.964 59.4554 31.064 59.6234 31.192C59.7914 31.32 59.9234 31.48 60.0194 31.672C60.1154 31.864 60.1634 32.1 60.1634 32.38C60.1634 32.7 60.0994 32.972 59.9714 33.196C59.8434 33.42 59.6714 33.604 59.4554 33.748C59.2474 33.884 59.0074 33.984 58.7354 34.048C58.4714 34.112 58.1994 34.144 57.9194 34.144C57.4394 34.144 57.0234 34.072 56.6714 33.928C56.3274 33.776 56.0154 33.5 55.7354 33.1L56.4794 32.524ZM64.5408 29.176H62.8848V31.984C62.8848 32.168 62.8888 32.34 62.8968 32.5C62.9048 32.652 62.9368 32.788 62.9928 32.908C63.0488 33.02 63.1328 33.112 63.2448 33.184C63.3568 33.248 63.5168 33.28 63.7248 33.28C63.8608 33.28 64.0008 33.264 64.1448 33.232C64.2888 33.2 64.4248 33.152 64.5528 33.088L64.5888 33.94C64.4288 34.012 64.2488 34.064 64.0488 34.096C63.8568 34.128 63.6728 34.144 63.4968 34.144C63.1608 34.144 62.8928 34.1 62.6928 34.012C62.4928 33.924 62.3368 33.8 62.2248 33.64C62.1128 33.48 62.0368 33.284 61.9968 33.052C61.9648 32.812 61.9488 32.548 61.9488 32.26V29.176H60.7248V28.384H61.9488V26.788H62.8848V28.384H64.5408V29.176ZM65.7833 28.384H66.7193V34H65.7833V28.384ZM65.5673 26.188C65.5673 26.004 65.6313 25.844 65.7593 25.708C65.8953 25.572 66.0593 25.504 66.2513 25.504C66.4433 25.504 66.6033 25.572 66.7313 25.708C66.8673 25.844 66.9353 26.004 66.9353 26.188C66.9353 26.388 66.8713 26.552 66.7433 26.68C66.6153 26.808 66.4513 26.872 66.2513 26.872C66.0513 26.872 65.8873 26.808 65.7593 26.68C65.6313 26.552 65.5673 26.388 65.5673 26.188ZM68.2581 31.192C68.2581 30.752 68.3341 30.352 68.4861 29.992C68.6381 29.632 68.8461 29.324 69.1101 29.068C69.3741 28.804 69.6901 28.6 70.0581 28.456C70.4261 28.312 70.8261 28.24 71.2581 28.24C71.6901 28.24 72.0901 28.312 72.4581 28.456C72.8261 28.6 73.1421 28.804 73.4061 29.068C73.6701 29.324 73.8781 29.632 74.0301 29.992C74.1821 30.352 74.2581 30.752 74.2581 31.192C74.2581 31.632 74.1821 32.032 74.0301 32.392C73.8781 32.752 73.6701 33.064 73.4061 33.328C73.1421 33.584 72.8261 33.784 72.4581 33.928C72.0901 34.072 71.6901 34.144 71.2581 34.144C70.8261 34.144 70.4261 34.072 70.0581 33.928C69.6901 33.784 69.3741 33.584 69.1101 33.328C68.8461 33.064 68.6381 32.752 68.4861 32.392C68.3341 32.032 68.2581 31.632 68.2581 31.192ZM69.2661 31.192C69.2661 31.488 69.3101 31.764 69.3981 32.02C69.4941 32.268 69.6301 32.488 69.8061 32.68C69.9821 32.864 70.1901 33.012 70.4301 33.124C70.6781 33.228 70.9541 33.28 71.2581 33.28C71.5621 33.28 71.8341 33.228 72.0741 33.124C72.3221 33.012 72.5341 32.864 72.7101 32.68C72.8861 32.488 73.0181 32.268 73.1061 32.02C73.2021 31.764 73.2501 31.488 73.2501 31.192C73.2501 30.896 73.2021 30.624 73.1061 30.376C73.0181 30.12 72.8861 29.9 72.7101 29.716C72.5341 29.524 72.3221 29.376 72.0741 29.272C71.8341 29.16 71.5621 29.104 71.2581 29.104C70.9541 29.104 70.6781 29.16 70.4301 29.272C70.1901 29.376 69.9821 29.524 69.8061 29.716C69.6301 29.9 69.4941 30.12 69.3981 30.376C69.3101 30.624 69.2661 30.896 69.2661 31.192ZM75.7071 29.716C75.7071 29.46 75.6991 29.22 75.6831 28.996C75.6671 28.772 75.6591 28.568 75.6591 28.384H76.5471C76.5471 28.536 76.5511 28.688 76.5591 28.84C76.5671 28.992 76.5711 29.148 76.5711 29.308H76.5951C76.6591 29.172 76.7471 29.04 76.8591 28.912C76.9791 28.784 77.1191 28.672 77.2791 28.576C77.4391 28.472 77.6191 28.392 77.8191 28.336C78.0191 28.272 78.2351 28.24 78.4671 28.24C78.8351 28.24 79.1511 28.296 79.4151 28.408C79.6871 28.52 79.9111 28.676 80.0871 28.876C80.2631 29.076 80.3911 29.32 80.4711 29.608C80.5591 29.888 80.6031 30.196 80.6031 30.532V34H79.6671V30.628C79.6671 30.156 79.5631 29.784 79.3551 29.512C79.1471 29.24 78.8231 29.104 78.3831 29.104C78.0791 29.104 77.8151 29.156 77.5911 29.26C77.3751 29.364 77.1951 29.512 77.0511 29.704C76.9151 29.896 76.8111 30.124 76.7391 30.388C76.6751 30.652 76.6431 30.944 76.6431 31.264V34H75.7071V29.716ZM89.1469 34H88.1389V26.8H88.1149L86.5909 28.084L85.9909 27.352L88.2709 25.504H89.1469V34Z" fill="#3F3F3F" fill-opacity="0.6"/>
<rect x="14.7334" y="78" width="122.4" height="34" rx="4" fill="#E6E8EA"/>
<rect x="20.3997" y="84" width="109.933" height="22" rx="3" fill="white"/>
<path d="M38.1973 99H33.2653C32.6413 99 32.0613 98.888 31.5253 98.664C30.9973 98.44 30.5373 98.136 30.1453 97.752C29.7613 97.36 29.4573 96.9 29.2333 96.372C29.0093 95.836 28.8973 95.26 28.8973 94.644C28.8973 94.028 29.0093 93.456 29.2333 92.928C29.4573 92.392 29.7613 91.932 30.1453 91.548C30.5373 91.156 30.9973 90.848 31.5253 90.624C32.0613 90.4 32.6413 90.288 33.2653 90.288C33.8893 90.288 34.4653 90.4 34.9933 90.624C35.5293 90.848 35.9893 91.156 36.3733 91.548C36.7653 91.932 37.0733 92.392 37.2973 92.928C37.5213 93.456 37.6333 94.028 37.6333 94.644C37.6333 95.004 37.5853 95.364 37.4893 95.724C37.3933 96.076 37.2533 96.408 37.0693 96.72C36.8933 97.024 36.6773 97.3 36.4213 97.548C36.1733 97.788 35.8893 97.976 35.5693 98.112V98.136H38.1973V99ZM29.9773 94.644C29.9773 95.124 30.0613 95.572 30.2293 95.988C30.3973 96.404 30.6253 96.768 30.9133 97.08C31.2093 97.384 31.5573 97.624 31.9573 97.8C32.3573 97.976 32.7933 98.064 33.2653 98.064C33.7293 98.064 34.1613 97.976 34.5613 97.8C34.9693 97.624 35.3173 97.384 35.6053 97.08C35.9013 96.768 36.1333 96.404 36.3013 95.988C36.4693 95.572 36.5533 95.124 36.5533 94.644C36.5533 94.172 36.4693 93.728 36.3013 93.312C36.1413 92.896 35.9133 92.536 35.6173 92.232C35.3293 91.92 34.9853 91.676 34.5853 91.5C34.1853 91.316 33.7453 91.224 33.2653 91.224C32.7853 91.224 32.3453 91.316 31.9453 91.5C31.5453 91.676 31.1973 91.92 30.9013 92.232C30.6133 92.536 30.3853 92.896 30.2173 93.312C30.0573 93.728 29.9773 94.172 29.9773 94.644ZM44.1251 97.668C44.1251 97.924 44.1331 98.164 44.1491 98.388C44.1651 98.612 44.1731 98.816 44.1731 99H43.2851C43.2851 98.848 43.2811 98.696 43.2731 98.544C43.2651 98.392 43.2611 98.236 43.2611 98.076H43.2371C43.1731 98.212 43.0811 98.344 42.9611 98.472C42.8491 98.6 42.7131 98.716 42.5531 98.82C42.3931 98.916 42.2131 98.992 42.0131 99.048C41.8131 99.112 41.5971 99.144 41.3651 99.144C40.9971 99.144 40.6771 99.088 40.4051 98.976C40.1411 98.864 39.9211 98.708 39.7451 98.508C39.5691 98.308 39.4371 98.068 39.3491 97.788C39.2691 97.5 39.2291 97.188 39.2291 96.852V93.384H40.1651V96.756C40.1651 97.228 40.2691 97.6 40.4771 97.872C40.6851 98.144 41.0091 98.28 41.4491 98.28C41.7531 98.28 42.0131 98.228 42.2291 98.124C42.4531 98.02 42.6331 97.872 42.7691 97.68C42.9131 97.488 43.0171 97.26 43.0811 96.996C43.1531 96.732 43.1891 96.44 43.1891 96.12V93.384H44.1251V97.668ZM50.913 97.98C50.577 98.412 50.209 98.716 49.809 98.892C49.409 99.06 48.945 99.144 48.417 99.144C47.977 99.144 47.581 99.068 47.229 98.916C46.877 98.756 46.577 98.544 46.329 98.28C46.089 98.016 45.901 97.704 45.765 97.344C45.637 96.984 45.573 96.6 45.573 96.192C45.573 95.76 45.645 95.364 45.789 95.004C45.933 94.636 46.133 94.324 46.389 94.068C46.645 93.804 46.949 93.6 47.301 93.456C47.653 93.312 48.037 93.24 48.453 93.24C48.845 93.24 49.205 93.308 49.533 93.444C49.861 93.572 50.141 93.764 50.373 94.02C50.613 94.268 50.797 94.576 50.925 94.944C51.053 95.304 51.117 95.716 51.117 96.18V96.48H46.581C46.597 96.72 46.653 96.952 46.749 97.176C46.853 97.392 46.985 97.584 47.145 97.752C47.305 97.912 47.493 98.04 47.709 98.136C47.925 98.232 48.161 98.28 48.417 98.28C48.825 98.28 49.169 98.208 49.449 98.064C49.729 97.92 49.981 97.708 50.205 97.428L50.913 97.98ZM50.109 95.688C50.093 95.208 49.937 94.824 49.641 94.536C49.345 94.248 48.937 94.104 48.417 94.104C47.897 94.104 47.477 94.248 47.157 94.536C46.837 94.824 46.645 95.208 46.581 95.688H50.109ZM52.685 97.524C52.869 97.756 53.069 97.94 53.285 98.076C53.509 98.212 53.789 98.28 54.125 98.28C54.269 98.28 54.413 98.264 54.557 98.232C54.709 98.2 54.845 98.148 54.965 98.076C55.085 98.004 55.181 97.916 55.253 97.812C55.325 97.7 55.361 97.568 55.361 97.416C55.361 97.264 55.325 97.14 55.253 97.044C55.189 96.948 55.101 96.868 54.989 96.804C54.877 96.732 54.749 96.676 54.605 96.636C54.461 96.596 54.313 96.56 54.161 96.528C53.897 96.472 53.645 96.408 53.405 96.336C53.165 96.264 52.953 96.172 52.769 96.06C52.593 95.94 52.449 95.788 52.337 95.604C52.233 95.42 52.181 95.184 52.181 94.896C52.181 94.624 52.241 94.384 52.361 94.176C52.481 93.968 52.641 93.796 52.841 93.66C53.041 93.524 53.265 93.42 53.513 93.348C53.761 93.276 54.017 93.24 54.281 93.24C54.681 93.24 55.049 93.32 55.385 93.48C55.729 93.64 55.997 93.9 56.189 94.26L55.409 94.776C55.289 94.576 55.129 94.416 54.929 94.296C54.737 94.168 54.501 94.104 54.221 94.104C54.093 94.104 53.961 94.12 53.825 94.152C53.697 94.184 53.581 94.232 53.477 94.296C53.373 94.36 53.285 94.444 53.213 94.548C53.149 94.644 53.117 94.756 53.117 94.884C53.117 95.004 53.153 95.108 53.225 95.196C53.305 95.276 53.409 95.348 53.537 95.412C53.673 95.476 53.825 95.532 53.993 95.58C54.169 95.628 54.349 95.668 54.533 95.7C54.781 95.748 55.017 95.812 55.241 95.892C55.465 95.964 55.661 96.064 55.829 96.192C55.997 96.32 56.129 96.48 56.225 96.672C56.321 96.864 56.369 97.1 56.369 97.38C56.369 97.7 56.305 97.972 56.177 98.196C56.049 98.42 55.877 98.604 55.661 98.748C55.453 98.884 55.213 98.984 54.941 99.048C54.677 99.112 54.405 99.144 54.125 99.144C53.645 99.144 53.229 99.072 52.877 98.928C52.533 98.776 52.221 98.5 51.941 98.1L52.685 97.524ZM60.7464 94.176H59.0904V96.984C59.0904 97.168 59.0944 97.34 59.1024 97.5C59.1104 97.652 59.1424 97.788 59.1984 97.908C59.2544 98.02 59.3384 98.112 59.4504 98.184C59.5624 98.248 59.7224 98.28 59.9304 98.28C60.0664 98.28 60.2064 98.264 60.3504 98.232C60.4944 98.2 60.6304 98.152 60.7584 98.088L60.7944 98.94C60.6344 99.012 60.4544 99.064 60.2544 99.096C60.0624 99.128 59.8784 99.144 59.7024 99.144C59.3664 99.144 59.0984 99.1 58.8984 99.012C58.6984 98.924 58.5424 98.8 58.4304 98.64C58.3184 98.48 58.2424 98.284 58.2024 98.052C58.1704 97.812 58.1544 97.548 58.1544 97.26V94.176H56.9304V93.384H58.1544V91.788H59.0904V93.384H60.7464V94.176ZM61.9888 93.384H62.9248V99H61.9888V93.384ZM61.7728 91.188C61.7728 91.004 61.8368 90.844 61.9648 90.708C62.1008 90.572 62.2648 90.504 62.4568 90.504C62.6488 90.504 62.8088 90.572 62.9368 90.708C63.0728 90.844 63.1408 91.004 63.1408 91.188C63.1408 91.388 63.0768 91.552 62.9488 91.68C62.8208 91.808 62.6568 91.872 62.4568 91.872C62.2568 91.872 62.0928 91.808 61.9648 91.68C61.8368 91.552 61.7728 91.388 61.7728 91.188ZM64.4637 96.192C64.4637 95.752 64.5397 95.352 64.6917 94.992C64.8437 94.632 65.0517 94.324 65.3157 94.068C65.5797 93.804 65.8957 93.6 66.2637 93.456C66.6317 93.312 67.0317 93.24 67.4637 93.24C67.8957 93.24 68.2957 93.312 68.6637 93.456C69.0317 93.6 69.3477 93.804 69.6117 94.068C69.8757 94.324 70.0837 94.632 70.2357 94.992C70.3877 95.352 70.4637 95.752 70.4637 96.192C70.4637 96.632 70.3877 97.032 70.2357 97.392C70.0837 97.752 69.8757 98.064 69.6117 98.328C69.3477 98.584 69.0317 98.784 68.6637 98.928C68.2957 99.072 67.8957 99.144 67.4637 99.144C67.0317 99.144 66.6317 99.072 66.2637 98.928C65.8957 98.784 65.5797 98.584 65.3157 98.328C65.0517 98.064 64.8437 97.752 64.6917 97.392C64.5397 97.032 64.4637 96.632 64.4637 96.192ZM65.4717 96.192C65.4717 96.488 65.5157 96.764 65.6037 97.02C65.6997 97.268 65.8357 97.488 66.0117 97.68C66.1877 97.864 66.3957 98.012 66.6357 98.124C66.8837 98.228 67.1597 98.28 67.4637 98.28C67.7677 98.28 68.0397 98.228 68.2797 98.124C68.5277 98.012 68.7397 97.864 68.9157 97.68C69.0917 97.488 69.2237 97.268 69.3117 97.02C69.4077 96.764 69.4557 96.488 69.4557 96.192C69.4557 95.896 69.4077 95.624 69.3117 95.376C69.2237 95.12 69.0917 94.9 68.9157 94.716C68.7397 94.524 68.5277 94.376 68.2797 94.272C68.0397 94.16 67.7677 94.104 67.4637 94.104C67.1597 94.104 66.8837 94.16 66.6357 94.272C66.3957 94.376 66.1877 94.524 66.0117 94.716C65.8357 94.9 65.6997 95.12 65.6037 95.376C65.5157 95.624 65.4717 95.896 65.4717 96.192ZM71.9127 94.716C71.9127 94.46 71.9047 94.22 71.8887 93.996C71.8727 93.772 71.8647 93.568 71.8647 93.384H72.7527C72.7527 93.536 72.7567 93.688 72.7647 93.84C72.7727 93.992 72.7767 94.148 72.7767 94.308H72.8007C72.8647 94.172 72.9527 94.04 73.0647 93.912C73.1847 93.784 73.3247 93.672 73.4847 93.576C73.6447 93.472 73.8247 93.392 74.0247 93.336C74.2247 93.272 74.4407 93.24 74.6727 93.24C75.0407 93.24 75.3567 93.296 75.6207 93.408C75.8927 93.52 76.1167 93.676 76.2927 93.876C76.4687 94.076 76.5967 94.32 76.6767 94.608C76.7647 94.888 76.8087 95.196 76.8087 95.532V99H75.8727V95.628C75.8727 95.156 75.7687 94.784 75.5607 94.512C75.3527 94.24 75.0287 94.104 74.5887 94.104C74.2847 94.104 74.0207 94.156 73.7967 94.26C73.5807 94.364 73.4007 94.512 73.2567 94.704C73.1207 94.896 73.0167 95.124 72.9447 95.388C72.8807 95.652 72.8487 95.944 72.8487 96.264V99H71.9127V94.716ZM81.6325 97.848L84.8365 94.728C85.0365 94.536 85.2125 94.36 85.3645 94.2C85.5165 94.032 85.6405 93.872 85.7365 93.72C85.8405 93.56 85.9165 93.396 85.9645 93.228C86.0125 93.06 86.0365 92.872 86.0365 92.664C86.0365 92.44 85.9965 92.24 85.9165 92.064C85.8365 91.888 85.7245 91.74 85.5805 91.62C85.4445 91.492 85.2805 91.396 85.0885 91.332C84.9045 91.26 84.7045 91.224 84.4885 91.224C84.0565 91.224 83.7005 91.348 83.4205 91.596C83.1405 91.844 82.9605 92.172 82.8805 92.58L81.7885 92.484C81.8445 92.14 81.9485 91.836 82.1005 91.572C82.2605 91.3 82.4565 91.076 82.6885 90.9C82.9285 90.724 83.1965 90.592 83.4925 90.504C83.7885 90.408 84.1085 90.36 84.4525 90.36C84.8045 90.36 85.1365 90.412 85.4485 90.516C85.7605 90.612 86.0325 90.756 86.2645 90.948C86.5045 91.14 86.6925 91.38 86.8285 91.668C86.9725 91.956 87.0445 92.288 87.0445 92.664C87.0445 93 86.9965 93.304 86.9005 93.576C86.8125 93.848 86.6885 94.1 86.5285 94.332C86.3765 94.556 86.2005 94.772 86.0005 94.98C85.8085 95.18 85.6045 95.38 85.3885 95.58L82.7725 98.04V98.064H87.1045V99H81.6325V97.848Z" fill="#3F3F3F" fill-opacity="0.6"/>
<rect x="14.7334" y="124" width="180.2" height="34" rx="4" fill="#E6E8EA"/>
<rect x="22.6667" y="130" width="162.067" height="22" rx="3" fill="white"/>
<path d="M172.476 137V141.158M172.476 145.317V141.158M172.476 141.158H176.525H168.427" stroke="#656565" stroke-opacity="0.7" stroke-linecap="round" stroke-linejoin="round"/>
<path d="M41.5972 146H36.6652C36.0412 146 35.4612 145.888 34.9252 145.664C34.3972 145.44 33.9372 145.136 33.5452 144.752C33.1612 144.36 32.8572 143.9 32.6332 143.372C32.4092 142.836 32.2972 142.26 32.2972 141.644C32.2972 141.028 32.4092 140.456 32.6332 139.928C32.8572 139.392 33.1612 138.932 33.5452 138.548C33.9372 138.156 34.3972 137.848 34.9252 137.624C35.4612 137.4 36.0412 137.288 36.6652 137.288C37.2892 137.288 37.8652 137.4 38.3932 137.624C38.9292 137.848 39.3892 138.156 39.7732 138.548C40.1652 138.932 40.4732 139.392 40.6972 139.928C40.9212 140.456 41.0332 141.028 41.0332 141.644C41.0332 142.004 40.9852 142.364 40.8892 142.724C40.7932 143.076 40.6532 143.408 40.4692 143.72C40.2932 144.024 40.0772 144.3 39.8212 144.548C39.5732 144.788 39.2892 144.976 38.9692 145.112V145.136H41.5972V146ZM33.3772 141.644C33.3772 142.124 33.4612 142.572 33.6292 142.988C33.7972 143.404 34.0252 143.768 34.3132 144.08C34.6092 144.384 34.9572 144.624 35.3572 144.8C35.7572 144.976 36.1932 145.064 36.6652 145.064C37.1292 145.064 37.5612 144.976 37.9612 144.8C38.3692 144.624 38.7172 144.384 39.0052 144.08C39.3012 143.768 39.5332 143.404 39.7012 142.988C39.8692 142.572 39.9532 142.124 39.9532 141.644C39.9532 141.172 39.8692 140.728 39.7012 140.312C39.5412 139.896 39.3132 139.536 39.0172 139.232C38.7292 138.92 38.3852 138.676 37.9852 138.5C37.5852 138.316 37.1452 138.224 36.6652 138.224C36.1852 138.224 35.7452 138.316 35.3452 138.5C34.9452 138.676 34.5972 138.92 34.3012 139.232C34.0132 139.536 33.7852 139.896 33.6172 140.312C33.4572 140.728 33.3772 141.172 33.3772 141.644ZM47.525 144.668C47.525 144.924 47.533 145.164 47.549 145.388C47.565 145.612 47.573 145.816 47.573 146H46.685C46.685 145.848 46.681 145.696 46.673 145.544C46.665 145.392 46.661 145.236 46.661 145.076H46.637C46.573 145.212 46.481 145.344 46.361 145.472C46.249 145.6 46.113 145.716 45.953 145.82C45.793 145.916 45.613 145.992 45.413 146.048C45.213 146.112 44.997 146.144 44.765 146.144C44.397 146.144 44.077 146.088 43.805 145.976C43.541 145.864 43.321 145.708 43.145 145.508C42.969 145.308 42.837 145.068 42.749 144.788C42.669 144.5 42.629 144.188 42.629 143.852V140.384H43.565V143.756C43.565 144.228 43.669 144.6 43.877 144.872C44.085 145.144 44.409 145.28 44.849 145.28C45.153 145.28 45.413 145.228 45.629 145.124C45.853 145.02 46.033 144.872 46.169 144.68C46.313 144.488 46.417 144.26 46.481 143.996C46.553 143.732 46.589 143.44 46.589 143.12V140.384H47.525V144.668ZM54.3129 144.98C53.9769 145.412 53.6089 145.716 53.2089 145.892C52.8089 146.06 52.3449 146.144 51.8169 146.144C51.3769 146.144 50.9809 146.068 50.6289 145.916C50.2769 145.756 49.9769 145.544 49.7289 145.28C49.4889 145.016 49.3009 144.704 49.1649 144.344C49.0369 143.984 48.9729 143.6 48.9729 143.192C48.9729 142.76 49.0449 142.364 49.1889 142.004C49.3329 141.636 49.5329 141.324 49.7889 141.068C50.0449 140.804 50.3489 140.6 50.7009 140.456C51.0529 140.312 51.4369 140.24 51.8529 140.24C52.2449 140.24 52.6049 140.308 52.9329 140.444C53.2609 140.572 53.5409 140.764 53.7729 141.02C54.0129 141.268 54.1969 141.576 54.3249 141.944C54.4529 142.304 54.5169 142.716 54.5169 143.18V143.48H49.9809C49.9969 143.72 50.0529 143.952 50.1489 144.176C50.2529 144.392 50.3849 144.584 50.5449 144.752C50.7049 144.912 50.8929 145.04 51.1089 145.136C51.3249 145.232 51.5609 145.28 51.8169 145.28C52.2249 145.28 52.5689 145.208 52.8489 145.064C53.1289 144.92 53.3809 144.708 53.6049 144.428L54.3129 144.98ZM53.5089 142.688C53.4929 142.208 53.3369 141.824 53.0409 141.536C52.7449 141.248 52.3369 141.104 51.8169 141.104C51.2969 141.104 50.8769 141.248 50.5569 141.536C50.2369 141.824 50.0449 142.208 49.9809 142.688H53.5089ZM56.0849 144.524C56.2689 144.756 56.4689 144.94 56.6849 145.076C56.9089 145.212 57.1889 145.28 57.5249 145.28C57.6689 145.28 57.8129 145.264 57.9569 145.232C58.1089 145.2 58.2449 145.148 58.3649 145.076C58.4849 145.004 58.5809 144.916 58.6529 144.812C58.7249 144.7 58.7609 144.568 58.7609 144.416C58.7609 144.264 58.7249 144.14 58.6529 144.044C58.5889 143.948 58.5009 143.868 58.3889 143.804C58.2769 143.732 58.1489 143.676 58.0049 143.636C57.8609 143.596 57.7129 143.56 57.5609 143.528C57.2969 143.472 57.0449 143.408 56.8049 143.336C56.5649 143.264 56.3529 143.172 56.1689 143.06C55.9929 142.94 55.8489 142.788 55.7369 142.604C55.6329 142.42 55.5809 142.184 55.5809 141.896C55.5809 141.624 55.6409 141.384 55.7609 141.176C55.8809 140.968 56.0409 140.796 56.2409 140.66C56.4409 140.524 56.6649 140.42 56.9129 140.348C57.1609 140.276 57.4169 140.24 57.6809 140.24C58.0809 140.24 58.4489 140.32 58.7849 140.48C59.1289 140.64 59.3969 140.9 59.5889 141.26L58.8089 141.776C58.6889 141.576 58.5289 141.416 58.3289 141.296C58.1369 141.168 57.9009 141.104 57.6209 141.104C57.4929 141.104 57.3609 141.12 57.2249 141.152C57.0969 141.184 56.9809 141.232 56.8769 141.296C56.7729 141.36 56.6849 141.444 56.6129 141.548C56.5489 141.644 56.5169 141.756 56.5169 141.884C56.5169 142.004 56.5529 142.108 56.6249 142.196C56.7049 142.276 56.8089 142.348 56.9369 142.412C57.0729 142.476 57.2249 142.532 57.3929 142.58C57.5689 142.628 57.7489 142.668 57.9329 142.7C58.1809 142.748 58.4169 142.812 58.6409 142.892C58.8649 142.964 59.0609 143.064 59.2289 143.192C59.3969 143.32 59.5289 143.48 59.6249 143.672C59.7209 143.864 59.7689 144.1 59.7689 144.38C59.7689 144.7 59.7049 144.972 59.5769 145.196C59.4489 145.42 59.2769 145.604 59.0609 145.748C58.8529 145.884 58.6129 145.984 58.3409 146.048C58.0769 146.112 57.8049 146.144 57.5249 146.144C57.0449 146.144 56.6289 146.072 56.2769 145.928C55.9329 145.776 55.6209 145.5 55.3409 145.1L56.0849 144.524ZM64.1463 141.176H62.4903V143.984C62.4903 144.168 62.4943 144.34 62.5023 144.5C62.5103 144.652 62.5423 144.788 62.5983 144.908C62.6543 145.02 62.7383 145.112 62.8503 145.184C62.9623 145.248 63.1223 145.28 63.3303 145.28C63.4663 145.28 63.6063 145.264 63.7503 145.232C63.8943 145.2 64.0303 145.152 64.1583 145.088L64.1943 145.94C64.0343 146.012 63.8543 146.064 63.6543 146.096C63.4623 146.128 63.2783 146.144 63.1023 146.144C62.7663 146.144 62.4983 146.1 62.2983 146.012C62.0983 145.924 61.9423 145.8 61.8303 145.64C61.7183 145.48 61.6423 145.284 61.6023 145.052C61.5703 144.812 61.5543 144.548 61.5543 144.26V141.176H60.3303V140.384H61.5543V138.788H62.4903V140.384H64.1463V141.176ZM65.3887 140.384H66.3247V146H65.3887V140.384ZM65.1727 138.188C65.1727 138.004 65.2367 137.844 65.3647 137.708C65.5007 137.572 65.6647 137.504 65.8567 137.504C66.0487 137.504 66.2087 137.572 66.3367 137.708C66.4727 137.844 66.5407 138.004 66.5407 138.188C66.5407 138.388 66.4767 138.552 66.3487 138.68C66.2207 138.808 66.0567 138.872 65.8567 138.872C65.6567 138.872 65.4927 138.808 65.3647 138.68C65.2367 138.552 65.1727 138.388 65.1727 138.188ZM67.8636 143.192C67.8636 142.752 67.9396 142.352 68.0916 141.992C68.2436 141.632 68.4516 141.324 68.7156 141.068C68.9796 140.804 69.2956 140.6 69.6636 140.456C70.0316 140.312 70.4316 140.24 70.8636 140.24C71.2956 140.24 71.6956 140.312 72.0636 140.456C72.4316 140.6 72.7476 140.804 73.0116 141.068C73.2756 141.324 73.4836 141.632 73.6356 141.992C73.7876 142.352 73.8636 142.752 73.8636 143.192C73.8636 143.632 73.7876 144.032 73.6356 144.392C73.4836 144.752 73.2756 145.064 73.0116 145.328C72.7476 145.584 72.4316 145.784 72.0636 145.928C71.6956 146.072 71.2956 146.144 70.8636 146.144C70.4316 146.144 70.0316 146.072 69.6636 145.928C69.2956 145.784 68.9796 145.584 68.7156 145.328C68.4516 145.064 68.2436 144.752 68.0916 144.392C67.9396 144.032 67.8636 143.632 67.8636 143.192ZM68.8716 143.192C68.8716 143.488 68.9156 143.764 69.0036 144.02C69.0996 144.268 69.2356 144.488 69.4116 144.68C69.5876 144.864 69.7956 145.012 70.0356 145.124C70.2836 145.228 70.5596 145.28 70.8636 145.28C71.1676 145.28 71.4396 145.228 71.6796 145.124C71.9276 145.012 72.1396 144.864 72.3156 144.68C72.4916 144.488 72.6236 144.268 72.7116 144.02C72.8076 143.764 72.8556 143.488 72.8556 143.192C72.8556 142.896 72.8076 142.624 72.7116 142.376C72.6236 142.12 72.4916 141.9 72.3156 141.716C72.1396 141.524 71.9276 141.376 71.6796 141.272C71.4396 141.16 71.1676 141.104 70.8636 141.104C70.5596 141.104 70.2836 141.16 70.0356 141.272C69.7956 141.376 69.5876 141.524 69.4116 141.716C69.2356 141.9 69.0996 142.12 69.0036 142.376C68.9156 142.624 68.8716 142.896 68.8716 143.192ZM75.3126 141.716C75.3126 141.46 75.3046 141.22 75.2886 140.996C75.2726 140.772 75.2646 140.568 75.2646 140.384H76.1526C76.1526 140.536 76.1566 140.688 76.1646 140.84C76.1726 140.992 76.1766 141.148 76.1766 141.308H76.2006C76.2646 141.172 76.3526 141.04 76.4646 140.912C76.5846 140.784 76.7246 140.672 76.8846 140.576C77.0446 140.472 77.2246 140.392 77.4246 140.336C77.6246 140.272 77.8406 140.24 78.0726 140.24C78.4406 140.24 78.7566 140.296 79.0206 140.408C79.2926 140.52 79.5166 140.676 79.6926 140.876C79.8686 141.076 79.9966 141.32 80.0766 141.608C80.1646 141.888 80.2086 142.196 80.2086 142.532V146H79.2726V142.628C79.2726 142.156 79.1686 141.784 78.9606 141.512C78.7526 141.24 78.4286 141.104 77.9886 141.104C77.6846 141.104 77.4206 141.156 77.1966 141.26C76.9806 141.364 76.8006 141.512 76.6566 141.704C76.5206 141.896 76.4166 142.124 76.3446 142.388C76.2806 142.652 76.2486 142.944 76.2486 143.264V146H75.3126V141.716ZM86.8804 141.104H87.1924C87.4004 141.104 87.6164 141.088 87.8404 141.056C88.0724 141.024 88.2804 140.956 88.4644 140.852C88.6564 140.748 88.8124 140.6 88.9324 140.408C89.0604 140.208 89.1244 139.948 89.1244 139.628C89.1244 139.196 88.9884 138.856 88.7164 138.608C88.4524 138.352 88.1044 138.224 87.6724 138.224C87.3124 138.224 87.0004 138.304 86.7364 138.464C86.4724 138.624 86.2644 138.86 86.1124 139.172L85.1404 138.8C85.3484 138.32 85.6724 137.96 86.1124 137.72C86.5604 137.48 87.0564 137.36 87.6004 137.36C87.9364 137.36 88.2564 137.408 88.5604 137.504C88.8724 137.6 89.1444 137.74 89.3764 137.924C89.6084 138.108 89.7924 138.34 89.9284 138.62C90.0644 138.892 90.1324 139.212 90.1324 139.58C90.1324 140.028 89.9964 140.432 89.7244 140.792C89.4604 141.144 89.1124 141.388 88.6804 141.524V141.548C88.9524 141.596 89.1924 141.684 89.4004 141.812C89.6164 141.94 89.8004 142.1 89.9524 142.292C90.1044 142.476 90.2204 142.688 90.3004 142.928C90.3804 143.168 90.4204 143.42 90.4204 143.684C90.4204 144.092 90.3444 144.448 90.1924 144.752C90.0404 145.056 89.8364 145.312 89.5804 145.52C89.3244 145.728 89.0244 145.884 88.6804 145.988C88.3444 146.092 87.9884 146.144 87.6124 146.144C86.9644 146.144 86.4004 146.004 85.9204 145.724C85.4404 145.444 85.0924 144.988 84.8764 144.356L85.8964 144.02C86.0404 144.476 86.2444 144.8 86.5084 144.992C86.7724 145.184 87.1404 145.28 87.6124 145.28C87.8524 145.28 88.0764 145.24 88.2844 145.16C88.4924 145.08 88.6724 144.968 88.8244 144.824C88.9844 144.672 89.1084 144.496 89.1964 144.296C89.2924 144.088 89.3404 143.86 89.3404 143.612C89.3404 143.3 89.2764 143.04 89.1484 142.832C89.0284 142.616 88.8644 142.448 88.6564 142.328C88.4564 142.2 88.2284 142.108 87.9724 142.052C87.7164 141.996 87.4564 141.968 87.1924 141.968H86.8804V141.104Z" fill="#3F3F3F" fill-opacity="0.6"/>
</svg>
