<svg width="73" height="25" viewBox="0 0 73 25" fill="none" xmlns="http://www.w3.org/2000/svg">
<g opacity="0.8">
<path d="M36.5 25C56.6535 25 73 19.4048 73 12.5C73 5.59524 56.6535 0 36.5 0C16.3465 0 0 5.59524 0 12.5C0 19.4048 16.3465 25 36.5 25Z" fill="white"/>
<path d="M35.1556 7.64877C36.1038 7.64877 36.8822 6.83032 36.8822 5.8333C36.8822 4.83627 36.1038 4.01782 35.1556 4.01782C34.1932 4.01782 33.429 4.83627 33.429 5.8333C33.429 6.8452 34.2074 7.64877 35.1556 7.64877Z" fill="black"/>
<path d="M34.2069 9.83645H36.4006V19.5537H34.2069V10.0597V9.83645ZM14.6761 11.2799C13.1759 10.387 11.8031 9.7174 11.8455 8.55669C11.8455 7.72335 12.5956 7.09835 13.7986 7.09835C14.6619 7.09835 15.7234 7.41085 16.8415 8.51204L17.1953 8.86919V8.73526V8.36323V5.95252L17.1104 5.893C16.1197 5.20847 15.0441 4.86621 13.9684 4.86621C12.6805 4.86621 11.6049 5.23823 10.8407 5.93764C10.0764 6.63704 9.6377 7.64895 9.6377 8.83942C9.6377 10.9079 11.2087 12.0091 12.6805 12.9466C14.1807 13.8841 15.5394 14.6876 15.5252 15.9674C15.5252 16.6222 14.945 17.5299 13.5156 17.5299C12.256 17.5299 11.053 16.8454 10.0906 15.5656L9.72261 15.0745V18.3632L9.80753 18.4228C10.9681 19.3305 12.2277 19.7769 13.7278 19.7769H13.742C16.0347 19.7769 17.7472 18.0656 17.7614 15.7293C17.7189 13.3484 16.148 12.1579 14.6761 11.2799ZM28.3335 15.1341L26.1964 9.83645H24.6113L22.4743 15.1341L20.2664 9.83645H17.9171L22.078 19.7472H22.913L25.4039 13.5864L27.9231 19.7472H28.7581L32.8765 9.83645H30.5272L28.3335 15.1341ZM42.8543 14.018C41.2691 13.0805 40.7313 12.515 40.7738 12.3364C40.7738 11.9942 41.071 11.7114 41.7362 11.6966C42.3448 11.6966 43.2505 11.9644 44.2129 12.6341L44.4677 12.7978L44.5243 12.8424V12.4555V10.5061L44.4111 10.4466C43.4487 9.91085 42.557 9.65788 41.6796 9.65788C40.7455 9.65788 39.9671 9.91085 39.401 10.3722C38.8349 10.8484 38.5235 11.5478 38.5235 12.396C38.5377 13.7948 39.6699 14.6281 40.7172 15.268C41.2408 15.5954 41.7645 15.8781 42.1466 16.146C42.5287 16.4138 42.7269 16.6668 42.7127 16.8603C42.7269 17.3513 42.274 17.6489 41.5947 17.7085C40.9578 17.7085 39.9246 17.3364 38.7924 16.518L38.4669 16.2799V18.8097L38.5801 18.8692C39.7406 19.4942 40.6464 19.7472 41.7645 19.7472H41.7786C43.5477 19.7472 44.9347 18.5567 44.9347 16.8007C44.963 15.7442 44.3403 15.0299 42.8543 14.018ZM58.9176 9.65788C60.1489 9.65788 61.1962 10.1043 61.9039 10.9972C62.6257 11.9049 63.0078 13.2293 63.0078 14.9853V15.1936H56.7523C57.0778 16.8007 57.9553 17.5448 59.5121 17.5597C60.5311 17.5597 61.5076 17.1728 62.5266 16.4734L62.838 16.2501V18.4228V18.5418L62.753 18.6013C61.6633 19.3603 60.6301 19.7323 59.0875 19.7323H59.0733C56.1437 19.7323 54.5303 17.2174 54.5161 14.5686C54.5161 13.1103 54.9549 11.8751 55.7333 11.012C56.5258 10.1489 57.6297 9.65788 58.9176 9.65788ZM60.8283 13.5418C60.7009 12.3513 60.0499 11.6817 58.9601 11.6668C57.7713 11.6817 57.0919 12.3067 56.7947 13.5418H60.8283ZM50.893 14.018C49.3079 13.0805 48.7701 12.515 48.8126 12.3364C48.8126 11.9942 49.1239 11.7114 49.7891 11.6966C50.3835 11.6966 51.3035 11.9644 52.2658 12.6341L52.5206 12.7978L52.5772 12.8424V12.4555V10.5061L52.464 10.4466C51.5016 9.91085 50.61 9.65788 49.7325 9.65788C48.7984 9.65788 48.02 9.91085 47.4539 10.3722C46.8878 10.8484 46.5764 11.5478 46.5764 12.396C46.5906 13.7948 47.7228 14.6281 48.7701 15.268C49.2938 15.5954 49.8174 15.8781 50.1995 16.146C50.5817 16.4138 50.7798 16.6668 50.7657 16.8603C50.7657 17.3513 50.3269 17.6489 49.6476 17.7085C49.0107 17.7085 47.9776 17.3364 46.8453 16.518L46.5198 16.2799V18.8097L46.633 18.8692C47.7936 19.4942 48.6993 19.7472 49.8174 19.7472H49.8316C51.6148 19.7472 52.9876 18.5567 52.9876 16.8007C53.0018 15.7442 52.3649 15.0299 50.893 14.018Z" fill="black"/>
</g>
</svg>
