<svg width="105" height="105" viewBox="0 0 105 105" fill="none" xmlns="http://www.w3.org/2000/svg">
<circle cx="52.5" cy="52.5" r="52.5" fill="white"/>
<mask id="mask0" mask-type="alpha" maskUnits="userSpaceOnUse" x="0" y="0" width="105" height="105">
<circle cx="52.5" cy="52.5" r="52.5" fill="white"/>
</mask>
<g mask="url(#mask0)">
<path d="M26.355 31.212H27.774L31.162 39H29.226L28.555 37.35H25.53L24.881 39H22.989L26.355 31.212ZM27.015 33.478L26.069 35.898H27.972L27.015 33.478Z" fill="#8DD800"/>
<path d="M38.792 48.212H41.696C42.0333 48.212 42.3707 48.2377 42.708 48.289C43.0527 48.333 43.3607 48.4283 43.632 48.575C43.9033 48.7143 44.1233 48.9123 44.292 49.169C44.4607 49.4257 44.545 49.7667 44.545 50.192C44.545 50.632 44.4203 50.9987 44.171 51.292C43.929 51.578 43.6063 51.7833 43.203 51.908V51.93C43.4597 51.9667 43.6907 52.04 43.896 52.15C44.1087 52.2527 44.2883 52.3883 44.435 52.557C44.589 52.7183 44.7063 52.909 44.787 53.129C44.8677 53.349 44.908 53.5837 44.908 53.833C44.908 54.2437 44.82 54.5883 44.644 54.867C44.468 55.1383 44.2407 55.3583 43.962 55.527C43.6833 55.6957 43.368 55.8167 43.016 55.89C42.6713 55.9633 42.3267 56 41.982 56H38.792V48.212ZM40.508 51.325H41.751C41.883 51.325 42.0113 51.3103 42.136 51.281C42.268 51.2517 42.3853 51.204 42.488 51.138C42.5907 51.072 42.6713 50.984 42.73 50.874C42.796 50.764 42.829 50.632 42.829 50.478C42.829 50.3167 42.7923 50.1847 42.719 50.082C42.653 49.972 42.565 49.8877 42.455 49.829C42.345 49.7703 42.2203 49.73 42.081 49.708C41.9417 49.6787 41.806 49.664 41.674 49.664H40.508V51.325ZM40.508 54.548H42.048C42.18 54.548 42.312 54.5333 42.444 54.504C42.5833 54.4747 42.708 54.4233 42.818 54.35C42.928 54.2767 43.016 54.1813 43.082 54.064C43.1553 53.9467 43.192 53.8037 43.192 53.635C43.192 53.4517 43.1443 53.305 43.049 53.195C42.961 53.0777 42.8473 52.9897 42.708 52.931C42.5687 52.8723 42.4183 52.832 42.257 52.81C42.0957 52.788 41.9453 52.777 41.806 52.777H40.508V54.548Z" fill="#2F80ED"/>
<path d="M54.885 67.236C54.7163 67.0307 54.5073 66.873 54.258 66.763C54.016 66.653 53.7337 66.598 53.411 66.598C53.0883 66.598 52.7877 66.6603 52.509 66.785C52.2377 66.9097 51.9993 67.0857 51.794 67.313C51.596 67.533 51.4383 67.797 51.321 68.105C51.211 68.413 51.156 68.7467 51.156 69.106C51.156 69.4727 51.211 69.81 51.321 70.118C51.4383 70.4187 51.596 70.6827 51.794 70.91C51.992 71.13 52.223 71.3023 52.487 71.427C52.7583 71.5517 53.048 71.614 53.356 71.614C53.708 71.614 54.0197 71.5407 54.291 71.394C54.5623 71.2473 54.786 71.042 54.962 70.778L56.392 71.845C56.062 72.307 55.644 72.648 55.138 72.868C54.632 73.088 54.1113 73.198 53.576 73.198C52.9673 73.198 52.4063 73.1027 51.893 72.912C51.3797 72.7213 50.936 72.45 50.562 72.098C50.188 71.7387 49.8947 71.306 49.682 70.8C49.4767 70.294 49.374 69.7293 49.374 69.106C49.374 68.4827 49.4767 67.918 49.682 67.412C49.8947 66.906 50.188 66.477 50.562 66.125C50.936 65.7657 51.3797 65.4907 51.893 65.3C52.4063 65.1093 52.9673 65.014 53.576 65.014C53.796 65.014 54.0233 65.036 54.258 65.08C54.5 65.1167 54.7347 65.179 54.962 65.267C55.1967 65.355 55.4203 65.4723 55.633 65.619C55.8457 65.7657 56.0363 65.9453 56.205 66.158L54.885 67.236Z" fill="#FF5454"/>
<path d="M-2.5 60C3.5 54 21.1 42.3 43.5 43.5C71.5 45 111 60 123 60" stroke="#8DD800" stroke-width="3"/>
<path d="M122.5 70.2177C103 66.2177 61.8 58.4 45 60C28.2 61.6 0.5 68.8844 -5.5 70.2177" stroke="#2F80ED" stroke-width="3"/>
<path d="M-2.5 78H121" stroke="#FF5454" stroke-width="3"/>
</g>
</svg>
