<svg width="105" height="105" viewBox="0 0 105 105" fill="none" xmlns="http://www.w3.org/2000/svg">
<circle cx="52.5" cy="52.5" r="52.5" fill="white"/>
<mask id="mask0" mask-type="alpha" maskUnits="userSpaceOnUse" x="0" y="0" width="105" height="105">
<circle cx="52.5" cy="52.5" r="52.5" fill="white"/>
</mask>
<g mask="url(#mask0)">
<path d="M38.4231 14.7309C36.0654 13.945 33.5169 15.2192 32.7309 17.5769C31.945 19.9346 33.2192 22.4831 35.5769 23.2691L38.4231 14.7309ZM106.809 -6.58584C98.4442 5.32789 89.3886 13.1664 78.6962 16.8465C68.0181 20.5217 55.052 20.2742 38.4231 14.7309L35.5769 23.2691C53.446 29.2258 68.5298 29.8637 81.6252 25.3566C94.7062 20.8543 105.148 11.4429 114.175 -1.41416L106.809 -6.58584Z" fill="#FF5454"/>
<path d="M73 34H26L24 90L31.5 89L39 90H71L73 34Z" fill="#80C204"/>
<path d="M43.4996 36C42.9996 29.5 45 14 53 14C63 14 65 35 64.5 37.5" stroke="#80C204" stroke-width="5"/>
<path d="M37 34H84L86 90H39L37 34Z" fill="#8DD800"/>
<path d="M48.4996 36C47.9996 29.5 50 14 58 14C68 14 70 35 69.5 37.5" stroke="#8DD800" stroke-width="5"/>
<path d="M106.809 -6.58584C100.141 2.91168 93.0341 9.81406 85.0311 14.0831C77.0892 18.3196 67.973 20.1196 56.973 18.957L56.027 27.9071C68.6276 29.239 79.5779 27.1924 89.267 22.024C98.8951 16.8881 106.984 8.82717 114.175 -1.41416L106.809 -6.58584Z" fill="#FF5454"/>
</g>
</svg>
