<svg width="105" height="105" viewBox="0 0 105 105" fill="none" xmlns="http://www.w3.org/2000/svg">
<circle cx="52.5" cy="52.5" r="52.5" fill="white"/>
<path d="M57.9736 30.3157H19.6315L18 75.9999L24.1184 75.1841L30.2368 75.9999H56.3421L57.9736 30.3157Z" fill="#80C204"/>
<path d="M33.9076 31.9474C33.4997 26.6447 35.1316 14 41.658 14C49.8158 14 51.4475 31.1316 51.0396 33.1711" stroke="#80C204" stroke-width="5"/>
<path d="M28.6052 30.3157H66.9473L68.5789 75.9999H30.2368L28.6052 30.3157Z" fill="#8DD800"/>
<path d="M37.9865 31.9474C37.5786 26.6447 39.2105 14 45.7368 14C53.8947 14 55.5263 31.1316 55.1184 33.1711" stroke="#8DD800" stroke-width="5"/>
<path d="M51.9246 37H84.1932L85.5664 83H75.2678H53.2977L51.9246 37Z" fill="#C09541"/>
<path d="M76.641 37H44.3723L42.9992 83H75.2679L76.641 37Z" fill="#D8B063"/>
<path d="M52.5 60.5L57.5 65L68.5 52" stroke="white" stroke-width="5"/>
</svg>
