<svg width="105" height="105" viewBox="0 0 105 105" fill="none" xmlns="http://www.w3.org/2000/svg">
<mask id="mask0" mask-type="alpha" maskUnits="userSpaceOnUse" x="0" y="0" width="105" height="105">
<circle cx="52.5" cy="52.5" r="52.5" fill="white"/>
</mask>
<g mask="url(#mask0)">
<circle cx="52.5" cy="52.5" r="52.5" fill="white"/>
<path d="M13.925 35.1745C17.488 27.3151 23.3887 20.7462 30.8224 16.3638C38.256 11.9814 46.8606 9.99882 55.4624 10.6866C64.0642 11.3743 72.2445 14.6989 78.8873 20.2068C85.5302 25.7147 90.3122 33.1378 92.5811 41.4634C94.85 49.7891 94.4952 58.612 91.5653 66.7286C88.6354 74.8453 83.2729 81.8605 76.2093 86.8173C69.1458 91.7742 60.725 94.4313 52.0957 94.4263C43.4665 94.4213 35.0488 91.7544 27.991 86.7894L52.12 52.4897L13.925 35.1745Z" fill="#8DD800"/>
<path d="M54.9529 93.9825C46.563 94.5745 38.1891 92.627 30.9214 88.3936C23.6537 84.1603 17.8287 77.837 14.2047 70.2471C10.5806 62.6571 9.32543 54.1519 10.6025 45.8386C11.8795 37.5254 15.6296 29.789 21.3646 23.6367C27.0996 17.4844 34.5539 13.201 42.7571 11.3442C50.9604 9.48735 59.5326 10.143 67.3581 13.2259C75.1835 16.3087 81.8996 21.676 86.6322 28.6289C91.3648 35.5819 93.8947 43.7986 93.8925 52.2094L52.0047 52.1985L54.9529 93.9825Z" fill="#2F80ED"/>
</g>
<path d="M62 69.1538L67.3125 74L79 60" stroke="white" stroke-width="5"/>
<path d="M33.4 46.05C33.4 45.55 33.4667 45.125 33.6 44.775C33.7333 44.425 33.9583 44.1 34.275 43.8C34.7417 43.35 35.1667 42.9583 35.55 42.625C35.95 42.2917 36.2917 41.9833 36.575 41.7C36.8583 41.4 37.075 41.125 37.225 40.875C37.3917 40.6083 37.475 40.3333 37.475 40.05C37.475 39.5 37.3 39.075 36.95 38.775C36.6167 38.4583 36.1917 38.3 35.675 38.3C34.8917 38.3 34.2917 38.5167 33.875 38.95C33.475 39.3833 33.25 39.9083 33.2 40.525L29.35 40.275C29.5333 38.5083 30.1833 37.1667 31.3 36.25C32.4167 35.3167 33.85 34.85 35.6 34.85C36.3667 34.85 37.0833 34.9583 37.75 35.175C38.4333 35.375 39.0333 35.6833 39.55 36.1C40.0667 36.5167 40.475 37.0333 40.775 37.65C41.075 38.2667 41.225 38.975 41.225 39.775C41.225 40.2583 41.175 40.7 41.075 41.1C40.975 41.4833 40.8 41.8667 40.55 42.25C40.3167 42.6333 40 43.025 39.6 43.425C39.2167 43.8083 38.725 44.2333 38.125 44.7C37.7417 45 37.4833 45.2917 37.35 45.575C37.2167 45.8583 37.15 46.1417 37.15 46.425V47.15H33.4V46.05ZM32.975 50.85C32.975 50.5333 33.0333 50.2333 33.15 49.95C33.2667 49.6667 33.425 49.425 33.625 49.225C33.8417 49.0083 34.0917 48.8417 34.375 48.725C34.6583 48.6083 34.9583 48.55 35.275 48.55C35.5917 48.55 35.8917 48.6083 36.175 48.725C36.4583 48.8417 36.7 49.0083 36.9 49.225C37.1167 49.425 37.2833 49.6667 37.4 49.95C37.5167 50.2333 37.575 50.5333 37.575 50.85C37.575 51.1667 37.5167 51.4667 37.4 51.75C37.2833 52.0333 37.1167 52.2833 36.9 52.5C36.7 52.7 36.4583 52.8583 36.175 52.975C35.8917 53.0917 35.5917 53.15 35.275 53.15C34.9583 53.15 34.6583 53.0917 34.375 52.975C34.0917 52.8583 33.8417 52.7 33.625 52.5C33.425 52.2833 33.2667 52.0333 33.15 51.75C33.0333 51.4667 32.975 51.1667 32.975 50.85Z" fill="white"/>
</svg>
