<svg width="105" height="105" viewBox="0 0 105 105" fill="none" xmlns="http://www.w3.org/2000/svg">
<circle cx="52.5" cy="52.5" r="52.5" fill="white"/>
<mask id="mask0" mask-type="alpha" maskUnits="userSpaceOnUse" x="0" y="0" width="105" height="105">
<circle cx="52.5" cy="52.5" r="52.5" fill="white"/>
</mask>
<g mask="url(#mask0)">
<path d="M50.3917 34.6033C50.3917 34.6033 54.286 29.6759 59.5409 29.7429C64.7959 29.8098 61.3482 34.9257 61.3482 35.629C61.3482 36.3323 62.4501 39.9787 59.5409 39.4052C56.6317 38.8274 51.2098 36.91 51.2098 36.91L50.3917 34.6033Z" fill="#52A1FF"/>
<path d="M49.3665 34.2977C49.3665 34.2977 46.5658 30.9109 42.9887 30.9109C39.4117 30.9109 39.4868 33.406 39.8333 34.7498C40.1797 36.0937 38.6228 38.8986 40.2966 39.5433C41.9661 40.188 48.0392 36.8598 50.2347 36.6044C52.426 36.3449 49.3665 34.2977 49.3665 34.2977Z" fill="#52A1FF"/>
<path d="M48.2026 34.6036C48.2026 34.6036 44.8801 33.3183 44.1831 34.0803C43.4819 34.8422 44.2332 36.5168 45.9111 35.893C47.589 35.2692 48.7076 35.152 48.7076 35.152L48.2026 34.6036Z" fill="#52A1FF"/>
<path d="M51.3483 34.779C51.3483 34.779 54.7668 33.8831 55.8937 34.0966C57.0207 34.3101 55.2509 35.5786 53.6189 35.2646C51.9869 34.9548 51.3483 34.779 51.3483 34.779Z" fill="#52A1FF"/>
<path d="M52.0674 35.1601C52.0674 36.4496 51.675 37.291 50.3895 37.291C49.1039 37.291 48.0062 36.3993 48.0062 35.1099C48.0062 33.8205 49.0121 32.9497 50.2976 32.9497C51.5832 32.9497 52.0674 33.8707 52.0674 35.1601Z" fill="#52A1FF"/>
<path d="M89.2934 83.7269C89.7108 83.7269 90.1115 83.4966 90.3119 83.0947C90.362 82.9942 91.5515 80.6038 92.2277 77.4137C93.1501 73.0724 92.6701 69.3214 90.8336 66.5751C86.3425 59.8558 79.4012 61.5346 76.3585 63.3599C75.8159 63.6864 75.6405 64.3856 75.9661 64.9298C76.2917 65.4698 76.9887 65.6499 77.5313 65.3233C77.8319 65.1475 84.5477 61.2792 88.9386 67.8477C92.5783 73.2943 88.3167 81.9811 88.275 82.0649C87.9912 82.63 88.2207 83.3166 88.7842 83.6013C88.947 83.6892 89.1181 83.7269 89.2934 83.7269Z" fill="#FF5454"/>
<path d="M29.4564 51.8725C29.4814 51.8683 29.5065 51.8641 29.5273 51.8599C30.1451 51.7343 30.5416 51.1273 30.4164 50.5077C26.0087 28.9559 31.1009 15.7017 31.151 15.5677C31.3847 14.9816 31.0967 14.316 30.5124 14.0815C29.928 13.8471 29.2644 14.1359 29.0306 14.722C28.8094 15.283 23.6338 28.7508 28.1792 50.964C28.3044 51.5669 28.8637 51.9562 29.4564 51.8725Z" fill="#FF5454"/>
<path d="M81.098 87.2437C81.098 101.394 67.299 112.865 50.2778 112.865C33.2565 112.865 19.4576 101.394 19.4576 87.2437C19.4576 55.3598 33.2565 33.3601 50.2778 33.3601C67.299 33.3601 81.098 52.2744 81.098 87.2437Z" fill="#FF5454"/>
<path d="M50.3211 40.4184L50.7176 40.4143C52.2035 40.3975 53.4849 41.465 53.7479 42.9345L56.0185 54.4304L45.0286 54.5435L47.3534 42.9303C47.6164 41.486 48.8602 40.431 50.3211 40.4184Z" fill="#FFD545"/>
<path opacity="0.1" d="M50.346 56.7327L56.0225 54.426L45.0326 54.5391L50.346 56.7327Z" fill="#444444"/>
<path opacity="0.2" d="M35.5389 42.0887C35.4763 42.0887 35.4179 42.0762 35.3595 42.0469C35.1591 41.9506 35.0798 41.7078 35.1758 41.5068C35.7894 40.2635 36.6033 39.5099 37.6009 39.2713C39.1243 38.9029 40.4767 39.8992 40.5309 39.9411C40.7104 40.0751 40.7438 40.3263 40.6144 40.5021C40.4809 40.6779 40.2304 40.7156 40.0551 40.5858C40.0426 40.5774 38.9407 39.7736 37.7845 40.0541C37.0332 40.2383 36.3988 40.8454 35.8979 41.8627C35.8228 42.005 35.685 42.0887 35.5389 42.0887Z" fill="black"/>
<path opacity="0.2" d="M65.0838 40.3473C64.9627 40.3473 64.8375 40.2929 64.7582 40.1883C63.8525 38.9993 62.93 38.3797 62.016 38.3504C60.9015 38.3169 60.146 39.1709 60.1377 39.1793C59.9916 39.3468 59.737 39.3635 59.57 39.217C59.4031 39.0705 59.3822 38.8193 59.5283 38.6476C59.57 38.6016 60.5342 37.4922 62.0285 37.5424C63.2013 37.5759 64.3366 38.3044 65.3968 39.6984C65.5304 39.8743 65.497 40.1296 65.3217 40.2636C65.2507 40.318 65.1672 40.3473 65.0838 40.3473Z" fill="black"/>
<path d="M36.9609 48.6698C36.9442 48.6698 36.9275 48.6657 36.9108 48.6573C36.2848 48.3098 35.8423 47.7321 35.6378 46.9869C35.6211 46.9325 35.6545 46.8739 35.7088 46.8571C35.763 46.8404 35.8214 46.8739 35.8381 46.9283C36.0301 47.6274 36.4267 48.1465 37.011 48.4731C37.0611 48.5024 37.0778 48.5652 37.0527 48.6154C37.0319 48.6489 36.9985 48.6698 36.9609 48.6698Z" fill="#444444"/>
<path d="M37.2199 47.7156C37.1907 47.7156 37.1573 47.703 37.1406 47.6779C36.5187 46.9034 36.4811 46.0745 36.4811 46.0368C36.4811 45.9782 36.5229 45.9322 36.5813 45.928C36.6356 45.9238 36.6857 45.9699 36.6898 46.0285C36.6898 46.0368 36.7274 46.8281 37.3034 47.544C37.341 47.59 37.3326 47.657 37.2867 47.6905C37.2658 47.7072 37.245 47.7156 37.2199 47.7156Z" fill="#444444"/>
<path d="M39.6414 55.8286C38.5102 55.8872 37.2121 53.4758 37.137 51.3366C37.0744 49.595 37.8006 47.3427 38.8525 47.2548C39.9794 47.1585 41.4654 49.5322 41.5363 51.7468C41.5906 53.5637 40.6974 55.7742 39.6414 55.8286Z" fill="#444444"/>
<path d="M63.9248 47.5395C63.8873 47.5395 63.8539 47.5185 63.833 47.485C63.8038 47.4348 63.8246 47.372 63.8747 47.3427C64.0542 47.2422 64.2212 47.1208 64.3631 46.9827C64.6845 46.6771 64.914 46.2752 65.0476 45.7979C65.0643 45.7435 65.1186 45.71 65.177 45.7267C65.2313 45.7435 65.2647 45.7979 65.248 45.8565C65.1061 46.3715 64.8556 46.8027 64.5092 47.1376C64.3506 47.2883 64.1711 47.4223 63.9749 47.5311C63.9624 47.5353 63.9415 47.5395 63.9248 47.5395Z" fill="#444444"/>
<path d="M63.6667 46.585C63.6416 46.585 63.6208 46.5766 63.5999 46.5599C63.554 46.5222 63.5498 46.4594 63.5832 46.4133C64.1592 45.6933 64.1968 44.9062 64.1968 44.8978C64.1968 44.8392 64.2552 44.7974 64.3053 44.7974C64.3637 44.7974 64.4096 44.8476 64.4055 44.9062C64.4055 44.9397 64.3679 45.7728 63.746 46.5473C63.7293 46.5724 63.6959 46.585 63.6667 46.585Z" fill="#444444"/>
<path d="M61.2489 54.6982C62.38 54.7568 63.6781 52.3455 63.7533 50.2062C63.8159 48.4646 63.0896 46.2123 62.0378 46.1244C60.9108 46.0281 59.4249 48.4018 59.3539 50.6165C59.3039 52.4334 60.1929 54.6438 61.2489 54.6982Z" fill="#444444"/>
<path opacity="0.1" d="M50.7217 40.414L50.2834 54.2879L45.0326 54.5433C45.0326 54.5433 47.2823 43.2734 47.3575 42.9301C47.4201 42.6538 47.9126 40.2047 50.7217 40.414Z" fill="#444444"/>
<path d="M46.0239 60.2412C46.0239 60.2412 46.003 60.4338 54.547 60.3291C54.547 60.3291 54.0628 65.6919 50.0893 65.6124C46.4788 65.5412 46.0155 60.417 46.0155 60.417" fill="#444444"/>
<path d="M46.0234 60.2412L46.0151 60.417C46.0151 60.417 45.9691 60.8106 46.3657 62.0874C47.1963 62.2046 48.2815 62.6275 49.7048 62.6568C51.245 62.6903 53.1316 62.5019 54.054 62.4098C54.534 61.0157 54.5507 60.3291 54.5507 60.3291C46.0025 60.4338 46.0234 60.2412 46.0234 60.2412Z" fill="white"/>
<path d="M47.6722 64.5028C47.6722 64.5028 48.8367 63.5944 50.6899 63.9C52.539 64.2098 52.7143 64.6159 52.7143 64.6159C52.7143 64.6159 51.6792 65.6792 50.1056 65.6164C48.5278 65.5536 47.6722 64.5028 47.6722 64.5028Z" fill="#FF5454"/>
</g>
</svg>
