<svg width="105" height="105" viewBox="0 0 105 105" fill="none" xmlns="http://www.w3.org/2000/svg">
<circle cx="52.5" cy="52.5" r="52.5" fill="white"/>
<g clip-path="url(#clip0)">
<path d="M20.7387 26.6006H35.9255V38.6923H14V33.3094C14 29.5889 17.0215 26.6006 20.7387 26.6006Z" fill="#FEDD60"/>
<path d="M26.6822 26.6006H59.978C64.4506 26.6006 68.1877 29.9649 68.6647 34.3781L74.2505 79.2225C74.7276 83.6357 75.0854 87 75.0854 87H49.8601H41.8094C37.3369 87 33.5998 83.6357 33.1227 79.2225L28.2526 41.265L27.3183 34.3781C26.8412 29.9451 24.2968 26.6006 19.8243 26.6006H26.6822Z" fill="#FFF4D6"/>
<path d="M40.5571 87C44.2743 87 46.5007 83.9919 46.5007 80.2911V74.9082H83.5932V80.3703C83.5932 84.071 81.3668 87.0198 77.6496 87.0198L40.5571 87Z" fill="#FEDD60"/>
<path d="M35.8659 62.4406C37.7543 60.5803 39.3843 58.4628 40.9746 56.3453C42.8232 53.8517 44.5526 51.279 46.0435 48.5677C46.9579 46.8856 48.2698 44.7087 48.1704 42.7099C48.0909 41.1465 46.6398 40.7704 45.3279 41.2256C42.1871 42.3141 41.1137 46.7668 40.6366 49.5968C40.3186 51.4571 40.1795 53.3767 40.3385 55.2766C40.4379 56.5629 40.6168 58.0472 41.4119 59.1159C44.2743 62.9749 48.3692 53.4559 49.0252 52.031C48.727 51.8529 48.4289 51.6748 48.1307 51.5165C47.2759 53.4361 46.3417 55.4943 46.123 57.592C46.0435 58.4826 46.1628 59.5908 47.1567 59.9075C48.1307 60.2043 49.2836 59.5117 50.0589 59.0169C51.7087 57.968 53.1598 56.6223 54.5513 55.2766C54.273 55.0589 54.0146 54.861 53.7363 54.6433C53.0803 55.5734 51.013 58.7794 53.2394 59.3336C55.1476 59.8085 56.9367 57.3545 57.6722 55.989C57.9902 55.3953 57.0957 54.8808 56.7777 55.4745C55.9229 57.0379 54.9687 59.4127 56.6783 60.7782C58.1691 61.9459 60.5147 61.6094 62.2242 61.2334C62.8802 61.0949 62.6019 60.1054 61.946 60.2439C60.6141 60.521 58.845 60.8376 57.5728 60.145C56.0024 59.2742 57.0361 57.1566 57.6523 56.0088C57.3541 55.8307 57.0559 55.6526 56.7578 55.4943C56.2409 56.464 55.0284 58.3836 53.6965 58.3638C52.4244 58.3441 54.3724 55.5537 54.6109 55.1974C54.9489 54.7027 54.2134 54.1683 53.7959 54.5641C52.643 55.6922 51.4503 56.8004 50.1384 57.7306C49.5222 58.1659 48.4289 59.0565 47.6139 58.9575C45.9242 58.7399 48.7469 52.6643 49.0053 52.0508C49.2637 51.4571 48.3891 50.9228 48.1108 51.5363C47.1368 53.733 46.0832 56.1276 44.4532 57.9285C43.9165 58.5222 43.0618 59.3138 42.4257 58.7794C41.6703 58.1264 41.5113 56.7608 41.4119 55.8505C41.2131 54.2673 41.2727 52.6247 41.4715 51.0415C41.7896 48.3303 42.4853 44.3722 44.8906 42.6307C45.467 42.2151 46.9579 41.6016 47.1169 42.7099C47.2163 43.4223 46.8982 44.2337 46.6597 44.8868C46.282 45.8961 45.8049 46.8856 45.2881 47.8355C43.837 50.5072 42.1474 53.0601 40.3385 55.5141C38.7482 57.691 37.0586 59.8679 35.1304 61.7677C34.6533 62.1833 35.3888 62.9156 35.8659 62.4406Z" fill="#2F80ED"/>
<path d="M73.6343 33.6261C73.3759 33.2897 73.2566 33.072 72.9187 33.0126C72.5807 32.9533 72.2229 33.1116 72.044 33.3886C68.7443 38.4153 67.1739 44.8867 67.4919 50.8831C65.9812 53.4954 63.5362 59.2741 63.5163 59.3533C61.131 64.3008 68.625 51.2789 69.0027 51.9913C74.8866 50.2102 79.5977 46.9449 82.9969 42.314C83.1956 42.0369 83.2155 41.6807 83.0565 41.3838C82.6589 40.6714 81.0289 40.988 80.2139 40.9485C81.6451 40.4339 83.3348 39.5631 85.2431 38.3757C85.3822 38.2966 85.5015 38.158 85.5611 38.0195C88.9404 31.093 89.0398 23.8696 89 21.8114C89 21.5344 88.8609 21.2771 88.6422 21.1188C88.4236 20.9604 88.1254 20.9209 87.867 21C85.3027 21.851 82.9173 22.9592 80.8103 24.305C80.532 24.4831 80.3729 24.7997 80.4127 25.1362C80.4723 25.6507 80.8103 27.5901 80.8103 27.5901C80.5717 26.9964 80.2736 25.6903 79.5977 25.5122C78.4845 25.2153 75.2842 28.9359 74.5487 29.8264C74.4493 29.9452 74.3896 30.1035 74.3499 30.2618C73.7337 34.6552 75.9401 36.7134 73.6343 33.6261Z" fill="#8DD800"/>
<path d="M66.9751 51.833C66.9751 51.833 71.4477 44.3326 78.8622 33.7845C81.9234 29.4306 85.5412 24.9779 88.7615 21.2573C88.9205 21.4156 89 21.6135 89 21.8312C89.0398 23.8894 88.9205 31.093 85.5611 38.0393C85.4816 38.1779 85.3822 38.3164 85.2431 38.3956C83.3348 39.583 81.6451 40.4537 80.2139 40.9683C81.0289 41.0078 82.6589 40.6714 83.0565 41.4036C83.2155 41.7005 83.1956 42.0567 82.9968 42.3338C79.5977 46.9845 74.9065 50.23 69.0027 52.0111C68.625 51.2987 61.131 64.3008 63.5163 59.3731C63.5362 59.2939 65.4843 54.6828 66.9751 51.833Z" fill="#80C204"/>
<path d="M86.396 24.4434C86.9128 23.7706 87.2507 23.4143 87.3303 23.4341C87.0122 23.7706 86.6942 24.107 86.396 24.4434Z" fill="#F57F17"/>
<path d="M81.9631 30.7566C81.983 30.7764 81.983 30.7962 82.003 30.8161C81.983 30.7962 81.983 30.7764 81.9631 30.7566Z" fill="#F57F17"/>
<path d="M68.6449 50.8633C68.6051 50.9227 68.5852 50.982 68.5455 51.0414C68.5455 51.0612 68.5852 50.982 68.6449 50.8633Z" fill="#F57F17"/>
</g>
<defs>
<clipPath id="clip0">
<rect width="75" height="66" fill="white" transform="translate(14 21)"/>
</clipPath>
</defs>
</svg>
