<svg width="105" height="105" viewBox="0 0 105 105" fill="none" xmlns="http://www.w3.org/2000/svg">
<circle cx="52.5" cy="52.5" r="52.5" fill="white"/>
<g clip-path="url(#clip0)">
<path d="M6.83408 56.816H10.8238V57.7613H6.83408V59.0125H6V55.551H6.83408V56.816Z" fill="#F79C8F"/>
<path d="M10.8238 51.2553H8.80807V52.8957H10.8238V53.8271H6V52.8957H7.96009V51.2553H6V50.3101H10.8238V51.2553Z" fill="#F79C8F"/>
<path d="M10.8238 48.2393H6V45.0559H6.83408V47.294H7.97399V45.3895H8.80807V47.294H9.98969V45.0559H10.8238V48.2393Z" fill="#F79C8F"/>
<path d="M22.5712 52.0065C22.2932 51.7423 21.9456 51.5338 21.5564 51.367C21.1671 51.2002 20.6667 51.0751 20.055 50.9917L18.512 50.7693C18.2479 50.7276 18.0115 50.6719 17.803 50.5746C17.5945 50.4773 17.4277 50.38 17.2887 50.2549C17.1497 50.1159 17.0523 49.9769 16.9967 49.8101C16.9411 49.6432 16.8994 49.4903 16.8994 49.3096C16.8994 48.8509 17.0662 48.4616 17.3999 48.1419C17.7335 47.8222 18.2479 47.6554 18.929 47.6554C19.2766 47.6554 19.638 47.6971 20.0133 47.7666L19.9994 47.7944L20.1106 48.1697L21.6259 48.5867L23.2523 46.9464C22.6824 46.3903 22.0568 46.0011 21.3896 45.7648C20.7084 45.5284 19.916 45.4172 19.0124 45.4172C18.3035 45.4172 17.6501 45.5145 17.0941 45.7092C16.5241 45.9038 16.0515 46.1818 15.6483 46.5293C15.2591 46.8769 14.9532 47.2939 14.7447 47.7805C14.5362 48.267 14.425 48.8092 14.425 49.393C14.425 50.4912 14.7447 51.3531 15.3703 51.9787C15.9541 52.5486 16.8021 52.9101 17.9281 53.0769L19.5129 53.2993C19.8187 53.3549 20.055 53.4105 20.2219 53.48C20.3887 53.5495 20.5416 53.6468 20.6806 53.7719C20.9447 54.0361 21.0837 54.3975 21.0837 54.8841C21.0837 55.4123 20.8891 55.8154 20.486 56.0935C20.0967 56.3715 19.5129 56.5105 18.7483 56.5105C18.1367 56.5105 17.5528 56.4271 17.0106 56.2742C16.4685 56.1213 15.9819 55.8293 15.5649 55.4123L14.0497 55.0092L14.0775 55.871L14.7169 56.2742L13.9106 57.0944C14.5501 57.7477 15.2591 58.2065 16.0515 58.4567C16.8299 58.7069 17.7196 58.832 18.7205 58.832C19.4156 58.832 20.055 58.7347 20.6389 58.5679C21.2367 58.3872 21.751 58.1231 22.1819 57.7894C22.6129 57.4558 22.9604 57.0388 23.2106 56.5383C23.4609 56.0518 23.586 55.4818 23.586 54.8423C23.586 54.2446 23.5026 53.7163 23.3497 53.2576C23.1967 52.7432 22.9326 52.3401 22.5712 52.0065Z" fill="#2C2F31"/>
<path d="M34.2347 50.9496C33.901 51.2832 33.4284 51.4361 32.8445 51.4361H30.4396V47.8079H32.8306C33.4284 47.8079 33.8871 47.9747 34.2208 48.3083C34.5544 48.642 34.7351 49.0868 34.7351 49.629C34.7351 50.185 34.5683 50.616 34.2347 50.9496ZM36.1531 46.7375C35.7777 46.3622 35.319 46.0702 34.7907 45.8478C34.2486 45.6254 33.6508 45.5281 32.9697 45.5281H27.8679V57.4971L27.2284 57.4276L26.3109 58.2895L27.8262 58.6926L27.8679 58.6787V58.6926H30.4396V53.7299H32.9697C33.6508 53.7299 34.2486 53.6187 34.7907 53.4101C35.3329 53.2016 35.7777 52.8958 36.1531 52.5205C36.5284 52.1451 36.8203 51.7003 37.0149 51.2137C37.2096 50.7133 37.3069 50.185 37.3069 49.629C37.3069 49.0729 37.2096 48.5447 37.0149 48.0442C36.8203 47.5438 36.5284 47.1128 36.1531 46.7375Z" fill="#2C2F31"/>
<path d="M70.4747 53.6602C70.4608 54.0773 70.4191 54.4109 70.3774 54.6889C70.3357 54.967 70.2662 55.1755 70.1689 55.3423C70.0854 55.5091 69.9742 55.662 69.8491 55.8011C69.6684 56.0096 69.4321 56.1764 69.154 56.3015C68.876 56.4266 68.5563 56.4961 68.2088 56.4961C67.8473 56.4961 67.5276 56.4266 67.2496 56.3015C66.9715 56.1764 66.7352 56.0096 66.5406 55.8011C66.4155 55.662 66.3182 55.5091 66.2348 55.3423C66.1514 55.1755 66.0958 54.9531 66.0401 54.6889C65.9984 54.4109 65.9567 54.0773 65.9428 53.6602C65.9289 53.2432 65.915 52.7289 65.915 52.1033C65.915 51.4777 65.9289 50.9495 65.9428 50.5463C65.9567 50.1293 65.9984 49.7957 66.0401 49.5176C66.0958 49.2535 66.1514 49.0311 66.2348 48.8643C66.3182 48.6975 66.4155 48.5446 66.5406 48.4055C66.7213 48.197 66.9576 48.0302 67.2496 47.8912C67.5276 47.7661 67.8473 47.6966 68.2088 47.6966C68.5702 47.6966 68.876 47.7661 69.154 47.8912C69.4321 48.0163 69.6684 48.197 69.8491 48.4055C69.9742 48.5446 70.0715 48.6975 70.1689 48.8643C70.2523 49.0311 70.3218 49.2535 70.3774 49.5176C70.433 49.7818 70.4608 50.1293 70.4747 50.5463C70.4886 50.9634 70.5025 51.4777 70.5025 52.1033C70.5025 52.7289 70.5025 53.2571 70.4747 53.6602ZM72.9213 49.1284C72.8379 48.6975 72.7128 48.2943 72.5321 47.919C72.3514 47.5437 72.1011 47.1961 71.7675 46.8625C71.2949 46.3898 70.7805 46.0423 70.2106 45.7921C69.6406 45.5419 68.9733 45.4167 68.2227 45.4167C67.472 45.4167 66.8047 45.5419 66.2209 45.7921C65.637 46.0423 65.1227 46.3898 64.65 46.8625C64.3164 47.1961 64.0662 47.5437 63.8854 47.919C63.7047 48.2943 63.5796 48.6975 63.5101 49.1284C63.4406 49.5593 63.385 50.0181 63.385 50.5185C63.3711 51.019 63.3711 51.5472 63.3711 52.1033C63.3711 52.6733 63.3711 53.2015 63.385 53.688C63.3989 54.1746 63.4406 54.6472 63.5101 55.0782C63.5796 55.5091 63.7047 55.9123 63.8854 56.2876C64.0662 56.6629 64.3164 57.0244 64.65 57.3441C65.1227 57.8167 65.637 58.1643 66.2209 58.4145C66.8047 58.6647 67.4581 58.7898 68.2227 58.7898C68.9733 58.7898 69.6406 58.6647 70.2106 58.4145C70.7805 58.1643 71.3088 57.8167 71.7675 57.3441C72.1011 57.0105 72.3514 56.6629 72.5321 56.2876C72.7128 55.9123 72.8379 55.5091 72.9213 55.0782C73.0047 54.6472 73.0464 54.1885 73.0603 53.688C73.0742 53.2015 73.0742 52.6593 73.0742 52.1033C73.0742 51.5333 73.0742 51.0051 73.0603 50.5185C73.0464 50.0181 73.0047 49.5593 72.9213 49.1284Z" fill="#2C2F31"/>
<path d="M98.9714 47.8079V45.542L98.9992 45.5142L97.484 45.1111L96.9557 45.5142H90.3109V57.4833L89.6992 57.4138L88.7817 58.2757L90.3109 58.6788H92.8687V53.3407H98.0678V51.047H98.0261L96.5387 50.6438L96.0382 51.047H92.8687V47.8079H98.9714Z" fill="#2C2F31"/>
<path d="M84.1808 45.5142H77.5498V57.4833L76.952 57.4138L76.0485 58.2757L77.5498 58.6788H80.1216V53.3407H85.3207V51.0609V51.047H85.279L83.8054 50.6438L83.2911 51.047H80.1216V47.8079H86.2242V45.5142L84.709 45.1111L84.1808 45.5142Z" fill="#2C2F31"/>
<path d="M57.3507 45.1111L56.8364 45.5142H56.3081V53.577L51.0951 45.5281L51.109 45.5142L49.5799 45.1111L49.0655 45.5142H48.8014V45.7227L48.6902 45.8201L48.8014 45.8479V57.4972L48.1063 57.4138L47.2028 58.2757L48.718 58.6788L48.8014 58.6649V58.6788H51.3732V50.6021L55.8494 57.5389L55.057 58.2757L56.5723 58.6788H56.5862H58.8799V45.5142H58.866L57.3507 45.1111Z" fill="#2C2F31"/>
<path d="M42.3662 45.1111L41.8379 45.5142H41.3236V57.4833L40.7119 57.4138L39.7944 58.2757L41.3097 58.6788H41.3236H43.8953V45.5142H43.8814L42.3662 45.1111Z" fill="#2C2F31"/>
<path d="M22.0699 54.3971C22.0699 55.0365 21.9448 55.6065 21.6945 56.093C21.4443 56.5935 21.0968 56.9966 20.6658 57.3441C20.2349 57.6778 19.7205 57.9419 19.1228 58.1226C18.525 58.3033 17.8856 58.3868 17.2044 58.3868C16.2035 58.3868 15.3138 58.2616 14.5353 58.0114C13.7569 57.7612 13.034 57.3024 12.3945 56.6491L14.0627 54.9809C14.4797 55.398 14.9663 55.6899 15.5084 55.8428C16.0506 56.0096 16.6344 56.0791 17.2461 56.0791C18.0107 56.0791 18.5945 55.9401 18.9838 55.6621C19.373 55.3841 19.5676 54.9809 19.5676 54.4527C19.5676 53.9661 19.4286 53.6047 19.1645 53.3406C19.0255 53.2155 18.8726 53.1181 18.7057 53.0486C18.5389 52.9791 18.3026 52.9235 17.9968 52.8679L16.412 52.6455C15.286 52.4787 14.438 52.1172 13.8681 51.5612C13.2425 50.9356 12.9228 50.0737 12.9228 48.9755C12.9228 48.3778 13.034 47.8495 13.2425 47.363C13.451 46.8764 13.7569 46.4594 14.1461 46.1119C14.5353 45.7643 15.0219 45.4863 15.5918 45.2917C16.134 45.0971 16.7735 44.9998 17.4963 44.9998C18.4138 44.9998 19.2062 45.111 19.8874 45.3473C20.5685 45.5836 21.1802 45.9728 21.7501 46.5289L20.1237 48.1415C19.7066 47.7522 19.2618 47.502 18.7892 47.3908C18.3165 47.2796 17.8578 47.2379 17.4268 47.2379C16.7318 47.2379 16.2174 47.4047 15.8977 47.7244C15.564 48.0581 15.3972 48.4473 15.3972 48.8921C15.3972 49.0589 15.425 49.2258 15.4945 49.3926C15.5501 49.5594 15.6613 49.6984 15.7865 49.8374C15.9255 49.9625 16.0923 50.0737 16.3008 50.1572C16.5093 50.2545 16.7457 50.3101 17.0098 50.3518L18.5667 50.5742C19.1645 50.6576 19.6649 50.7827 20.0681 50.9495C20.4573 51.1163 20.8048 51.3249 21.0829 51.589C21.4443 51.9226 21.6945 52.3258 21.8613 52.7845C22.0004 53.2711 22.0699 53.7993 22.0699 54.3971Z" fill="#F79C8F"/>
<path d="M33.2185 49.2259C33.2185 48.6837 33.0516 48.2389 32.7041 47.9053C32.3705 47.5716 31.8978 47.4048 31.314 47.4048H28.909V51.0331H31.314C31.9117 51.0331 32.3705 50.8662 32.7041 50.5326C33.0516 50.2129 33.2185 49.768 33.2185 49.2259ZM35.7902 49.212C35.7902 49.768 35.6929 50.2963 35.4983 50.7967C35.3037 51.2972 35.0117 51.7281 34.6364 52.1035C34.2611 52.4788 33.8023 52.7707 33.2741 52.9931C32.7458 53.2156 32.1342 53.3129 31.453 53.3129H28.9229V58.2618H26.3512V45.1111H31.453C32.1342 45.1111 32.7319 45.2223 33.2741 45.4308C33.8162 45.6532 34.2611 45.9452 34.6364 46.3205C35.0117 46.6958 35.3037 47.1268 35.4983 47.6272C35.6929 48.1277 35.7902 48.6559 35.7902 49.212Z" fill="#F79C8F"/>
<path d="M42.3791 45.1111H39.8074V58.2757H42.3791V45.1111Z" fill="#F79C8F"/>
<path d="M55.0709 58.2757L49.8579 50.199V58.2757H47.2861V45.1111H49.5799L54.7929 53.1739V45.1111H57.3646V58.2757H55.0709Z" fill="#F79C8F"/>
<path d="M68.9877 51.6863C68.9877 51.0607 68.9738 50.5325 68.9599 50.1293C68.946 49.7123 68.9043 49.3787 68.8626 49.1006C68.8209 48.8226 68.7514 48.6141 68.6541 48.4473C68.5707 48.2805 68.4595 48.1275 68.3344 47.9885C68.1536 47.78 67.9173 47.6132 67.6393 47.4742C67.3613 47.3491 67.0415 47.2796 66.694 47.2796C66.3326 47.2796 66.0128 47.3491 65.7348 47.4742C65.4568 47.5993 65.2205 47.78 65.0258 47.9885C64.9007 48.1275 64.8034 48.2805 64.72 48.4473C64.6366 48.6141 64.581 48.8365 64.5254 49.1006C64.4698 49.3648 64.442 49.7123 64.4281 50.1293C64.4142 50.5464 64.4003 51.0607 64.4003 51.6863C64.4003 52.3118 64.4142 52.8401 64.4281 53.2432C64.442 53.6603 64.4837 53.9939 64.5254 54.2719C64.581 54.55 64.6366 54.7585 64.72 54.9253C64.8034 55.0921 64.9007 55.245 65.0258 55.384C65.2066 55.5926 65.4429 55.7594 65.7348 55.8984C66.0128 56.0235 66.3326 56.093 66.694 56.093C67.0554 56.093 67.3752 56.0235 67.6393 55.8984C67.9173 55.7733 68.1536 55.5926 68.3344 55.384C68.4595 55.245 68.5568 55.0921 68.6541 54.9253C68.7375 54.7585 68.807 54.5361 68.8626 54.2719C68.9182 54.0078 68.946 53.6603 68.9599 53.2432C68.9877 52.8401 68.9877 52.3257 68.9877 51.6863ZM71.5595 51.6863C71.5595 52.2562 71.5456 52.7845 71.5456 53.271C71.5317 53.7715 71.49 54.2302 71.4065 54.6612C71.3231 55.0921 71.198 55.4953 71.0173 55.8706C70.8366 56.2459 70.5864 56.6074 70.2527 56.941C69.7801 57.4136 69.2657 57.7612 68.6958 58.0114C68.1258 58.2616 67.4586 58.3867 66.7079 58.3867C65.9572 58.3867 65.29 58.2616 64.7061 58.0114C64.1222 57.7612 63.6079 57.4136 63.1352 56.941C62.8016 56.6074 62.5514 56.2598 62.3707 55.8706C62.19 55.4953 62.0648 55.0921 61.9953 54.6612C61.9258 54.2302 61.8841 53.7715 61.8702 53.271C61.8563 52.7845 61.8563 52.2423 61.8563 51.6863C61.8563 51.1163 61.8563 50.5881 61.8702 50.1015C61.8841 49.615 61.9258 49.1423 61.9953 48.7114C62.0648 48.2805 62.19 47.8773 62.3707 47.502C62.5514 47.1266 62.8016 46.7652 63.1352 46.4316C63.6079 45.9589 64.1222 45.6114 64.7061 45.3612C65.29 45.111 65.9433 44.9858 66.7079 44.9858C67.4586 44.9858 68.1258 45.111 68.6958 45.3612C69.2657 45.6114 69.794 45.9589 70.2527 46.4316C70.5864 46.7652 70.8366 47.1266 71.0173 47.502C71.198 47.8773 71.3231 48.2805 71.4065 48.7114C71.49 49.1423 71.5317 49.6011 71.5456 50.1015C71.5595 50.5881 71.5595 51.1302 71.5595 51.6863Z" fill="#F79C8F"/>
<path d="M78.6071 47.4048V50.6438H83.7923V52.9236H78.6071V58.2757H76.0354V45.1111H84.7098V47.4048H78.6071Z" fill="#F79C8F"/>
<path d="M91.3535 47.4048V50.6438H96.5526V52.9236H91.3535V58.2757H88.7817V45.1111H97.4562V47.4048H91.3535Z" fill="#F79C8F"/>
</g>
<defs>
<clipPath id="clip0">
<rect width="93" height="14.0126" fill="white" transform="translate(6 45)"/>
</clipPath>
</defs>
</svg>
