<svg width="105" height="105" viewBox="0 0 105 105" fill="none" xmlns="http://www.w3.org/2000/svg">
<circle cx="52.5" cy="52.5" r="52.5" fill="white"/>
<path d="M33.2267 85.7998C24.2411 85.7998 16.551 82.5198 16.551 78.716C16.551 74.9123 24.1584 71.6323 33.2267 71.6323C42.295 71.6323 49.9024 74.9123 49.9024 78.716C49.93 82.5198 42.295 85.7998 33.2267 85.7998Z" fill="#ECEFF5"/>
<path d="M33.227 86.351C23.8831 86.351 16 82.8505 16 78.716C16 74.4989 23.7452 71.0811 33.227 71.0811C42.7087 71.0811 50.4539 74.4989 50.4539 78.716C50.4539 82.9332 42.7362 86.351 33.227 86.351ZM33.227 72.156C24.6548 72.156 17.1025 75.2155 17.1025 78.716C17.1025 80.2871 18.7839 81.9134 21.7331 83.1813C24.8202 84.5043 29.0098 85.2485 33.227 85.2485C41.8266 85.2485 49.3514 82.189 49.3514 78.716C49.3514 75.2431 41.8266 72.156 33.227 72.156Z" fill="#ECEFF5"/>
<path d="M33.2267 85.607C24.2411 85.607 16.551 82.327 16.551 78.5233V35.7178H49.8473V78.5233C49.93 82.3821 42.295 85.607 33.2267 85.607Z" fill="#2F80ED"/>
<path d="M32.9526 35.7178H16.3872V78.5233C16.3872 82.2995 24.0222 85.5795 32.9526 85.607V35.7178Z" fill="#277CD8"/>
<path d="M44.9412 49.6647C41.9093 50.9327 37.7748 51.732 33.2545 51.732C28.7341 51.732 24.5445 50.9051 21.5126 49.6096V78.4958C24.5721 79.7912 28.7617 80.6457 33.2545 80.6457C37.7748 80.6457 41.9093 79.8188 44.9412 78.5509V49.6647Z" fill="white"/>
<path d="M32.2626 58.8157H34.7433L40.697 72.487H37.2791L36.1215 69.5653H30.8018L29.6717 72.4594H26.3641L32.2626 58.8157ZM33.4203 62.7848L31.7665 67.0295H35.1016L33.4203 62.7848Z" fill="#2F80ED"/>
<path d="M33.2267 42.7463C24.2411 42.7463 16.551 39.4387 16.551 35.6626C16.551 31.8588 24.1584 28.5513 33.2267 28.5513C42.295 28.5513 49.9024 31.8313 49.9024 35.635C49.93 39.4387 42.295 42.7463 33.2267 42.7463Z" fill="url(#paint0_linear)"/>
<path d="M33.227 43.2975C23.8831 43.2975 16 39.797 16 35.6625C16 31.4454 23.7452 28 33.227 28C42.7087 28 50.4539 31.4178 50.4539 35.635C50.4539 39.8521 42.7362 43.2975 33.227 43.2975ZM33.227 29.1025C24.6548 29.1025 17.1025 32.162 17.1025 35.6625C17.1025 37.2336 18.7839 38.8599 21.7331 40.1278C24.8202 41.4508 29.0098 42.195 33.227 42.195C41.8266 42.195 49.3514 39.1355 49.3514 35.6625C49.3514 32.1896 41.8266 29.1025 33.227 29.1025Z" fill="#ECEFF5"/>
<path d="M37.7751 36.9029L46.7882 36.2689L46.7606 32.9889L38.0783 32.0793C35.4046 31.8037 32.924 32.9613 32.924 34.5049C32.9515 35.9657 35.2117 37.0958 37.7751 36.9029Z" fill="#D7DCE2"/>
<path d="M37.2245 37.6471C35.5431 37.6471 33.9996 37.151 33.0625 36.2965C32.5112 35.7728 32.208 35.1664 32.208 34.5325C32.208 33.8709 32.5112 33.237 33.09 32.6857C34.1926 31.6935 36.1771 31.1698 38.1341 31.3903L47.4504 32.355L47.478 36.958L37.8033 37.6195C37.6104 37.6195 37.4174 37.6471 37.2245 37.6471ZM37.2796 32.7409C35.8188 32.7409 34.6611 33.2094 34.0823 33.7331C33.8067 33.9812 33.6689 34.2568 33.6689 34.5049C33.6689 34.753 33.8067 35.001 34.0547 35.2491C34.7714 35.9106 36.2598 36.2965 37.7206 36.2138L46.0723 35.635V33.6504L38.0238 32.796C37.7758 32.7684 37.5277 32.7409 37.2796 32.7409Z" fill="url(#paint1_linear)"/>
<path d="M73.5138 85.7998C64.5282 85.7998 56.8381 82.5198 56.8381 78.716C56.8381 74.9123 64.4456 71.6323 73.5138 71.6323C82.5821 71.6323 90.1895 74.9123 90.1895 78.716C90.2171 82.5198 82.5821 85.7998 73.5138 85.7998Z" fill="#ECEFF5"/>
<path d="M73.5141 86.351C64.1702 86.351 56.2871 82.8505 56.2871 78.716C56.2871 74.4989 64.0323 71.0811 73.5141 71.0811C82.9958 71.0811 90.741 74.4989 90.741 78.716C90.741 82.9332 83.0233 86.351 73.5141 86.351ZM73.5141 72.156C64.9419 72.156 57.3896 75.2155 57.3896 78.716C57.3896 80.2871 59.071 81.9134 62.0202 83.1813C65.1073 84.5043 69.2969 85.2485 73.5141 85.2485C82.1138 85.2485 89.6385 82.189 89.6385 78.716C89.6385 75.2431 82.1138 72.156 73.5141 72.156Z" fill="#ECEFF5"/>
<path d="M73.5141 85.607C64.5285 85.607 56.8384 82.327 56.8384 78.5233V35.7178H90.1346V78.5233C90.2173 82.3821 82.5823 85.607 73.5141 85.607Z" fill="#8DD800"/>
<path d="M73.5138 42.7463C64.5282 42.7463 56.8381 39.4387 56.8381 35.6626C56.8381 31.8588 64.4456 28.5513 73.5138 28.5513C82.5821 28.5513 90.1895 31.8313 90.1895 35.635C90.2171 39.4387 82.5821 42.7463 73.5138 42.7463Z" fill="#ECEFF5"/>
<path d="M73.4036 35.7178H56.8381V78.5233C56.8381 82.2995 64.4731 85.5795 73.4036 85.607V35.7178Z" fill="#8DCC02"/>
<path d="M85.2301 49.6647C82.1981 50.9327 78.0636 51.732 73.5433 51.732C69.0229 51.732 64.8333 50.9051 61.8014 49.6096V78.4958C64.8609 79.7912 69.0505 80.6457 73.5433 80.6457C78.0636 80.6457 82.1981 79.8188 85.2301 78.5509V49.6647Z" fill="white"/>
<path d="M68.0306 58.8154H73.1298C73.7086 58.8154 74.315 58.8706 74.9214 58.9532C75.5278 59.0359 76.0515 59.2013 76.5201 59.4494C76.9887 59.6975 77.3745 60.0558 77.6777 60.4968C77.9809 60.9378 78.1187 61.5442 78.1187 62.2884C78.1187 63.0602 77.8982 63.6941 77.4848 64.2178C77.0438 64.7139 76.4925 65.0998 75.7759 65.3203V65.3479C76.2169 65.403 76.6303 65.5408 76.9887 65.7338C77.347 65.9267 77.6777 66.1472 77.9258 66.4504C78.2014 66.726 78.3944 67.0844 78.5322 67.4703C78.67 67.8561 78.7527 68.2696 78.7527 68.7106C78.7527 69.4272 78.5873 70.0336 78.2841 70.5022C77.9809 70.9708 77.5675 71.3842 77.0989 71.6598C76.6028 71.963 76.0515 72.156 75.4451 72.2938C74.8387 72.4316 74.2323 72.4867 73.626 72.4867H68.0306V58.8154ZM71.0626 64.2729H73.2401C73.4606 64.2729 73.7086 64.2454 73.9291 64.1902C74.1497 64.1351 74.3702 64.0524 74.5355 63.9422C74.7009 63.8319 74.8663 63.6665 74.9765 63.4736C75.0868 63.2807 75.1419 63.0601 75.1419 62.7845C75.1419 62.5089 75.0868 62.2608 74.949 62.0679C74.8387 61.8749 74.6734 61.7371 74.4804 61.6269C74.2875 61.5166 74.067 61.4615 73.8189 61.4064C73.5708 61.3512 73.3228 61.3512 73.1023 61.3512H71.0626V64.2729ZM71.0626 69.9234H73.7638C73.9843 69.9234 74.2323 69.8958 74.4804 69.8407C74.7285 69.7856 74.9214 69.7029 75.1144 69.565C75.3073 69.4272 75.4727 69.2619 75.5829 69.0689C75.6932 68.876 75.7759 68.6003 75.7759 68.3247C75.7759 67.994 75.6932 67.7459 75.5278 67.5529C75.3624 67.36 75.1695 67.1946 74.9214 67.1119C74.6734 67.0017 74.4253 66.9466 74.1221 66.8914C73.8465 66.8639 73.5708 66.8363 73.3228 66.8363H71.035V69.9234H71.0626Z" fill="#8DD800"/>
<path d="M73.5139 42.7463C64.5284 42.7463 56.8383 39.4387 56.8383 35.6626C56.8383 31.8588 64.4457 28.5513 73.5139 28.5513C82.5822 28.5513 90.1896 31.8313 90.1896 35.635C90.2172 39.4387 82.5822 42.7463 73.5139 42.7463Z" fill="url(#paint2_linear)"/>
<path d="M73.5142 43.2975C64.1703 43.2975 56.2872 39.797 56.2872 35.6625C56.2872 31.4454 64.0325 28 73.5142 28C82.9959 28 90.7411 31.4178 90.7411 35.635C90.7411 39.8521 83.0235 43.2975 73.5142 43.2975ZM73.5142 29.1025C64.9421 29.1025 57.3898 32.162 57.3898 35.6625C57.3898 37.2336 59.0711 38.8599 62.0204 40.1278C65.1074 41.4508 69.297 42.195 73.5142 42.195C82.1139 42.195 89.6386 39.1355 89.6386 35.6625C89.6386 32.1896 82.1139 29.1025 73.5142 29.1025Z" fill="#ECEFF5"/>
<path d="M78.8882 36.9029L87.9014 36.2689L87.8738 32.9889L79.219 32.0793C76.5454 31.8037 74.0647 32.9613 74.0647 34.5049C74.0647 35.9657 76.3249 37.0958 78.8882 36.9029Z" fill="#D7DCE2"/>
<path d="M78.3644 37.6471C76.683 37.6471 75.1395 37.151 74.2024 36.2965C73.6511 35.7728 73.3479 35.1664 73.3479 34.5325C73.3479 33.8709 73.6511 33.237 74.2299 32.6857C75.3324 31.6935 77.317 31.1698 79.274 31.3903L88.5903 32.355L88.6179 36.958L78.9432 37.6195C78.7503 37.6195 78.5573 37.6471 78.3644 37.6471ZM78.392 32.7409C76.9311 32.7409 75.7735 33.2094 75.1946 33.7331C74.919 33.9812 74.7812 34.2568 74.7812 34.5049C74.7812 34.753 74.919 35.001 75.1671 35.2491C75.8837 35.9106 77.3721 36.2965 78.833 36.2138L87.1846 35.635V33.6504L79.1362 32.796C78.8881 32.7684 78.64 32.7409 78.392 32.7409Z" fill="url(#paint3_linear)"/>
<path d="M29 21.5L34 26L45 13" stroke="#8DD800" stroke-width="5"/>
<defs>
<linearGradient id="paint0_linear" x1="16.551" y1="35.6488" x2="49.9232" y2="35.6488" gradientUnits="userSpaceOnUse">
<stop stop-color="#C7C7C7"/>
<stop offset="0.3206" stop-color="#ECEFF5"/>
</linearGradient>
<linearGradient id="paint1_linear" x1="39.8746" y1="37.624" x2="39.8374" y2="31.3087" gradientUnits="userSpaceOnUse">
<stop stop-color="#C7C7C7"/>
<stop offset="0.3206" stop-color="#ECEFF5"/>
</linearGradient>
<linearGradient id="paint2_linear" x1="56.8382" y1="35.6488" x2="90.2104" y2="35.6488" gradientUnits="userSpaceOnUse">
<stop stop-color="#C7C7C7"/>
<stop offset="0.3206" stop-color="#ECEFF5"/>
</linearGradient>
<linearGradient id="paint3_linear" x1="80.9986" y1="37.6239" x2="80.9614" y2="31.3084" gradientUnits="userSpaceOnUse">
<stop stop-color="#C7C7C7"/>
<stop offset="0.3206" stop-color="#ECEFF5"/>
</linearGradient>
</defs>
</svg>
