<svg width="98" height="25" viewBox="0 0 98 25" fill="none" xmlns="http://www.w3.org/2000/svg">
<g opacity="0.8">
<path d="M12.0129 0C5.37758 0 0 5.38848 0 12.0328C0 18.6816 5.37758 24.0657 12.0129 24.0657C18.6482 24.0657 24.0214 18.6772 24.0214 12.0328C24.0214 5.38848 18.6438 0 12.0129 0ZM12.1062 18.7485C8.80857 18.7618 5.37314 15.9384 5.35981 11.4049C5.35092 8.40785 6.96419 5.5221 9.02634 3.81202C11.0396 2.14648 13.7951 1.07318 16.2927 1.06427C16.6127 1.06427 16.9505 1.09105 17.1594 1.1623C14.9728 1.61654 13.2351 3.65611 13.244 5.96292C13.244 6.03863 13.2484 6.12326 13.2573 6.15889C16.9149 7.05401 18.5727 9.26287 18.586 12.3223C18.5904 15.3817 16.1816 18.7351 12.1062 18.7485Z" fill="white"/>
<path d="M31.7767 17.0209L28.1057 8.23901H30.5056L32.7944 14.0683L35.0121 8.23901H37.3009L33.7366 17.0209H31.7767Z" fill="white"/>
<path d="M43.6961 12.5856C43.6961 12.2204 43.6561 11.8731 43.5672 11.5435C43.4828 11.214 43.3539 10.929 43.185 10.6929C43.0161 10.4525 42.8117 10.2654 42.5673 10.1273C42.3228 9.98482 42.0384 9.91362 41.714 9.91362C41.3895 9.91362 41.1006 9.98482 40.8607 10.1273C40.6162 10.2654 40.4118 10.4525 40.2429 10.6929C40.074 10.929 39.9451 11.214 39.8607 11.5435C39.7763 11.8731 39.7318 12.2204 39.7318 12.5856C39.7318 12.9641 39.7718 13.3159 39.8607 13.6366C39.9451 13.9572 40.0696 14.2422 40.2296 14.4871C40.394 14.7321 40.5984 14.9236 40.8518 15.0661C41.1006 15.2041 41.3895 15.2754 41.714 15.2754C42.0384 15.2754 42.3273 15.2041 42.5673 15.0661C42.8117 14.9236 43.0161 14.7321 43.185 14.4871C43.3539 14.2422 43.4828 13.9617 43.5672 13.6366C43.6517 13.3159 43.6961 12.9641 43.6961 12.5856ZM45.9138 12.5945C45.9138 13.169 45.8249 13.7301 45.6516 14.2823C45.4738 14.8345 45.2161 15.3289 44.8694 15.7653C44.5272 16.2017 44.0872 16.5535 43.5628 16.8207C43.0339 17.0879 42.4206 17.2215 41.7184 17.2215C41.0162 17.2215 40.3985 17.0879 39.874 16.8207C39.3452 16.5535 38.9096 16.2017 38.563 15.7653C38.2208 15.3289 37.9585 14.8345 37.7808 14.2823C37.6074 13.7301 37.5186 13.169 37.5186 12.5945C37.5186 12.0245 37.6074 11.4678 37.7808 10.92C37.9585 10.3723 38.2163 9.88686 38.563 9.45489C38.9096 9.02292 39.3452 8.68006 39.874 8.41732C40.3985 8.15457 41.0162 8.02539 41.7184 8.02539C42.4206 8.02539 43.0339 8.15902 43.5539 8.41732C44.0739 8.68006 44.5094 9.02292 44.8605 9.45489C45.2116 9.88686 45.4783 10.3767 45.6516 10.92C45.8249 11.4678 45.9138 12.0245 45.9138 12.5945Z" fill="white"/>
<path d="M52.6871 10.171C52.2516 10.0018 51.8471 9.91279 51.4738 9.91279C51.0916 9.91279 50.7583 9.9885 50.4827 10.1355C50.2028 10.2824 49.9761 10.4783 49.7939 10.7277C49.6117 10.9771 49.4783 11.2577 49.3895 11.5694C49.3006 11.8811 49.2517 12.2018 49.2517 12.5269C49.2517 12.892 49.2917 13.2394 49.3717 13.5778C49.4472 13.9118 49.5717 14.2058 49.7317 14.4552C49.8917 14.7046 50.0961 14.9049 50.345 15.0608C50.5939 15.2122 50.8872 15.2879 51.2249 15.2879C51.5049 15.2879 51.7849 15.2122 52.0738 15.0608C52.3627 14.9094 52.5671 14.7268 52.6916 14.522L52.6871 10.171ZM52.8649 17.0203L52.776 16.3478C52.5716 16.5794 52.3005 16.7798 51.9582 16.9579C51.6205 17.136 51.2205 17.2251 50.7627 17.2251C50.1583 17.2251 49.625 17.096 49.1717 16.8421C48.7095 16.5883 48.3228 16.2454 48.0117 15.8223C47.6962 15.3992 47.4562 14.905 47.2962 14.3438C47.1362 13.7872 47.0518 13.2038 47.0518 12.5937C47.0518 12.0236 47.1362 11.4625 47.3051 10.9192C47.474 10.3715 47.7317 9.88604 48.0739 9.45407C48.4206 9.02209 48.8517 8.67924 49.3717 8.41649C49.8917 8.15375 50.5005 8.02457 51.2027 8.02457C51.6605 8.02457 52.1582 8.10915 52.6916 8.27837V4.87158H54.9448V17.0203H52.8649V17.0203Z" fill="white"/>
<path d="M61.2821 12.9018C61.0377 12.9151 60.7888 12.9374 60.531 12.9641C60.2732 12.9953 60.0332 13.0354 59.8021 13.0843C59.3133 13.1823 58.9755 13.3471 58.7844 13.5832C58.5977 13.8236 58.5 14.0774 58.5 14.358C58.5 14.6474 58.6066 14.8835 58.82 15.0572C59.0333 15.2309 59.3355 15.32 59.7266 15.32C60.0199 15.32 60.3044 15.262 60.5799 15.1373C60.8554 15.0171 61.091 14.8612 61.2821 14.6831V12.9018ZM61.4643 17.0167L61.3754 16.362C61.131 16.6336 60.8199 16.843 60.4421 16.9944C60.0644 17.1458 59.651 17.2259 59.2022 17.2259C58.8244 17.2259 58.46 17.1636 58.1178 17.0345C57.7711 16.9098 57.4645 16.7227 57.1934 16.4867C56.9267 16.2507 56.7089 15.9612 56.5489 15.6139C56.3845 15.2665 56.3 14.8746 56.3 14.4382C56.3 14.0017 56.3845 13.6143 56.5578 13.2803C56.7267 12.9463 56.9578 12.6657 57.2511 12.4342C57.5444 12.2026 57.8778 12.0156 58.2555 11.8686C58.6289 11.7217 59.0288 11.6103 59.4422 11.5391C59.7355 11.4812 60.0555 11.4367 60.3977 11.4055C60.7443 11.3743 61.0332 11.3475 61.2643 11.3253V11.1961C61.2643 10.7107 61.1399 10.3634 60.891 10.1585C60.6421 9.9537 60.2955 9.84682 59.8599 9.84682C59.6022 9.84682 59.3577 9.87797 59.1266 9.94032C58.8955 9.99821 58.6911 10.0739 58.5044 10.1674C58.3222 10.2609 58.1622 10.3501 58.02 10.4436C57.8822 10.5326 57.7667 10.6173 57.6822 10.6885L56.9356 9.10306C57.0334 9.01845 57.18 8.91609 57.38 8.79585C57.58 8.67561 57.82 8.55537 58.1089 8.43958C58.3933 8.3238 58.7133 8.22576 59.0688 8.1456C59.4244 8.06544 59.811 8.02539 60.2244 8.02539C60.7088 8.02539 61.1532 8.08777 61.5532 8.21692C61.9532 8.34606 62.2998 8.54201 62.5887 8.81812C62.8776 9.08977 63.1042 9.43708 63.2687 9.85569C63.4331 10.2743 63.5131 10.782 63.5131 11.3743V17.0167H61.4643V17.0167Z" fill="white"/>
<path d="M70.4864 6.87612C70.4152 6.84049 70.273 6.78705 70.0597 6.72025C69.8464 6.65345 69.5664 6.62231 69.2108 6.62231C68.8953 6.62231 68.6331 6.71585 68.4198 6.90734C68.2064 7.09438 68.1042 7.40162 68.1042 7.82914V8.24777H69.9975V10.0692H68.122V17.0297H65.8687V10.0692H64.7043V8.24777H65.8687V7.77574C65.8687 7.20571 65.9399 6.72475 66.0865 6.32841C66.2332 5.93652 66.4332 5.61144 66.6954 5.36651C66.9576 5.11712 67.2643 4.9345 67.6154 4.81872C67.9665 4.70293 68.3487 4.64502 68.762 4.64502C69.3086 4.64502 69.7575 4.69401 70.113 4.80089C70.4686 4.90331 70.6819 4.97462 70.7397 5.01024L70.4864 6.87612Z" fill="white"/>
<path d="M76.6327 12.5856C76.6327 12.2204 76.5882 11.8731 76.5038 11.5435C76.4194 11.214 76.2905 10.929 76.1216 10.6929C75.9527 10.4525 75.7483 10.2654 75.5038 10.1273C75.2594 9.98482 74.975 9.91362 74.6505 9.91362C74.3261 9.91362 74.0372 9.98482 73.7972 10.1273C73.5528 10.2654 73.3484 10.4525 73.175 10.6929C73.0061 10.929 72.8773 11.214 72.7928 11.5435C72.7084 11.8731 72.6684 12.2204 72.6684 12.5856C72.6684 12.9641 72.7084 13.3159 72.7928 13.6366C72.8773 13.9572 73.0017 14.2422 73.1661 14.4871C73.3306 14.7321 73.535 14.9236 73.7839 15.0661C74.0328 15.2041 74.3217 15.2754 74.6505 15.2754C74.975 15.2754 75.2638 15.2041 75.5038 15.0661C75.7483 14.9236 75.9527 14.7321 76.1216 14.4871C76.2905 14.2422 76.4194 13.9617 76.5038 13.6366C76.5882 13.3159 76.6327 12.9641 76.6327 12.5856ZM78.8504 12.5945C78.8504 13.169 78.7615 13.7301 78.5837 14.2823C78.4104 14.8345 78.1482 15.3289 77.8015 15.7653C77.4593 16.2017 77.0193 16.5535 76.4949 16.8207C75.966 17.0879 75.3527 17.2215 74.6505 17.2215C73.9483 17.2215 73.3306 17.0879 72.8062 16.8207C72.2773 16.5535 71.8417 16.2017 71.4951 15.7653C71.1529 15.3289 70.8907 14.8345 70.7129 14.2823C70.5351 13.7301 70.4507 13.169 70.4507 12.5945C70.4507 12.0245 70.5351 11.4678 70.7129 10.92C70.8907 10.3723 71.1484 9.88686 71.4951 9.45489C71.8417 9.02292 72.2773 8.68006 72.8062 8.41732C73.3306 8.15457 73.9483 8.02539 74.6505 8.02539C75.3527 8.02539 75.966 8.15902 76.486 8.41732C77.006 8.68006 77.4415 9.02292 77.7926 9.45489C78.1437 9.88686 78.4104 10.3767 78.5837 10.92C78.7615 11.4678 78.8504 12.0245 78.8504 12.5945Z" fill="white"/>
<path d="M85.8456 17.0209V12.0109C85.8456 11.3429 85.7079 10.8263 85.4279 10.4611C85.1479 10.1004 84.7612 9.91341 84.2635 9.91341C83.9124 9.91341 83.5879 10.0024 83.2946 10.1895C82.9969 10.3721 82.7391 10.5725 82.5213 10.7907V17.0209H80.2681V8.23898H82.3213L82.428 8.92925C82.7791 8.63978 83.1746 8.41259 83.6191 8.25673C84.059 8.09641 84.5079 8.02075 84.9523 8.02075C85.4145 8.02075 85.8368 8.08752 86.2234 8.23002C86.6101 8.37253 86.9434 8.59076 87.2234 8.89359C87.5034 9.19641 87.7167 9.59274 87.8678 10.0782C88.0189 10.5636 88.0944 11.147 88.0944 11.8283V17.0209H85.8456V17.0209Z" fill="white"/>
<path d="M95.1123 11.5744C95.0901 11.2716 95.0234 11.0045 94.9212 10.7818C94.819 10.5547 94.6901 10.3765 94.539 10.234C94.3879 10.0915 94.2234 9.98908 94.0457 9.92228C93.8679 9.85548 93.6901 9.82435 93.5035 9.82435C93.1124 9.82435 92.7435 9.97125 92.388 10.2607C92.0369 10.5546 91.828 10.9866 91.7658 11.57H95.1123V11.5744ZM91.7169 13.1955C91.7658 13.9347 91.9969 14.4691 92.4102 14.7987C92.8235 15.1238 93.3613 15.293 94.0146 15.293C94.3212 15.293 94.6057 15.2663 94.8723 15.2129C95.139 15.1594 95.379 15.0881 95.5834 15.0035C95.7923 14.9189 95.9656 14.8343 96.1123 14.7497C96.2589 14.6651 96.3656 14.5849 96.4411 14.5092L97.0411 16.3529C96.9567 16.4108 96.8189 16.4954 96.6322 16.5978C96.4456 16.7003 96.21 16.7982 95.9345 16.8917C95.6545 16.9808 95.3256 17.061 94.9523 17.1278C94.579 17.1946 94.1657 17.2257 93.7168 17.2257C93.1435 17.2257 92.6057 17.1367 92.0902 16.9541C91.5747 16.7715 91.1258 16.4865 90.7391 16.1035C90.3525 15.7205 90.0414 15.2441 89.8103 14.674C89.5792 14.104 89.4636 13.4226 89.4636 12.6344C89.4636 11.8951 89.5703 11.2361 89.7792 10.666C89.9925 10.096 90.2814 9.61502 90.6503 9.22758C91.0191 8.84015 91.4502 8.54179 91.9391 8.33248C92.4324 8.12763 92.9524 8.02075 93.5124 8.02075C94.0723 8.02075 94.5834 8.11424 95.059 8.29682C95.5301 8.47941 95.9389 8.75997 96.2856 9.14295C96.6278 9.52594 96.9034 10.0203 97.1033 10.6304C97.3033 11.236 97.4056 11.9574 97.4056 12.7991V13.1999H91.7169V13.1955Z" fill="white"/>
</g>
</svg>
